<?xml version="1.0" standalone="no"?>
<!DOCTYPE svg PUBLIC "-//W3C//DTD SVG 1.1//EN" "http://www.w3.org/Graphics/SVG/1.1/DTD/svg11.dtd" >
<svg xmlns="http://www.w3.org/2000/svg" xmlns:xlink="http://www.w3.org/1999/xlink" version="1.1">
<metadata>
Created by FontForge 20161003 at Wed Jan 11 21:15:33 2017
 By www-data
This is a Bold Monday webfont. For licensing information visit www.boldmonday.com
</metadata>
<defs>
<font id="hAxDPvXQWcjPvsIUAZWSTgl" horiz-adv-x="0" >
  <font-face 
    font-family="hAxDPvXQWcjPvsIUAZWSTgl"
    font-weight="500"
    font-stretch="normal"
    units-per-em="2048"
    panose-1="2 0 6 6 4 0 0 4 0 3"
    ascent="1617"
    descent="-431"
    x-height="1000"
    cap-height="1300"
    bbox="-356 -500 1774 1876"
    underline-thickness="140"
    underline-position="-230"
    unicode-range="U+000D-FB02"
  />
<missing-glyph horiz-adv-x="1100" 
d="M150 1500h800v-2000h-800v2000zM210 -364l306 868l-306 860v-1728zM246 -440h606l-304 856zM552 584l300 856h-606zM890 -364v1728l-306 -870z" />
    <glyph glyph-name="fi" unicode="fi" horiz-adv-x="1034" 
d="M44 934h148v108q0 82 21 133t57 78.5t83 37t99 9.5h102v-146h-56q-36 0 -61 -5t-40 -19t-22 -39t-7 -65v-92h186v-146h-186v-788h-176v788h-148v146zM812 1104q-112 0 -112 102q0 104 112 104t112 -104q0 -102 -112 -102zM724 1000h176v-1000h-176v1000z" />
    <glyph glyph-name="fl" unicode="fl" horiz-adv-x="1078" 
d="M44 934h148v108q0 82 21 133t57 78.5t83 37t99 9.5h102v-146h-56q-36 0 -61 -5t-40 -19t-22 -39t-7 -65v-92h186v-146h-186v-788h-176v788h-148v146zM968 -8q-52 0 -97 9.5t-78 35t-52 70t-19 115.5v1078h176v-1048q0 -29 4.5 -50.5t16.5 -35t33.5 -20t55.5 -6.5h36v-148
h-76v0z" />
    <glyph glyph-name=".notdef" horiz-adv-x="1100" 
d="M150 1500h800v-2000h-800v2000zM210 -364l306 868l-306 860v-1728zM246 -440h606l-304 856zM552 584l300 856h-606zM890 -364v1728l-306 -870z" />
    <glyph glyph-name=".null" 
 />
    <glyph glyph-name=".null" 
 />
    <glyph glyph-name="uni000D" unicode="&#xd;" horiz-adv-x="400" 
 />
    <glyph glyph-name="space" unicode=" " horiz-adv-x="400" 
 />
    <glyph glyph-name="numbersign" unicode="#" horiz-adv-x="1030" 
d="M652 378h-274v-378h-164v378h-142v138h142v282h-142v140h142v362h164v-362h274v362h164v-362h142v-140h-142v-282h142v-138h-142v-378h-164v378zM378 516h274v282h-274v-282z" />
    <glyph glyph-name="dollar" unicode="$" horiz-adv-x="784" 
d="M292 -24q-74 3 -126.5 17t-79.5 31v170q38 -21 94.5 -37.5t127.5 -16.5q46 0 84 9.5t64.5 30t41 53t14.5 79.5q0 40 -9.5 71t-27.5 58t-43.5 51.5t-57.5 51.5l-104 90q-43 37 -77.5 72t-58.5 75.5t-37 89t-13 111.5q0 61 16.5 114t48 95t78.5 72t109 45v192h154v-176
q29 -2 57 -6.5t52 -10.5t43.5 -14t31.5 -15v-168q-30 18 -82 34t-112 16q-47 0 -84.5 -9.5t-64 -30t-41 -53.5t-14.5 -79q0 -40 9.5 -70.5t27.5 -57.5t43.5 -51.5t57.5 -52.5l104 -90q43 -37 77.5 -72t58.5 -75.5t37 -89t13 -111.5q0 -125 -66 -211.5t-190 -116.5v-190h-156
v176z" />
    <glyph glyph-name="percent" unicode="%" horiz-adv-x="1126" 
d="M308 734q-60 0 -104 16.5t-73 52t-43 91.5t-14 136q0 153 57.5 223.5t176.5 70.5q59 0 103 -16.5t73 -52t43.5 -91t14.5 -134.5q0 -154 -57.5 -225t-176.5 -71zM308 860q28 0 46 9.5t28.5 30t15 52.5t4.5 78q0 90 -19.5 130t-74.5 40q-28 0 -46 -9.5t-28.5 -30.5t-15 -53
t-4.5 -77q0 -46 4.5 -78t15 -52.5t28.5 -30t46 -9.5zM820 -24q-60 0 -104.5 16.5t-73.5 52t-43.5 91t-14.5 134.5q0 154 58.5 225t177.5 71q118 0 176 -68.5t58 -227.5q0 -152 -58 -223t-176 -71zM820 100q28 0 45.5 9.5t28 30.5t14.5 53t4 77q0 91 -18.5 131.5t-73.5 40.5
q-28 0 -46 -9.5t-28.5 -30.5t-15 -53.5t-4.5 -78.5q0 -45 4.5 -77t15 -53t28.5 -30.5t46 -9.5zM880 1300h152l-784 -1300h-152z" />
    <glyph glyph-name="ampersand" unicode="&#x26;" horiz-adv-x="976" 
d="M508 0q-96 0 -175.5 16t-136.5 56.5t-88.5 109.5t-31.5 176q0 64 13.5 114.5t38 88t58 64t74.5 43.5q-32 19 -58.5 45t-45.5 61.5t-29.5 81t-10.5 102.5q0 80 24.5 147.5t75 116t126.5 75.5t180 27q71 0 135 -14.5t105 -37.5v-166q-17 10 -41 20t-52.5 18t-61 13t-65.5 5
q-66 0 -112 -13.5t-74.5 -40.5t-41 -68.5t-12.5 -97.5q0 -73 21 -114.5t57.5 -62.5t86.5 -26t109 -5h380v-148h-138v-586h-310zM260 368q0 -73 19 -116t53 -65.5t80.5 -29.5t101.5 -7h120v436h-116q-55 0 -102 -7t-81.5 -30t-54.5 -66t-20 -115z" />
    <glyph glyph-name="quotesingle" unicode="'" horiz-adv-x="336" 
d="M112 836q-9 58 -17.5 114t-15.5 105.5t-11 89.5t-4 67q0 51 25.5 80.5t78.5 29.5q51 0 77.5 -29.5t26.5 -80.5q0 -27 -4 -67t-11 -89.5t-15.5 -105.5t-17.5 -114h-112v0z" />
    <glyph glyph-name="parenleft" unicode="(" horiz-adv-x="590" 
d="M544 -300q-86 0 -151 7t-112 32.5t-78 77t-49.5 140t-26 221.5t-7.5 322t8 322t27.5 221.5t51.5 140t79 77t110.5 32.5t147.5 7v-140q-55 0 -95.5 -5.5t-68 -26.5t-44.5 -63t-26.5 -115.5t-12.5 -183.5t-3 -266t3 -266t12.5 -183.5t26.5 -115.5t44.5 -63t67.5 -26.5
t96 -5.5v-140v0z" />
    <glyph glyph-name="parenright" unicode=")" horiz-adv-x="590" 
d="M46 -160q56 0 96.5 5.5t68 26.5t44.5 63t26 115.5t12 183t3 266.5q0 156 -3 266t-12 183.5t-26 115.5t-44.5 63t-68 26.5t-96.5 5.5v140q86 0 151 -7t112 -32.5t78 -77t49.5 -140t26 -221.5t7.5 -322t-8 -322t-27.5 -221.5t-51.5 -140t-79 -77t-111 -32.5t-147 -7v140z
" />
    <glyph glyph-name="asterisk" unicode="*" horiz-adv-x="744" 
d="M132 770l138 182l-220 66l44 130l216 -76l-6 228h136l-6 -228l218 76l42 -130l-220 -66l138 -182l-110 -80l-130 190l-130 -190z" />
    <glyph glyph-name="plus" unicode="+" horiz-adv-x="912" 
d="M90 730h284v290h166v-290h282v-152h-282v-292h-166v292h-284v152z" />
    <glyph glyph-name="comma" unicode="," horiz-adv-x="324" 
d="M54 -292q15 57 22.5 103.5t7.5 78.5q0 34 -4.5 61.5t-10.5 50t-10.5 43t-4.5 41.5q0 50 27.5 80t80.5 30q54 0 81 -32t27 -86q0 -23 -5 -61t-15.5 -86.5t-27.5 -105t-40 -117.5h-128v0z" />
    <glyph glyph-name="hyphen" unicode="-" horiz-adv-x="644" 
d="M90 740h464v-174h-464v174z" />
    <glyph glyph-name="period" unicode="." horiz-adv-x="324" 
d="M162 -22q-51 0 -79.5 28.5t-28.5 79.5t28.5 80.5t79.5 29.5t79.5 -29.5t28.5 -80.5t-28.5 -79.5t-79.5 -28.5z" />
    <glyph glyph-name="slash" unicode="/" horiz-adv-x="506" 
d="M342 1300h164l-414 -1600h-166z" />
    <glyph glyph-name="zero" unicode="0" horiz-adv-x="1006" 
d="M502 -24q-69 0 -125.5 12t-100.5 41.5t-76.5 79t-53.5 124t-31.5 177.5t-10.5 240q0 202 24 332.5t73.5 206.5t124.5 105.5t176 29.5q104 0 179.5 -29t124.5 -104t72.5 -206t23.5 -335q0 -135 -10.5 -237.5t-32.5 -177.5t-55 -124.5t-77.5 -79.5t-100.5 -42.5t-124 -12.5
zM502 136q63 0 103.5 23t64.5 81t33 157.5t9 252.5t-9 252.5t-33 157.5t-64.5 81t-103.5 23t-103.5 -23t-63.5 -81t-32 -157.5t-9 -252.5t9 -252.5t32 -157.5t63.5 -81t103.5 -23z" />
    <glyph glyph-name="one" unicode="1" horiz-adv-x="606" 
d="M268 1110l-218 -70v162l278 98h124v-1300h-184v1110z" />
    <glyph glyph-name="two" unicode="2" horiz-adv-x="876" 
d="M80 120q0 106 18.5 182t51.5 131.5t79.5 95.5t102.5 73q55 32 101 61t78.5 65t50.5 84t18 118q0 58 -12 101t-39 71.5t-70.5 43t-106.5 14.5q-40 0 -75 -6t-64 -15t-52 -19t-39 -18v170q41 21 108 36.5t144 15.5q111 0 186.5 -30.5t121.5 -83t66 -122t20 -146.5
q0 -102 -26.5 -173.5t-70.5 -124t-102 -92t-121 -76.5q-47 -27 -80.5 -54t-56 -62.5t-34 -84.5t-13.5 -119h512v-156h-696v120z" />
    <glyph glyph-name="three" unicode="3" horiz-adv-x="894" 
d="M350 -24q-41 0 -79 4.5t-71.5 12t-61 16.5t-46.5 19v170q13 -8 37 -18t55 -19t68 -15t78 -6q65 0 116 12t86 39t53.5 69.5t18.5 103.5q0 78 -30.5 130.5t-82.5 84.5t-121 47t-146 18v106l308 394h-434v156h672v-128l-318 -402q76 -16 138.5 -48.5t107.5 -83.5t69.5 -121
t24.5 -161t-29 -161.5t-85 -119t-138.5 -74t-189.5 -25.5z" />
    <glyph glyph-name="four" unicode="4" horiz-adv-x="930" 
d="M50 398l482 902h198l-472 -878h316v300h184v-300h150v-154h-150v-268h-184v268h-524v130z" />
    <glyph glyph-name="five" unicode="5" horiz-adv-x="880" 
d="M344 -24q-92 0 -156 16t-102 36v170q13 -8 36.5 -18t54.5 -19t67.5 -15t77.5 -6q66 0 117.5 12t86.5 39t53.5 69.5t18.5 103.5q0 85 -37 140.5t-100.5 89t-148.5 49t-182 21.5l22 636h590v-156h-414l-16 -336q113 -16 201.5 -49.5t149 -88.5t92 -133t31.5 -181
q0 -91 -29 -161.5t-85 -119t-138.5 -74t-189.5 -25.5z" />
    <glyph glyph-name="six" unicode="6" horiz-adv-x="966" 
d="M496 -24q-124 0 -200.5 44.5t-119 129.5t-57.5 209t-15 283q0 164 27.5 291t85 214t146.5 132t211 45q35 0 69.5 -4.5t65 -12t55.5 -16.5t42 -19v-168q-17 10 -42 20t-53.5 18t-59.5 13t-61 5q-146 0 -218.5 -101t-79.5 -311q39 30 98.5 53t137.5 23q102 0 170.5 -30.5
t110.5 -85.5t59.5 -131.5t17.5 -168.5q0 -46 -6.5 -96t-23 -98t-44.5 -91t-71.5 -76t-104 -52t-140.5 -19zM498 664q-66 0 -118 -21t-88 -47q1 -122 10 -209.5t32 -143t62 -81.5t100 -26q62 0 101.5 22t62 58.5t30.5 84t8 99.5q0 59 -9 108t-31.5 83.5t-61.5 53.5t-98 19z
" />
    <glyph glyph-name="seven" unicode="7" horiz-adv-x="824" 
d="M560 1144h-500v156h694v-130l-398 -1170h-192z" />
    <glyph glyph-name="eight" unicode="8" horiz-adv-x="988" 
d="M494 -24q-95 0 -169 17.5t-125.5 55.5t-78.5 98t-27 145q0 62 18 114.5t50.5 97t78 82t101.5 70.5q-104 65 -163 153t-59 203q0 78 27.5 136.5t77 97.5t118 58.5t151.5 19.5q84 0 153 -19t118 -58t76 -97.5t27 -137.5q0 -114 -60.5 -203t-165.5 -153q56 -32 102.5 -69.5
t79.5 -82.5t51.5 -97.5t18.5 -114.5q0 -83 -28 -143t-80 -98.5t-126 -56.5t-166 -18zM494 134q105 0 158.5 40t53.5 136q0 43 -16.5 79.5t-45.5 68t-68.5 59t-85.5 53.5q-45 -26 -83 -53.5t-66 -59t-43.5 -68t-15.5 -79.5q0 -96 53.5 -136t158.5 -40zM304 1000
q0 -43 15 -78.5t41 -65.5t61.5 -56.5t76.5 -51.5q40 25 74 51.5t59 56.5t39 65.5t14 78.5q0 90 -48.5 128t-141.5 38t-141.5 -38t-48.5 -128z" />
    <glyph glyph-name="nine" unicode="9" horiz-adv-x="966" 
d="M392 -24q-35 0 -70 4.5t-65.5 12t-55.5 16.5t-41 19v168q16 -10 41 -20t53.5 -18t60 -13t61.5 -5q78 0 133 24.5t90.5 76t53 131.5t19.5 190q-42 -27 -101.5 -47.5t-134.5 -20.5q-99 0 -167 30.5t-110 85t-60.5 130t-18.5 164.5q0 46 7 95t23.5 95.5t45 88.5t71.5 73
t102.5 49.5t138.5 18.5q124 0 201 -44.5t120 -129.5t58 -209t15 -283q0 -170 -26 -297.5t-83 -213t-146 -128.5t-215 -43zM466 654q63 0 115.5 17.5t90.5 40.5q-2 119 -11.5 204.5t-32 140.5t-61.5 81t-99 26q-61 0 -99.5 -20.5t-61 -55.5t-31 -81.5t-8.5 -98.5
q0 -61 9.5 -108t32 -79.5t60.5 -49.5t96 -17z" />
    <glyph glyph-name="colon" unicode=":" horiz-adv-x="374" 
d="M182 -22q-51 0 -79.5 28.5t-28.5 79.5t28.5 80.5t79.5 29.5t79.5 -29.5t28.5 -80.5t-28.5 -79.5t-79.5 -28.5zM182 804q-51 0 -79.5 28.5t-28.5 79.5t28.5 80.5t79.5 29.5t79.5 -29.5t28.5 -80.5t-28.5 -79.5t-79.5 -28.5z" />
    <glyph glyph-name="semicolon" unicode=";" horiz-adv-x="374" 
d="M74 -292q15 57 22.5 103.5t7.5 78.5q0 34 -4.5 61.5t-10.5 50t-10.5 43t-4.5 41.5q0 50 27.5 80t80.5 30q54 0 81 -32t27 -86q0 -23 -5 -61t-15.5 -86.5t-27.5 -105t-40 -117.5h-128v0zM182 804q-51 0 -79.5 28.5t-28.5 79.5t28.5 80.5t79.5 29.5t79.5 -29.5t28.5 -80.5
t-28.5 -79.5t-79.5 -28.5z" />
    <glyph glyph-name="less" unicode="&#x3c;" horiz-adv-x="928" 
d="M90 598v112l682 336l66 -136l-532 -256l532 -256l-66 -134z" />
    <glyph glyph-name="equal" unicode="=" horiz-adv-x="912" 
d="M90 564h732v-152h-732v152zM90 898h732v-152h-732v152z" />
    <glyph glyph-name="greater" unicode="&#x3e;" horiz-adv-x="928" 
d="M90 398l530 256l-530 256l68 136l680 -336v-112l-680 -334z" />
    <glyph glyph-name="question" unicode="?" horiz-adv-x="712" 
d="M208 652l96 84q31 27 59 55t49 59t33.5 66t12.5 76q0 88 -54 129t-144 41q-35 0 -65.5 -5.5t-56.5 -13.5t-46.5 -17.5t-33.5 -17.5v164q12 9 34 18t52 16.5t66.5 12.5t77.5 5q85 0 151.5 -21.5t113 -62t71 -99t24.5 -131.5q0 -67 -20.5 -123t-52.5 -103t-71.5 -86
t-77.5 -72l-52 -46l-14 -204h-132zM294 -22q-51 0 -79.5 28.5t-28.5 79.5t28.5 80.5t79.5 29.5t79.5 -29.5t28.5 -80.5t-28.5 -79.5t-79.5 -28.5z" />
    <glyph glyph-name="at" unicode="@" horiz-adv-x="1444" 
d="M628 72q-57 0 -93.5 24t-57.5 62.5t-29 86.5t-8 97q0 41 3.5 80t8.5 74q16 127 41.5 209.5t59 130.5t74 67t85.5 19q60 0 100.5 -23.5t67.5 -56.5l20 60h112l-76 -610q-6 -57 8 -88.5t64 -31.5q27 0 60.5 20t62.5 73.5t49 146t20 238.5q0 123 -32.5 217t-91.5 158
t-141 96.5t-181 32.5q-104 0 -196 -43t-161 -135t-109 -236t-40 -346q0 -288 108.5 -431t317.5 -143q107 0 194 31.5t150 78.5v-142q-26 -18 -62.5 -35t-81.5 -30t-98.5 -21t-111.5 -8q-128 0 -231.5 41.5t-176.5 128t-112.5 219.5t-39.5 317q0 229 51 396.5t139.5 276
t207.5 161t256 52.5q130 0 237 -42t183.5 -122.5t119 -197.5t42.5 -266q0 -165 -27.5 -279.5t-74 -186.5t-107 -104t-125.5 -32q-78 0 -120 30t-60 78q-36 -39 -87 -65.5t-111 -26.5zM676 212q29 0 54 12.5t46 29.5l60 490q-18 15 -38.5 25.5t-43.5 10.5q-57 0 -90.5 -71.5
t-51.5 -214.5q-8 -59 -10 -100.5t-2 -61.5q0 -26 3 -47.5t11.5 -38t23.5 -25.5t38 -9z" />
    <glyph glyph-name="A" unicode="A" horiz-adv-x="898" 
d="M354 1300h190l346 -1300h-192l-76 294h-354l-74 -294h-186zM304 450h286l-54 216q-11 40 -22.5 90.5t-23 105t-22 111.5t-18.5 111q-9 -54 -20.5 -111t-23.5 -111.5t-24 -105t-22 -90.5z" />
    <glyph glyph-name="B" unicode="B" horiz-adv-x="964" 
d="M154 1300h254q96 0 176 -15t137 -54.5t89 -108.5t32 -178q0 -56 -10.5 -101t-30 -79.5t-46.5 -60t-59 -43.5q40 -16 74.5 -41t59 -62t38.5 -87t14 -114q0 -107 -31.5 -176t-88.5 -109t-136.5 -55.5t-175.5 -15.5h-296v1300zM338 576v-424h106q55 0 100.5 5t78.5 26t51 63
t18 116q0 75 -18.5 118t-51.5 64t-78.5 26.5t-99.5 5.5h-106zM338 1148v-424h64q55 0 101 5.5t79 26.5t51.5 64t18.5 118q0 74 -18.5 116t-51.5 63t-79 26t-101 5h-64z" />
    <glyph glyph-name="C" unicode="C" horiz-adv-x="836" 
d="M530 -24q-128 -1 -210.5 36t-130.5 118t-66.5 209.5t-18.5 310.5t21.5 310t71 209t130 118t199.5 37q72 0 132 -15t92 -33v-170q-18 10 -42 19t-52 16.5t-58 12t-60 4.5q-71 0 -118 -20t-75 -75.5t-39.5 -155t-11.5 -257.5q0 -160 12 -259.5t40.5 -155t75 -75.5
t116.5 -20q31 0 63 5t62 12.5t55.5 17.5t43.5 21v-170q-16 -9 -41.5 -18t-56.5 -16t-65.5 -11.5t-68.5 -4.5z" />
    <glyph glyph-name="D" unicode="D" horiz-adv-x="1018" 
d="M154 1300h340q127 0 209 -36t128.5 -114t64.5 -201.5t18 -298.5q0 -173 -18 -296.5t-65 -202t-128.5 -115t-208.5 -36.5h-340v1300zM338 1148v-996h142q70 0 117 20t75.5 74.5t40 151.5t11.5 252q0 154 -11.5 251.5t-40 152t-75.5 74.5t-117 20h-142z" />
    <glyph glyph-name="E" unicode="E" horiz-adv-x="868" 
d="M154 1300h608v-156h-424v-398h342v-154h-342v-436h424v-156h-608v1300z" />
    <glyph glyph-name="F" unicode="F" horiz-adv-x="800" 
d="M154 1300h588v-156h-404v-398h324v-154h-324v-592h-184v1300z" />
    <glyph glyph-name="G" unicode="G" horiz-adv-x="1002" 
d="M542 -24q-132 0 -217 36.5t-134 117t-68 208.5t-19 312q0 192 26.5 321.5t83.5 207.5t147 111.5t217 33.5q36 0 72 -4.5t68.5 -12t58.5 -16.5t43 -19v-170q-18 10 -43.5 20.5t-55.5 19t-63 13.5t-66 5q-54 0 -97 -8t-76 -29t-57 -57t-39 -92.5t-22 -136.5t-7 -187
q0 -160 12 -260t40.5 -156.5t75.5 -77t118 -20.5q44 0 79.5 5t62.5 13v434h-192v156h376v-702q-14 -9 -47.5 -20.5t-78.5 -21.5t-96.5 -17t-101.5 -7z" />
    <glyph glyph-name="H" unicode="H" horiz-adv-x="1072" 
d="M734 590h-396v-590h-184v1300h184v-554h396v554h184v-1300h-184v590z" />
    <glyph glyph-name="I" unicode="I" horiz-adv-x="492" 
d="M154 1300h184v-1300h-184v1300z" />
    <glyph glyph-name="J" unicode="J" horiz-adv-x="704" 
d="M210 -24q-30 0 -60 3.5t-56.5 9.5t-48.5 13.5t-35 15.5v162q11 -6 31.5 -13.5t45.5 -13.5t52 -10.5t53 -4.5q43 0 77.5 9.5t58 35t36 70t12.5 113.5v934h184v-952q0 -97 -20.5 -167t-63.5 -115.5t-109 -67.5t-157 -22z" />
    <glyph glyph-name="K" unicode="K" horiz-adv-x="952" 
d="M154 1300h184v-590l378 590h206l-410 -634l440 -666h-222l-392 610v-610h-184v1300z" />
    <glyph glyph-name="L" unicode="L" horiz-adv-x="782" 
d="M154 1300h184v-1144h404v-156h-588v1300z" />
    <glyph glyph-name="M" unicode="M" horiz-adv-x="1234" 
d="M154 1300h238l228 -684l230 684h230v-1300h-176v676q0 109 6.5 215.5t15.5 194.5l-236 -700h-146l-238 702q9 -88 16.5 -195.5t7.5 -216.5v-676h-176v1300z" />
    <glyph glyph-name="N" unicode="N" horiz-adv-x="1080" 
d="M154 1300h212l410 -1036q-11 80 -18.5 169t-7.5 177v690h176v-1300h-212l-414 1040q12 -80 21 -170.5t9 -179.5v-690h-176v1300z" />
    <glyph glyph-name="O" unicode="O" horiz-adv-x="1006" 
d="M502 -24q-69 0 -125.5 12t-100.5 41.5t-76.5 79t-53.5 124t-31.5 177.5t-10.5 240q0 202 24 332.5t73.5 206.5t124.5 105.5t176 29.5q104 0 179.5 -29t124.5 -104t72.5 -206t23.5 -335q0 -135 -10.5 -237.5t-32.5 -177.5t-55 -124.5t-77.5 -79.5t-100.5 -42.5t-124 -12.5
zM502 136q63 0 103.5 23t64.5 81t33 157.5t9 252.5t-9 252.5t-33 157.5t-64.5 81t-103.5 23t-103.5 -23t-63.5 -81t-32 -157.5t-9 -252.5t9 -252.5t32 -157.5t63.5 -81t103.5 -23z" />
    <glyph glyph-name="P" unicode="P" horiz-adv-x="936" 
d="M154 1300h312q92 0 165 -21t123.5 -69.5t77 -128t26.5 -195.5q0 -113 -27.5 -192t-78.5 -128.5t-123.5 -71.5t-162.5 -22h-128v-472h-184v1300zM338 1144v-518h108q54 0 95.5 11.5t69.5 40.5t42.5 79.5t14.5 128.5t-14.5 128t-42.5 79t-69.5 40t-95.5 11h-108z" />
    <glyph glyph-name="Q" unicode="Q" horiz-adv-x="1006" 
d="M502 -24q-69 0 -125.5 12t-100.5 41.5t-76.5 79t-53.5 124t-31.5 177.5t-10.5 240q0 202 24 332.5t73.5 206.5t124.5 105.5t176 29.5q104 0 179.5 -29t124.5 -104t72.5 -206t23.5 -335q0 -107 -7 -193.5t-20.5 -154.5t-34 -119.5t-48.5 -88.5l102 -114l-102 -86l-102 116
q-41 -18 -87.5 -26t-100.5 -8zM502 136q20 0 36.5 0.5t37.5 5.5l-104 120l102 86l98 -112q24 57 32 158t8 256q0 153 -9 252.5t-33 157.5t-64.5 81t-103.5 23t-103.5 -23t-63.5 -81t-32 -157.5t-9 -252.5t9 -252.5t32 -157.5t63.5 -81t103.5 -23z" />
    <glyph glyph-name="R" unicode="R" horiz-adv-x="980" 
d="M154 1300h300q90 0 165.5 -18.5t130.5 -63t85.5 -118.5t30.5 -184q0 -77 -17.5 -135.5t-48 -100.5t-72 -70.5t-88.5 -45.5l276 -564h-210l-244 530h-124v-530h-184v1300zM338 1144v-458h98q54 0 98 8t75.5 32t49 69.5t17.5 120.5q0 74 -17.5 119t-49 69t-75.5 32t-98 8
h-98z" />
    <glyph glyph-name="S" unicode="S" horiz-adv-x="784" 
d="M324 -24q-86 0 -147 15t-91 33v170q38 -21 94.5 -37.5t127.5 -16.5q46 0 84 9.5t64.5 30t41 53t14.5 79.5q0 40 -9.5 71t-27.5 58t-43.5 51.5t-57.5 51.5l-104 90q-43 37 -77.5 72t-58.5 75.5t-37 89t-13 111.5q0 76 25 139t73.5 108t119 70t162.5 25q33 0 65 -4
t59.5 -10.5t49.5 -15t36 -16.5v-168q-30 18 -82 34t-112 16q-47 0 -84.5 -9.5t-64 -30t-41 -53.5t-14.5 -79q0 -40 9.5 -70.5t27.5 -57.5t43.5 -51.5t57.5 -52.5l104 -90q43 -37 77.5 -72t58.5 -75.5t37 -89t13 -111.5q0 -76 -25 -139t-73.5 -108t-119.5 -70t-162 -25z" />
    <glyph glyph-name="T" unicode="T" horiz-adv-x="782" 
d="M18 1300h746v-156h-282v-1144h-184v1144h-280v156z" />
    <glyph glyph-name="U" unicode="U" horiz-adv-x="1056" 
d="M528 -24q-99 0 -171.5 23t-119.5 72.5t-70 128.5t-23 192v908h184v-916q0 -72 12.5 -120t37.5 -76.5t62.5 -40t87.5 -11.5t87.5 11.5t62.5 40t37.5 76.5t12.5 120v916h184v-908q0 -111 -23.5 -190t-71 -129t-120 -73.5t-169.5 -23.5z" />
    <glyph glyph-name="V" unicode="V" horiz-adv-x="870" 
d="M8 1300h192l164 -676q9 -38 19 -88t19.5 -104.5t18 -110.5t15.5 -107q7 51 15.5 107t18.5 110.5t20.5 104.5t21.5 88l162 676h186l-330 -1300h-192z" />
    <glyph glyph-name="W" unicode="W" horiz-adv-x="1274" 
d="M44 1300h184l106 -640q7 -39 14 -94.5t14 -118t13 -128t11 -123.5q4 58 10.5 123t13.5 127.5t14 118t14 95.5l108 640h188l108 -640q7 -39 14 -94t13.5 -117t12 -126.5t10.5 -122.5q4 58 10.5 122.5t14 126.5t15 117t14.5 94l106 640h178l-248 -1300h-190l-106 640
q-6 36 -13 86.5t-13.5 107.5t-13 117.5t-10.5 116.5q-5 -56 -10.5 -116.5t-12 -117.5t-13 -107.5t-12.5 -86.5l-108 -640h-188z" />
    <glyph glyph-name="X" unicode="X" horiz-adv-x="932" 
d="M362 668l-308 632h204l136 -294q9 -20 19 -44t19.5 -50t18.5 -52.5t17 -51.5q7 25 16.5 51.5t19 52.5t19.5 50t19 44l140 294h198l-310 -632l328 -668h-202l-162 334q-9 19 -19 42.5t-20 49.5t-19.5 53t-17.5 53q-8 -26 -17 -53t-18.5 -53t-19 -49.5t-17.5 -42.5
l-152 -334h-200z" />
    <glyph glyph-name="Y" unicode="Y" horiz-adv-x="872" 
d="M344 540l-356 760h202l154 -350q27 -63 51 -128.5t41 -125.5q18 60 43.5 125.5t52.5 128.5l154 350h196l-354 -760v-540h-184v540z" />
    <glyph glyph-name="Z" unicode="Z" horiz-adv-x="822" 
d="M80 128l448 1016h-438v156h642v-130l-448 -1014h458v-156h-662v128z" />
    <glyph glyph-name="bracketleft" unicode="[" horiz-adv-x="588" 
d="M174 1300h362v-140h-196v-1320h196v-140h-362v1600z" />
    <glyph glyph-name="backslash" unicode="\" horiz-adv-x="506" 
d="M0 1300h166l414 -1600h-166z" />
    <glyph glyph-name="bracketright" unicode="]" horiz-adv-x="588" 
d="M52 -160h196v1320h-196v140h360v-1600h-360v140z" />
    <glyph glyph-name="asciicircum" unicode="^" horiz-adv-x="780" 
d="M60 860l276 440h106l278 -440l-132 -82l-200 328l-196 -328z" />
    <glyph glyph-name="underscore" unicode="_" horiz-adv-x="752" 
d="M10 -132h732v-154h-732v154z" />
    <glyph glyph-name="grave" unicode="`" 
d="M-228 1308h216l116 -186h-154z" />
    <glyph glyph-name="a" unicode="a" horiz-adv-x="858" 
d="M588 58q-45 -38 -101.5 -60t-128.5 -22q-79 0 -131 23.5t-83 66t-43.5 102.5t-12.5 134q0 73 13 133t44.5 103.5t83.5 67.5t129 24q60 0 108 -16.5t90 -45.5v64q0 61 -9 106t-31.5 73.5t-61.5 42.5t-98 14q-33 0 -65.5 -6.5t-61.5 -16t-52.5 -20.5t-38.5 -21v160
q9 7 31 17t54.5 19.5t74 16.5t90.5 7q75 0 138 -17.5t109 -58.5t71.5 -108.5t25.5 -167.5v-672h-128zM400 122q45 0 83 13.5t73 36.5v262q-35 23 -73 36.5t-83 13.5q-39 0 -65 -10.5t-41 -33t-21.5 -57t-6.5 -81.5t6.5 -80.5t21.5 -56t41 -33t65 -10.5z" />
    <glyph glyph-name="b" unicode="b" horiz-adv-x="894" 
d="M134 1300h176v-336q36 27 81 43.5t99 16.5q81 0 138.5 -25t94.5 -85.5t54 -161.5t17 -252q0 -149 -18 -249t-55 -161.5t-93 -87.5t-132 -26q-69 0 -124.5 21t-97.5 57l-14 -54h-126v1300zM450 868q-41 0 -75.5 -12t-64.5 -32v-648q30 -20 64.5 -32t75.5 -12
q49 0 80.5 16.5t50 58t26 112.5t7.5 181q0 109 -7.5 180.5t-26 113t-50 58t-80.5 16.5z" />
    <glyph glyph-name="c" unicode="c" horiz-adv-x="718" 
d="M446 -24q-105 0 -172 34.5t-106 101t-53.5 164t-14.5 224.5q0 158 25 260t70 160.5t109 81t142 22.5q77 0 123 -14.5t73 -29.5v-160q-11 7 -29.5 14.5t-41 14t-49 11t-54.5 4.5q-52 0 -87.5 -14.5t-58 -55t-32.5 -111.5t-10 -183q0 -110 9 -181t30 -111.5t54.5 -56.5
t82.5 -17q60 0 109 15t85 35v-160q-12 -7 -31.5 -15t-45.5 -15.5t-58 -12.5t-69 -5z" />
    <glyph glyph-name="d" unicode="d" horiz-adv-x="894" 
d="M618 56q-42 -36 -95 -58t-119 -22q-81 0 -138.5 25t-94.5 85.5t-54 161t-17 252.5q0 148 18 248.5t55 162t93 87.5t132 26q56 0 101.5 -15.5t84.5 -42.5v334h176v-1300h-126zM444 132q41 0 75.5 12t64.5 32v646q-30 20 -64.5 33t-75.5 13q-48 0 -79.5 -16.5t-50.5 -58
t-26.5 -113t-7.5 -180.5q0 -110 7.5 -181t26.5 -112.5t50.5 -58t79.5 -16.5z" />
    <glyph glyph-name="e" unicode="e" horiz-adv-x="848" 
d="M470 -24q-85 0 -153.5 21t-116.5 78t-74 157.5t-26 259.5q0 160 20.5 263.5t62 163t103 82.5t144.5 23q85 0 147 -22.5t102.5 -81t60.5 -160t20 -260.5v-56h-482q3 -99 16 -160t38 -94t63 -44.5t91 -11.5q33 0 66 5.5t62.5 14.5t53.5 19t38 19v-158q-9 -7 -30 -17
t-52 -19t-70 -15.5t-84 -6.5zM430 872q-42 0 -70 -14t-45.5 -47t-26 -87.5t-10.5 -135.5h304q-2 81 -10.5 135.5t-26 87.5t-45.5 47t-70 14z" />
    <glyph glyph-name="f" unicode="f" horiz-adv-x="598" 
d="M44 934h148v108q0 82 21 133t57 78.5t83 37t99 9.5h102v-146h-56q-36 0 -61 -5t-40 -19t-22 -39t-7 -65v-92h186v-146h-186v-788h-176v788h-148v146z" />
    <glyph glyph-name="g" unicode="g" horiz-adv-x="894" 
d="M404 -324q-47 0 -87.5 6t-72 14t-52.5 17t-30 15v164q14 -9 38 -19t54 -19t63.5 -14.5t66.5 -5.5q49 0 86.5 8t63 28t38 55t12.5 89v78q-38 -27 -82 -43.5t-98 -16.5q-81 0 -138.5 25t-94.5 83.5t-54 153t-17 234.5q0 137 18 232t55 153.5t93 84.5t132 26q69 0 123.5 -21
t96.5 -57l16 54h126v-1020q0 -90 -29 -149t-78.5 -93.5t-114 -48t-134.5 -13.5zM444 190q41 0 75.5 12t64.5 32v588q-30 20 -64.5 33t-75.5 13q-48 0 -79.5 -17t-49.5 -56.5t-25.5 -104.5t-7.5 -162t7.5 -162t25.5 -104t49.5 -55.5t79.5 -16.5z" />
    <glyph glyph-name="h" unicode="h" horiz-adv-x="902" 
d="M134 1300h176v-340q39 29 87 46.5t105 17.5q79 0 132 -26.5t85 -72t45.5 -107.5t13.5 -132v-686h-176v666q0 44 -6 81.5t-22.5 64.5t-46 42.5t-77.5 15.5q-39 0 -74.5 -12t-65.5 -32v-826h-176v1300z" />
    <glyph glyph-name="i" unicode="i" horiz-adv-x="444" 
d="M222 1104q-112 0 -112 102q0 104 112 104t112 -104q0 -102 -112 -102zM134 1000h176v-1000h-176v1000z" />
    <glyph glyph-name="j" unicode="j" horiz-adv-x="444" 
d="M222 1104q-112 0 -112 102q0 104 112 104t112 -104q0 -102 -112 -102zM-28 -154h54q33 0 54 7t33 21t16.5 35.5t4.5 50.5v1040h176v-1070q0 -71 -19 -115.5t-52 -70t-78 -35t-97 -9.5h-92v146z" />
    <glyph glyph-name="k" unicode="k" horiz-adv-x="824" 
d="M134 1300h176v-724l266 424h200l-312 -470l350 -530h-210l-294 462v-462h-176v1300z" />
    <glyph glyph-name="l" unicode="l" horiz-adv-x="480" 
d="M370 -8q-52 0 -97 9.5t-78 35t-52 70t-19 115.5v1078h176v-1048q0 -29 4.5 -50.5t16.5 -35t33.5 -20t55.5 -6.5h36v-148h-76v0z" />
    <glyph glyph-name="m" unicode="m" horiz-adv-x="1372" 
d="M134 1000h128l14 -56q45 36 100 58t118 22q78 0 131.5 -24t86.5 -68q47 44 109 68t137 24q84 0 139.5 -26.5t88.5 -72t46.5 -107.5t13.5 -132v-686h-176v666q0 44 -5.5 81.5t-22 64.5t-46 42.5t-76.5 15.5q-44 0 -83.5 -15t-72.5 -39q8 -30 11 -62.5t3 -67.5v-686h-176
v666q0 44 -6 81.5t-22.5 64.5t-46 42.5t-77.5 15.5q-39 0 -74.5 -12t-65.5 -32v-826h-176v1000z" />
    <glyph glyph-name="n" unicode="n" horiz-adv-x="902" 
d="M134 1000h128l14 -56q45 36 100 58t118 22q82 0 136.5 -26.5t87.5 -72t46.5 -107.5t13.5 -132v-686h-176v666q0 44 -6 81.5t-22.5 64.5t-46 42.5t-77.5 15.5q-39 0 -74.5 -12t-65.5 -32v-826h-176v1000z" />
    <glyph glyph-name="o" unicode="o" horiz-adv-x="880" 
d="M440 -24q-88 0 -152 22.5t-106 81t-62 160.5t-20 260q0 157 21.5 258.5t64 160.5t106 82t148.5 23q88 0 152 -22.5t106 -81t62 -160.5t20 -260q0 -157 -21.5 -258.5t-64 -160.5t-106 -82t-148.5 -23zM440 132q48 0 79.5 16.5t49.5 58.5t25.5 113t7.5 180t-7.5 180
t-25.5 113t-49.5 58.5t-79.5 16.5t-79.5 -16.5t-49.5 -58.5t-25.5 -113t-7.5 -180t7.5 -180t25.5 -113t49.5 -58.5t79.5 -16.5z" />
    <glyph glyph-name="p" unicode="p" horiz-adv-x="894" 
d="M134 1000h126l14 -58q42 36 96 59t120 23q81 0 138.5 -25t94.5 -85.5t54 -161.5t17 -252q0 -149 -18 -249t-55 -161.5t-93 -87.5t-132 -26q-56 0 -102 15t-84 41v-332h-176v1300zM450 868q-41 0 -75.5 -12t-64.5 -32v-648q30 -20 64.5 -32t75.5 -12q49 0 80.5 16.5t50 58
t26 112.5t7.5 181q0 109 -7.5 180.5t-26 113t-50 58t-80.5 16.5z" />
    <glyph glyph-name="q" unicode="q" horiz-adv-x="894" 
d="M584 36q-38 -27 -82 -43.5t-98 -16.5q-81 0 -138.5 25t-94.5 85.5t-54 161t-17 252.5q0 148 18 248.5t55 162t93 87.5t132 26q69 0 123.5 -21t96.5 -57l16 54h126v-1300h-176v336zM444 132q41 0 75.5 12t64.5 32v646q-30 20 -64.5 33t-75.5 13q-48 0 -79.5 -16.5
t-50.5 -58t-26.5 -113t-7.5 -180.5q0 -110 7.5 -181t26.5 -112.5t50.5 -58t79.5 -16.5z" />
    <glyph glyph-name="r" unicode="r" horiz-adv-x="608" 
d="M134 1000h128l22 -86q23 19 51.5 37t63 31.5t75.5 21.5t90 8v-174q-86 0 -146.5 -12.5t-107.5 -33.5v-792h-176v1000z" />
    <glyph glyph-name="s" unicode="s" horiz-adv-x="734" 
d="M316 -24q-41 0 -77.5 5.5t-66.5 14t-51.5 17.5t-32.5 17v168q17 -11 40.5 -22t51.5 -20.5t60.5 -15.5t67.5 -6q88 0 127 33.5t39 90.5q0 45 -23 79t-73 61l-120 66q-88 48 -130 116.5t-42 153.5q0 72 23.5 126.5t65.5 90.5t101 54.5t130 18.5q81 0 130 -15.5t76 -30.5
v-162q-11 7 -30 15.5t-43 16t-52 13t-57 5.5q-88 0 -127 -33.5t-39 -90.5q0 -45 24 -78t72 -60l124 -70q49 -28 81 -58t51.5 -63t27.5 -70t8 -77q0 -139 -83.5 -214.5t-252.5 -75.5z" />
    <glyph glyph-name="t" unicode="t" horiz-adv-x="618" 
d="M38 1000h144v300h176v-300h200v-146h-200v-588q0 -40 7 -64.5t22 -38t39.5 -18.5t59.5 -5h52v-148h-98q-52 0 -98.5 9.5t-82 37t-56.5 78t-21 133.5v604h-144v146z" />
    <glyph glyph-name="u" unicode="u" horiz-adv-x="892" 
d="M614 54q-42 -36 -95 -57t-113 -21q-83 0 -137 26.5t-86.5 72t-45.5 107t-13 132.5v686h176v-666q0 -46 5 -83.5t21 -64.5t45 -41.5t77 -14.5q39 0 72 11t62 31v828h176v-1000h-128z" />
    <glyph glyph-name="v" unicode="v" horiz-adv-x="796" 
d="M34 1000h178l140 -552q6 -24 12.5 -53.5t13 -62.5t12 -67t10.5 -67q4 33 10 67t12.5 67t13 62.5t12.5 53.5l140 552h174l-276 -1000h-176z" />
    <glyph glyph-name="w" unicode="w" horiz-adv-x="1238" 
d="M52 1000h174l104 -528q5 -28 10.5 -64t11 -75.5t10 -81t8.5 -79.5q4 38 8.5 79.5t10 81t11.5 75.5t12 64l114 528h192l114 -528q6 -29 12 -65t11 -75.5t9.5 -80.5t7.5 -79q4 38 8.5 79t10 80.5t11.5 75.5t12 65l104 528h168l-220 -1000h-190l-114 528q-6 29 -12 66
t-12 77.5t-11 82t-9 80.5q-4 -39 -8.5 -80.5t-10 -82t-11.5 -77.5t-12 -66l-114 -528h-190z" />
    <glyph glyph-name="x" unicode="x" horiz-adv-x="804" 
d="M310 516l-254 484h192l112 -234q14 -29 25.5 -61.5t20.5 -64.5q8 32 20 64.5t26 61.5l110 234h186l-254 -484l266 -516h-192l-126 260q-17 32 -28.5 64t-19.5 62q-6 -30 -16.5 -62t-27.5 -64l-126 -260h-180z" />
    <glyph glyph-name="y" unicode="y" horiz-adv-x="796" 
d="M310 2l-276 998h178l140 -552q6 -23 12.5 -53t12.5 -63.5t12 -69.5t11 -70q4 34 10 70t12.5 69.5t13 63.5t12.5 53l140 552h174l-360 -1300h-180z" />
    <glyph glyph-name="z" unicode="z" horiz-adv-x="760" 
d="M84 114l386 740h-376v146h582v-112l-386 -742h396v-146h-602v114z" />
    <glyph glyph-name="braceleft" unicode="{" horiz-adv-x="582" 
d="M460 -300q-86 0 -141.5 11.5t-87.5 41.5t-44.5 83t-12.5 136v292q0 51 -10 85t-29.5 54t-48.5 28.5t-68 8.5v120q39 0 68 8.5t48.5 29t29.5 54.5t10 86v290q0 83 12.5 136t44.5 83t87.5 41.5t141.5 11.5h70v-140h-32q-53 0 -84.5 -5.5t-48 -23t-21 -50t-4.5 -87.5v-288
q0 -89 -32 -138.5t-86 -67.5q54 -20 86 -69t32 -137v-288q0 -55 4.5 -87.5t21 -50t48 -23t84.5 -5.5h32v-140h-70v0z" />
    <glyph glyph-name="bar" unicode="|" horiz-adv-x="474" 
d="M154 1300h166v-1600h-166v1600z" />
    <glyph glyph-name="braceright" unicode="}" horiz-adv-x="582" 
d="M52 -160h30q53 0 85 5.5t48.5 23t21.5 50t5 87.5v288q0 88 31.5 137t84.5 69q-53 18 -84.5 67.5t-31.5 138.5v288q0 55 -5 87.5t-21.5 50t-48.5 23t-85 5.5h-30v140h70q85 0 140.5 -11.5t87 -41.5t44 -83t12.5 -136v-290q0 -52 10 -86t29.5 -54.5t49 -29t67.5 -8.5v-120
q-38 0 -67.5 -8.5t-49 -28.5t-29.5 -54t-10 -85v-292q0 -83 -12.5 -136t-44 -83t-87 -41.5t-140.5 -11.5h-70v140z" />
    <glyph glyph-name="asciitilde" unicode="~" horiz-adv-x="722" 
d="M476 1086q-43 0 -75.5 13.5t-61.5 29.5t-57 29.5t-62 13.5q-21 0 -40.5 -5.5t-36 -14t-30 -18.5t-23.5 -20v134q8 11 23 24.5t35.5 25t45 19t52.5 7.5q43 0 75.5 -14t61 -30.5t56.5 -30t63 -13.5q20 0 39 5.5t35.5 14.5t30 19.5t23.5 20.5v-136q-8 -11 -23 -23.5t-35 -24
t-44.5 -19t-51.5 -7.5z" />
    <glyph glyph-name="Euro" unicode="&#x20ac;" horiz-adv-x="972" 
d="M60 876h150q7 103 34.5 185.5t80.5 141t133.5 90t193.5 31.5q34 0 70.5 -4.5t70.5 -11.5t61.5 -16t43.5 -18v-168q-18 9 -43.5 18.5t-56 17.5t-66 13t-72.5 5q-119 0 -183 -67t-77 -217h378v-146h-382v-160h382v-146h-378q13 -150 77 -217t183 -67q37 0 72.5 5t66 13
t56 18t43.5 20v-170q-16 -9 -43.5 -18t-61.5 -16t-70.5 -11.5t-70.5 -4.5q-113 0 -193.5 31.5t-133.5 90t-80.5 141t-34.5 185.5h-150v146h146v160h-146v146z" />
    <glyph glyph-name="quotesinglbase" unicode="&#x201a;" horiz-adv-x="344" 
d="M64 -292q15 57 22.5 103.5t7.5 78.5q0 34 -4.5 61.5t-10.5 50t-10.5 43t-4.5 41.5q0 50 27.5 80t80.5 30q54 0 81 -32t27 -86q0 -23 -5 -61t-15.5 -86.5t-27.5 -105t-40 -117.5h-128v0z" />
    <glyph glyph-name="florin" unicode="&#x192;" horiz-adv-x="818" 
d="M10 734h228v168q0 422 352 422q74 0 121 -14t65 -26v-160q-10 7 -27 14t-38 13t-45.5 9.5t-49.5 3.5q-63 0 -102 -19t-60 -55t-28.5 -88.5t-7.5 -119.5v-148h312v-154h-312v-880h-180v880h-228v154z" />
    <glyph glyph-name="quotedblbase" unicode="&#x201e;" horiz-adv-x="656" 
d="M64 -292q15 57 22.5 103.5t7.5 78.5q0 34 -4.5 61.5t-10.5 50t-10.5 43t-4.5 41.5q0 50 27.5 80t80.5 30q54 0 81 -32t27 -86q0 -23 -5 -61t-15.5 -86.5t-27.5 -105t-40 -117.5h-128v0zM376 -292q15 57 22.5 103.5t7.5 78.5q0 34 -4.5 61.5t-10.5 50t-10.5 43t-4.5 41.5
q0 50 27.5 80t80.5 30q54 0 81 -32t27 -86q0 -23 -5 -61t-15.5 -86.5t-27.5 -105t-40 -117.5h-128v0z" />
    <glyph glyph-name="ellipsis" unicode="&#x2026;" horiz-adv-x="970" 
d="M162 -22q-51 0 -79.5 28.5t-28.5 79.5t28.5 80.5t79.5 29.5t79.5 -29.5t28.5 -80.5t-28.5 -79.5t-79.5 -28.5zM484 -22q-51 0 -79.5 28.5t-28.5 79.5t28.5 80.5t79.5 29.5t79.5 -29.5t28.5 -80.5t-28.5 -79.5t-79.5 -28.5zM808 -22q-51 0 -79.5 28.5t-28.5 79.5
t28.5 80.5t79.5 29.5t79.5 -29.5t28.5 -80.5t-28.5 -79.5t-79.5 -28.5z" />
    <glyph glyph-name="dagger" unicode="&#x2020;" horiz-adv-x="576" 
d="M218 1018h-158v124h158v158h140v-158h158v-124h-158v-392h-140v392z" />
    <glyph glyph-name="daggerdbl" unicode="&#x2021;" horiz-adv-x="636" 
d="M248 722h-158v124h158v172h-158v124h158v158h140v-158h158v-124h-158v-172h158v-124h-158v-392h-140v392z" />
    <glyph glyph-name="circumflex" unicode="&#x2c6;" 
d="M-234 1214l234 118l234 -118v-116l-234 76l-234 -76v116z" />
    <glyph glyph-name="perthousand" unicode="&#x2030;" horiz-adv-x="1672" 
d="M1364 -24q-60 0 -104.5 16.5t-73.5 52t-43.5 91t-14.5 134.5q0 154 58.5 225t177.5 71q118 0 176 -68.5t58 -227.5q0 -152 -58 -223t-176 -71zM1364 100q28 0 45.5 9.5t28 30.5t14.5 53t4 77q0 91 -18.5 131.5t-73.5 40.5q-28 0 -46 -9.5t-28.5 -30.5t-15 -53.5
t-4.5 -78.5q0 -45 4.5 -77t15 -53t28.5 -30.5t46 -9.5zM308 734q-60 0 -104 16.5t-73 52t-43 91.5t-14 136q0 153 57.5 223.5t176.5 70.5q59 0 103 -16.5t73 -52t43.5 -91t14.5 -134.5q0 -154 -57.5 -225t-176.5 -71zM308 860q28 0 46 9.5t28.5 30t15 52.5t4.5 78
q0 90 -19.5 130t-74.5 40q-28 0 -46 -9.5t-28.5 -30.5t-15 -53t-4.5 -77q0 -46 4.5 -78t15 -52.5t28.5 -30t46 -9.5zM820 -24q-60 0 -104.5 16.5t-73.5 52t-43.5 91t-14.5 134.5q0 154 58.5 225t177.5 71q118 0 176 -68.5t58 -227.5q0 -152 -58 -223t-176 -71zM820 100
q28 0 45.5 9.5t28 30.5t14.5 53t4 77q0 91 -18.5 131.5t-73.5 40.5q-28 0 -46 -9.5t-28.5 -30.5t-15 -53.5t-4.5 -78.5q0 -45 4.5 -77t15 -53t28.5 -30.5t46 -9.5zM880 1300h152l-784 -1300h-152z" />
    <glyph glyph-name="Scaron" unicode="&#x160;" horiz-adv-x="784" 
d="M324 -24q-86 0 -147 15t-91 33v170q38 -21 94.5 -37.5t127.5 -16.5q46 0 84 9.5t64.5 30t41 53t14.5 79.5q0 40 -9.5 71t-27.5 58t-43.5 51.5t-57.5 51.5l-104 90q-43 37 -77.5 72t-58.5 75.5t-37 89t-13 111.5q0 76 25 139t73.5 108t119 70t162.5 25q33 0 65 -4
t59.5 -10.5t49.5 -15t36 -16.5v-168q-30 18 -82 34t-112 16q-47 0 -84.5 -9.5t-64 -30t-41 -53.5t-14.5 -79q0 -40 9.5 -70.5t27.5 -57.5t43.5 -51.5t57.5 -52.5l104 -90q43 -37 77.5 -72t58.5 -75.5t37 -89t13 -111.5q0 -76 -25 -139t-73.5 -108t-119.5 -70t-162 -25z
M168 1612l234 -76l234 76v-116l-234 -120l-234 120v116z" />
    <glyph glyph-name="guilsinglleft" unicode="&#x2039;" horiz-adv-x="456" 
d="M48 600l192 334h150l-170 -334l170 -334h-150z" />
    <glyph glyph-name="OE" unicode="&#x152;" horiz-adv-x="1394" 
d="M524 0q-128 0 -209.5 35.5t-128 113.5t-64.5 201.5t-18 299.5q0 173 18 296.5t65 202t128.5 115t208.5 36.5h762v-156h-424v-398h342v-154h-342v-436h424v-156h-762zM294 650q0 -155 11.5 -252t39.5 -151.5t74.5 -74.5t116.5 -20h142v996h-142q-70 0 -116.5 -20
t-74.5 -74.5t-39.5 -152t-11.5 -251.5z" />
    <glyph glyph-name="Zcaron" unicode="&#x17d;" horiz-adv-x="822" 
d="M80 128l448 1016h-438v156h642v-130l-448 -1014h458v-156h-662v128zM176 1612l234 -76l234 76v-116l-234 -120l-234 120v116z" />
    <glyph glyph-name="quoteleft" unicode="&#x2018;" horiz-adv-x="384" 
d="M192 814q-54 0 -81 31t-27 87q0 22 4.5 60t15 86.5t27 105t39.5 116.5h130q-17 -56 -24.5 -103t-7.5 -79q0 -35 5 -62t11 -49.5t11 -43t5 -41.5q0 -50 -27.5 -79t-80.5 -29z" />
    <glyph glyph-name="quoteright" unicode="&#x2019;" horiz-adv-x="384" 
d="M84 834q15 57 22.5 103.5t7.5 78.5q0 34 -4.5 61.5t-10.5 50t-10.5 43t-4.5 41.5q0 50 27.5 80t80.5 30q54 0 81 -32t27 -86q0 -23 -5 -61t-15.5 -86.5t-27.5 -105t-40 -117.5h-128v0z" />
    <glyph glyph-name="quotedblleft" unicode="&#x201c;" horiz-adv-x="688" 
d="M192 814q-54 0 -81 31t-27 87q0 22 4.5 60t15 86.5t27 105t39.5 116.5h130q-17 -56 -24.5 -103t-7.5 -79q0 -35 5 -62t11 -49.5t11 -43t5 -41.5q0 -50 -27.5 -79t-80.5 -29zM496 814q-54 0 -81 31t-27 87q0 22 4.5 60t15 86.5t27 105t39.5 116.5h130q-17 -56 -24.5 -103
t-7.5 -79q0 -35 5 -62t11 -49.5t11 -43t5 -41.5q0 -50 -27.5 -79t-80.5 -29z" />
    <glyph glyph-name="quotedblright" unicode="&#x201d;" horiz-adv-x="690" 
d="M84 834q15 57 22.5 103.5t7.5 78.5q0 34 -4.5 61.5t-10.5 50t-10.5 43t-4.5 41.5q0 50 27.5 80t80.5 30q54 0 81 -32t27 -86q0 -23 -5 -61t-15.5 -86.5t-27.5 -105t-40 -117.5h-128v0zM388 834q15 57 22.5 103.5t7.5 78.5q0 34 -4.5 61.5t-10.5 50t-10.5 43t-4.5 41.5
q0 50 27.5 80t80.5 30q54 0 81 -32t27 -86q0 -23 -5 -61t-15.5 -86.5t-27.5 -105t-40 -117.5h-128v0z" />
    <glyph glyph-name="bullet" unicode="&#x2022;" horiz-adv-x="570" 
d="M286 430q-104 0 -163 57t-59 163t59 163t163 57q103 0 161.5 -57t58.5 -163t-58.5 -163t-161.5 -57z" />
    <glyph glyph-name="endash" unicode="&#x2013;" horiz-adv-x="912" 
d="M90 578h732v-152h-732v152z" />
    <glyph glyph-name="emdash" unicode="&#x2014;" horiz-adv-x="1650" 
d="M90 578h1470v-152h-1470v152z" />
    <glyph glyph-name="tilde" unicode="&#x2dc;" 
d="M92 1112q-35 0 -61.5 12t-49.5 26t-46 26t-51 12q-36 0 -64 -16.5t-46 -33.5v120q8 11 21 23t30 21.5t38 15.5t45 6q35 0 61.5 -12t49.5 -26t45.5 -26t51.5 -12q36 0 64 17t46 35v-122q-8 -11 -21 -22.5t-30 -21t-38 -16t-45 -6.5z" />
    <glyph glyph-name="trademark" unicode="&#x2122;" horiz-adv-x="1068" 
d="M514 1300h152l82 -260l82 260h148v-558h-124v158q0 56 4 109.5t10 100.5l-76 -228h-92l-78 230q6 -48 11 -102t5 -110v-158h-124v558zM10 1300h410v-114h-140v-444h-130v444h-140v114z" />
    <glyph glyph-name="scaron" unicode="&#x161;" horiz-adv-x="734" 
d="M140 1216v116l234 -76l234 76v-116l-234 -118zM316 -24q-41 0 -77.5 5.5t-66.5 14t-51.5 17.5t-32.5 17v168q17 -11 40.5 -22t51.5 -20.5t60.5 -15.5t67.5 -6q88 0 127 33.5t39 90.5q0 45 -23 79t-73 61l-120 66q-88 48 -130 116.5t-42 153.5q0 72 23.5 126.5t65.5 90.5
t101 54.5t130 18.5q81 0 130 -15.5t76 -30.5v-162q-11 7 -30 15.5t-43 16t-52 13t-57 5.5q-88 0 -127 -33.5t-39 -90.5q0 -45 24 -78t72 -60l124 -70q49 -28 81 -58t51.5 -63t27.5 -70t8 -77q0 -139 -83.5 -214.5t-252.5 -75.5z" />
    <glyph glyph-name="guilsinglright" unicode="&#x203a;" horiz-adv-x="456" 
d="M238 600l-170 334h148l194 -334l-194 -334h-148z" />
    <glyph glyph-name="oe" unicode="&#x153;" horiz-adv-x="1350" 
d="M438 -24q-88 0 -151.5 22.5t-105 81t-61.5 160.5t-20 260q0 157 21 258.5t63 160.5t105.5 82t148.5 23q94 0 155.5 -28.5t96.5 -99.5q34 72 93 100t149 28q85 0 147 -22.5t102.5 -81t60.5 -160t20 -260.5v-56h-482q3 -99 16 -160t38 -94t63 -44.5t91 -11.5q33 0 66 5.5
t62.5 14.5t53.5 19t38 19v-158q-9 -7 -30 -17t-52 -19t-70 -15.5t-84 -6.5q-50 0 -92.5 6.5t-77 22.5t-62 42.5t-46.5 66.5q-36 -77 -98.5 -107.5t-157.5 -30.5zM440 132q48 0 79.5 16.5t49.5 58.5t25.5 113t7.5 180t-7.5 180t-25.5 113t-49.5 58.5t-79.5 16.5t-79.5 -16.5
t-49.5 -58.5t-25.5 -113t-7.5 -180t7.5 -180t25.5 -113t49.5 -58.5t79.5 -16.5zM932 872q-42 0 -70 -14t-45.5 -47t-26 -87.5t-10.5 -135.5h304q-2 81 -10.5 135.5t-26 87.5t-45.5 47t-70 14z" />
    <glyph glyph-name="zcaron" unicode="&#x17e;" horiz-adv-x="760" 
d="M148 1216v116l234 -76l234 76v-116l-234 -118zM84 114l386 740h-376v146h582v-112l-386 -742h396v-146h-602v114z" />
    <glyph glyph-name="Ydieresis" unicode="&#x178;" horiz-adv-x="872" 
d="M344 540l-356 760h202l154 -350q27 -63 51 -128.5t41 -125.5q18 60 43.5 125.5t52.5 128.5l154 350h196l-354 -760v-540h-184v540zM270 1388q-48 0 -76 27t-28 75q0 50 28 77t76 27t76 -28t28 -76t-28 -75t-76 -27zM602 1388q-48 0 -76 27t-28 75q0 50 28 77t76 27
t76 -28t28 -76t-28 -75t-76 -27z" />
    <glyph glyph-name="uni00A0" unicode="&#xa0;" horiz-adv-x="400" 
 />
    <glyph glyph-name="exclamdown" unicode="&#xa1;" horiz-adv-x="488" 
d="M244 806q-51 0 -79.5 28.5t-28.5 79.5t28.5 79.5t79.5 28.5t79.5 -28.5t28.5 -79.5t-28.5 -79.5t-79.5 -28.5zM178 626h132l42 -926h-214z" />
    <glyph glyph-name="cent" unicode="&#xa2;" horiz-adv-x="718" 
d="M346 -14q-74 16 -121.5 57t-75 105.5t-38.5 153t-11 198.5q0 131 17 223t49 152.5t77.5 93t102.5 45.5v186h154v-178q51 -6 85 -18t57 -24v-160q-11 7 -29.5 14.5t-41 14t-49 11t-54.5 4.5q-52 0 -87.5 -14.5t-58 -55t-32.5 -111.5t-10 -183q0 -110 9 -181t30 -111.5
t54.5 -56.5t82.5 -17q60 0 109 15t85 35v-160q-20 -12 -58.5 -25t-91.5 -19v-180h-154v186z" />
    <glyph glyph-name="sterling" unicode="&#xa3;" horiz-adv-x="894" 
d="M70 732h172v148q0 220 86 332t278 112q40 0 73.5 -5.5t58.5 -13t41.5 -15.5t24.5 -14v-162q-10 7 -27 15t-41 15.5t-53 12.5t-63 5q-62 0 -100.5 -20.5t-59.5 -60.5t-28.5 -99t-7.5 -136v-114h310v-148h-310v-436h380v-148h-734v148h172v436h-172v148z" />
    <glyph glyph-name="currency" unicode="&#xa4;" horiz-adv-x="940" 
d="M674 276q-77 -56 -204 -56q-65 0 -116 13t-90 43l-118 -120l-108 110l134 136q-36 93 -36 248t36 248l-134 136l108 110l118 -120q77 56 206 56q126 0 206 -56l116 120l110 -110l-134 -136q36 -93 36 -248t-36 -248l134 -136l-110 -110zM470 376q46 0 76 16t48 49.5
t25 85.5t7 123t-7 123t-25 85.5t-48 49.5t-76 16t-76 -16t-48 -49.5t-25 -85.5t-7 -123t7 -123t25 -85.5t48 -49.5t76 -16z" />
    <glyph glyph-name="yen" unicode="&#xa5;" horiz-adv-x="932" 
d="M130 682h178l-288 618h200l154 -350q29 -65 52.5 -139t41.5 -139q17 65 41 139t53 139l154 350h196l-288 -618h184v-148h-250v-144h250v-148h-250v-242h-184v242h-244v148h244v144h-244v148z" />
    <glyph glyph-name="brokenbar" unicode="&#xa6;" horiz-adv-x="474" 
d="M154 332h166v-632h-166v632zM154 1300h166v-632h-166v632z" />
    <glyph glyph-name="section" unicode="&#xa7;" horiz-adv-x="914" 
d="M296 -324q-97 0 -167 18t-103 38v168q35 -24 85.5 -40t106.5 -16q86 0 127 46.5t41 131.5q0 48 -16.5 98.5t-45.5 101.5l-128 228q-23 42 -44.5 87t-38 94.5t-26 104t-9.5 114.5q0 121 44.5 210t118.5 147.5t171 87.5t202 29q74 0 133.5 -12t92.5 -30v-160
q-26 15 -65 24.5t-81 9.5q-87 0 -127.5 -47t-40.5 -131q0 -48 15.5 -98.5t44.5 -101.5l128 -228q23 -42 44.5 -87.5t38 -95t26 -103.5t9.5 -114q0 -121 -44.5 -210t-118.5 -147.5t-171 -87.5t-202 -29zM444 -180q37 12 76.5 36.5t72.5 63.5t54 94.5t21 129.5
q0 77 -27.5 158.5t-68.5 155.5l-116 208q-36 65 -61 138t-23 150q0 63 20.5 122t73.5 104q-37 -12 -76 -36.5t-71.5 -63.5t-53.5 -94.5t-21 -129.5q0 -77 27 -158.5t69 -155.5l114 -208q38 -65 62 -138t24 -150q0 -63 -21 -122t-75 -104z" />
    <glyph glyph-name="dieresis" unicode="&#xa8;" 
d="M-166 1110q-48 0 -76 27t-28 75q0 50 28 76t76 26t76 -27t28 -75q0 -50 -28 -76t-76 -26zM166 1110q-48 0 -76 27t-28 75q0 50 28 76t76 26t76 -27t28 -75q0 -50 -28 -76t-76 -26z" />
    <glyph glyph-name="copyright" unicode="&#xa9;" horiz-adv-x="1164" 
d="M608 268q-65 0 -112 17t-78.5 60t-46.5 117t-15 188q0 109 15 182t46.5 117.5t78.5 63.5t112 19q50 0 91 -10t65 -24v-124q-20 11 -56.5 23.5t-83.5 12.5q-40 0 -66 -11t-41 -39.5t-21 -79.5t-6 -130q0 -80 6 -130.5t21 -79t41 -39.5t66 -11q47 0 83.5 11.5t56.5 22.5
v-122q-21 -12 -63.5 -23t-92.5 -11zM582 -24q-141 0 -233.5 34t-146.5 112.5t-76 207.5t-22 320q0 187 22 316t76.5 208.5t147 114.5t232.5 35q141 0 233.5 -34t146.5 -112.5t76 -208t22 -319.5q0 -188 -22 -316.5t-76.5 -208t-147 -114.5t-232.5 -35zM582 98q63 0 113 8
t88 30t64.5 60.5t43.5 100t25 148t8 205.5q0 118 -8 205t-25 148.5t-43.5 100t-64.5 60.5t-88 30t-113 8t-113 -8t-88 -30t-64.5 -60.5t-43.5 -100t-25 -148.5t-8 -205t8 -205t25 -148.5t43.5 -100t64.5 -60.5t88 -30t113 -8z" />
    <glyph glyph-name="ordfeminine" unicode="&#xaa;" horiz-adv-x="692" 
d="M480 530q-36 -30 -81.5 -49t-102.5 -19q-62 0 -104 20t-67.5 55t-36 83.5t-10.5 105.5q0 56 10.5 104.5t36 84t67.5 55.5t104 20q47 0 86 -12.5t72 -35.5v52q0 96 -37 139t-127 43q-29 0 -56 -5.5t-49.5 -13t-40.5 -17t-28 -16.5v142q32 20 82 35t116 15
q62 0 115.5 -15.5t92.5 -51t61.5 -92.5t22.5 -139v-538h-112zM108 350h498v-136h-498v136zM336 592q36 0 65 10.5t53 25.5v196q-24 15 -53 26.5t-65 11.5q-57 0 -81.5 -32.5t-24.5 -103.5q0 -69 24.5 -101.5t81.5 -32.5z" />
    <glyph glyph-name="guillemotleft" unicode="&#xab;" horiz-adv-x="816" 
d="M48 600l192 334h150l-170 -334l170 -334h-150zM408 600l192 334h150l-170 -334l170 -334h-150z" />
    <glyph glyph-name="logicalnot" unicode="&#xac;" horiz-adv-x="932" 
d="M658 426h-568v152h732v-398h-164v246z" />
    <glyph glyph-name="uni00AD" unicode="&#xad;" horiz-adv-x="644" 
d="M90 740h464v-174h-464v174z" />
    <glyph glyph-name="registered" unicode="&#xae;" horiz-adv-x="894" 
d="M448 380q-103 0 -172 24.5t-111 80t-59.5 146t-17.5 221.5q0 130 18.5 220.5t60.5 146t111 80.5t170 25q102 0 170.5 -24.5t110.5 -80t59.5 -146t17.5 -221.5t-18.5 -221t-60.5 -145.5t-110.5 -80.5t-168.5 -25zM448 478q67 0 115.5 12.5t79 52t45 113.5t14.5 196
t-14.5 196t-45 113.5t-79 52t-115.5 12.5q-68 0 -116.5 -12.5t-79.5 -52t-45.5 -113.5t-14.5 -196t14.5 -196t45.5 -113.5t79.5 -52t116.5 -12.5zM300 1110h134q37 0 67.5 -8.5t53 -27.5t35 -49.5t12.5 -74.5q0 -53 -20 -84t-52 -48l100 -222h-108l-82 198h-44v-198h-96v514
zM396 1022v-142h30q36 0 56 12.5t20 57.5t-20 58.5t-56 13.5h-30z" />
    <glyph glyph-name="macron" unicode="&#xaf;" 
d="M-240 1284h480v-140h-480v140z" />
    <glyph glyph-name="degree" unicode="&#xb0;" horiz-adv-x="782" 
d="M392 752q-64 0 -117 17t-91 52t-59 89t-21 128t21.5 128t60 89t91.5 52t115 17q64 0 117 -17t91 -52t59 -89t21 -128t-21.5 -128t-60 -89t-91.5 -52t-115 -17zM392 880q30 0 56.5 8t46.5 26t31.5 48.5t11.5 75.5q0 46 -11.5 76.5t-31.5 48.5t-46.5 25.5t-56.5 7.5
q-31 0 -58 -7.5t-47 -25.5t-31.5 -48.5t-11.5 -76.5q0 -45 11.5 -75.5t31.5 -48.5t47 -26t58 -8z" />
    <glyph glyph-name="plusminus" unicode="&#xb1;" horiz-adv-x="912" 
d="M90 152h732v-152h-732v152zM90 730h284v290h166v-290h282v-152h-282v-292h-166v292h-284v152z" />
    <glyph glyph-name="twosuperior" unicode="&#xb2;" horiz-adv-x="720" 
d="M106 566q0 67 13 116t37 84.5t56.5 61t71.5 46.5q36 19 66 35.5t52 37t34 47t12 64.5q0 62 -32 91t-110 29q-54 0 -100 -14t-72 -26v140q33 15 82.5 26.5t103.5 11.5q79 0 133.5 -20t88 -54.5t48 -80t14.5 -95.5q0 -66 -20 -113.5t-53 -83t-75 -61.5t-86 -48
q-28 -15 -47.5 -29.5t-32.5 -32.5t-20 -40.5t-8 -53.5h348v-130h-504v92z" />
    <glyph glyph-name="threesuperior" unicode="&#xb3;" horiz-adv-x="720" 
d="M296 460q-57 0 -109 10.5t-81 25.5v144q12 -7 31 -14.5t42.5 -14t50.5 -11t56 -4.5q81 0 125.5 27.5t44.5 90.5q0 43 -21 71.5t-57 46.5t-83 25.5t-99 8.5v90l198 214h-286v130h486v-104l-220 -234q55 -9 99 -31.5t75 -55.5t47.5 -74t16.5 -87q0 -124 -81 -189t-235 -65z
" />
    <glyph glyph-name="acute" unicode="&#xb4;" 
d="M12 1308h216l-178 -186h-154z" />
    <glyph glyph-name="mu" unicode="&#xb5;" horiz-adv-x="900" 
d="M624 54q-44 -36 -94.5 -57t-107.5 -21q-39 0 -70.5 6.5t-57.5 17.5q6 -32 10 -65.5t4 -68.5v-166h-174v1300h174v-666q0 -46 5.5 -83.5t21.5 -64.5t45 -41.5t76 -14.5q39 0 72.5 11t63.5 31v828h174v-1000h-128z" />
    <glyph glyph-name="paragraph" unicode="&#xb6;" horiz-adv-x="950" 
d="M504 476q-125 0 -206.5 32.5t-130 88.5t-68 131t-19.5 160q0 92 23.5 168t74.5 130t131.5 84t194.5 30v-824zM640 1300h156v-1600h-156v1600z" />
    <glyph glyph-name="periodcentered" unicode="&#xb7;" horiz-adv-x="364" 
d="M182 540q-51 0 -79.5 28.5t-28.5 79.5t28.5 80.5t79.5 29.5t79.5 -29.5t28.5 -80.5t-28.5 -79.5t-79.5 -28.5z" />
    <glyph glyph-name="cedilla" unicode="&#xb8;" 
d="M-16 -310q-35 0 -65 6.5t-45 15.5v102q8 -2 23.5 -5t36.5 -3q30 0 48 12.5t18 39.5q0 18 -8 38.5t-19.5 40t-24 36t-22.5 27.5h108q16 -13 34 -32.5t33.5 -43.5t26 -51.5t10.5 -56.5q0 -60 -42.5 -93t-111.5 -33z" />
    <glyph glyph-name="onesuperior" unicode="&#xb9;" horiz-adv-x="720" 
d="M148 604h148v542l-148 -44v136l202 62h100v-696h150v-130h-452v130z" />
    <glyph glyph-name="ordmasculine" unicode="&#xba;" horiz-adv-x="720" 
d="M360 1316q75 0 129.5 -18t89.5 -65.5t52 -131t17 -213.5q0 -129 -17.5 -212t-53 -131t-90 -66.5t-127.5 -18.5q-75 0 -129.5 18t-89.5 65.5t-52 130.5t-17 214q0 129 17.5 212t53 131t89.5 66.5t128 18.5zM360 594q39 0 64 13t39 46t19.5 90t5.5 145t-5.5 145t-19.5 90
t-39 46t-64 13t-64 -13t-39 -46t-19.5 -90t-5.5 -145t5.5 -145t19.5 -90t39 -46t64 -13zM104 350h512v-136h-512v136z" />
    <glyph glyph-name="guillemotright" unicode="&#xbb;" horiz-adv-x="816" 
d="M238 600l-170 334h148l194 -334l-194 -334h-148zM598 600l-170 334h148l194 -334l-194 -334h-148z" />
    <glyph glyph-name="onequarter" unicode="&#xbc;" horiz-adv-x="1814" 
d="M1158 267l336 560h168l-328 -536h186v148h152v-148h102v-126h-102v-164h-152v164h-362v102zM148 604h148v542l-148 -44v136l202 62h100v-696h150v-130h-452v130zM1222 1300h152l-784 -1300h-152z" />
    <glyph glyph-name="onehalf" unicode="&#xbd;" horiz-adv-x="1814" 
d="M1200 93q0 67 13 116t37 84.5t56.5 61t71.5 46.5q36 19 66 35.5t52 37t34 47t12 64.5q0 62 -32 91t-110 29q-54 0 -100 -14t-72 -26v140q33 15 82.5 26.5t103.5 11.5q79 0 133.5 -20t88 -54.5t48 -80t14.5 -95.5q0 -66 -20 -113.5t-53 -83t-75 -61.5t-86 -48
q-28 -15 -47.5 -29.5t-32.5 -32.5t-20 -40.5t-8 -53.5h348v-130h-504v92zM148 604h148v542l-148 -44v136l202 62h100v-696h150v-130h-452v130zM1222 1300h152l-784 -1300h-152z" />
    <glyph glyph-name="threequarters" unicode="&#xbe;" horiz-adv-x="1814" 
d="M1158 267l336 560h168l-328 -536h186v148h152v-148h102v-126h-102v-164h-152v164h-362v102zM296 460q-57 0 -109 10.5t-81 25.5v144q12 -7 31 -14.5t42.5 -14t50.5 -11t56 -4.5q81 0 125.5 27.5t44.5 90.5q0 43 -21 71.5t-57 46.5t-83 25.5t-99 8.5v90l198 214h-286v130
h486v-104l-220 -234q55 -9 99 -31.5t75 -55.5t47.5 -74t16.5 -87q0 -124 -81 -189t-235 -65zM1222 1300h152l-784 -1300h-152z" />
    <glyph glyph-name="questiondown" unicode="&#xbf;" horiz-adv-x="670" 
d="M412 -322q-85 0 -151.5 21.5t-113 62t-71 98.5t-24.5 132q0 67 20.5 123t52.5 103t71.5 86t77.5 72l50 44l16 206h132l20 -276l-96 -84q-31 -27 -59 -55t-49 -59t-33.5 -66t-12.5 -76q0 -89 54 -129.5t144 -40.5q34 0 65 5.5t57 13.5t46 17.5t34 17.5v-164
q-12 -9 -34.5 -18.5t-52.5 -17t-66.5 -12t-76.5 -4.5zM406 806q-51 0 -79.5 29.5t-28.5 80.5t28.5 79.5t79.5 28.5t79.5 -28.5t28.5 -79.5t-28.5 -80.5t-79.5 -29.5z" />
    <glyph glyph-name="Agrave" unicode="&#xc0;" horiz-adv-x="898" 
d="M354 1300h190l346 -1300h-192l-76 294h-354l-74 -294h-186zM304 450h286l-54 216q-11 40 -22.5 90.5t-23 105t-22 111.5t-18.5 111q-9 -54 -20.5 -111t-23.5 -111.5t-24 -105t-22 -90.5zM218 1586h216l116 -186h-154z" />
    <glyph glyph-name="Aacute" unicode="&#xc1;" horiz-adv-x="898" 
d="M354 1300h190l346 -1300h-192l-76 294h-354l-74 -294h-186zM304 450h286l-54 216q-11 40 -22.5 90.5t-23 105t-22 111.5t-18.5 111q-9 -54 -20.5 -111t-23.5 -111.5t-24 -105t-22 -90.5zM460 1586h216l-178 -186h-154z" />
    <glyph glyph-name="Acircumflex" unicode="&#xc2;" horiz-adv-x="898" 
d="M354 1300h190l346 -1300h-192l-76 294h-354l-74 -294h-186zM304 450h286l-54 216q-11 40 -22.5 90.5t-23 105t-22 111.5t-18.5 111q-9 -54 -20.5 -111t-23.5 -111.5t-24 -105t-22 -90.5zM214 1492l234 120l234 -120v-116l-234 76l-234 -76v116z" />
    <glyph glyph-name="Atilde" unicode="&#xc3;" horiz-adv-x="898" 
d="M354 1300h190l346 -1300h-192l-76 294h-354l-74 -294h-186zM304 450h286l-54 216q-11 40 -22.5 90.5t-23 105t-22 111.5t-18.5 111q-9 -54 -20.5 -111t-23.5 -111.5t-24 -105t-22 -90.5zM222 1536q8 11 21 23t30 22t38 16.5t45 6.5q35 0 61.5 -12t49.5 -26t45.5 -26
t51.5 -12q36 0 64 16t46 34v-120q-8 -11 -21 -23t-30 -22t-38 -16.5t-45 -6.5q-35 0 -61.5 12t-49.5 26t-46 26t-51 12q-36 0 -64 -16.5t-46 -33.5v120z" />
    <glyph glyph-name="Adieresis" unicode="&#xc4;" horiz-adv-x="898" 
d="M354 1300h190l346 -1300h-192l-76 294h-354l-74 -294h-186zM304 450h286l-54 216q-11 40 -22.5 90.5t-23 105t-22 111.5t-18.5 111q-9 -54 -20.5 -111t-23.5 -111.5t-24 -105t-22 -90.5zM282 1388q-48 0 -76 27t-28 75q0 50 28 77t76 27t76 -28t28 -76t-28 -75t-76 -27z
M614 1388q-48 0 -76 27t-28 75q0 50 28 77t76 27t76 -28t28 -76t-28 -75t-76 -27z" />
    <glyph glyph-name="Aring" unicode="&#xc5;" horiz-adv-x="898" 
d="M354 1300h190l346 -1300h-192l-76 294h-354l-74 -294h-186zM304 450h286l-54 216q-11 40 -22.5 90.5t-23 105t-22 111.5t-18.5 111q-9 -54 -20.5 -111t-23.5 -111.5t-24 -105t-22 -90.5zM238 1399q0 49 15.5 87t43 64t65.5 39.5t84 13.5q96 0 153 -52.5t57 -151.5
q0 -48 -15.5 -86t-43 -64t-66.5 -40t-85 -14q-95 0 -151.5 53t-56.5 151zM446 1301q44 0 71 24t27 74t-27 74t-71 24q-42 0 -69 -24t-27 -74t27 -74t69 -24z" />
    <glyph glyph-name="AE" unicode="&#xc6;" horiz-adv-x="1256" 
d="M576 294h-308l-74 -294h-186l346 1300h794v-156h-388v-398h308v-154h-308v-436h388v-156h-572v294zM306 450h270v694h-90z" />
    <glyph glyph-name="Ccedilla" unicode="&#xc7;" horiz-adv-x="836" 
d="M530 -24q-128 -1 -210.5 36t-130.5 118t-66.5 209.5t-18.5 310.5t21.5 310t71 209t130 118t199.5 37q72 0 132 -15t92 -33v-170q-18 10 -42 19t-52 16.5t-58 12t-60 4.5q-71 0 -118 -20t-75 -75.5t-39.5 -155t-11.5 -257.5q0 -160 12 -259.5t40.5 -155t75 -75.5
t116.5 -20q31 0 63 5t62 12.5t55.5 17.5t43.5 21v-170q-16 -9 -41.5 -18t-56.5 -16t-65.5 -11.5t-68.5 -4.5zM466 -310q-35 0 -65 6.5t-45 15.5v102q8 -2 23.5 -5t36.5 -3q30 0 48 12.5t18 39.5q0 18 -8 38.5t-19.5 40t-24 36t-22.5 27.5h108q16 -13 34 -32.5t33.5 -43.5
t26 -51.5t10.5 -56.5q0 -60 -42.5 -93t-111.5 -33z" />
    <glyph glyph-name="Egrave" unicode="&#xc8;" horiz-adv-x="868" 
d="M154 1300h608v-156h-424v-398h342v-154h-342v-436h424v-156h-608v1300zM230 1586h216l116 -186h-154z" />
    <glyph glyph-name="Eacute" unicode="&#xc9;" horiz-adv-x="868" 
d="M154 1300h608v-156h-424v-398h342v-154h-342v-436h424v-156h-608v1300zM472 1586h216l-178 -186h-154z" />
    <glyph glyph-name="Ecircumflex" unicode="&#xca;" horiz-adv-x="868" 
d="M154 1300h608v-156h-424v-398h342v-154h-342v-436h424v-156h-608v1300zM226 1492l234 120l234 -120v-116l-234 76l-234 -76v116z" />
    <glyph glyph-name="Edieresis" unicode="&#xcb;" horiz-adv-x="868" 
d="M154 1300h608v-156h-424v-398h342v-154h-342v-436h424v-156h-608v1300zM294 1388q-48 0 -76 27t-28 75q0 50 28 77t76 27t76 -28t28 -76t-28 -75t-76 -27zM626 1388q-48 0 -76 27t-28 75q0 50 28 77t76 27t76 -28t28 -76t-28 -75t-76 -27z" />
    <glyph glyph-name="Igrave" unicode="&#xcc;" horiz-adv-x="492" 
d="M154 1300h184v-1300h-184v1300zM16 1586h216l116 -186h-154z" />
    <glyph glyph-name="Iacute" unicode="&#xcd;" horiz-adv-x="492" 
d="M154 1300h184v-1300h-184v1300zM258 1586h216l-178 -186h-154z" />
    <glyph glyph-name="Icircumflex" unicode="&#xce;" horiz-adv-x="492" 
d="M154 1300h184v-1300h-184v1300zM12 1492l234 120l234 -120v-116l-234 76l-234 -76v116z" />
    <glyph glyph-name="Idieresis" unicode="&#xcf;" horiz-adv-x="492" 
d="M154 1300h184v-1300h-184v1300zM80 1388q-48 0 -76 27t-28 75q0 50 28 77t76 27t76 -28t28 -76t-28 -75t-76 -27zM412 1388q-48 0 -76 27t-28 75q0 50 28 77t76 27t76 -28t28 -76t-28 -75t-76 -27z" />
    <glyph glyph-name="Eth" unicode="&#xd0;" horiz-adv-x="1028" 
d="M54 732h110v568h340q127 0 209 -36t128.5 -114t64.5 -201.5t18 -298.5q0 -173 -18 -296.5t-65 -202t-128.5 -115t-208.5 -36.5h-340v578h-110v154zM348 1148v-416h198v-154h-198v-426h142q70 0 117 20t75.5 74.5t40 151.5t11.5 252q0 154 -11.5 251.5t-40 152t-75.5 74.5
t-117 20h-142z" />
    <glyph glyph-name="Ntilde" unicode="&#xd1;" horiz-adv-x="1080" 
d="M154 1300h212l410 -1036q-11 80 -18.5 169t-7.5 177v690h176v-1300h-212l-414 1040q12 -80 21 -170.5t9 -179.5v-690h-176v1300zM314 1536q8 11 21 23t30 22t38 16.5t45 6.5q35 0 61.5 -12t49.5 -26t45.5 -26t51.5 -12q36 0 64 16t46 34v-120q-8 -11 -21 -23t-30 -22
t-38 -16.5t-45 -6.5q-35 0 -61.5 12t-49.5 26t-46 26t-51 12q-36 0 -64 -16.5t-46 -33.5v120z" />
    <glyph glyph-name="Ograve" unicode="&#xd2;" horiz-adv-x="1006" 
d="M502 -24q-69 0 -125.5 12t-100.5 41.5t-76.5 79t-53.5 124t-31.5 177.5t-10.5 240q0 202 24 332.5t73.5 206.5t124.5 105.5t176 29.5q104 0 179.5 -29t124.5 -104t72.5 -206t23.5 -335q0 -135 -10.5 -237.5t-32.5 -177.5t-55 -124.5t-77.5 -79.5t-100.5 -42.5t-124 -12.5
zM502 136q63 0 103.5 23t64.5 81t33 157.5t9 252.5t-9 252.5t-33 157.5t-64.5 81t-103.5 23t-103.5 -23t-63.5 -81t-32 -157.5t-9 -252.5t9 -252.5t32 -157.5t63.5 -81t103.5 -23zM272 1586h216l116 -186h-154z" />
    <glyph glyph-name="Oacute" unicode="&#xd3;" horiz-adv-x="1006" 
d="M502 -24q-69 0 -125.5 12t-100.5 41.5t-76.5 79t-53.5 124t-31.5 177.5t-10.5 240q0 202 24 332.5t73.5 206.5t124.5 105.5t176 29.5q104 0 179.5 -29t124.5 -104t72.5 -206t23.5 -335q0 -135 -10.5 -237.5t-32.5 -177.5t-55 -124.5t-77.5 -79.5t-100.5 -42.5t-124 -12.5
zM502 136q63 0 103.5 23t64.5 81t33 157.5t9 252.5t-9 252.5t-33 157.5t-64.5 81t-103.5 23t-103.5 -23t-63.5 -81t-32 -157.5t-9 -252.5t9 -252.5t32 -157.5t63.5 -81t103.5 -23zM514 1586h216l-178 -186h-154z" />
    <glyph glyph-name="Ocircumflex" unicode="&#xd4;" horiz-adv-x="1006" 
d="M502 -24q-69 0 -125.5 12t-100.5 41.5t-76.5 79t-53.5 124t-31.5 177.5t-10.5 240q0 202 24 332.5t73.5 206.5t124.5 105.5t176 29.5q104 0 179.5 -29t124.5 -104t72.5 -206t23.5 -335q0 -135 -10.5 -237.5t-32.5 -177.5t-55 -124.5t-77.5 -79.5t-100.5 -42.5t-124 -12.5
zM502 136q63 0 103.5 23t64.5 81t33 157.5t9 252.5t-9 252.5t-33 157.5t-64.5 81t-103.5 23t-103.5 -23t-63.5 -81t-32 -157.5t-9 -252.5t9 -252.5t32 -157.5t63.5 -81t103.5 -23zM268 1492l234 120l234 -120v-116l-234 76l-234 -76v116z" />
    <glyph glyph-name="Otilde" unicode="&#xd5;" horiz-adv-x="1006" 
d="M502 -24q-69 0 -125.5 12t-100.5 41.5t-76.5 79t-53.5 124t-31.5 177.5t-10.5 240q0 202 24 332.5t73.5 206.5t124.5 105.5t176 29.5q104 0 179.5 -29t124.5 -104t72.5 -206t23.5 -335q0 -135 -10.5 -237.5t-32.5 -177.5t-55 -124.5t-77.5 -79.5t-100.5 -42.5t-124 -12.5
zM502 136q63 0 103.5 23t64.5 81t33 157.5t9 252.5t-9 252.5t-33 157.5t-64.5 81t-103.5 23t-103.5 -23t-63.5 -81t-32 -157.5t-9 -252.5t9 -252.5t32 -157.5t63.5 -81t103.5 -23zM276 1536q8 11 21 23t30 22t38 16.5t45 6.5q35 0 61.5 -12t49.5 -26t45.5 -26t51.5 -12
q36 0 64 16t46 34v-120q-8 -11 -21 -23t-30 -22t-38 -16.5t-45 -6.5q-35 0 -61.5 12t-49.5 26t-46 26t-51 12q-36 0 -64 -16.5t-46 -33.5v120z" />
    <glyph glyph-name="Odieresis" unicode="&#xd6;" horiz-adv-x="1006" 
d="M502 -24q-69 0 -125.5 12t-100.5 41.5t-76.5 79t-53.5 124t-31.5 177.5t-10.5 240q0 202 24 332.5t73.5 206.5t124.5 105.5t176 29.5q104 0 179.5 -29t124.5 -104t72.5 -206t23.5 -335q0 -135 -10.5 -237.5t-32.5 -177.5t-55 -124.5t-77.5 -79.5t-100.5 -42.5t-124 -12.5
zM502 136q63 0 103.5 23t64.5 81t33 157.5t9 252.5t-9 252.5t-33 157.5t-64.5 81t-103.5 23t-103.5 -23t-63.5 -81t-32 -157.5t-9 -252.5t9 -252.5t32 -157.5t63.5 -81t103.5 -23zM336 1388q-48 0 -76 27t-28 75q0 50 28 77t76 27t76 -28t28 -76t-28 -75t-76 -27zM668 1388
q-48 0 -76 27t-28 75q0 50 28 77t76 27t76 -28t28 -76t-28 -75t-76 -27z" />
    <glyph glyph-name="multiply" unicode="&#xd7;" horiz-adv-x="870" 
d="M82 406l244 244l-244 244l110 110l242 -246l246 246l108 -110l-244 -244l244 -244l-108 -108l-246 242l-242 -242z" />
    <glyph glyph-name="Oslash" unicode="&#xd8;" horiz-adv-x="1006" 
d="M828 1156q37 -77 55.5 -200t18.5 -306q0 -202 -24 -332.5t-73.5 -206.5t-124.5 -105.5t-176 -29.5q-72 0 -129.5 15.5t-104.5 48.5l-70 -140h-144l122 244q-38 76 -56 199.5t-18 306.5q0 202 24 332.5t73.5 206.5t124.5 105.5t176 29.5q72 0 129.5 -15.5t104.5 -48.5
l72 140h142zM294 376l364 728q-29 27 -64 43.5t-92 16.5q-63 0 -103.5 -23t-63.5 -81t-32 -157.5t-9 -252.5v-274zM712 924l-364 -728q29 -27 64 -43.5t92 -16.5q63 0 103.5 23t63.5 81t32 157.5t9 252.5v274z" />
    <glyph glyph-name="Ugrave" unicode="&#xd9;" horiz-adv-x="1056" 
d="M528 -24q-99 0 -171.5 23t-119.5 72.5t-70 128.5t-23 192v908h184v-916q0 -72 12.5 -120t37.5 -76.5t62.5 -40t87.5 -11.5t87.5 11.5t62.5 40t37.5 76.5t12.5 120v916h184v-908q0 -111 -23.5 -190t-71 -129t-120 -73.5t-169.5 -23.5zM298 1586h216l116 -186h-154z" />
    <glyph glyph-name="Uacute" unicode="&#xda;" horiz-adv-x="1056" 
d="M528 -24q-99 0 -171.5 23t-119.5 72.5t-70 128.5t-23 192v908h184v-916q0 -72 12.5 -120t37.5 -76.5t62.5 -40t87.5 -11.5t87.5 11.5t62.5 40t37.5 76.5t12.5 120v916h184v-908q0 -111 -23.5 -190t-71 -129t-120 -73.5t-169.5 -23.5zM540 1586h216l-178 -186h-154z" />
    <glyph glyph-name="Ucircumflex" unicode="&#xdb;" horiz-adv-x="1056" 
d="M528 -24q-99 0 -171.5 23t-119.5 72.5t-70 128.5t-23 192v908h184v-916q0 -72 12.5 -120t37.5 -76.5t62.5 -40t87.5 -11.5t87.5 11.5t62.5 40t37.5 76.5t12.5 120v916h184v-908q0 -111 -23.5 -190t-71 -129t-120 -73.5t-169.5 -23.5zM294 1492l234 120l234 -120v-116
l-234 76l-234 -76v116z" />
    <glyph glyph-name="Udieresis" unicode="&#xdc;" horiz-adv-x="1056" 
d="M528 -24q-99 0 -171.5 23t-119.5 72.5t-70 128.5t-23 192v908h184v-916q0 -72 12.5 -120t37.5 -76.5t62.5 -40t87.5 -11.5t87.5 11.5t62.5 40t37.5 76.5t12.5 120v916h184v-908q0 -111 -23.5 -190t-71 -129t-120 -73.5t-169.5 -23.5zM362 1388q-48 0 -76 27t-28 75
q0 50 28 77t76 27t76 -28t28 -76t-28 -75t-76 -27zM694 1388q-48 0 -76 27t-28 75q0 50 28 77t76 27t76 -28t28 -76t-28 -75t-76 -27z" />
    <glyph glyph-name="Yacute" unicode="&#xdd;" horiz-adv-x="872" 
d="M344 540l-356 760h202l154 -350q27 -63 51 -128.5t41 -125.5q18 60 43.5 125.5t52.5 128.5l154 350h196l-354 -760v-540h-184v540zM448 1586h216l-178 -186h-154z" />
    <glyph glyph-name="Thorn" unicode="&#xde;" horiz-adv-x="940" 
d="M154 1300h184v-212h128q92 0 165 -21.5t123.5 -71t77 -129.5t26.5 -196q0 -113 -27.5 -192.5t-78.5 -129.5t-123.5 -73t-162.5 -23h-128v-252h-184v1300zM338 932v-524h108q54 0 95.5 11.5t70 41.5t43.5 80.5t15 128.5t-15 128.5t-43.5 80.5t-70 41.5t-95.5 11.5h-108z
" />
    <glyph glyph-name="germandbls" unicode="&#xdf;" horiz-adv-x="974" 
d="M626 -24q-74 0 -122.5 12t-71.5 26v160q11 -8 29 -15.5t39.5 -14t44.5 -10.5t45 -4q74 0 114 38.5t40 107.5q0 51 -19 90.5t-58 75t-97.5 70.5t-137.5 76v112q39 25 74.5 57t62.5 70t43 82t16 93q0 88 -37.5 131t-118.5 43q-47 0 -78 -12t-49.5 -42.5t-26.5 -84
t-8 -135.5v-902h-176v942q0 117 26 191.5t71.5 116.5t107.5 58t133 16q78 0 140 -19.5t105 -58t66 -95.5t23 -131q0 -62 -15 -114.5t-40.5 -97t-60 -82t-74.5 -68.5q70 -38 126.5 -76t97 -84t62.5 -103.5t22 -134.5q0 -60 -19.5 -112t-57.5 -90t-93.5 -60t-127.5 -22z" />
    <glyph glyph-name="agrave" unicode="&#xe0;" horiz-adv-x="858" 
d="M588 58q-45 -38 -101.5 -60t-128.5 -22q-79 0 -131 23.5t-83 66t-43.5 102.5t-12.5 134q0 73 13 133t44.5 103.5t83.5 67.5t129 24q60 0 108 -16.5t90 -45.5v64q0 61 -9 106t-31.5 73.5t-61.5 42.5t-98 14q-33 0 -65.5 -6.5t-61.5 -16t-52.5 -20.5t-38.5 -21v160
q9 7 31 17t54.5 19.5t74 16.5t90.5 7q75 0 138 -17.5t109 -58.5t71.5 -108.5t25.5 -167.5v-672h-128zM400 122q45 0 83 13.5t73 36.5v262q-35 23 -73 36.5t-83 13.5q-39 0 -65 -10.5t-41 -33t-21.5 -57t-6.5 -81.5t6.5 -80.5t21.5 -56t41 -33t65 -10.5zM184 1308h216
l116 -186h-154z" />
    <glyph glyph-name="aacute" unicode="&#xe1;" horiz-adv-x="858" 
d="M588 58q-45 -38 -101.5 -60t-128.5 -22q-79 0 -131 23.5t-83 66t-43.5 102.5t-12.5 134q0 73 13 133t44.5 103.5t83.5 67.5t129 24q60 0 108 -16.5t90 -45.5v64q0 61 -9 106t-31.5 73.5t-61.5 42.5t-98 14q-33 0 -65.5 -6.5t-61.5 -16t-52.5 -20.5t-38.5 -21v160
q9 7 31 17t54.5 19.5t74 16.5t90.5 7q75 0 138 -17.5t109 -58.5t71.5 -108.5t25.5 -167.5v-672h-128zM400 122q45 0 83 13.5t73 36.5v262q-35 23 -73 36.5t-83 13.5q-39 0 -65 -10.5t-41 -33t-21.5 -57t-6.5 -81.5t6.5 -80.5t21.5 -56t41 -33t65 -10.5zM424 1308h216
l-178 -186h-154z" />
    <glyph glyph-name="acircumflex" unicode="&#xe2;" horiz-adv-x="858" 
d="M588 58q-45 -38 -101.5 -60t-128.5 -22q-79 0 -131 23.5t-83 66t-43.5 102.5t-12.5 134q0 73 13 133t44.5 103.5t83.5 67.5t129 24q60 0 108 -16.5t90 -45.5v64q0 61 -9 106t-31.5 73.5t-61.5 42.5t-98 14q-33 0 -65.5 -6.5t-61.5 -16t-52.5 -20.5t-38.5 -21v160
q9 7 31 17t54.5 19.5t74 16.5t90.5 7q75 0 138 -17.5t109 -58.5t71.5 -108.5t25.5 -167.5v-672h-128zM400 122q45 0 83 13.5t73 36.5v262q-35 23 -73 36.5t-83 13.5q-39 0 -65 -10.5t-41 -33t-21.5 -57t-6.5 -81.5t6.5 -80.5t21.5 -56t41 -33t65 -10.5zM178 1214l234 118
l234 -118v-116l-234 76l-234 -76v116z" />
    <glyph glyph-name="atilde" unicode="&#xe3;" horiz-adv-x="858" 
d="M588 58q-45 -38 -101.5 -60t-128.5 -22q-79 0 -131 23.5t-83 66t-43.5 102.5t-12.5 134q0 73 13 133t44.5 103.5t83.5 67.5t129 24q60 0 108 -16.5t90 -45.5v64q0 61 -9 106t-31.5 73.5t-61.5 42.5t-98 14q-33 0 -65.5 -6.5t-61.5 -16t-52.5 -20.5t-38.5 -21v160
q9 7 31 17t54.5 19.5t74 16.5t90.5 7q75 0 138 -17.5t109 -58.5t71.5 -108.5t25.5 -167.5v-672h-128zM400 122q45 0 83 13.5t73 36.5v262q-35 23 -73 36.5t-83 13.5q-39 0 -65 -10.5t-41 -33t-21.5 -57t-6.5 -81.5t6.5 -80.5t21.5 -56t41 -33t65 -10.5zM504 1112
q-35 0 -61.5 12t-49.5 26t-46 26t-51 12q-36 0 -64 -16.5t-46 -33.5v120q8 11 21 23t30 21.5t38 15.5t45 6q35 0 61.5 -12t49.5 -26t45.5 -26t51.5 -12q36 0 64 17t46 35v-122q-8 -11 -21 -22.5t-30 -21t-38 -16t-45 -6.5z" />
    <glyph glyph-name="adieresis" unicode="&#xe4;" horiz-adv-x="858" 
d="M588 58q-45 -38 -101.5 -60t-128.5 -22q-79 0 -131 23.5t-83 66t-43.5 102.5t-12.5 134q0 73 13 133t44.5 103.5t83.5 67.5t129 24q60 0 108 -16.5t90 -45.5v64q0 61 -9 106t-31.5 73.5t-61.5 42.5t-98 14q-33 0 -65.5 -6.5t-61.5 -16t-52.5 -20.5t-38.5 -21v160
q9 7 31 17t54.5 19.5t74 16.5t90.5 7q75 0 138 -17.5t109 -58.5t71.5 -108.5t25.5 -167.5v-672h-128zM400 122q45 0 83 13.5t73 36.5v262q-35 23 -73 36.5t-83 13.5q-39 0 -65 -10.5t-41 -33t-21.5 -57t-6.5 -81.5t6.5 -80.5t21.5 -56t41 -33t65 -10.5zM246 1110
q-48 0 -76 27t-28 75q0 50 28 76t76 26t76 -27t28 -75q0 -50 -28 -76t-76 -26zM578 1110q-48 0 -76 27t-28 75q0 50 28 76t76 26t76 -27t28 -75q0 -50 -28 -76t-76 -26z" />
    <glyph glyph-name="aring" unicode="&#xe5;" horiz-adv-x="858" 
d="M588 58q-45 -38 -101.5 -60t-128.5 -22q-79 0 -131 23.5t-83 66t-43.5 102.5t-12.5 134q0 73 13 133t44.5 103.5t83.5 67.5t129 24q60 0 108 -16.5t90 -45.5v64q0 61 -9 106t-31.5 73.5t-61.5 42.5t-98 14q-33 0 -65.5 -6.5t-61.5 -16t-52.5 -20.5t-38.5 -21v160
q9 7 31 17t54.5 19.5t74 16.5t90.5 7q75 0 138 -17.5t109 -58.5t71.5 -108.5t25.5 -167.5v-672h-128zM400 122q45 0 83 13.5t73 36.5v262q-35 23 -73 36.5t-83 13.5q-39 0 -65 -10.5t-41 -33t-21.5 -57t-6.5 -81.5t6.5 -80.5t21.5 -56t41 -33t65 -10.5zM412 1088
q-47 0 -86 13.5t-66.5 39t-42.5 63.5t-15 88q0 48 15.5 86t43 64t66 40t85.5 14q95 0 151.5 -53t56.5 -151q0 -49 -15.5 -87t-43 -64t-65.5 -39.5t-84 -13.5zM412 1194q44 0 71 24t27 74t-27 74t-71 24t-71 -24t-27 -74t27 -74t71 -24z" />
    <glyph glyph-name="ae" unicode="&#xe6;" horiz-adv-x="1300" 
d="M358 -24q-79 0 -131 23.5t-83 66.5t-43.5 103t-12.5 133t13 133t44.5 103.5t83.5 67.5t129 24q60 0 109 -16.5t91 -43.5v62q0 63 -9 107.5t-31.5 73t-59.5 42t-92 13.5q-35 0 -69 -6.5t-64.5 -16t-55 -20.5t-39.5 -21v160q9 7 31 17t54.5 19.5t74 16.5t90.5 7
q92 0 157.5 -24t104.5 -78q42 53 100 77.5t132 24.5q85 0 147 -22.5t102.5 -81t60.5 -160t20 -260.5v-56h-480q3 -99 15.5 -160t37 -94t62.5 -44.5t91 -11.5q33 0 66 5.5t63 14.5t54 19t39 19v-158q-9 -7 -30 -17t-52 -19t-70.5 -15.5t-85.5 -6.5q-89 0 -159.5 22.5
t-118.5 85.5q-53 -48 -125.5 -78t-160.5 -30zM588 194q-15 48 -24 107.5t-12 134.5q-33 21 -70.5 34.5t-81.5 13.5q-39 0 -65 -10.5t-41 -33t-21.5 -57t-6.5 -81.5t6.5 -80.5t21.5 -56t41 -33t65 -10.5q56 0 103 20t85 52zM882 872q-42 0 -70 -14t-45 -47t-25 -87.5
t-10 -135.5h300q-2 81 -10 135.5t-24.5 87.5t-44.5 47t-71 14z" />
    <glyph glyph-name="ccedilla" unicode="&#xe7;" horiz-adv-x="718" 
d="M446 -24q-105 0 -172 34.5t-106 101t-53.5 164t-14.5 224.5q0 158 25 260t70 160.5t109 81t142 22.5q77 0 123 -14.5t73 -29.5v-160q-11 7 -29.5 14.5t-41 14t-49 11t-54.5 4.5q-52 0 -87.5 -14.5t-58 -55t-32.5 -111.5t-10 -183q0 -110 9 -181t30 -111.5t54.5 -56.5
t82.5 -17q60 0 109 15t85 35v-160q-12 -7 -31.5 -15t-45.5 -15.5t-58 -12.5t-69 -5zM406 -310q-35 0 -65 6.5t-45 15.5v102q8 -2 23.5 -5t36.5 -3q30 0 48 12.5t18 39.5q0 18 -8 38.5t-19.5 40t-24 36t-22.5 27.5h108q16 -13 34 -32.5t33.5 -43.5t26 -51.5t10.5 -56.5
q0 -60 -42.5 -93t-111.5 -33z" />
    <glyph glyph-name="egrave" unicode="&#xe8;" horiz-adv-x="848" 
d="M470 -24q-85 0 -153.5 21t-116.5 78t-74 157.5t-26 259.5q0 160 20.5 263.5t62 163t103 82.5t144.5 23q85 0 147 -22.5t102.5 -81t60.5 -160t20 -260.5v-56h-482q3 -99 16 -160t38 -94t63 -44.5t91 -11.5q33 0 66 5.5t62.5 14.5t53.5 19t38 19v-158q-9 -7 -30 -17
t-52 -19t-70 -15.5t-84 -6.5zM430 872q-42 0 -70 -14t-45.5 -47t-26 -87.5t-10.5 -135.5h304q-2 81 -10.5 135.5t-26 87.5t-45.5 47t-70 14zM202 1308h216l116 -186h-154z" />
    <glyph glyph-name="eacute" unicode="&#xe9;" horiz-adv-x="848" 
d="M442 1308h216l-178 -186h-154zM470 -24q-85 0 -153.5 21t-116.5 78t-74 157.5t-26 259.5q0 160 20.5 263.5t62 163t103 82.5t144.5 23q85 0 147 -22.5t102.5 -81t60.5 -160t20 -260.5v-56h-482q3 -99 16 -160t38 -94t63 -44.5t91 -11.5q33 0 66 5.5t62.5 14.5t53.5 19
t38 19v-158q-9 -7 -30 -17t-52 -19t-70 -15.5t-84 -6.5zM430 872q-42 0 -70 -14t-45.5 -47t-26 -87.5t-10.5 -135.5h304q-2 81 -10.5 135.5t-26 87.5t-45.5 47t-70 14z" />
    <glyph glyph-name="ecircumflex" unicode="&#xea;" horiz-adv-x="848" 
d="M196 1214l234 118l234 -118v-116l-234 76l-234 -76v116zM470 -24q-85 0 -153.5 21t-116.5 78t-74 157.5t-26 259.5q0 160 20.5 263.5t62 163t103 82.5t144.5 23q85 0 147 -22.5t102.5 -81t60.5 -160t20 -260.5v-56h-482q3 -99 16 -160t38 -94t63 -44.5t91 -11.5
q33 0 66 5.5t62.5 14.5t53.5 19t38 19v-158q-9 -7 -30 -17t-52 -19t-70 -15.5t-84 -6.5zM430 872q-42 0 -70 -14t-45.5 -47t-26 -87.5t-10.5 -135.5h304q-2 81 -10.5 135.5t-26 87.5t-45.5 47t-70 14z" />
    <glyph glyph-name="edieresis" unicode="&#xeb;" horiz-adv-x="848" 
d="M264 1110q-48 0 -76 27t-28 75q0 50 28 76t76 26t76 -27t28 -75q0 -50 -28 -76t-76 -26zM596 1110q-48 0 -76 27t-28 75q0 50 28 76t76 26t76 -27t28 -75q0 -50 -28 -76t-76 -26zM470 -24q-85 0 -153.5 21t-116.5 78t-74 157.5t-26 259.5q0 160 20.5 263.5t62 163
t103 82.5t144.5 23q85 0 147 -22.5t102.5 -81t60.5 -160t20 -260.5v-56h-482q3 -99 16 -160t38 -94t63 -44.5t91 -11.5q33 0 66 5.5t62.5 14.5t53.5 19t38 19v-158q-9 -7 -30 -17t-52 -19t-70 -15.5t-84 -6.5zM430 872q-42 0 -70 -14t-45.5 -47t-26 -87.5t-10.5 -135.5h304
q-2 81 -10.5 135.5t-26 87.5t-45.5 47t-70 14z" />
    <glyph glyph-name="igrave" unicode="&#xec;" horiz-adv-x="444" 
d="M134 1000h176v-1000h-176v1000zM-6 1308h216l116 -186h-154z" />
    <glyph glyph-name="iacute" unicode="&#xed;" horiz-adv-x="444" 
d="M234 1308h216l-178 -186h-154zM134 1000h176v-1000h-176v1000z" />
    <glyph glyph-name="icircumflex" unicode="&#xee;" horiz-adv-x="444" 
d="M-12 1214l234 118l234 -118v-116l-234 76l-234 -76v116zM134 1000h176v-1000h-176v1000z" />
    <glyph glyph-name="idieresis" unicode="&#xef;" horiz-adv-x="444" 
d="M56 1110q-48 0 -76 27t-28 75q0 50 28 76t76 26t76 -27t28 -75q0 -50 -28 -76t-76 -26zM388 1110q-48 0 -76 27t-28 75q0 50 28 76t76 26t76 -27t28 -75q0 -50 -28 -76t-76 -26zM134 1000h176v-1000h-176v1000z" />
    <glyph glyph-name="eth" unicode="&#xf0;" horiz-adv-x="880" 
d="M354 1048l148 78q-56 50 -156 50q-59 0 -108 -15t-84 -35v150q11 7 30.5 15t45.5 15.5t59 12.5t71 5q101 0 173.5 -30t120.5 -90l190 100v-154l-124 -64q32 -85 46 -195t14 -247q0 -201 -17 -330.5t-57 -204.5t-105.5 -104t-162.5 -29q-90 0 -154 28.5t-105 83t-60 134
t-19 180.5q0 107 21 186t60 131t95 77.5t126 25.5q56 0 106.5 -13t91.5 -33q-2 69 -9.5 127t-22.5 103l-214 -112v154zM438 132q49 0 80.5 20.5t50 67t26 121t7.5 183.5v106q-33 15 -74 24.5t-88 9.5q-49 0 -80.5 -16t-49.5 -48.5t-25 -81.5t-7 -116q0 -62 6.5 -111.5
t24.5 -85t49 -54.5t80 -19z" />
    <glyph glyph-name="ntilde" unicode="&#xf1;" horiz-adv-x="902" 
d="M134 1000h128l14 -56q45 36 100 58t118 22q82 0 136.5 -26.5t87.5 -72t46.5 -107.5t13.5 -132v-686h-176v666q0 44 -6 81.5t-22.5 64.5t-46 42.5t-77.5 15.5q-39 0 -74.5 -12t-65.5 -32v-826h-176v1000zM548 1112q-35 0 -61.5 12t-49.5 26t-46 26t-51 12q-36 0 -64 -16.5
t-46 -33.5v120q8 11 21 23t30 21.5t38 15.5t45 6q35 0 61.5 -12t49.5 -26t45.5 -26t51.5 -12q36 0 64 17t46 35v-122q-8 -11 -21 -22.5t-30 -21t-38 -16t-45 -6.5z" />
    <glyph glyph-name="ograve" unicode="&#xf2;" horiz-adv-x="880" 
d="M440 -24q-88 0 -152 22.5t-106 81t-62 160.5t-20 260q0 157 21.5 258.5t64 160.5t106 82t148.5 23q88 0 152 -22.5t106 -81t62 -160.5t20 -260q0 -157 -21.5 -258.5t-64 -160.5t-106 -82t-148.5 -23zM440 132q48 0 79.5 16.5t49.5 58.5t25.5 113t7.5 180t-7.5 180
t-25.5 113t-49.5 58.5t-79.5 16.5t-79.5 -16.5t-49.5 -58.5t-25.5 -113t-7.5 -180t7.5 -180t25.5 -113t49.5 -58.5t79.5 -16.5zM212 1308h216l116 -186h-154z" />
    <glyph glyph-name="oacute" unicode="&#xf3;" horiz-adv-x="880" 
d="M452 1308h216l-178 -186h-154zM440 -24q-88 0 -152 22.5t-106 81t-62 160.5t-20 260q0 157 21.5 258.5t64 160.5t106 82t148.5 23q88 0 152 -22.5t106 -81t62 -160.5t20 -260q0 -157 -21.5 -258.5t-64 -160.5t-106 -82t-148.5 -23zM440 132q48 0 79.5 16.5t49.5 58.5
t25.5 113t7.5 180t-7.5 180t-25.5 113t-49.5 58.5t-79.5 16.5t-79.5 -16.5t-49.5 -58.5t-25.5 -113t-7.5 -180t7.5 -180t25.5 -113t49.5 -58.5t79.5 -16.5z" />
    <glyph glyph-name="ocircumflex" unicode="&#xf4;" horiz-adv-x="880" 
d="M206 1214l234 118l234 -118v-116l-234 76l-234 -76v116zM440 -24q-88 0 -152 22.5t-106 81t-62 160.5t-20 260q0 157 21.5 258.5t64 160.5t106 82t148.5 23q88 0 152 -22.5t106 -81t62 -160.5t20 -260q0 -157 -21.5 -258.5t-64 -160.5t-106 -82t-148.5 -23zM440 132
q48 0 79.5 16.5t49.5 58.5t25.5 113t7.5 180t-7.5 180t-25.5 113t-49.5 58.5t-79.5 16.5t-79.5 -16.5t-49.5 -58.5t-25.5 -113t-7.5 -180t7.5 -180t25.5 -113t49.5 -58.5t79.5 -16.5z" />
    <glyph glyph-name="otilde" unicode="&#xf5;" horiz-adv-x="880" 
d="M440 -24q-88 0 -152 22.5t-106 81t-62 160.5t-20 260q0 157 21.5 258.5t64 160.5t106 82t148.5 23q88 0 152 -22.5t106 -81t62 -160.5t20 -260q0 -157 -21.5 -258.5t-64 -160.5t-106 -82t-148.5 -23zM440 132q48 0 79.5 16.5t49.5 58.5t25.5 113t7.5 180t-7.5 180
t-25.5 113t-49.5 58.5t-79.5 16.5t-79.5 -16.5t-49.5 -58.5t-25.5 -113t-7.5 -180t7.5 -180t25.5 -113t49.5 -58.5t79.5 -16.5zM532 1112q-35 0 -61.5 12t-49.5 26t-46 26t-51 12q-36 0 -64 -16.5t-46 -33.5v120q8 11 21 23t30 21.5t38 15.5t45 6q35 0 61.5 -12t49.5 -26
t45.5 -26t51.5 -12q36 0 64 17t46 35v-122q-8 -11 -21 -22.5t-30 -21t-38 -16t-45 -6.5z" />
    <glyph glyph-name="odieresis" unicode="&#xf6;" horiz-adv-x="880" 
d="M274 1110q-48 0 -76 27t-28 75q0 50 28 76t76 26t76 -27t28 -75q0 -50 -28 -76t-76 -26zM606 1110q-48 0 -76 27t-28 75q0 50 28 76t76 26t76 -27t28 -75q0 -50 -28 -76t-76 -26zM440 -24q-88 0 -152 22.5t-106 81t-62 160.5t-20 260q0 157 21.5 258.5t64 160.5t106 82
t148.5 23q88 0 152 -22.5t106 -81t62 -160.5t20 -260q0 -157 -21.5 -258.5t-64 -160.5t-106 -82t-148.5 -23zM440 132q48 0 79.5 16.5t49.5 58.5t25.5 113t7.5 180t-7.5 180t-25.5 113t-49.5 58.5t-79.5 16.5t-79.5 -16.5t-49.5 -58.5t-25.5 -113t-7.5 -180t7.5 -180
t25.5 -113t49.5 -58.5t79.5 -16.5z" />
    <glyph glyph-name="divide" unicode="&#xf7;" horiz-adv-x="912" 
d="M456 152q-51 0 -79.5 29.5t-28.5 80.5t28.5 79.5t79.5 28.5t79.5 -28.5t28.5 -79.5t-28.5 -80.5t-79.5 -29.5zM456 930q-51 0 -79.5 29.5t-28.5 80.5t28.5 79.5t79.5 28.5t79.5 -28.5t28.5 -79.5t-28.5 -80.5t-79.5 -29.5zM90 726h732v-152h-732v152z" />
    <glyph glyph-name="oslash" unicode="&#xf8;" horiz-adv-x="880" 
d="M440 -24q-56 0 -101 8t-83 28l-58 -112h-142l108 208q-33 60 -48.5 155t-15.5 237q0 157 21.5 258.5t64 160.5t106 82t148.5 23q54 0 100 -8.5t82 -29.5l60 114h142l-110 -208q33 -60 49.5 -155t16.5 -237q0 -157 -21.5 -258.5t-64 -160.5t-106 -82t-148.5 -23zM278 326
l268 512q-18 15 -45.5 22.5t-60.5 7.5q-48 0 -79.5 -16.5t-49.5 -58.5t-25.5 -113t-7.5 -180v-174zM602 674l-270 -514q37 -28 108 -28q48 0 79.5 16.5t49.5 58.5t25.5 113t7.5 180v174z" />
    <glyph glyph-name="ugrave" unicode="&#xf9;" horiz-adv-x="892" 
d="M614 54q-42 -36 -95 -57t-113 -21q-83 0 -137 26.5t-86.5 72t-45.5 107t-13 132.5v686h176v-666q0 -46 5 -83.5t21 -64.5t45 -41.5t77 -14.5q39 0 72 11t62 31v828h176v-1000h-128zM212 1308h216l116 -186h-154z" />
    <glyph glyph-name="uacute" unicode="&#xfa;" horiz-adv-x="892" 
d="M452 1308h216l-178 -186h-154zM614 54q-42 -36 -95 -57t-113 -21q-83 0 -137 26.5t-86.5 72t-45.5 107t-13 132.5v686h176v-666q0 -46 5 -83.5t21 -64.5t45 -41.5t77 -14.5q39 0 72 11t62 31v828h176v-1000h-128z" />
    <glyph glyph-name="ucircumflex" unicode="&#xfb;" horiz-adv-x="892" 
d="M206 1214l234 118l234 -118v-116l-234 76l-234 -76v116zM614 54q-42 -36 -95 -57t-113 -21q-83 0 -137 26.5t-86.5 72t-45.5 107t-13 132.5v686h176v-666q0 -46 5 -83.5t21 -64.5t45 -41.5t77 -14.5q39 0 72 11t62 31v828h176v-1000h-128z" />
    <glyph glyph-name="udieresis" unicode="&#xfc;" horiz-adv-x="892" 
d="M274 1110q-48 0 -76 27t-28 75q0 50 28 76t76 26t76 -27t28 -75q0 -50 -28 -76t-76 -26zM606 1110q-48 0 -76 27t-28 75q0 50 28 76t76 26t76 -27t28 -75q0 -50 -28 -76t-76 -26zM614 54q-42 -36 -95 -57t-113 -21q-83 0 -137 26.5t-86.5 72t-45.5 107t-13 132.5v686h176
v-666q0 -46 5 -83.5t21 -64.5t45 -41.5t77 -14.5q39 0 72 11t62 31v828h176v-1000h-128z" />
    <glyph glyph-name="yacute" unicode="&#xfd;" horiz-adv-x="796" 
d="M310 2l-276 998h178l140 -552q6 -23 12.5 -53t12.5 -63.5t12 -69.5t11 -70q4 34 10 70t12.5 69.5t13 63.5t12.5 53l140 552h174l-360 -1300h-180zM410 1308h216l-178 -186h-154z" />
    <glyph glyph-name="thorn" unicode="&#xfe;" horiz-adv-x="894" 
d="M134 1300h176v-332q38 26 84 41t102 15q79 0 135.5 -25t92.5 -85.5t53 -161.5t17 -252q0 -149 -18 -249t-55 -161.5t-93 -87.5t-132 -26q-56 0 -102 15t-84 41v-332h-176v1600zM450 868q-41 0 -75.5 -12t-64.5 -32v-648q30 -20 64.5 -32t75.5 -12q49 0 80.5 16.5t50 58
t26 112.5t7.5 181q0 109 -7.5 180.5t-26 113t-50 58t-80.5 16.5z" />
    <glyph glyph-name="ydieresis" unicode="&#xff;" horiz-adv-x="796" 
d="M310 2l-276 998h178l140 -552q6 -23 12.5 -53t12.5 -63.5t12 -69.5t11 -70q4 34 10 70t12.5 69.5t13 63.5t12.5 53l140 552h174l-360 -1300h-180zM232 1110q-48 0 -76 27t-28 75q0 50 28 76t76 26t76 -27t28 -75q0 -50 -28 -76t-76 -26zM564 1110q-48 0 -76 27t-28 75
q0 50 28 76t76 26t76 -27t28 -75q0 -50 -28 -76t-76 -26z" />
    <glyph glyph-name="quotedbl" unicode="&#x22;" horiz-adv-x="662" 
d="M112 836q-9 58 -17.5 114t-15.5 105.5t-11 89.5t-4 67q0 51 25.5 80.5t78.5 29.5q51 0 77.5 -29.5t26.5 -80.5q0 -27 -4 -67t-11 -89.5t-15.5 -105.5t-17.5 -114h-112v0zM438 836q-9 58 -17.5 114t-15.5 105.5t-11 89.5t-4 67q0 51 25.5 80.5t78.5 29.5q51 0 77.5 -29.5
t26.5 -80.5q0 -27 -4 -67t-11 -89.5t-15.5 -105.5t-17.5 -114h-112v0z" />
    <glyph glyph-name="exclam" unicode="!" horiz-adv-x="532" 
d="M266 -22q-51 0 -79.5 28.5t-28.5 79.5t28.5 80.5t79.5 29.5t79.5 -29.5t28.5 -80.5t-28.5 -79.5t-79.5 -28.5zM158 1300h214l-40 -924h-132z" />
    <glyph glyph-name="lslash" unicode="&#x142;" horiz-adv-x="530" 
d="M50 626l84 44v630h176v-538l146 76v-168l-146 -76v-342q0 -29 4.5 -50.5t16.5 -35t33.5 -20t55.5 -6.5h36v-148h-76q-52 0 -97 9.5t-78 35t-52 70t-19 115.5v280l-84 -44v168z" />
    <glyph glyph-name="minus" unicode="&#x2212;" horiz-adv-x="912" 
d="M90 730h732v-152h-732v152z" />
    <glyph glyph-name="Lslash" unicode="&#x141;" horiz-adv-x="796" 
d="M64 628l106 56v616h184v-520l172 90v-166l-172 -92v-456h404v-156h-588v516l-106 -56v168z" />
    <glyph glyph-name="zero.alt" horiz-adv-x="1006" 
d="M504 562q-44 0 -68 23t-24 65t24 66t68 24t67 -24t23 -66t-23 -65t-67 -23zM502 -24q-69 0 -125.5 12t-100.5 41.5t-76.5 79t-53.5 124t-31.5 177.5t-10.5 240q0 202 24 332.5t73.5 206.5t124.5 105.5t176 29.5q104 0 179.5 -29t124.5 -104t72.5 -206t23.5 -335
q0 -135 -10.5 -237.5t-32.5 -177.5t-55 -124.5t-77.5 -79.5t-100.5 -42.5t-124 -12.5zM502 136q63 0 103.5 23t64.5 81t33 157.5t9 252.5t-9 252.5t-33 157.5t-64.5 81t-103.5 23t-103.5 -23t-63.5 -81t-32 -157.5t-9 -252.5t9 -252.5t32 -157.5t63.5 -81t103.5 -23z" />
    <glyph glyph-name="notequal" unicode="&#x2260;" horiz-adv-x="912" 
d="M90 898h424l102 190h142l-102 -190h166v-152h-248l-98 -182h346v-152h-426l-102 -190h-140l100 190h-164v152h246l96 182h-342v152z" />
    <glyph glyph-name="infinity" unicode="&#x221e;" horiz-adv-x="1284" 
d="M946 170q-52 0 -95 15t-79.5 41.5t-68.5 62.5t-61 79q-30 -43 -62 -79t-69 -62.5t-79.5 -41.5t-93.5 -15q-134 0 -196 85t-62 245q0 156 63 243t195 87q51 0 93.5 -15t79.5 -41.5t69 -63.5t62 -80q29 43 61 80t68.5 63.5t79.5 41.5t95 15q134 0 196 -85t62 -245
q0 -156 -63 -243t-195 -87zM356 318q29 0 56.5 14t53.5 38.5t50.5 58t47.5 71.5q-23 37 -47.5 70.5t-50.5 58t-53.5 39t-56.5 14.5q-62 0 -89 -44t-27 -138t27 -138t89 -44zM928 682q-29 0 -57 -14.5t-54 -39t-50.5 -58t-46.5 -70.5q22 -38 46.5 -71.5t50.5 -58t54 -38.5
t57 -14q62 0 89 44t27 138t-27 138t-89 44z" />
    <glyph glyph-name="lessequal" unicode="&#x2264;" horiz-adv-x="928" 
d="M90 152h738v-152h-738v152zM90 598v112l682 336l66 -136l-532 -256l532 -256l-66 -134z" />
    <glyph glyph-name="greaterequal" unicode="&#x2265;" horiz-adv-x="928" 
d="M100 152h738v-152h-738v152zM90 398l530 256l-530 256l68 136l680 -336v-112l-680 -334z" />
    <glyph glyph-name="partialdiff" unicode="&#x2202;" horiz-adv-x="882" 
d="M440 -24q-90 0 -154.5 30t-105.5 85.5t-60.5 134t-19.5 176.5q0 107 21 186t60.5 131t95.5 77.5t127 25.5q56 0 106.5 -13t91.5 -33q-2 85 -14.5 156.5t-41 124t-76 82t-120.5 29.5q-60 0 -109 -14.5t-85 -35.5v158q12 7 31.5 15t46 15.5t59.5 12.5t71 5q122 0 202.5 -43
t128.5 -128.5t67.5 -212.5t19.5 -296q0 -201 -17.5 -330.5t-57.5 -204.5t-105.5 -104t-161.5 -29zM440 132q48 0 79.5 20.5t50.5 67t26.5 121t7.5 183.5v104q-33 15 -74 25.5t-88 10.5q-50 0 -81.5 -16t-50 -48.5t-25.5 -81.5t-7 -116q0 -62 7 -111.5t25 -85t49.5 -54.5
t80.5 -19z" />
    <glyph glyph-name="summation" unicode="&#x2211;" horiz-adv-x="750" 
d="M54 -170l296 666l-296 674v130h642v-156h-438l284 -644l-288 -644h442v-156h-642v130z" />
    <glyph glyph-name="product" unicode="&#x220f;" horiz-adv-x="1052" 
d="M714 1144h-376v-1444h-184v1600h744v-1600h-184v1444z" />
    <glyph glyph-name="pi" unicode="&#x3c0;" horiz-adv-x="898" 
d="M586 854h-276v-854h-176v1000h628v-1000h-176v854z" />
    <glyph glyph-name="integral" unicode="&#x222b;" horiz-adv-x="442" 
d="M-46 -154h50q35 0 60 5t40.5 19t22.5 39t7 65v1068q0 82 21 133t56.5 78.5t82 37t98.5 9.5h98v-146h-52q-35 0 -60 -5t-40.5 -19t-22.5 -39t-7 -65v-1068q0 -83 -21 -133.5t-56.5 -78t-82 -37t-98.5 -9.5h-96v146z" />
    <glyph glyph-name="Omega" unicode="&#x2126;" horiz-adv-x="1008" 
d="M52 156h190q-28 46 -53 105.5t-44 129.5t-30 148t-11 161q0 183 25 303.5t74.5 191.5t124.5 100t176 29q103 0 178 -28t124.5 -98.5t73.5 -191.5t24 -306q0 -83 -11.5 -161t-30.5 -148t-44 -129.5t-52 -105.5h190v-156h-384v128q32 54 58.5 120.5t45 139t28.5 148
t10 146.5q0 136 -9.5 228t-33.5 148.5t-64.5 81t-102.5 24.5t-102.5 -24.5t-64 -81t-32.5 -148.5t-9 -228q0 -71 10 -146.5t28 -148t44 -139t58 -120.5v-128h-384v156z" />
    <glyph glyph-name="radical" unicode="&#x221a;" horiz-adv-x="810" 
d="M82 848h-152v152h294l136 -552q6 -26 12 -57t12 -65t11.5 -69t10.5 -69q4 34 9 69t11 69t12.5 65t13.5 57l216 852h180l-350 -1300h-188z" />
    <glyph glyph-name="approxequal" unicode="&#x2248;" horiz-adv-x="912" 
d="M648 370q-54 0 -105.5 13.5t-101 29.5t-98 29.5t-95.5 13.5q-56 0 -97 -19t-61 -39v142q8 11 25 23t40 22t51 16.5t58 6.5q54 0 105.5 -13.5t101.5 -29.5t98.5 -29.5t96.5 -13.5q56 0 96 19t60 39v-144q-8 -11 -25 -22.5t-39.5 -21t-50.5 -16t-59 -6.5zM648 706
q-54 0 -105.5 13.5t-101 29.5t-98 29.5t-95.5 13.5q-56 0 -97 -19t-61 -39v142q8 11 25 23t40 22t51 16.5t58 6.5q54 0 105.5 -13.5t101.5 -29.5t98.5 -29.5t96.5 -13.5q56 0 96 19t60 39v-144q-8 -11 -25 -22.5t-39.5 -21t-50.5 -16t-59 -6.5z" />
    <glyph glyph-name="Delta" unicode="&#x2206;" horiz-adv-x="908" 
d="M360 1300h190l352 -1300h-896zM220 152h464l-136 514q-11 42 -24 92t-26 103.5t-25 108t-21 104.5q-8 -50 -19.5 -104.5t-24.5 -108t-26 -103.5t-24 -92z" />
    <glyph glyph-name="lozenge" unicode="&#x25ca;" horiz-adv-x="892" 
d="M30 650l324 650h186l322 -650l-322 -650h-186zM348 382q12 -24 25.5 -52.5t27 -59.5t25.5 -63t20 -63q8 31 20.5 63t26 63t27.5 59.5t26 52.5l134 268l-134 268q-12 24 -26 52.5t-27.5 59.5t-26 62.5t-20.5 61.5q-8 -30 -20 -61.5t-25.5 -62.5t-27 -59.5t-25.5 -52.5
l-132 -268z" />
    <glyph glyph-name="fraction" unicode="&#x2044;" horiz-adv-x="378" 
d="M506 1300h152l-784 -1300h-152z" />
    <glyph glyph-name="apple" horiz-adv-x="1340" 
d="M612 230q-60 0 -112.5 24t-91.5 71.5t-61.5 118t-22.5 162.5q0 64 15 121.5t44.5 104.5t73 81.5t101.5 52.5q-80 -53 -113 -139.5t-33 -210.5q0 -68 14.5 -126.5t41.5 -101.5t65 -67.5t85 -24.5t74.5 20t29.5 44l-2 2q-14 -5 -31.5 -6.5t-34.5 -1.5q-33 0 -60.5 20.5
t-47.5 57t-31 87t-11 109.5q0 67 10 128.5t35.5 109t67.5 76t107 28.5q60 0 112.5 -24t91.5 -71.5t61.5 -118t22.5 -162.5q0 -64 -15 -121.5t-45 -105t-74 -82.5t-102 -53q80 53 114 140t34 212q0 68 -15 126.5t-42 101.5t-65 67.5t-84 24.5q-47 0 -74.5 -20t-29.5 -44l2 -2
q14 5 31.5 6.5t34.5 1.5q33 0 60.5 -20.5t47.5 -57t31 -87t11 -109.5q0 -67 -10 -128.5t-35.5 -109t-68 -76t-106.5 -28.5zM616 158q111 0 201.5 30.5t154.5 88.5t99 141.5t35 189.5q0 109 -31 190.5t-83.5 135.5t-122.5 81t-149 27q-111 0 -201.5 -30.5t-154.5 -88.5
t-99 -141.5t-35 -189.5q0 -109 31 -190.5t83.5 -135.5t122.5 -81t149 -27zM80 1180h1180v-1180h-1180v1180z" />
    <glyph glyph-name="dotlessi" unicode="&#x131;" horiz-adv-x="444" 
d="M134 1000h176v-1000h-176v1000z" />
    <glyph glyph-name="breve" unicode="&#x2d8;" 
d="M0 1108q-58 0 -101.5 16.5t-74 39t-48.5 45t-24 35.5l60 92q6 -8 20.5 -22t38 -27.5t56 -24t73.5 -10.5t73.5 10.5t56 24t38 27.5t20.5 22l60 -92q-6 -13 -24 -35.5t-48.5 -45t-74 -39t-101.5 -16.5z" />
    <glyph glyph-name="dotaccent" unicode="&#x2d9;" 
d="M0 1110q-50 0 -77 27t-27 75q0 50 27 76t77 26t77 -27t27 -75q0 -50 -27 -76t-77 -26z" />
    <glyph glyph-name="ring" unicode="&#x2da;" 
d="M0 1088q-47 0 -86 13.5t-66.5 39t-42.5 63.5t-15 88q0 48 15.5 86t43 64t66 40t85.5 14q95 0 151.5 -53t56.5 -151q0 -49 -15.5 -87t-43 -64t-65.5 -39.5t-84 -13.5zM0 1194q44 0 71 24t27 74t-27 74t-71 24t-71 -24t-27 -74t27 -74t71 -24z" />
    <glyph glyph-name="hungarumlaut" unicode="&#x2dd;" 
d="M-114 1308h192l-172 -186h-136zM164 1308h192l-172 -186h-136z" />
    <glyph glyph-name="ogonek" unicode="&#x2db;" 
d="M-48 -310q-32 0 -59.5 6t-48 19.5t-32.5 35t-12 51.5q0 34 16.5 66.5t39.5 59t47 45.5t39 27h122q-17 -12 -38.5 -30.5t-40.5 -39.5t-32 -42.5t-13 -39.5q0 -24 17.5 -33t44.5 -9q23 0 38.5 3t23.5 5v-102q-15 -9 -46 -15.5t-66 -6.5z" />
    <glyph glyph-name="caron" unicode="&#x2c7;" 
d="M-234 1216v116l234 -76l234 76v-116l-234 -118z" />
    <glyph glyph-name="uni0326" unicode="&#x326;" 
d="M-80 -418q12 39 18 72.5t6 53.5q0 24 -4 42.5t-9 35t-9 31t-4 31.5q0 35 21.5 55.5t60.5 20.5q44 0 63 -25t19 -63q0 -39 -13.5 -103.5t-54.5 -150.5h-94v0z" />
    <glyph glyph-name="uni0312" unicode="&#x312;" 
d="M0 1112q-44 0 -63 25t-19 63q0 39 13.5 103.5t54.5 150.5h94q-12 -39 -18 -72t-6 -54q0 -24 4 -42.5t9 -35t9 -31.5t4 -31q0 -35 -21.5 -55.5t-60.5 -20.5z" />
    <glyph glyph-name="Amacron" unicode="&#x100;" horiz-adv-x="898" 
d="M354 1300h190l346 -1300h-192l-76 294h-354l-74 -294h-186zM304 450h286l-54 216q-11 40 -22.5 90.5t-23 105t-22 111.5t-18.5 111q-9 -54 -20.5 -111t-23.5 -111.5t-24 -105t-22 -90.5zM208 1562h480v-138h-480v138z" />
    <glyph glyph-name="Abreve" unicode="&#x102;" horiz-adv-x="898" 
d="M354 1300h190l346 -1300h-192l-76 294h-354l-74 -294h-186zM304 450h286l-54 216q-11 40 -22.5 90.5t-23 105t-22 111.5t-18.5 111q-9 -54 -20.5 -111t-23.5 -111.5t-24 -105t-22 -90.5zM260 1614q6 -8 20.5 -22t38 -27.5t56 -24t73.5 -10.5t73.5 10.5t56 24t38 27.5
t20.5 22l60 -90q-6 -13 -24 -36t-48.5 -45.5t-74 -39.5t-101.5 -17t-101.5 17t-74 39.5t-48.5 45.5t-24 36z" />
    <glyph glyph-name="Aogonek" unicode="&#x104;" horiz-adv-x="898" 
d="M772 -314q-29 0 -55 6t-46.5 19.5t-32.5 33.5t-12 49q0 34 17 67.5t40 61.5t47 48.5t38 28.5h-70l-76 294h-354l-74 -294h-186l346 1300h190l346 -1300q-11 -8 -32 -26.5t-42 -41t-36.5 -47t-15.5 -43.5q0 -23 17.5 -31.5t46.5 -8.5q21 0 37.5 3t24.5 5v-102
q-15 -8 -46 -15t-72 -7zM304 450h286l-54 216q-11 40 -22.5 90.5t-23 105t-22 111.5t-18.5 111q-9 -54 -20.5 -111t-23.5 -111.5t-24 -105t-22 -90.5z" />
    <glyph glyph-name="AEacute" unicode="&#x1fc;" horiz-adv-x="1256" 
d="M576 294h-308l-74 -294h-186l346 1300h794v-156h-388v-398h308v-154h-308v-436h388v-156h-572v294zM306 450h270v694h-90zM732 1586h216l-178 -186h-154z" />
    <glyph glyph-name="Cacute" unicode="&#x106;" horiz-adv-x="836" 
d="M530 -24q-128 -1 -210.5 36t-130.5 118t-66.5 209.5t-18.5 310.5t21.5 310t71 209t130 118t199.5 37q72 0 132 -15t92 -33v-170q-18 10 -42 19t-52 16.5t-58 12t-60 4.5q-71 0 -118 -20t-75 -75.5t-39.5 -155t-11.5 -257.5q0 -160 12 -259.5t40.5 -155t75 -75.5
t116.5 -20q31 0 63 5t62 12.5t55.5 17.5t43.5 21v-170q-16 -9 -41.5 -18t-56.5 -16t-65.5 -11.5t-68.5 -4.5zM498 1586h216l-178 -186h-154z" />
    <glyph glyph-name="Ccaron" unicode="&#x10c;" horiz-adv-x="836" 
d="M530 -24q-128 -1 -210.5 36t-130.5 118t-66.5 209.5t-18.5 310.5t21.5 310t71 209t130 118t199.5 37q72 0 132 -15t92 -33v-170q-18 10 -42 19t-52 16.5t-58 12t-60 4.5q-71 0 -118 -20t-75 -75.5t-39.5 -155t-11.5 -257.5q0 -160 12 -259.5t40.5 -155t75 -75.5
t116.5 -20q31 0 63 5t62 12.5t55.5 17.5t43.5 21v-170q-16 -9 -41.5 -18t-56.5 -16t-65.5 -11.5t-68.5 -4.5zM252 1612l234 -76l234 76v-116l-234 -120l-234 120v116z" />
    <glyph glyph-name="Ccircumflex" unicode="&#x108;" horiz-adv-x="836" 
d="M530 -24q-128 -1 -210.5 36t-130.5 118t-66.5 209.5t-18.5 310.5t21.5 310t71 209t130 118t199.5 37q72 0 132 -15t92 -33v-170q-18 10 -42 19t-52 16.5t-58 12t-60 4.5q-71 0 -118 -20t-75 -75.5t-39.5 -155t-11.5 -257.5q0 -160 12 -259.5t40.5 -155t75 -75.5
t116.5 -20q31 0 63 5t62 12.5t55.5 17.5t43.5 21v-170q-16 -9 -41.5 -18t-56.5 -16t-65.5 -11.5t-68.5 -4.5zM252 1492l234 120l234 -120v-116l-234 76l-234 -76v116z" />
    <glyph glyph-name="Cdotaccent" unicode="&#x10a;" horiz-adv-x="836" 
d="M530 -24q-128 -1 -210.5 36t-130.5 118t-66.5 209.5t-18.5 310.5t21.5 310t71 209t130 118t199.5 37q72 0 132 -15t92 -33v-170q-18 10 -42 19t-52 16.5t-58 12t-60 4.5q-71 0 -118 -20t-75 -75.5t-39.5 -155t-11.5 -257.5q0 -160 12 -259.5t40.5 -155t75 -75.5
t116.5 -20q31 0 63 5t62 12.5t55.5 17.5t43.5 21v-170q-16 -9 -41.5 -18t-56.5 -16t-65.5 -11.5t-68.5 -4.5zM486 1388q-50 0 -77 27t-27 75q0 50 27 77t77 27t77 -27t27 -77t-27 -76t-77 -26z" />
    <glyph glyph-name="Dcaron" unicode="&#x10e;" horiz-adv-x="1018" 
d="M154 1300h340q127 0 209 -36t128.5 -114t64.5 -201.5t18 -298.5q0 -173 -18 -296.5t-65 -202t-128.5 -115t-208.5 -36.5h-340v1300zM338 1148v-996h142q70 0 117 20t75.5 74.5t40 151.5t11.5 252q0 154 -11.5 251.5t-40 152t-75.5 74.5t-117 20h-142zM246 1612l234 -76
l234 76v-116l-234 -120l-234 120v116z" />
    <glyph glyph-name="Dcroat" unicode="&#x110;" horiz-adv-x="1028" 
d="M54 732h110v568h340q127 0 209 -36t128.5 -114t64.5 -201.5t18 -298.5q0 -173 -18 -296.5t-65 -202t-128.5 -115t-208.5 -36.5h-340v578h-110v154zM348 1148v-416h198v-154h-198v-426h142q70 0 117 20t75.5 74.5t40 151.5t11.5 252q0 154 -11.5 251.5t-40 152t-75.5 74.5
t-117 20h-142z" />
    <glyph glyph-name="Ebreve" unicode="&#x114;" horiz-adv-x="868" 
d="M154 1300h608v-156h-424v-398h342v-154h-342v-436h424v-156h-608v1300zM272 1614q6 -8 20.5 -22t38 -27.5t56 -24t73.5 -10.5t73.5 10.5t56 24t38 27.5t20.5 22l60 -90q-6 -13 -24 -36t-48.5 -45.5t-74 -39.5t-101.5 -17t-101.5 17t-74 39.5t-48.5 45.5t-24 36z" />
    <glyph glyph-name="Ecaron" unicode="&#x11a;" horiz-adv-x="868" 
d="M154 1300h608v-156h-424v-398h342v-154h-342v-436h424v-156h-608v1300zM226 1612l234 -76l234 76v-116l-234 -120l-234 120v116z" />
    <glyph glyph-name="Edotaccent" unicode="&#x116;" horiz-adv-x="868" 
d="M154 1300h608v-156h-424v-398h342v-154h-342v-436h424v-156h-608v1300zM460 1388q-50 0 -77 27t-27 75q0 50 27 77t77 27t77 -27t27 -77t-27 -76t-77 -26z" />
    <glyph glyph-name="Emacron" unicode="&#x112;" horiz-adv-x="868" 
d="M154 1300h608v-156h-424v-398h342v-154h-342v-436h424v-156h-608v1300zM220 1562h480v-138h-480v138z" />
    <glyph glyph-name="Eogonek" unicode="&#x118;" horiz-adv-x="868" 
d="M154 1300h608v-156h-424v-398h342v-154h-342v-436h424v-156h-2q-11 -8 -32 -26.5t-42 -41t-36.5 -47t-15.5 -43.5q0 -23 17.5 -31.5t46.5 -8.5q21 0 37.5 3t24.5 5v-102q-15 -8 -46 -15t-72 -7q-29 0 -55 6t-46.5 19.5t-32.5 33.5t-12 49q0 34 17 67.5t40 61.5t47 48.5
t38 28.5h-484v1300z" />
    <glyph glyph-name="Eng" unicode="&#x14a;" horiz-adv-x="1080" 
d="M590 -324q-47 0 -78.5 6.5t-49.5 15.5v142q24 -9 50 -13.5t62 -4.5q31 0 61.5 7.5t55 27.5t40.5 54.5t19 88.5h-36l-414 1040q12 -80 21 -170.5t9 -179.5v-690h-176v1300h212l410 -1036q-11 80 -18.5 169t-7.5 177v690h176v-1254q0 -185 -86.5 -277.5t-249.5 -92.5z" />
    <glyph glyph-name="Gbreve" unicode="&#x11e;" horiz-adv-x="1002" 
d="M542 -24q-132 0 -217 36.5t-134 117t-68 208.5t-19 312q0 192 26.5 321.5t83.5 207.5t147 111.5t217 33.5q36 0 72 -4.5t68.5 -12t58.5 -16.5t43 -19v-170q-18 10 -43.5 20.5t-55.5 19t-63 13.5t-66 5q-54 0 -97 -8t-76 -29t-57 -57t-39 -92.5t-22 -136.5t-7 -187
q0 -160 12 -260t40.5 -156.5t75.5 -77t118 -20.5q44 0 79.5 5t62.5 13v434h-192v156h376v-702q-14 -9 -47.5 -20.5t-78.5 -21.5t-96.5 -17t-101.5 -7zM340 1614q6 -8 20.5 -22t38 -27.5t56 -24t73.5 -10.5t73.5 10.5t56 24t38 27.5t20.5 22l60 -90q-6 -13 -24 -36
t-48.5 -45.5t-74 -39.5t-101.5 -17t-101.5 17t-74 39.5t-48.5 45.5t-24 36z" />
    <glyph glyph-name="Gcircumflex" unicode="&#x11c;" horiz-adv-x="1002" 
d="M542 -24q-132 0 -217 36.5t-134 117t-68 208.5t-19 312q0 192 26.5 321.5t83.5 207.5t147 111.5t217 33.5q36 0 72 -4.5t68.5 -12t58.5 -16.5t43 -19v-170q-18 10 -43.5 20.5t-55.5 19t-63 13.5t-66 5q-54 0 -97 -8t-76 -29t-57 -57t-39 -92.5t-22 -136.5t-7 -187
q0 -160 12 -260t40.5 -156.5t75.5 -77t118 -20.5q44 0 79.5 5t62.5 13v434h-192v156h376v-702q-14 -9 -47.5 -20.5t-78.5 -21.5t-96.5 -17t-101.5 -7zM294 1492l234 120l234 -120v-116l-234 76l-234 -76v116z" />
    <glyph glyph-name="Gcommaaccent" unicode="&#x122;" horiz-adv-x="1002" 
d="M448 -418q12 39 18 72.5t6 53.5q0 24 -4 42.5t-9 35t-9 31t-4 31.5q0 35 21.5 55.5t60.5 20.5q44 0 63 -25t19 -63q0 -39 -13.5 -103.5t-54.5 -150.5h-94v0zM542 -24q-132 0 -217 36.5t-134 117t-68 208.5t-19 312q0 192 26.5 321.5t83.5 207.5t147 111.5t217 33.5
q36 0 72 -4.5t68.5 -12t58.5 -16.5t43 -19v-170q-18 10 -43.5 20.5t-55.5 19t-63 13.5t-66 5q-54 0 -97 -8t-76 -29t-57 -57t-39 -92.5t-22 -136.5t-7 -187q0 -160 12 -260t40.5 -156.5t75.5 -77t118 -20.5q44 0 79.5 5t62.5 13v434h-192v156h376v-702q-14 -9 -47.5 -20.5
t-78.5 -21.5t-96.5 -17t-101.5 -7z" />
    <glyph glyph-name="Gdotaccent" unicode="&#x120;" horiz-adv-x="1002" 
d="M542 -24q-132 0 -217 36.5t-134 117t-68 208.5t-19 312q0 192 26.5 321.5t83.5 207.5t147 111.5t217 33.5q36 0 72 -4.5t68.5 -12t58.5 -16.5t43 -19v-170q-18 10 -43.5 20.5t-55.5 19t-63 13.5t-66 5q-54 0 -97 -8t-76 -29t-57 -57t-39 -92.5t-22 -136.5t-7 -187
q0 -160 12 -260t40.5 -156.5t75.5 -77t118 -20.5q44 0 79.5 5t62.5 13v434h-192v156h376v-702q-14 -9 -47.5 -20.5t-78.5 -21.5t-96.5 -17t-101.5 -7zM528 1388q-50 0 -77 27t-27 75q0 50 27 77t77 27t77 -27t27 -77t-27 -76t-77 -26z" />
    <glyph glyph-name="Hbar" unicode="&#x126;" horiz-adv-x="1092" 
d="M56 1092h108v208h184v-208h396v208h184v-208h108v-140h-108v-952h-184v590h-396v-590h-184v952h-108v140zM744 746v206h-396v-206h396z" />
    <glyph glyph-name="Hcircumflex" unicode="&#x124;" horiz-adv-x="1072" 
d="M734 590h-396v-590h-184v1300h184v-554h396v554h184v-1300h-184v590zM304 1492l234 120l234 -120v-116l-234 76l-234 -76v116z" />
    <glyph glyph-name="Ibreve" unicode="&#x12c;" horiz-adv-x="492" 
d="M154 1300h184v-1300h-184v1300zM58 1614q6 -8 20.5 -22t38 -27.5t56 -24t73.5 -10.5t73.5 10.5t56 24t38 27.5t20.5 22l60 -90q-6 -13 -24 -36t-48.5 -45.5t-74 -39.5t-101.5 -17t-101.5 17t-74 39.5t-48.5 45.5t-24 36z" />
    <glyph glyph-name="Imacron" unicode="&#x12a;" horiz-adv-x="492" 
d="M154 1300h184v-1300h-184v1300zM6 1562h480v-138h-480v138z" />
    <glyph glyph-name="Iogonek" unicode="&#x12e;" horiz-adv-x="492" 
d="M154 1300h184v-1300q-11 -8 -32 -26.5t-42 -41t-36.5 -47t-15.5 -43.5q0 -23 17.5 -31.5t46.5 -8.5q21 0 37.5 3t24.5 5v-102q-15 -8 -46 -15t-72 -7q-29 0 -55 6t-46.5 19.5t-32.5 33.5t-12 49q0 34 17 67.5t40 61.5t47 48.5t38 28.5h-62v1300z" />
    <glyph glyph-name="Itilde" unicode="&#x128;" horiz-adv-x="492" 
d="M154 1300h184v-1300h-184v1300zM20 1536q8 11 21 23t30 22t38 16.5t45 6.5q35 0 61.5 -12t49.5 -26t45.5 -26t51.5 -12q36 0 64 16t46 34v-120q-8 -11 -21 -23t-30 -22t-38 -16.5t-45 -6.5q-35 0 -61.5 12t-49.5 26t-46 26t-51 12q-36 0 -64 -16.5t-46 -33.5v120z" />
    <glyph glyph-name="Idotaccent" unicode="&#x130;" horiz-adv-x="492" 
d="M154 1300h184v-1300h-184v1300zM246 1388q-50 0 -77 27t-27 75q0 50 27 77t77 27t77 -27t27 -77t-27 -76t-77 -26z" />
    <glyph glyph-name="Jcircumflex" unicode="&#x134;" horiz-adv-x="704" 
d="M210 -24q-30 0 -60 3.5t-56.5 9.5t-48.5 13.5t-35 15.5v162q11 -6 31.5 -13.5t45.5 -13.5t52 -10.5t53 -4.5q43 0 77.5 9.5t58 35t36 70t12.5 113.5v934h184v-952q0 -97 -20.5 -167t-63.5 -115.5t-109 -67.5t-157 -22zM232 1492l234 120l234 -120v-116l-234 76l-234 -76
v116z" />
    <glyph glyph-name="Kcommaaccent" unicode="&#x136;" horiz-adv-x="952" 
d="M444 -418q12 39 18 72.5t6 53.5q0 24 -4 42.5t-9 35t-9 31t-4 31.5q0 35 21.5 55.5t60.5 20.5q44 0 63 -25t19 -63q0 -39 -13.5 -103.5t-54.5 -150.5h-94v0zM154 1300h184v-590l378 590h206l-410 -634l440 -666h-222l-392 610v-610h-184v1300z" />
    <glyph glyph-name="Lacute" unicode="&#x139;" horiz-adv-x="782" 
d="M147 1300h184v-1144h404v-156h-588v1300zM254 1586h216l-178 -186h-154z" />
    <glyph glyph-name="Lcaron" unicode="&#x13d;" horiz-adv-x="782" 
d="M154 1300h184v-1144h404v-156h-588v1300zM450 972q12 39 19 72t7 56q0 25 -4 44t-9 35t-9 30t-4 29q0 36 21 56t59 20q44 0 63 -24.5t19 -65.5q0 -38 -15 -101t-53 -151h-94v0z" />
    <glyph glyph-name="Lcommaaccent" unicode="&#x13b;" horiz-adv-x="782" 
d="M368 -418q12 39 18 72.5t6 53.5q0 24 -4 42.5t-9 35t-9 31t-4 31.5q0 35 21.5 55.5t60.5 20.5q44 0 63 -25t19 -63q0 -39 -13.5 -103.5t-54.5 -150.5h-94v0zM154 1300h184v-1144h404v-156h-588v1300z" />
    <glyph glyph-name="Ldot" unicode="&#x13f;" horiz-adv-x="822" 
d="M154 1300h184v-1144h404v-156h-588v1300zM604 563q-50 0 -77 27t-27 75q0 50 27 76t77 26t77 -27t27 -75q0 -50 -27 -76t-77 -26z" />
    <glyph glyph-name="Nacute" unicode="&#x143;" horiz-adv-x="1080" 
d="M154 1300h212l410 -1036q-11 80 -18.5 169t-7.5 177v690h176v-1300h-212l-414 1040q12 -80 21 -170.5t9 -179.5v-690h-176v1300zM552 1586h216l-178 -186h-154z" />
    <glyph glyph-name="Ncaron" unicode="&#x147;" horiz-adv-x="1080" 
d="M154 1300h212l410 -1036q-11 80 -18.5 169t-7.5 177v690h176v-1300h-212l-414 1040q12 -80 21 -170.5t9 -179.5v-690h-176v1300zM306 1612l234 -76l234 76v-116l-234 -120l-234 120v116z" />
    <glyph glyph-name="Ncommaaccent" unicode="&#x145;" horiz-adv-x="1080" 
d="M460 -418q12 39 18 72.5t6 53.5q0 24 -4 42.5t-9 35t-9 31t-4 31.5q0 35 21.5 55.5t60.5 20.5q44 0 63 -25t19 -63q0 -39 -13.5 -103.5t-54.5 -150.5h-94v0zM154 1300h212l410 -1036q-11 80 -18.5 169t-7.5 177v690h176v-1300h-212l-414 1040q12 -80 21 -170.5t9 -179.5
v-690h-176v1300z" />
    <glyph glyph-name="Obreve" unicode="&#x14e;" horiz-adv-x="1006" 
d="M502 -24q-69 0 -125.5 12t-100.5 41.5t-76.5 79t-53.5 124t-31.5 177.5t-10.5 240q0 202 24 332.5t73.5 206.5t124.5 105.5t176 29.5q104 0 179.5 -29t124.5 -104t72.5 -206t23.5 -335q0 -135 -10.5 -237.5t-32.5 -177.5t-55 -124.5t-77.5 -79.5t-100.5 -42.5t-124 -12.5
zM502 136q63 0 103.5 23t64.5 81t33 157.5t9 252.5t-9 252.5t-33 157.5t-64.5 81t-103.5 23t-103.5 -23t-63.5 -81t-32 -157.5t-9 -252.5t9 -252.5t32 -157.5t63.5 -81t103.5 -23zM314 1614q6 -8 20.5 -22t38 -27.5t56 -24t73.5 -10.5t73.5 10.5t56 24t38 27.5t20.5 22
l60 -90q-6 -13 -24 -36t-48.5 -45.5t-74 -39.5t-101.5 -17t-101.5 17t-74 39.5t-48.5 45.5t-24 36z" />
    <glyph glyph-name="Ohungarumlaut" unicode="&#x150;" horiz-adv-x="1006" 
d="M502 -24q-69 0 -125.5 12t-100.5 41.5t-76.5 79t-53.5 124t-31.5 177.5t-10.5 240q0 202 24 332.5t73.5 206.5t124.5 105.5t176 29.5q104 0 179.5 -29t124.5 -104t72.5 -206t23.5 -335q0 -135 -10.5 -237.5t-32.5 -177.5t-55 -124.5t-77.5 -79.5t-100.5 -42.5t-124 -12.5
zM502 136q63 0 103.5 23t64.5 81t33 157.5t9 252.5t-9 252.5t-33 157.5t-64.5 81t-103.5 23t-103.5 -23t-63.5 -81t-32 -157.5t-9 -252.5t9 -252.5t32 -157.5t63.5 -81t103.5 -23zM368 1586h190l-172 -186h-134zM646 1586h190l-172 -186h-134z" />
    <glyph glyph-name="Omacron" unicode="&#x14c;" horiz-adv-x="1006" 
d="M502 -24q-69 0 -125.5 12t-100.5 41.5t-76.5 79t-53.5 124t-31.5 177.5t-10.5 240q0 202 24 332.5t73.5 206.5t124.5 105.5t176 29.5q104 0 179.5 -29t124.5 -104t72.5 -206t23.5 -335q0 -135 -10.5 -237.5t-32.5 -177.5t-55 -124.5t-77.5 -79.5t-100.5 -42.5t-124 -12.5
zM502 136q63 0 103.5 23t64.5 81t33 157.5t9 252.5t-9 252.5t-33 157.5t-64.5 81t-103.5 23t-103.5 -23t-63.5 -81t-32 -157.5t-9 -252.5t9 -252.5t32 -157.5t63.5 -81t103.5 -23zM262 1562h480v-138h-480v138z" />
    <glyph glyph-name="Oslashacute" unicode="&#x1fe;" horiz-adv-x="1006" 
d="M828 1156q37 -77 55.5 -200t18.5 -306q0 -202 -24 -332.5t-73.5 -206.5t-124.5 -105.5t-176 -29.5q-72 0 -129.5 15.5t-104.5 48.5l-70 -140h-144l122 244q-38 76 -56 199.5t-18 306.5q0 202 24 332.5t73.5 206.5t124.5 105.5t176 29.5q72 0 129.5 -15.5t104.5 -48.5
l72 140h142zM294 376l364 728q-29 27 -64 43.5t-92 16.5q-63 0 -103.5 -23t-63.5 -81t-32 -157.5t-9 -252.5v-274zM712 924l-364 -728q29 -27 64 -43.5t92 -16.5q63 0 103.5 23t63.5 81t32 157.5t9 252.5v274zM514 1586h216l-178 -186h-154z" />
    <glyph glyph-name="Racute" unicode="&#x154;" horiz-adv-x="980" 
d="M154 1300h300q90 0 165.5 -18.5t130.5 -63t85.5 -118.5t30.5 -184q0 -77 -17.5 -135.5t-48 -100.5t-72 -70.5t-88.5 -45.5l276 -564h-210l-244 530h-124v-530h-184v1300zM338 1144v-458h98q54 0 98 8t75.5 32t49 69.5t17.5 120.5q0 74 -17.5 119t-49 69t-75.5 32t-98 8
h-98zM488 1586h216l-178 -186h-154z" />
    <glyph glyph-name="Rcaron" unicode="&#x158;" horiz-adv-x="980" 
d="M154 1300h300q90 0 165.5 -18.5t130.5 -63t85.5 -118.5t30.5 -184q0 -77 -17.5 -135.5t-48 -100.5t-72 -70.5t-88.5 -45.5l276 -564h-210l-244 530h-124v-530h-184v1300zM338 1144v-458h98q54 0 98 8t75.5 32t49 69.5t17.5 120.5q0 74 -17.5 119t-49 69t-75.5 32t-98 8
h-98zM242 1612l234 -76l234 76v-116l-234 -120l-234 120v116z" />
    <glyph glyph-name="Rcommaaccent" unicode="&#x156;" horiz-adv-x="980" 
d="M432 -418q12 39 18 72.5t6 53.5q0 24 -4 42.5t-9 35t-9 31t-4 31.5q0 35 21.5 55.5t60.5 20.5q44 0 63 -25t19 -63q0 -39 -13.5 -103.5t-54.5 -150.5h-94v0zM154 1300h300q90 0 165.5 -18.5t130.5 -63t85.5 -118.5t30.5 -184q0 -77 -17.5 -135.5t-48 -100.5t-72 -70.5
t-88.5 -45.5l276 -564h-210l-244 530h-124v-530h-184v1300zM338 1144v-458h98q54 0 98 8t75.5 32t49 69.5t17.5 120.5q0 74 -17.5 119t-49 69t-75.5 32t-98 8h-98z" />
    <glyph glyph-name="Sacute" unicode="&#x15a;" horiz-adv-x="784" 
d="M324 -24q-86 0 -147 15t-91 33v170q38 -21 94.5 -37.5t127.5 -16.5q46 0 84 9.5t64.5 30t41 53t14.5 79.5q0 40 -9.5 71t-27.5 58t-43.5 51.5t-57.5 51.5l-104 90q-43 37 -77.5 72t-58.5 75.5t-37 89t-13 111.5q0 76 25 139t73.5 108t119 70t162.5 25q33 0 65 -4
t59.5 -10.5t49.5 -15t36 -16.5v-168q-30 18 -82 34t-112 16q-47 0 -84.5 -9.5t-64 -30t-41 -53.5t-14.5 -79q0 -40 9.5 -70.5t27.5 -57.5t43.5 -51.5t57.5 -52.5l104 -90q43 -37 77.5 -72t58.5 -75.5t37 -89t13 -111.5q0 -76 -25 -139t-73.5 -108t-119.5 -70t-162 -25z
M414 1586h216l-178 -186h-154z" />
    <glyph glyph-name="Scedilla" unicode="&#x15e;" horiz-adv-x="784" 
d="M324 -24q-86 0 -147 15t-91 33v170q38 -21 94.5 -37.5t127.5 -16.5q46 0 84 9.5t64.5 30t41 53t14.5 79.5q0 40 -9.5 71t-27.5 58t-43.5 51.5t-57.5 51.5l-104 90q-43 37 -77.5 72t-58.5 75.5t-37 89t-13 111.5q0 76 25 139t73.5 108t119 70t162.5 25q33 0 65 -4
t59.5 -10.5t49.5 -15t36 -16.5v-168q-30 18 -82 34t-112 16q-47 0 -84.5 -9.5t-64 -30t-41 -53.5t-14.5 -79q0 -40 9.5 -70.5t27.5 -57.5t43.5 -51.5t57.5 -52.5l104 -90q43 -37 77.5 -72t58.5 -75.5t37 -89t13 -111.5q0 -76 -25 -139t-73.5 -108t-119.5 -70t-162 -25z
M342 -310q-35 0 -65 6.5t-45 15.5v102q8 -2 23.5 -5t36.5 -3q30 0 48 12.5t18 39.5q0 18 -8 38.5t-19.5 40t-24 36t-22.5 27.5h108q16 -13 34 -32.5t33.5 -43.5t26 -51.5t10.5 -56.5q0 -60 -42.5 -93t-111.5 -33z" />
    <glyph glyph-name="Scircumflex" unicode="&#x15c;" horiz-adv-x="784" 
d="M324 -24q-86 0 -147 15t-91 33v170q38 -21 94.5 -37.5t127.5 -16.5q46 0 84 9.5t64.5 30t41 53t14.5 79.5q0 40 -9.5 71t-27.5 58t-43.5 51.5t-57.5 51.5l-104 90q-43 37 -77.5 72t-58.5 75.5t-37 89t-13 111.5q0 76 25 139t73.5 108t119 70t162.5 25q33 0 65 -4
t59.5 -10.5t49.5 -15t36 -16.5v-168q-30 18 -82 34t-112 16q-47 0 -84.5 -9.5t-64 -30t-41 -53.5t-14.5 -79q0 -40 9.5 -70.5t27.5 -57.5t43.5 -51.5t57.5 -52.5l104 -90q43 -37 77.5 -72t58.5 -75.5t37 -89t13 -111.5q0 -76 -25 -139t-73.5 -108t-119.5 -70t-162 -25z
M168 1492l234 120l234 -120v-116l-234 76l-234 -76v116z" />
    <glyph glyph-name="Scommaaccent" unicode="&#x218;" horiz-adv-x="784" 
d="M280 -418q12 39 18 72.5t6 53.5q0 24 -4 42.5t-9 35t-9 31t-4 31.5q0 35 21.5 55.5t60.5 20.5q44 0 63 -25t19 -63q0 -39 -13.5 -103.5t-54.5 -150.5h-94v0zM324 -24q-86 0 -147 15t-91 33v170q38 -21 94.5 -37.5t127.5 -16.5q46 0 84 9.5t64.5 30t41 53t14.5 79.5
q0 40 -9.5 71t-27.5 58t-43.5 51.5t-57.5 51.5l-104 90q-43 37 -77.5 72t-58.5 75.5t-37 89t-13 111.5q0 76 25 139t73.5 108t119 70t162.5 25q33 0 65 -4t59.5 -10.5t49.5 -15t36 -16.5v-168q-30 18 -82 34t-112 16q-47 0 -84.5 -9.5t-64 -30t-41 -53.5t-14.5 -79
q0 -40 9.5 -70.5t27.5 -57.5t43.5 -51.5t57.5 -52.5l104 -90q43 -37 77.5 -72t58.5 -75.5t37 -89t13 -111.5q0 -76 -25 -139t-73.5 -108t-119.5 -70t-162 -25z" />
    <glyph glyph-name="Tbar" unicode="&#x166;" horiz-adv-x="782" 
d="M18 1300h746v-156h-282v-412h158v-154h-158v-578h-184v578h-158v154h158v412h-280v156z" />
    <glyph glyph-name="Tcaron" unicode="&#x164;" horiz-adv-x="782" 
d="M18 1300h746v-156h-282v-1144h-184v1144h-280v156zM158 1612l234 -76l234 76v-116l-234 -120l-234 120v116z" />
    <glyph glyph-name="Tcommaaccent" unicode="&#x162;" horiz-adv-x="782" 
d="M312 -418q12 39 18 72.5t6 53.5q0 24 -4 42.5t-9 35t-9 31t-4 31.5q0 35 21.5 55.5t60.5 20.5q44 0 63 -25t19 -63q0 -39 -13.5 -103.5t-54.5 -150.5h-94v0zM18 1300h746v-156h-282v-1144h-184v1144h-280v156z" />
    <glyph glyph-name="uni021A" unicode="&#x21a;" horiz-adv-x="782" 
d="M312 -418q12 39 18 72.5t6 53.5q0 24 -4 42.5t-9 35t-9 31t-4 31.5q0 35 21.5 55.5t60.5 20.5q44 0 63 -25t19 -63q0 -39 -13.5 -103.5t-54.5 -150.5h-94v0zM18 1300h746v-156h-282v-1144h-184v1144h-280v156z" />
    <glyph glyph-name="Ubreve" unicode="&#x16c;" horiz-adv-x="1056" 
d="M528 -24q-99 0 -171.5 23t-119.5 72.5t-70 128.5t-23 192v908h184v-916q0 -72 12.5 -120t37.5 -76.5t62.5 -40t87.5 -11.5t87.5 11.5t62.5 40t37.5 76.5t12.5 120v916h184v-908q0 -111 -23.5 -190t-71 -129t-120 -73.5t-169.5 -23.5zM340 1614q6 -8 20.5 -22t38 -27.5
t56 -24t73.5 -10.5t73.5 10.5t56 24t38 27.5t20.5 22l60 -90q-6 -13 -24 -36t-48.5 -45.5t-74 -39.5t-101.5 -17t-101.5 17t-74 39.5t-48.5 45.5t-24 36z" />
    <glyph glyph-name="Uhungarumlaut" unicode="&#x170;" horiz-adv-x="1056" 
d="M528 -24q-99 0 -171.5 23t-119.5 72.5t-70 128.5t-23 192v908h184v-916q0 -72 12.5 -120t37.5 -76.5t62.5 -40t87.5 -11.5t87.5 11.5t62.5 40t37.5 76.5t12.5 120v916h184v-908q0 -111 -23.5 -190t-71 -129t-120 -73.5t-169.5 -23.5zM394 1586h190l-172 -186h-134z
M672 1586h190l-172 -186h-134z" />
    <glyph glyph-name="Umacron" unicode="&#x16a;" horiz-adv-x="1056" 
d="M528 -24q-99 0 -171.5 23t-119.5 72.5t-70 128.5t-23 192v908h184v-916q0 -72 12.5 -120t37.5 -76.5t62.5 -40t87.5 -11.5t87.5 11.5t62.5 40t37.5 76.5t12.5 120v916h184v-908q0 -111 -23.5 -190t-71 -129t-120 -73.5t-169.5 -23.5zM288 1562h480v-138h-480v138z" />
    <glyph glyph-name="Uogonek" unicode="&#x172;" horiz-adv-x="1056" 
d="M522 -314q-29 0 -55 6t-46.5 19.5t-32.5 33.5t-12 49q0 28 10.5 54.5t27 50.5t36 44.5t36.5 34.5q-89 4 -153.5 29.5t-106.5 75.5t-62 126t-20 183v908h184v-916q0 -72 12.5 -120t37.5 -76.5t62.5 -40t87.5 -11.5t87.5 11.5t62.5 40t37.5 76.5t12.5 120v916h184v-908
q0 -195 -73 -293t-223 -117q-15 -13 -33 -30.5t-33 -36.5t-25.5 -38t-10.5 -35q0 -23 17.5 -31.5t46.5 -8.5q21 0 37.5 3t24.5 5v-102q-15 -8 -46 -15t-72 -7z" />
    <glyph glyph-name="Uring" unicode="&#x16e;" horiz-adv-x="1056" 
d="M528 -24q-99 0 -171.5 23t-119.5 72.5t-70 128.5t-23 192v908h184v-916q0 -72 12.5 -120t37.5 -76.5t62.5 -40t87.5 -11.5t87.5 11.5t62.5 40t37.5 76.5t12.5 120v916h184v-908q0 -111 -23.5 -190t-71 -129t-120 -73.5t-169.5 -23.5zM320 1538q0 49 15.5 87t43 64
t65.5 39.5t84 13.5q96 0 153 -52.5t57 -151.5q0 -48 -15.5 -86t-43 -64t-66.5 -40t-85 -14q-95 0 -151.5 53t-56.5 151zM528 1440q44 0 71 24t27 74t-27 74t-71 24q-42 0 -69 -24t-27 -74t27 -74t69 -24z" />
    <glyph glyph-name="Utilde" unicode="&#x168;" horiz-adv-x="1056" 
d="M528 -24q-99 0 -171.5 23t-119.5 72.5t-70 128.5t-23 192v908h184v-916q0 -72 12.5 -120t37.5 -76.5t62.5 -40t87.5 -11.5t87.5 11.5t62.5 40t37.5 76.5t12.5 120v916h184v-908q0 -111 -23.5 -190t-71 -129t-120 -73.5t-169.5 -23.5zM302 1536q8 11 21 23t30 22t38 16.5
t45 6.5q35 0 61.5 -12t49.5 -26t45.5 -26t51.5 -12q36 0 64 16t46 34v-120q-8 -11 -21 -23t-30 -22t-38 -16.5t-45 -6.5q-35 0 -61.5 12t-49.5 26t-46 26t-51 12q-36 0 -64 -16.5t-46 -33.5v120z" />
    <glyph glyph-name="Wacute" unicode="&#x1e82;" horiz-adv-x="1274" 
d="M44 1300h184l106 -640q7 -39 14 -94.5t14 -118t13 -128t11 -123.5q4 58 10.5 123t13.5 127.5t14 118t14 95.5l108 640h188l108 -640q7 -39 14 -94t13.5 -117t12 -126.5t10.5 -122.5q4 58 10.5 122.5t14 126.5t15 117t14.5 94l106 640h178l-248 -1300h-190l-106 640
q-6 36 -13 86.5t-13.5 107.5t-13 117.5t-10.5 116.5q-5 -56 -10.5 -116.5t-12 -117.5t-13 -107.5t-12.5 -86.5l-108 -640h-188zM648 1586h216l-178 -186h-154z" />
    <glyph glyph-name="Wcircumflex" unicode="&#x174;" horiz-adv-x="1274" 
d="M44 1300h184l106 -640q7 -39 14 -94.5t14 -118t13 -128t11 -123.5q4 58 10.5 123t13.5 127.5t14 118t14 95.5l108 640h188l108 -640q7 -39 14 -94t13.5 -117t12 -126.5t10.5 -122.5q4 58 10.5 122.5t14 126.5t15 117t14.5 94l106 640h178l-248 -1300h-190l-106 640
q-6 36 -13 86.5t-13.5 107.5t-13 117.5t-10.5 116.5q-5 -56 -10.5 -116.5t-12 -117.5t-13 -107.5t-12.5 -86.5l-108 -640h-188zM402 1492l234 120l234 -120v-116l-234 76l-234 -76v116z" />
    <glyph glyph-name="Wdieresis" unicode="&#x1e84;" horiz-adv-x="1274" 
d="M44 1300h184l106 -640q7 -39 14 -94.5t14 -118t13 -128t11 -123.5q4 58 10.5 123t13.5 127.5t14 118t14 95.5l108 640h188l108 -640q7 -39 14 -94t13.5 -117t12 -126.5t10.5 -122.5q4 58 10.5 122.5t14 126.5t15 117t14.5 94l106 640h178l-248 -1300h-190l-106 640
q-6 36 -13 86.5t-13.5 107.5t-13 117.5t-10.5 116.5q-5 -56 -10.5 -116.5t-12 -117.5t-13 -107.5t-12.5 -86.5l-108 -640h-188zM470 1388q-48 0 -76 27t-28 75q0 50 28 77t76 27t76 -28t28 -76t-28 -75t-76 -27zM802 1388q-48 0 -76 27t-28 75q0 50 28 77t76 27t76 -28
t28 -76t-28 -75t-76 -27z" />
    <glyph glyph-name="Wgrave" unicode="&#x1e80;" horiz-adv-x="1274" 
d="M44 1300h184l106 -640q7 -39 14 -94.5t14 -118t13 -128t11 -123.5q4 58 10.5 123t13.5 127.5t14 118t14 95.5l108 640h188l108 -640q7 -39 14 -94t13.5 -117t12 -126.5t10.5 -122.5q4 58 10.5 122.5t14 126.5t15 117t14.5 94l106 640h178l-248 -1300h-190l-106 640
q-6 36 -13 86.5t-13.5 107.5t-13 117.5t-10.5 116.5q-5 -56 -10.5 -116.5t-12 -117.5t-13 -107.5t-12.5 -86.5l-108 -640h-188zM406 1586h216l116 -186h-154z" />
    <glyph glyph-name="Ycircumflex" unicode="&#x176;" horiz-adv-x="872" 
d="M344 540l-356 760h202l154 -350q27 -63 51 -128.5t41 -125.5q18 60 43.5 125.5t52.5 128.5l154 350h196l-354 -760v-540h-184v540zM202 1492l234 120l234 -120v-116l-234 76l-234 -76v116z" />
    <glyph glyph-name="Ygrave" unicode="&#x1ef2;" horiz-adv-x="872" 
d="M344 540l-356 760h202l154 -350q27 -63 51 -128.5t41 -125.5q18 60 43.5 125.5t52.5 128.5l154 350h196l-354 -760v-540h-184v540zM206 1586h216l116 -186h-154z" />
    <glyph glyph-name="Zacute" unicode="&#x179;" horiz-adv-x="822" 
d="M80 128l448 1016h-438v156h642v-130l-448 -1014h458v-156h-662v128zM422 1586h216l-178 -186h-154z" />
    <glyph glyph-name="Zdotaccent" unicode="&#x17b;" horiz-adv-x="822" 
d="M80 128l448 1016h-438v156h642v-130l-448 -1014h458v-156h-662v128zM410 1388q-50 0 -77 27t-27 75q0 50 27 77t77 27t77 -27t27 -77t-27 -76t-77 -26z" />
    <glyph glyph-name="IJ" unicode="&#x132;" horiz-adv-x="1032" 
d="M440 -24q-58 0 -105 7t-83 17t-60.5 21.5t-37.5 20.5v162q17 -11 43.5 -22.5t61 -21t75 -16t86.5 -6.5q74 0 128 16t88.5 52t51 93.5t16.5 140.5v860h184v-880q0 -221 -108 -332.5t-340 -111.5zM154 1300h184v-772h-184v772z" />
    <glyph glyph-name="amacron" unicode="&#x101;" horiz-adv-x="858" 
d="M588 58q-45 -38 -101.5 -60t-128.5 -22q-79 0 -131 23.5t-83 66t-43.5 102.5t-12.5 134q0 73 13 133t44.5 103.5t83.5 67.5t129 24q60 0 108 -16.5t90 -45.5v64q0 61 -9 106t-31.5 73.5t-61.5 42.5t-98 14q-33 0 -65.5 -6.5t-61.5 -16t-52.5 -20.5t-38.5 -21v160
q9 7 31 17t54.5 19.5t74 16.5t90.5 7q75 0 138 -17.5t109 -58.5t71.5 -108.5t25.5 -167.5v-672h-128zM400 122q45 0 83 13.5t73 36.5v262q-35 23 -73 36.5t-83 13.5q-39 0 -65 -10.5t-41 -33t-21.5 -57t-6.5 -81.5t6.5 -80.5t21.5 -56t41 -33t65 -10.5zM172 1284h480v-140
h-480v140z" />
    <glyph glyph-name="abreve" unicode="&#x103;" horiz-adv-x="858" 
d="M588 58q-45 -38 -101.5 -60t-128.5 -22q-79 0 -131 23.5t-83 66t-43.5 102.5t-12.5 134q0 73 13 133t44.5 103.5t83.5 67.5t129 24q60 0 108 -16.5t90 -45.5v64q0 61 -9 106t-31.5 73.5t-61.5 42.5t-98 14q-33 0 -65.5 -6.5t-61.5 -16t-52.5 -20.5t-38.5 -21v160
q9 7 31 17t54.5 19.5t74 16.5t90.5 7q75 0 138 -17.5t109 -58.5t71.5 -108.5t25.5 -167.5v-672h-128zM400 122q45 0 83 13.5t73 36.5v262q-35 23 -73 36.5t-83 13.5q-39 0 -65 -10.5t-41 -33t-21.5 -57t-6.5 -81.5t6.5 -80.5t21.5 -56t41 -33t65 -10.5zM412 1108
q-58 0 -101.5 16.5t-74 39t-48.5 45t-24 35.5l60 92q6 -8 20.5 -22t38 -27.5t56 -24t73.5 -10.5t73.5 10.5t56 24t38 27.5t20.5 22l60 -92q-6 -13 -24 -35.5t-48.5 -45t-74 -39t-101.5 -16.5z" />
    <glyph glyph-name="aogonek" unicode="&#x105;" horiz-adv-x="858" 
d="M616 -314q-29 0 -55 6t-46.5 19.5t-32.5 33.5t-12 49q0 33 13.5 64.5t33.5 58.5t43 49.5t42 37.5l-14 54q-45 -38 -101.5 -60t-128.5 -22q-79 0 -131 23.5t-83 66t-43.5 102.5t-12.5 134q0 73 13 133t44.5 103.5t83.5 67.5t129 24q60 0 108 -16.5t90 -45.5v64
q0 61 -9 106t-31.5 73.5t-61.5 42.5t-98 14q-33 0 -65.5 -6.5t-61.5 -16t-52.5 -20.5t-38.5 -21v160q9 7 31 17t54.5 19.5t74 16.5t90.5 7q75 0 138 -17.5t109 -58.5t71.5 -108.5t25.5 -167.5v-672q-12 -8 -33 -26.5t-42 -41t-36 -46t-15 -42.5q0 -24 18 -33t48 -9
q20 0 36 3t24 5v-102q-15 -8 -46 -15t-70 -7zM400 122q45 0 83 13.5t73 36.5v262q-35 23 -73 36.5t-83 13.5q-39 0 -65 -10.5t-41 -33t-21.5 -57t-6.5 -81.5t6.5 -80.5t21.5 -56t41 -33t65 -10.5z" />
    <glyph glyph-name="aeacute" unicode="&#x1fd;" horiz-adv-x="1300" 
d="M358 -24q-79 0 -131 23.5t-83 66.5t-43.5 103t-12.5 133t13 133t44.5 103.5t83.5 67.5t129 24q60 0 109 -16.5t91 -43.5v62q0 63 -9 107.5t-31.5 73t-59.5 42t-92 13.5q-35 0 -69 -6.5t-64.5 -16t-55 -20.5t-39.5 -21v160q9 7 31 17t54.5 19.5t74 16.5t90.5 7
q92 0 157.5 -24t104.5 -78q42 53 100 77.5t132 24.5q85 0 147 -22.5t102.5 -81t60.5 -160t20 -260.5v-56h-480q3 -99 15.5 -160t37 -94t62.5 -44.5t91 -11.5q33 0 66 5.5t63 14.5t54 19t39 19v-158q-9 -7 -30 -17t-52 -19t-70.5 -15.5t-85.5 -6.5q-89 0 -159.5 22.5
t-118.5 85.5q-53 -48 -125.5 -78t-160.5 -30zM588 194q-15 48 -24 107.5t-12 134.5q-33 21 -70.5 34.5t-81.5 13.5q-39 0 -65 -10.5t-41 -33t-21.5 -57t-6.5 -81.5t6.5 -80.5t21.5 -56t41 -33t65 -10.5q56 0 103 20t85 52zM882 872q-42 0 -70 -14t-45 -47t-25 -87.5
t-10 -135.5h300q-2 81 -10 135.5t-24.5 87.5t-44.5 47t-71 14zM666 1308h216l-178 -186h-154z" />
    <glyph glyph-name="cacute" unicode="&#x107;" horiz-adv-x="718" 
d="M436 1308h216l-178 -186h-154zM446 -24q-105 0 -172 34.5t-106 101t-53.5 164t-14.5 224.5q0 158 25 260t70 160.5t109 81t142 22.5q77 0 123 -14.5t73 -29.5v-160q-11 7 -29.5 14.5t-41 14t-49 11t-54.5 4.5q-52 0 -87.5 -14.5t-58 -55t-32.5 -111.5t-10 -183
q0 -110 9 -181t30 -111.5t54.5 -56.5t82.5 -17q60 0 109 15t85 35v-160q-12 -7 -31.5 -15t-45.5 -15.5t-58 -12.5t-69 -5z" />
    <glyph glyph-name="ccaron" unicode="&#x10d;" horiz-adv-x="718" 
d="M190 1216v116l234 -76l234 76v-116l-234 -118zM446 -24q-105 0 -172 34.5t-106 101t-53.5 164t-14.5 224.5q0 158 25 260t70 160.5t109 81t142 22.5q77 0 123 -14.5t73 -29.5v-160q-11 7 -29.5 14.5t-41 14t-49 11t-54.5 4.5q-52 0 -87.5 -14.5t-58 -55t-32.5 -111.5
t-10 -183q0 -110 9 -181t30 -111.5t54.5 -56.5t82.5 -17q60 0 109 15t85 35v-160q-12 -7 -31.5 -15t-45.5 -15.5t-58 -12.5t-69 -5z" />
    <glyph glyph-name="ccircumflex" unicode="&#x109;" horiz-adv-x="718" 
d="M190 1214l234 118l234 -118v-116l-234 76l-234 -76v116zM446 -24q-105 0 -172 34.5t-106 101t-53.5 164t-14.5 224.5q0 158 25 260t70 160.5t109 81t142 22.5q77 0 123 -14.5t73 -29.5v-160q-11 7 -29.5 14.5t-41 14t-49 11t-54.5 4.5q-52 0 -87.5 -14.5t-58 -55
t-32.5 -111.5t-10 -183q0 -110 9 -181t30 -111.5t54.5 -56.5t82.5 -17q60 0 109 15t85 35v-160q-12 -7 -31.5 -15t-45.5 -15.5t-58 -12.5t-69 -5z" />
    <glyph glyph-name="cdotaccent" unicode="&#x10b;" horiz-adv-x="718" 
d="M446 -24q-105 0 -172 34.5t-106 101t-53.5 164t-14.5 224.5q0 158 25 260t70 160.5t109 81t142 22.5q77 0 123 -14.5t73 -29.5v-160q-11 7 -29.5 14.5t-41 14t-49 11t-54.5 4.5q-52 0 -87.5 -14.5t-58 -55t-32.5 -111.5t-10 -183q0 -110 9 -181t30 -111.5t54.5 -56.5
t82.5 -17q60 0 109 15t85 35v-160q-12 -7 -31.5 -15t-45.5 -15.5t-58 -12.5t-69 -5zM424 1110q-50 0 -77 27t-27 75q0 50 27 76t77 26t77 -27t27 -75q0 -50 -27 -76t-77 -26z" />
    <glyph glyph-name="dcaron" unicode="&#x10f;" horiz-adv-x="936" 
d="M618 56q-42 -36 -95 -58t-119 -22q-81 0 -138.5 25t-94.5 85.5t-54 161t-17 252.5q0 148 18 248.5t55 162t93 87.5t132 26q56 0 101.5 -15.5t84.5 -42.5v334h176v-1300h-126zM444 132q41 0 75.5 12t64.5 32v646q-30 20 -64.5 33t-75.5 13q-48 0 -79.5 -16.5t-50.5 -58
t-26.5 -113t-7.5 -180.5q0 -110 7.5 -181t26.5 -112.5t50.5 -58t79.5 -16.5zM832 972q12 39 19 72t7 56q0 25 -4 44t-9 35t-9 30t-4 29q0 36 21 56t59 20q44 0 63 -24.5t19 -65.5q0 -38 -15 -101t-53 -151h-94v0z" />
    <glyph glyph-name="dcroat" unicode="&#x111;" horiz-adv-x="904" 
d="M618 56q-42 -36 -95.5 -58t-118.5 -22q-81 0 -138.5 25.5t-94.5 84t-54 155t-17 239.5q0 139 18 234.5t55 155t93 86t132 26.5q56 0 101.5 -14t84.5 -38v130h-164v140h164v100h176v-100h96v-140h-96v-1060h-126zM444 132q41 0 75.5 12t64.5 32v604q-30 20 -64.5 33
t-75.5 13q-48 0 -79.5 -17t-49.5 -57.5t-25.5 -107t-7.5 -164.5q0 -99 7.5 -166t25.5 -107.5t49.5 -57.5t79.5 -17z" />
    <glyph glyph-name="ebreve" unicode="&#x115;" horiz-adv-x="848" 
d="M470 -24q-85 0 -153.5 21t-116.5 78t-74 157.5t-26 259.5q0 160 20.5 263.5t62 163t103 82.5t144.5 23q85 0 147 -22.5t102.5 -81t60.5 -160t20 -260.5v-56h-482q3 -99 16 -160t38 -94t63 -44.5t91 -11.5q33 0 66 5.5t62.5 14.5t53.5 19t38 19v-158q-9 -7 -30 -17
t-52 -19t-70 -15.5t-84 -6.5zM430 872q-42 0 -70 -14t-45.5 -47t-26 -87.5t-10.5 -135.5h304q-2 81 -10.5 135.5t-26 87.5t-45.5 47t-70 14zM430 1108q-58 0 -101.5 16.5t-74 39t-48.5 45t-24 35.5l60 92q6 -8 20.5 -22t38 -27.5t56 -24t73.5 -10.5t73.5 10.5t56 24t38 27.5
t20.5 22l60 -92q-6 -13 -24 -35.5t-48.5 -45t-74 -39t-101.5 -16.5z" />
    <glyph glyph-name="ecaron" unicode="&#x11b;" horiz-adv-x="848" 
d="M196 1216v116l234 -76l234 76v-116l-234 -118zM470 -24q-85 0 -153.5 21t-116.5 78t-74 157.5t-26 259.5q0 160 20.5 263.5t62 163t103 82.5t144.5 23q85 0 147 -22.5t102.5 -81t60.5 -160t20 -260.5v-56h-482q3 -99 16 -160t38 -94t63 -44.5t91 -11.5q33 0 66 5.5
t62.5 14.5t53.5 19t38 19v-158q-9 -7 -30 -17t-52 -19t-70 -15.5t-84 -6.5zM430 872q-42 0 -70 -14t-45.5 -47t-26 -87.5t-10.5 -135.5h304q-2 81 -10.5 135.5t-26 87.5t-45.5 47t-70 14z" />
    <glyph glyph-name="edotaccent" unicode="&#x117;" horiz-adv-x="848" 
d="M470 -24q-85 0 -153.5 21t-116.5 78t-74 157.5t-26 259.5q0 160 20.5 263.5t62 163t103 82.5t144.5 23q85 0 147 -22.5t102.5 -81t60.5 -160t20 -260.5v-56h-482q3 -99 16 -160t38 -94t63 -44.5t91 -11.5q33 0 66 5.5t62.5 14.5t53.5 19t38 19v-158q-9 -7 -30 -17
t-52 -19t-70 -15.5t-84 -6.5zM430 872q-42 0 -70 -14t-45.5 -47t-26 -87.5t-10.5 -135.5h304q-2 81 -10.5 135.5t-26 87.5t-45.5 47t-70 14zM430 1110q-50 0 -77 27t-27 75q0 50 27 76t77 26t77 -27t27 -75q0 -50 -27 -76t-77 -26z" />
    <glyph glyph-name="emacron" unicode="&#x113;" horiz-adv-x="848" 
d="M470 -24q-85 0 -153.5 21t-116.5 78t-74 157.5t-26 259.5q0 160 20.5 263.5t62 163t103 82.5t144.5 23q85 0 147 -22.5t102.5 -81t60.5 -160t20 -260.5v-56h-482q3 -99 16 -160t38 -94t63 -44.5t91 -11.5q33 0 66 5.5t62.5 14.5t53.5 19t38 19v-158q-9 -7 -30 -17
t-52 -19t-70 -15.5t-84 -6.5zM430 872q-42 0 -70 -14t-45.5 -47t-26 -87.5t-10.5 -135.5h304q-2 81 -10.5 135.5t-26 87.5t-45.5 47t-70 14zM190 1284h480v-140h-480v140z" />
    <glyph glyph-name="eogonek" unicode="&#x119;" horiz-adv-x="848" 
d="M706 34q-15 -12 -43 -35t-56 -50.5t-48.5 -56t-20.5 -50.5q0 -23 17.5 -31.5t46.5 -8.5q20 0 36.5 3t25.5 5v-102q-15 -8 -46 -15t-72 -7q-29 0 -55 6t-46.5 19.5t-32.5 33.5t-12 49q0 27 11 54t27.5 51.5t36.5 45.5t37 35q-12 -3 -21.5 -3.5t-20.5 -0.5q-85 0 -153.5 21
t-116.5 78t-74 157.5t-26 259.5q0 160 20.5 263.5t62 163t103 82.5t144.5 23q85 0 147 -22.5t102.5 -81t60.5 -160t20 -260.5v-56h-482q3 -99 16 -160t38 -94t63 -44.5t91 -11.5q33 0 66 5.5t62.5 14.5t53.5 19t38 19v-158zM430 872q-42 0 -70 -14t-45.5 -47t-26 -87.5
t-10.5 -135.5h304q-2 81 -10.5 135.5t-26 87.5t-45.5 47t-70 14z" />
    <glyph glyph-name="eng" unicode="&#x14b;" horiz-adv-x="902" 
d="M134 1000h128l14 -56q45 36 100 58t118 22q82 0 136.5 -26.5t87.5 -72t46.5 -107.5t13.5 -132v-756q0 -71 -18.5 -115.5t-51.5 -70t-77.5 -35t-96.5 -9.5h-92v146h52q34 0 55 7t33 21t16 35.5t4 50.5v706q0 44 -6 81.5t-22.5 64.5t-46 42.5t-77.5 15.5q-39 0 -74.5 -12
t-65.5 -32v-826h-176v1000z" />
    <glyph glyph-name="gbreve" unicode="&#x11f;" horiz-adv-x="894" 
d="M404 -324q-47 0 -87.5 6t-72 14t-52.5 17t-30 15v164q14 -9 38 -19t54 -19t63.5 -14.5t66.5 -5.5q49 0 86.5 8t63 28t38 55t12.5 89v78q-38 -27 -82 -43.5t-98 -16.5q-81 0 -138.5 25t-94.5 83.5t-54 153t-17 234.5q0 137 18 232t55 153.5t93 84.5t132 26q69 0 123.5 -21
t96.5 -57l16 54h126v-1020q0 -90 -29 -149t-78.5 -93.5t-114 -48t-134.5 -13.5zM444 190q41 0 75.5 12t64.5 32v588q-30 20 -64.5 33t-75.5 13q-48 0 -79.5 -17t-49.5 -56.5t-25.5 -104.5t-7.5 -162t7.5 -162t25.5 -104t49.5 -55.5t79.5 -16.5zM428 1108q-58 0 -101.5 16.5
t-74 39t-48.5 45t-24 35.5l60 92q6 -8 20.5 -22t38 -27.5t56 -24t73.5 -10.5t73.5 10.5t56 24t38 27.5t20.5 22l60 -92q-6 -13 -24 -35.5t-48.5 -45t-74 -39t-101.5 -16.5z" />
    <glyph glyph-name="gcircumflex" unicode="&#x11d;" horiz-adv-x="894" 
d="M194 1214l234 118l234 -118v-116l-234 76l-234 -76v116zM404 -324q-47 0 -87.5 6t-72 14t-52.5 17t-30 15v164q14 -9 38 -19t54 -19t63.5 -14.5t66.5 -5.5q49 0 86.5 8t63 28t38 55t12.5 89v78q-38 -27 -82 -43.5t-98 -16.5q-81 0 -138.5 25t-94.5 83.5t-54 153
t-17 234.5q0 137 18 232t55 153.5t93 84.5t132 26q69 0 123.5 -21t96.5 -57l16 54h126v-1020q0 -90 -29 -149t-78.5 -93.5t-114 -48t-134.5 -13.5zM444 190q41 0 75.5 12t64.5 32v588q-30 20 -64.5 33t-75.5 13q-48 0 -79.5 -17t-49.5 -56.5t-25.5 -104.5t-7.5 -162
t7.5 -162t25.5 -104t49.5 -55.5t79.5 -16.5z" />
    <glyph glyph-name="gcommaaccent" unicode="&#x123;" horiz-adv-x="894" 
d="M404 -324q-47 0 -87.5 6t-72 14t-52.5 17t-30 15v164q14 -9 38 -19t54 -19t63.5 -14.5t66.5 -5.5q49 0 86.5 8t63 28t38 55t12.5 89v78q-38 -27 -82 -43.5t-98 -16.5q-81 0 -138.5 25t-94.5 83.5t-54 153t-17 234.5q0 137 18 232t55 153.5t93 84.5t132 26q69 0 123.5 -21
t96.5 -57l16 54h126v-1020q0 -90 -29 -149t-78.5 -93.5t-114 -48t-134.5 -13.5zM444 190q41 0 75.5 12t64.5 32v588q-30 20 -64.5 33t-75.5 13q-48 0 -79.5 -17t-49.5 -56.5t-25.5 -104.5t-7.5 -162t7.5 -162t25.5 -104t49.5 -55.5t79.5 -16.5zM428 1112q-44 0 -63 25
t-19 63q0 39 13.5 103.5t54.5 150.5h94q-12 -39 -18 -72t-6 -54q0 -24 4 -42.5t9 -35t9 -31.5t4 -31q0 -35 -21.5 -55.5t-60.5 -20.5z" />
    <glyph glyph-name="gdotaccent" unicode="&#x121;" horiz-adv-x="894" 
d="M404 -324q-47 0 -87.5 6t-72 14t-52.5 17t-30 15v164q14 -9 38 -19t54 -19t63.5 -14.5t66.5 -5.5q49 0 86.5 8t63 28t38 55t12.5 89v78q-38 -27 -82 -43.5t-98 -16.5q-81 0 -138.5 25t-94.5 83.5t-54 153t-17 234.5q0 137 18 232t55 153.5t93 84.5t132 26q69 0 123.5 -21
t96.5 -57l16 54h126v-1020q0 -90 -29 -149t-78.5 -93.5t-114 -48t-134.5 -13.5zM444 190q41 0 75.5 12t64.5 32v588q-30 20 -64.5 33t-75.5 13q-48 0 -79.5 -17t-49.5 -56.5t-25.5 -104.5t-7.5 -162t7.5 -162t25.5 -104t49.5 -55.5t79.5 -16.5zM428 1110q-50 0 -77 27
t-27 75q0 50 27 76t77 26t77 -27t27 -75q0 -50 -27 -76t-77 -26z" />
    <glyph glyph-name="hbar" unicode="&#x127;" horiz-adv-x="912" 
d="M50 1200h94v100h176v-100h164v-140h-164v-142q39 29 87 46.5t105 17.5q79 0 132 -26.5t85 -72t45.5 -107.5t13.5 -132v-644h-176v624q0 44 -6 81.5t-22.5 64.5t-46 42.5t-77.5 15.5q-39 0 -74.5 -12t-65.5 -32v-784h-176v1060h-94v140z" />
    <glyph glyph-name="hcircumflex" unicode="&#x125;" horiz-adv-x="902" 
d="M-12 1492l234 118l234 -118v-116l-234 76l-234 -76v116zM134 1300h176v-340q39 29 87 46.5t105 17.5q79 0 132 -26.5t85 -72t45.5 -107.5t13.5 -132v-686h-176v666q0 44 -6 81.5t-22.5 64.5t-46 42.5t-77.5 15.5q-39 0 -74.5 -12t-65.5 -32v-826h-176v1300z" />
    <glyph glyph-name="ibreve" unicode="&#x12d;" horiz-adv-x="444" 
d="M134 1000h176v-1000h-176v1000zM222 1108q-58 0 -101.5 16.5t-74 39t-48.5 45t-24 35.5l60 92q6 -8 20.5 -22t38 -27.5t56 -24t73.5 -10.5t73.5 10.5t56 24t38 27.5t20.5 22l60 -92q-6 -13 -24 -35.5t-48.5 -45t-74 -39t-101.5 -16.5z" />
    <glyph glyph-name="imacron" unicode="&#x12b;" horiz-adv-x="444" 
d="M134 1000h176v-1000h-176v1000zM-18 1284h480v-140h-480v140z" />
    <glyph glyph-name="iogonek" unicode="&#x12f;" horiz-adv-x="444" 
d="M134 1000h176v-1000q-11 -8 -32 -26.5t-42 -41t-36.5 -47t-15.5 -43.5q0 -23 17.5 -31.5t46.5 -8.5q21 0 37.5 3t24.5 5v-102q-15 -8 -46 -15t-72 -7q-29 0 -55 6t-46.5 19.5t-32.5 33.5t-12 49q0 34 17 67.5t40 61.5t47 48.5t38 28.5h-54v1000zM222 1104
q-112 0 -112 102q0 104 112 104t112 -104q0 -102 -112 -102z" />
    <glyph glyph-name="itilde" unicode="&#x129;" horiz-adv-x="444" 
d="M134 1000h176v-1000h-176v1000zM314 1112q-35 0 -61.5 12t-49.5 26t-46 26t-51 12q-36 0 -64 -16.5t-46 -33.5v120q8 11 21 23t30 21.5t38 15.5t45 6q35 0 61.5 -12t49.5 -26t45.5 -26t51.5 -12q36 0 64 17t46 35v-122q-8 -11 -21 -22.5t-30 -21t-38 -16t-45 -6.5z" />
    <glyph glyph-name="uni0237" unicode="&#x237;" horiz-adv-x="444" 
d="M-28 -154h54q33 0 54 7t33 21t16.5 35.5t4.5 50.5v1040h176v-1070q0 -71 -19 -115.5t-52 -70t-78 -35t-97 -9.5h-92v146z" />
    <glyph glyph-name="jcircumflex" unicode="&#x135;" horiz-adv-x="444" 
d="M-28 -154h54q33 0 54 7t33 21t16.5 35.5t4.5 50.5v1040h176v-1070q0 -71 -19 -115.5t-52 -70t-78 -35t-97 -9.5h-92v146zM-12 1214l234 118l234 -118v-116l-234 76l-234 -76v116z" />
    <glyph glyph-name="kcommaaccent" unicode="&#x137;" horiz-adv-x="824" 
d="M372 -418q12 39 18 72.5t6 53.5q0 24 -4 42.5t-9 35t-9 31t-4 31.5q0 35 21.5 55.5t60.5 20.5q44 0 63 -25t19 -63q0 -39 -13.5 -103.5t-54.5 -150.5h-94v0zM134 1300h176v-724l266 424h200l-312 -470l350 -530h-210l-294 462v-462h-176v1300z" />
    <glyph glyph-name="kgreenlandic" unicode="&#x138;" horiz-adv-x="824" 
d="M134 1000h176v-424l266 424h200l-312 -470l350 -530h-210l-294 462v-462h-176v1000z" />
    <glyph glyph-name="lacute" unicode="&#x13a;" horiz-adv-x="480" 
d="M224 1586h216l-178 -186h-154zM370 -8q-52 0 -97 9.5t-78 35t-52 70t-19 115.5v1078h176v-1048q0 -29 4.5 -50.5t16.5 -35t33.5 -20t55.5 -6.5h36v-148h-76v0z" />
    <glyph glyph-name="lcaron" unicode="&#x13e;" horiz-adv-x="508" 
d="M370 -8q-52 0 -97 9.5t-78 35t-52 70t-19 115.5v1078h176v-1048q0 -29 4.5 -50.5t16.5 -35t33.5 -20t55.5 -6.5h36v-148h-76v0zM372 972q12 39 19 72t7 56q0 25 -4 44t-9 35t-9 30t-4 29q0 36 21 56t59 20q44 0 63 -24.5t19 -65.5q0 -38 -15 -101t-53 -151h-94v0z" />
    <glyph glyph-name="lcommaaccent" unicode="&#x13c;" horiz-adv-x="480" 
d="M206 -418q12 39 18 72.5t6 53.5q0 24 -4 42.5t-9 35t-9 31t-4 31.5q0 35 21.5 55.5t60.5 20.5q44 0 63 -25t19 -63q0 -39 -13.5 -103.5t-54.5 -150.5h-94v0zM370 -8q-52 0 -97 9.5t-78 35t-52 70t-19 115.5v1078h176v-1048q0 -29 4.5 -50.5t16.5 -35t33.5 -20t55.5 -6.5
h36v-148h-76v0z" />
    <glyph glyph-name="ldot" unicode="&#x140;" horiz-adv-x="572" 
d="M370 -8q-52 0 -97 9.5t-78 35t-52 70t-19 115.5v1078h176v-1048q0 -29 4.5 -50.5t16.5 -35t33.5 -20t55.5 -6.5h36v-148h-76v0zM490 563q-50 0 -77 27t-27 75q0 50 27 76t77 26t77 -27t27 -75q0 -50 -27 -76t-77 -26z" />
    <glyph glyph-name="nacute" unicode="&#x144;" horiz-adv-x="902" 
d="M468 1308h216l-178 -186h-154zM134 1000h128l14 -56q45 36 100 58t118 22q82 0 136.5 -26.5t87.5 -72t46.5 -107.5t13.5 -132v-686h-176v666q0 44 -6 81.5t-22.5 64.5t-46 42.5t-77.5 15.5q-39 0 -74.5 -12t-65.5 -32v-826h-176v1000z" />
    <glyph glyph-name="napostrophe" unicode="&#x149;" horiz-adv-x="1172" 
d="M402 1000h128l14 -56q45 36 100 58t118 22q82 0 136.5 -26.5t87.5 -72t46.5 -107.5t13.5 -132v-686h-176v666q0 44 -6 81.5t-22.5 64.5t-46 42.5t-77.5 15.5q-39 0 -74.5 -12t-65.5 -32v-826h-176v1000zM53 834q15 57 22.5 103.5t7.5 78.5q0 34 -4.5 61.5t-10.5 50
t-10.5 43t-4.5 41.5q0 50 27.5 80t80.5 30q54 0 81 -32t27 -86q0 -23 -5 -61t-15.5 -86.5t-27.5 -105t-40 -117.5h-128v0z" />
    <glyph glyph-name="ncaron" unicode="&#x148;" horiz-adv-x="902" 
d="M222 1216v116l234 -76l234 76v-116l-234 -118zM134 1000h128l14 -56q45 36 100 58t118 22q82 0 136.5 -26.5t87.5 -72t46.5 -107.5t13.5 -132v-686h-176v666q0 44 -6 81.5t-22.5 64.5t-46 42.5t-77.5 15.5q-39 0 -74.5 -12t-65.5 -32v-826h-176v1000z" />
    <glyph glyph-name="ncommaaccent" unicode="&#x146;" horiz-adv-x="902" 
d="M376 -418q12 39 18 72.5t6 53.5q0 24 -4 42.5t-9 35t-9 31t-4 31.5q0 35 21.5 55.5t60.5 20.5q44 0 63 -25t19 -63q0 -39 -13.5 -103.5t-54.5 -150.5h-94v0zM134 1000h128l14 -56q45 36 100 58t118 22q82 0 136.5 -26.5t87.5 -72t46.5 -107.5t13.5 -132v-686h-176v666
q0 44 -6 81.5t-22.5 64.5t-46 42.5t-77.5 15.5q-39 0 -74.5 -12t-65.5 -32v-826h-176v1000z" />
    <glyph glyph-name="obreve" unicode="&#x14f;" horiz-adv-x="880" 
d="M440 -24q-88 0 -152 22.5t-106 81t-62 160.5t-20 260q0 157 21.5 258.5t64 160.5t106 82t148.5 23q88 0 152 -22.5t106 -81t62 -160.5t20 -260q0 -157 -21.5 -258.5t-64 -160.5t-106 -82t-148.5 -23zM440 132q48 0 79.5 16.5t49.5 58.5t25.5 113t7.5 180t-7.5 180
t-25.5 113t-49.5 58.5t-79.5 16.5t-79.5 -16.5t-49.5 -58.5t-25.5 -113t-7.5 -180t7.5 -180t25.5 -113t49.5 -58.5t79.5 -16.5zM440 1108q-58 0 -101.5 16.5t-74 39t-48.5 45t-24 35.5l60 92q6 -8 20.5 -22t38 -27.5t56 -24t73.5 -10.5t73.5 10.5t56 24t38 27.5t20.5 22
l60 -92q-6 -13 -24 -35.5t-48.5 -45t-74 -39t-101.5 -16.5z" />
    <glyph glyph-name="ohungarumlaut" unicode="&#x151;" horiz-adv-x="880" 
d="M326 1308h192l-172 -186h-136zM604 1308h192l-172 -186h-136zM440 -24q-88 0 -152 22.5t-106 81t-62 160.5t-20 260q0 157 21.5 258.5t64 160.5t106 82t148.5 23q88 0 152 -22.5t106 -81t62 -160.5t20 -260q0 -157 -21.5 -258.5t-64 -160.5t-106 -82t-148.5 -23zM440 132
q48 0 79.5 16.5t49.5 58.5t25.5 113t7.5 180t-7.5 180t-25.5 113t-49.5 58.5t-79.5 16.5t-79.5 -16.5t-49.5 -58.5t-25.5 -113t-7.5 -180t7.5 -180t25.5 -113t49.5 -58.5t79.5 -16.5z" />
    <glyph glyph-name="omacron" unicode="&#x14d;" horiz-adv-x="880" 
d="M200 1284h480v-140h-480v140zM440 -24q-88 0 -152 22.5t-106 81t-62 160.5t-20 260q0 157 21.5 258.5t64 160.5t106 82t148.5 23q88 0 152 -22.5t106 -81t62 -160.5t20 -260q0 -157 -21.5 -258.5t-64 -160.5t-106 -82t-148.5 -23zM440 132q48 0 79.5 16.5t49.5 58.5
t25.5 113t7.5 180t-7.5 180t-25.5 113t-49.5 58.5t-79.5 16.5t-79.5 -16.5t-49.5 -58.5t-25.5 -113t-7.5 -180t7.5 -180t25.5 -113t49.5 -58.5t79.5 -16.5z" />
    <glyph glyph-name="oslashacute" unicode="&#x1ff;" horiz-adv-x="880" 
d="M440 -24q-56 0 -101 8t-83 28l-58 -112h-142l108 208q-33 60 -48.5 155t-15.5 237q0 157 21.5 258.5t64 160.5t106 82t148.5 23q54 0 100 -8.5t82 -29.5l60 114h142l-110 -208q33 -60 49.5 -155t16.5 -237q0 -157 -21.5 -258.5t-64 -160.5t-106 -82t-148.5 -23zM278 326
l268 512q-18 15 -45.5 22.5t-60.5 7.5q-48 0 -79.5 -16.5t-49.5 -58.5t-25.5 -113t-7.5 -180v-174zM602 674l-270 -514q37 -28 108 -28q48 0 79.5 16.5t49.5 58.5t25.5 113t7.5 180v174zM452 1308h216l-178 -186h-154z" />
    <glyph glyph-name="racute" unicode="&#x155;" horiz-adv-x="608" 
d="M356 1308h216l-178 -186h-154zM134 1000h128l22 -86q23 19 51.5 37t63 31.5t75.5 21.5t90 8v-174q-86 0 -146.5 -12.5t-107.5 -33.5v-792h-176v1000z" />
    <glyph glyph-name="rcaron" unicode="&#x159;" horiz-adv-x="608" 
d="M110 1216v116l234 -76l234 76v-116l-234 -118zM134 1000h128l22 -86q23 19 51.5 37t63 31.5t75.5 21.5t90 8v-174q-86 0 -146.5 -12.5t-107.5 -33.5v-792h-176v1000z" />
    <glyph glyph-name="rcommaaccent" unicode="&#x157;" horiz-adv-x="608" 
d="M142 -418q12 39 18 72.5t6 53.5q0 24 -4 42.5t-9 35t-9 31t-4 31.5q0 35 21.5 55.5t60.5 20.5q44 0 63 -25t19 -63q0 -39 -13.5 -103.5t-54.5 -150.5h-94v0zM134 1000h128l22 -86q23 19 51.5 37t63 31.5t75.5 21.5t90 8v-174q-86 0 -146.5 -12.5t-107.5 -33.5v-792h-176
v1000z" />
    <glyph glyph-name="sacute" unicode="&#x15b;" horiz-adv-x="734" 
d="M386 1308h216l-178 -186h-154zM316 -24q-41 0 -77.5 5.5t-66.5 14t-51.5 17.5t-32.5 17v168q17 -11 40.5 -22t51.5 -20.5t60.5 -15.5t67.5 -6q88 0 127 33.5t39 90.5q0 45 -23 79t-73 61l-120 66q-88 48 -130 116.5t-42 153.5q0 72 23.5 126.5t65.5 90.5t101 54.5
t130 18.5q81 0 130 -15.5t76 -30.5v-162q-11 7 -30 15.5t-43 16t-52 13t-57 5.5q-88 0 -127 -33.5t-39 -90.5q0 -45 24 -78t72 -60l124 -70q49 -28 81 -58t51.5 -63t27.5 -70t8 -77q0 -139 -83.5 -214.5t-252.5 -75.5z" />
    <glyph glyph-name="scedilla" unicode="&#x15f;" horiz-adv-x="734" 
d="M316 -24q-41 0 -77.5 5.5t-66.5 14t-51.5 17.5t-32.5 17v168q17 -11 40.5 -22t51.5 -20.5t60.5 -15.5t67.5 -6q88 0 127 33.5t39 90.5q0 45 -23 79t-73 61l-120 66q-88 48 -130 116.5t-42 153.5q0 72 23.5 126.5t65.5 90.5t101 54.5t130 18.5q81 0 130 -15.5t76 -30.5
v-162q-11 7 -30 15.5t-43 16t-52 13t-57 5.5q-88 0 -127 -33.5t-39 -90.5q0 -45 24 -78t72 -60l124 -70q49 -28 81 -58t51.5 -63t27.5 -70t8 -77q0 -139 -83.5 -214.5t-252.5 -75.5zM330 -310q-35 0 -65 6.5t-45 15.5v102q8 -2 23.5 -5t36.5 -3q30 0 48 12.5t18 39.5
q0 18 -8 38.5t-19.5 40t-24 36t-22.5 27.5h108q16 -13 34 -32.5t33.5 -43.5t26 -51.5t10.5 -56.5q0 -60 -42.5 -93t-111.5 -33z" />
    <glyph glyph-name="scircumflex" unicode="&#x15d;" horiz-adv-x="734" 
d="M140 1214l234 118l234 -118v-116l-234 76l-234 -76v116zM316 -24q-41 0 -77.5 5.5t-66.5 14t-51.5 17.5t-32.5 17v168q17 -11 40.5 -22t51.5 -20.5t60.5 -15.5t67.5 -6q88 0 127 33.5t39 90.5q0 45 -23 79t-73 61l-120 66q-88 48 -130 116.5t-42 153.5q0 72 23.5 126.5
t65.5 90.5t101 54.5t130 18.5q81 0 130 -15.5t76 -30.5v-162q-11 7 -30 15.5t-43 16t-52 13t-57 5.5q-88 0 -127 -33.5t-39 -90.5q0 -45 24 -78t72 -60l124 -70q49 -28 81 -58t51.5 -63t27.5 -70t8 -77q0 -139 -83.5 -214.5t-252.5 -75.5z" />
    <glyph glyph-name="scommaaccent" unicode="&#x219;" horiz-adv-x="734" 
d="M270 -418q12 39 18 72.5t6 53.5q0 24 -4 42.5t-9 35t-9 31t-4 31.5q0 35 21.5 55.5t60.5 20.5q44 0 63 -25t19 -63q0 -39 -13.5 -103.5t-54.5 -150.5h-94v0zM316 -24q-41 0 -77.5 5.5t-66.5 14t-51.5 17.5t-32.5 17v168q17 -11 40.5 -22t51.5 -20.5t60.5 -15.5t67.5 -6
q88 0 127 33.5t39 90.5q0 45 -23 79t-73 61l-120 66q-88 48 -130 116.5t-42 153.5q0 72 23.5 126.5t65.5 90.5t101 54.5t130 18.5q81 0 130 -15.5t76 -30.5v-162q-11 7 -30 15.5t-43 16t-52 13t-57 5.5q-88 0 -127 -33.5t-39 -90.5q0 -45 24 -78t72 -60l124 -70
q49 -28 81 -58t51.5 -63t27.5 -70t8 -77q0 -139 -83.5 -214.5t-252.5 -75.5z" />
    <glyph glyph-name="tbar" unicode="&#x167;" horiz-adv-x="638" 
d="M38 1000h144v300h176v-300h200v-146h-200v-154h156v-142h-156v-292q0 -40 7 -64.5t22 -38t39.5 -18.5t59.5 -5h52v-148h-98q-52 0 -98.5 9.5t-82 37t-56.5 78t-21 133.5v308h-92v142h92v154h-144v146z" />
    <glyph glyph-name="tcaron" unicode="&#x165;" horiz-adv-x="618" 
d="M38 1000h144v300h176v-300h200v-146h-200v-588q0 -40 7 -64.5t22 -38t39.5 -18.5t59.5 -5h52v-148h-98q-52 0 -98.5 9.5t-82 37t-56.5 78t-21 133.5v604h-144v146zM450 1078q12 39 19 72t7 56q0 25 -4 44t-9 35t-9 30t-4 29q0 36 21 56t59 20q44 0 63 -24.5t19 -65.5
q0 -38 -15 -101t-53 -151h-94v0z" />
    <glyph glyph-name="tcommaaccent" unicode="&#x163;" horiz-adv-x="618" 
d="M290 -418q12 39 18 72.5t6 53.5q0 24 -4 42.5t-9 35t-9 31t-4 31.5q0 35 21.5 55.5t60.5 20.5q44 0 63 -25t19 -63q0 -39 -13.5 -103.5t-54.5 -150.5h-94v0zM38 1000h144v300h176v-300h200v-146h-200v-588q0 -40 7 -64.5t22 -38t39.5 -18.5t59.5 -5h52v-148h-98
q-52 0 -98.5 9.5t-82 37t-56.5 78t-21 133.5v604h-144v146z" />
    <glyph glyph-name="uni021B" unicode="&#x21b;" horiz-adv-x="618" 
d="M290 -418q12 39 18 72.5t6 53.5q0 24 -4 42.5t-9 35t-9 31t-4 31.5q0 35 21.5 55.5t60.5 20.5q44 0 63 -25t19 -63q0 -39 -13.5 -103.5t-54.5 -150.5h-94v0zM38 1000h144v300h176v-300h200v-146h-200v-588q0 -40 7 -64.5t22 -38t39.5 -18.5t59.5 -5h52v-148h-98
q-52 0 -98.5 9.5t-82 37t-56.5 78t-21 133.5v604h-144v146z" />
    <glyph glyph-name="ubreve" unicode="&#x16d;" horiz-adv-x="892" 
d="M614 54q-42 -36 -95 -57t-113 -21q-83 0 -137 26.5t-86.5 72t-45.5 107t-13 132.5v686h176v-666q0 -46 5 -83.5t21 -64.5t45 -41.5t77 -14.5q39 0 72 11t62 31v828h176v-1000h-128zM440 1108q-58 0 -101.5 16.5t-74 39t-48.5 45t-24 35.5l60 92q6 -8 20.5 -22t38 -27.5
t56 -24t73.5 -10.5t73.5 10.5t56 24t38 27.5t20.5 22l60 -92q-6 -13 -24 -35.5t-48.5 -45t-74 -39t-101.5 -16.5z" />
    <glyph glyph-name="uhungarumlaut" unicode="&#x171;" horiz-adv-x="892" 
d="M614 54q-42 -36 -95 -57t-113 -21q-83 0 -137 26.5t-86.5 72t-45.5 107t-13 132.5v686h176v-666q0 -46 5 -83.5t21 -64.5t45 -41.5t77 -14.5q39 0 72 11t62 31v828h176v-1000h-128zM326 1308h192l-172 -186h-136zM604 1308h192l-172 -186h-136z" />
    <glyph glyph-name="umacron" unicode="&#x16b;" horiz-adv-x="892" 
d="M614 54q-42 -36 -95 -57t-113 -21q-83 0 -137 26.5t-86.5 72t-45.5 107t-13 132.5v686h176v-666q0 -46 5 -83.5t21 -64.5t45 -41.5t77 -14.5q39 0 72 11t62 31v828h176v-1000h-128zM200 1284h480v-140h-480v140z" />
    <glyph glyph-name="uogonek" unicode="&#x173;" horiz-adv-x="892" 
d="M640 -314q-29 0 -55 6t-46.5 19.5t-32.5 33.5t-12 49q0 33 14 64.5t34.5 58.5t43.5 49.5t42 37.5l-14 50q-42 -36 -95 -57t-113 -21q-83 0 -137 26.5t-86.5 72t-45.5 107t-13 132.5v686h176v-666q0 -46 5 -83.5t21 -64.5t45 -41.5t77 -14.5q39 0 72 11t62 31v828h176
v-1000q-13 -8 -34.5 -26.5t-42.5 -41t-36 -46t-15 -42.5q0 -24 18 -33t48 -9q20 0 36.5 3t25.5 5v-102q-15 -8 -46 -15t-72 -7z" />
    <glyph glyph-name="uring" unicode="&#x16f;" horiz-adv-x="892" 
d="M440 1088q-47 0 -86 13.5t-66.5 39t-42.5 63.5t-15 88q0 48 15.5 86t43 64t66 40t85.5 14q95 0 151.5 -53t56.5 -151q0 -49 -15.5 -87t-43 -64t-65.5 -39.5t-84 -13.5zM440 1194q44 0 71 24t27 74t-27 74t-71 24t-71 -24t-27 -74t27 -74t71 -24zM614 54q-42 -36 -95 -57
t-113 -21q-83 0 -137 26.5t-86.5 72t-45.5 107t-13 132.5v686h176v-666q0 -46 5 -83.5t21 -64.5t45 -41.5t77 -14.5q39 0 72 11t62 31v828h176v-1000h-128z" />
    <glyph glyph-name="utilde" unicode="&#x169;" horiz-adv-x="892" 
d="M614 54q-42 -36 -95 -57t-113 -21q-83 0 -137 26.5t-86.5 72t-45.5 107t-13 132.5v686h176v-666q0 -46 5 -83.5t21 -64.5t45 -41.5t77 -14.5q39 0 72 11t62 31v828h176v-1000h-128zM532 1112q-35 0 -61.5 12t-49.5 26t-46 26t-51 12q-36 0 -64 -16.5t-46 -33.5v120
q8 11 21 23t30 21.5t38 15.5t45 6q35 0 61.5 -12t49.5 -26t45.5 -26t51.5 -12q36 0 64 17t46 35v-122q-8 -11 -21 -22.5t-30 -21t-38 -16t-45 -6.5z" />
    <glyph glyph-name="wacute" unicode="&#x1e83;" horiz-adv-x="1238" 
d="M632 1308h216l-178 -186h-154zM52 1000h174l104 -528q5 -28 10.5 -64t11 -75.5t10 -81t8.5 -79.5q4 38 8.5 79.5t10 81t11.5 75.5t12 64l114 528h192l114 -528q6 -29 12 -65t11 -75.5t9.5 -80.5t7.5 -79q4 38 8.5 79t10 80.5t11.5 75.5t12 65l104 528h168l-220 -1000
h-190l-114 528q-6 29 -12 66t-12 77.5t-11 82t-9 80.5q-4 -39 -8.5 -80.5t-10 -82t-11.5 -77.5t-12 -66l-114 -528h-190z" />
    <glyph glyph-name="wcircumflex" unicode="&#x175;" horiz-adv-x="1238" 
d="M386 1214l234 118l234 -118v-116l-234 76l-234 -76v116zM52 1000h174l104 -528q5 -28 10.5 -64t11 -75.5t10 -81t8.5 -79.5q4 38 8.5 79.5t10 81t11.5 75.5t12 64l114 528h192l114 -528q6 -29 12 -65t11 -75.5t9.5 -80.5t7.5 -79q4 38 8.5 79t10 80.5t11.5 75.5t12 65
l104 528h168l-220 -1000h-190l-114 528q-6 29 -12 66t-12 77.5t-11 82t-9 80.5q-4 -39 -8.5 -80.5t-10 -82t-11.5 -77.5t-12 -66l-114 -528h-190z" />
    <glyph glyph-name="wdieresis" unicode="&#x1e85;" horiz-adv-x="1238" 
d="M454 1110q-48 0 -76 27t-28 75q0 50 28 76t76 26t76 -27t28 -75q0 -50 -28 -76t-76 -26zM786 1110q-48 0 -76 27t-28 75q0 50 28 76t76 26t76 -27t28 -75q0 -50 -28 -76t-76 -26zM52 1000h174l104 -528q5 -28 10.5 -64t11 -75.5t10 -81t8.5 -79.5q4 38 8.5 79.5t10 81
t11.5 75.5t12 64l114 528h192l114 -528q6 -29 12 -65t11 -75.5t9.5 -80.5t7.5 -79q4 38 8.5 79t10 80.5t11.5 75.5t12 65l104 528h168l-220 -1000h-190l-114 528q-6 29 -12 66t-12 77.5t-11 82t-9 80.5q-4 -39 -8.5 -80.5t-10 -82t-11.5 -77.5t-12 -66l-114 -528h-190z" />
    <glyph glyph-name="wgrave" unicode="&#x1e81;" horiz-adv-x="1238" 
d="M52 1000h174l104 -528q5 -28 10.5 -64t11 -75.5t10 -81t8.5 -79.5q4 38 8.5 79.5t10 81t11.5 75.5t12 64l114 528h192l114 -528q6 -29 12 -65t11 -75.5t9.5 -80.5t7.5 -79q4 38 8.5 79t10 80.5t11.5 75.5t12 65l104 528h168l-220 -1000h-190l-114 528q-6 29 -12 66
t-12 77.5t-11 82t-9 80.5q-4 -39 -8.5 -80.5t-10 -82t-11.5 -77.5t-12 -66l-114 -528h-190zM392 1308h216l116 -186h-154z" />
    <glyph glyph-name="ycircumflex" unicode="&#x177;" horiz-adv-x="796" 
d="M310 2l-276 998h178l140 -552q6 -23 12.5 -53t12.5 -63.5t12 -69.5t11 -70q4 34 10 70t12.5 69.5t13 63.5t12.5 53l140 552h174l-360 -1300h-180zM164 1214l234 118l234 -118v-116l-234 76l-234 -76v116z" />
    <glyph glyph-name="ygrave" unicode="&#x1ef3;" horiz-adv-x="796" 
d="M310 2l-276 998h178l140 -552q6 -23 12.5 -53t12.5 -63.5t12 -69.5t11 -70q4 34 10 70t12.5 69.5t13 63.5t12.5 53l140 552h174l-360 -1300h-180zM170 1308h216l116 -186h-154z" />
    <glyph glyph-name="zacute" unicode="&#x17a;" horiz-adv-x="760" 
d="M394 1308h216l-178 -186h-154zM84 114l386 740h-376v146h582v-112l-386 -742h396v-146h-602v114z" />
    <glyph glyph-name="zdotaccent" unicode="&#x17c;" horiz-adv-x="760" 
d="M84 114l386 740h-376v146h582v-112l-386 -742h396v-146h-602v114zM382 1110q-50 0 -77 27t-27 75q0 50 27 76t77 26t77 -27t27 -75q0 -50 -27 -76t-77 -26z" />
    <glyph glyph-name="ij" unicode="&#x133;" horiz-adv-x="888" 
d="M222 1104q-112 0 -112 102q0 104 112 104t112 -104q0 -102 -112 -102zM134 1000h176v-1000h-176v1000zM666 1104q-112 0 -112 102q0 104 112 104t112 -104q0 -102 -112 -102zM416 -154h54q33 0 54 7t33 21t16.5 35.5t4.5 50.5v1040h176v-1070q0 -71 -19 -115.5t-52 -70
t-78 -35t-97 -9.5h-92v146z" />
    <glyph glyph-name="uni2190" unicode="&#x2190;" horiz-adv-x="1400" 
d="M1350 568h-926q-20 0 -40 4t-40 10l340 -338l-116 -114l-520 520l520 520l116 -114l-340 -338q20 6 40 10t40 4h926v-164z" />
    <glyph glyph-name="uni2191" unicode="&#x2191;" horiz-adv-x="1400" 
d="M618 0v948q0 20 4 40t10 40l-338 -340l-114 116l520 520l520 -520l-114 -116l-338 340q6 -20 10 -40t4 -40v-948h-164z" />
    <glyph glyph-name="uni2192" unicode="&#x2192;" horiz-adv-x="1400" 
d="M48 732h926q20 0 40 -4t40 -10l-340 338l116 114l520 -520l-520 -520l-116 114l340 338q-20 -6 -40 -10t-40 -4h-926v164z" />
    <glyph glyph-name="uni2193" unicode="&#x2193;" horiz-adv-x="1400" 
d="M782 1300v-948q0 -20 -4 -40t-10 -40l338 340l114 -116l-520 -520l-520 520l114 116l338 -340q-6 20 -10 40t-4 40v948h164z" />
    <glyph glyph-name="uni2196" unicode="&#x2196;" horiz-adv-x="1400" 
d="M210 1118h736v-162h-476q18 -9 34 -20.5t30 -23.5l656 -656l-118 -118l-656 656q-14 14 -24.5 30t-19.5 34v-476h-162v736z" />
    <glyph glyph-name="uni2197" unicode="&#x2197;" horiz-adv-x="1400" 
d="M1028 858q-9 -18 -20.5 -34t-23.5 -30l-656 -656l-118 118l656 656q14 12 30 23.5t34 20.5h-476v162h736v-736h-162v476z" />
    <glyph glyph-name="uni2198" unicode="&#x2198;" horiz-adv-x="1400" 
d="M454 302h472q-17 9 -32.5 19.5t-27.5 22.5l-656 656l118 118l656 -656q12 -14 23.5 -30t20.5 -34v476h162v-736h-736v164z" />
    <glyph glyph-name="uni2199" unicode="&#x2199;" horiz-adv-x="1400" 
d="M210 874h162v-476q9 18 19.5 34t24.5 30l656 656l118 -118l-656 -656q-27 -24 -60 -42h472v-164h-736v736z" />
    <glyph glyph-name="zero.tnum" horiz-adv-x="1006" 
d="M502 -24q-69 0 -125.5 12t-100.5 41.5t-76.5 79t-53.5 124t-31.5 177.5t-10.5 240q0 202 24 332.5t73.5 206.5t124.5 105.5t176 29.5q104 0 179.5 -29t124.5 -104t72.5 -206t23.5 -335q0 -135 -10.5 -237.5t-32.5 -177.5t-55 -124.5t-77.5 -79.5t-100.5 -42.5t-124 -12.5
zM502 136q63 0 103.5 23t64.5 81t33 157.5t9 252.5t-9 252.5t-33 157.5t-64.5 81t-103.5 23t-103.5 -23t-63.5 -81t-32 -157.5t-9 -252.5t9 -252.5t32 -157.5t63.5 -81t103.5 -23z" />
    <glyph glyph-name="zero.tnum_alt" horiz-adv-x="1000" 
d="M498 560q-42 0 -66 24t-24 66t24 66t66 24q44 0 67 -24t23 -66t-23 -66t-67 -24zM500 -24q-69 0 -125.5 12t-100.5 41.5t-76.5 79t-53.5 124t-31.5 177.5t-10.5 240q0 202 24 332.5t73.5 206.5t124.5 105.5t176 29.5q104 0 179.5 -29t124.5 -104t72.5 -206t23.5 -335
q0 -135 -10.5 -237.5t-32.5 -177.5t-55 -124.5t-77.5 -79.5t-100.5 -42.5t-124 -12.5zM500 136q63 0 103.5 23t64.5 81t33 157.5t9 252.5t-9 252.5t-33 157.5t-64.5 81t-103.5 23t-103.5 -23t-63.5 -81t-32 -157.5t-9 -252.5t9 -252.5t32 -157.5t63.5 -81t103.5 -23z" />
    <glyph glyph-name="one.tnum" horiz-adv-x="1000" 
d="M238 156h216v954l-218 -70v162l278 98h124v-1144h218v-156h-618v156z" />
    <glyph glyph-name="two.tnum" horiz-adv-x="1000" 
d="M150 120q0 106 18.5 182t51.5 131.5t79.5 95.5t102.5 73q55 32 101 61t78.5 65t50.5 84t18 118q0 58 -12 101t-39 71.5t-70.5 43t-106.5 14.5q-40 0 -75 -6t-64 -15t-52 -19t-39 -18v170q41 21 108 36.5t144 15.5q111 0 186.5 -30.5t121.5 -83t66 -122t20 -146.5
q0 -102 -26.5 -173.5t-70.5 -124t-102 -92t-121 -76.5q-47 -27 -80.5 -54t-56 -62.5t-34 -84.5t-13.5 -119h512v-156h-696v120z" />
    <glyph glyph-name="three.tnum" horiz-adv-x="1000" 
d="M408 -24q-41 0 -79 4.5t-71.5 12t-61 16.5t-46.5 19v170q13 -8 37 -18t55 -19t68 -15t78 -6q65 0 116 12t86 39t53.5 69.5t18.5 103.5q0 78 -30.5 130.5t-82.5 84.5t-121 47t-146 18v106l308 394h-434v156h672v-128l-318 -402q76 -16 138.5 -48.5t107.5 -83.5t69.5 -121
t24.5 -161t-29 -161.5t-85 -119t-138.5 -74t-189.5 -25.5z" />
    <glyph glyph-name="four.tnum" horiz-adv-x="1000" 
d="M92 398l482 902h198l-472 -878h316v300h184v-300h150v-154h-150v-268h-184v268h-524v130z" />
    <glyph glyph-name="five.tnum" horiz-adv-x="1000" 
d="M418 -24q-92 0 -156 16t-102 36v170q13 -8 36.5 -18t54.5 -19t67.5 -15t77.5 -6q66 0 117.5 12t86.5 39t53.5 69.5t18.5 103.5q0 85 -37 140.5t-100.5 89t-148.5 49t-182 21.5l22 636h590v-156h-414l-16 -336q113 -16 201.5 -49.5t149 -88.5t92 -133t31.5 -181
q0 -91 -29 -161.5t-85 -119t-138.5 -74t-189.5 -25.5z" />
    <glyph glyph-name="six.tnum" horiz-adv-x="1000" 
d="M514 -24q-124 0 -200.5 44.5t-119 129.5t-57.5 209t-15 283q0 164 27.5 291t85 214t146.5 132t211 45q35 0 69.5 -4.5t65 -12t55.5 -16.5t42 -19v-168q-17 10 -42 20t-53.5 18t-59.5 13t-61 5q-146 0 -218.5 -101t-79.5 -311q39 30 98.5 53t137.5 23q102 0 170.5 -30.5
t110.5 -85.5t59.5 -131.5t17.5 -168.5q0 -46 -6.5 -96t-23 -98t-44.5 -91t-71.5 -76t-104 -52t-140.5 -19zM516 664q-66 0 -118 -21t-88 -47q1 -122 10 -209.5t32 -143t62 -81.5t100 -26q62 0 101.5 22t62 58.5t30.5 84t8 99.5q0 59 -9 108t-31.5 83.5t-61.5 53.5t-98 19z
" />
    <glyph glyph-name="seven.tnum" horiz-adv-x="1000" 
d="M652 1144h-500v156h694v-130l-398 -1170h-192z" />
    <glyph glyph-name="eight.tnum" horiz-adv-x="1000" 
d="M500 -24q-95 0 -169 17.5t-125.5 55.5t-78.5 98t-27 145q0 62 18 114.5t50.5 97t78 82t101.5 70.5q-104 65 -163 153t-59 203q0 78 27.5 136.5t77 97.5t118 58.5t151.5 19.5q84 0 153 -19t118 -58t76 -97.5t27 -137.5q0 -114 -60.5 -203t-165.5 -153q56 -32 102.5 -69.5
t79.5 -82.5t51.5 -97.5t18.5 -114.5q0 -83 -28 -143t-80 -98.5t-126 -56.5t-166 -18zM500 134q105 0 158.5 40t53.5 136q0 43 -16.5 79.5t-45.5 68t-68.5 59t-85.5 53.5q-45 -26 -83 -53.5t-66 -59t-43.5 -68t-15.5 -79.5q0 -96 53.5 -136t158.5 -40zM310 1000
q0 -43 15 -78.5t41 -65.5t61.5 -56.5t76.5 -51.5q40 25 74 51.5t59 56.5t39 65.5t14 78.5q0 90 -48.5 128t-141.5 38t-141.5 -38t-48.5 -128z" />
    <glyph glyph-name="nine.tnum" horiz-adv-x="1000" 
d="M414 -24q-35 0 -70 4.5t-65.5 12t-55.5 16.5t-41 19v168q16 -10 41 -20t53.5 -18t60 -13t61.5 -5q78 0 133 24.5t90.5 76t53 131.5t19.5 190q-42 -27 -101.5 -47.5t-134.5 -20.5q-99 0 -167 30.5t-110 85t-60.5 130t-18.5 164.5q0 46 7 95t23.5 95.5t45 88.5t71.5 73
t102.5 49.5t138.5 18.5q124 0 201 -44.5t120 -129.5t58 -209t15 -283q0 -170 -26 -297.5t-83 -213t-146 -128.5t-215 -43zM488 654q63 0 115.5 17.5t90.5 40.5q-2 119 -11.5 204.5t-32 140.5t-61.5 81t-99 26q-61 0 -99.5 -20.5t-61 -55.5t-31 -81.5t-8.5 -98.5
q0 -61 9.5 -108t32 -79.5t60.5 -49.5t96 -17z" />
    <glyph glyph-name="dollar.tnum" horiz-adv-x="1000" 
d="M404 -24q-74 3 -126.5 17t-79.5 31v170q38 -21 94.5 -37.5t127.5 -16.5q46 0 84 9.5t64.5 30t41 53t14.5 79.5q0 40 -9.5 71t-27.5 58t-43.5 51.5t-57.5 51.5l-104 90q-43 37 -77.5 72t-58.5 75.5t-37 89t-13 111.5q0 61 16.5 114t48 95t78.5 72t109 45v192h154v-176
q29 -2 57 -6.5t52 -10.5t43.5 -14t31.5 -15v-168q-30 18 -82 34t-112 16q-47 0 -84.5 -9.5t-64 -30t-41 -53.5t-14.5 -79q0 -40 9.5 -70.5t27.5 -57.5t43.5 -51.5t57.5 -52.5l104 -90q43 -37 77.5 -72t58.5 -75.5t37 -89t13 -111.5q0 -125 -66 -211.5t-190 -116.5v-190h-156
v176z" />
    <glyph glyph-name="cent.tnum" horiz-adv-x="1000" 
d="M478 -14q-74 16 -121.5 57t-75 105.5t-38.5 153t-11 198.5q0 131 17 223t49 152.5t77.5 93t102.5 45.5v186h154v-178q51 -6 85 -18t57 -24v-160q-11 7 -29.5 14.5t-41 14t-49 11t-54.5 4.5q-52 0 -87.5 -14.5t-58 -55t-32.5 -111.5t-10 -183q0 -110 9 -181t30 -111.5
t54.5 -56.5t82.5 -17q60 0 109 15t85 35v-160q-20 -12 -58.5 -25t-91.5 -19v-180h-154v186z" />
    <glyph glyph-name="sterling.tnum" horiz-adv-x="1000" 
d="M142 732h172v148q0 220 86 332t278 112q40 0 73.5 -5.5t58.5 -13t41.5 -15.5t24.5 -14v-162q-10 7 -27 15t-41 15.5t-53 12.5t-63 5q-62 0 -100.5 -20.5t-59.5 -60.5t-28.5 -99t-7.5 -136v-114h310v-148h-310v-436h380v-148h-734v148h172v436h-172v148z" />
    <glyph glyph-name="yen.tnum" horiz-adv-x="1000" 
d="M162 682h178l-288 618h200l154 -350q29 -65 52.5 -139t41.5 -139q17 65 41 139t53 139l154 350h196l-288 -618h184v-148h-250v-144h250v-148h-250v-242h-184v242h-244v148h244v144h-244v148z" />
    <glyph glyph-name="Euro.tnum" horiz-adv-x="1000" 
d="M72 876h150q7 103 34.5 185.5t80.5 141t133.5 90t193.5 31.5q34 0 70.5 -4.5t70.5 -11.5t61.5 -16t43.5 -18v-168q-18 9 -43.5 18.5t-56 17.5t-66 13t-72.5 5q-119 0 -183 -67t-77 -217h378v-146h-382v-160h382v-146h-378q13 -150 77 -217t183 -67q37 0 72.5 5t66 13
t56 18t43.5 20v-170q-16 -9 -43.5 -18t-61.5 -16t-70.5 -11.5t-70.5 -4.5q-113 0 -193.5 31.5t-133.5 90t-80.5 141t-34.5 185.5h-150v146h146v160h-146v146z" />
    <glyph glyph-name="currency.tnum" horiz-adv-x="1000" 
d="M704 276q-77 -56 -204 -56q-65 0 -116 13t-90 43l-118 -120l-108 110l134 136q-36 93 -36 248t36 248l-134 136l108 110l118 -120q77 56 206 56q126 0 206 -56l116 120l110 -110l-134 -136q36 -93 36 -248t-36 -248l134 -136l-110 -110zM500 376q46 0 76 16t48 49.5
t25 85.5t7 123t-7 123t-25 85.5t-48 49.5t-76 16t-76 -16t-48 -49.5t-25 -85.5t-7 -123t7 -123t25 -85.5t48 -49.5t76 -16z" />
    <glyph glyph-name="florin.tnum" horiz-adv-x="1000" 
d="M110 734h228v168q0 422 352 422q74 0 121 -14t65 -26v-160q-10 7 -27 14t-38 13t-45.5 9.5t-49.5 3.5q-63 0 -102 -19t-60 -55t-28.5 -88.5t-7.5 -119.5v-148h312v-154h-312v-880h-180v880h-228v154z" />
    <glyph glyph-name="period.tnum" horiz-adv-x="400" 
d="M198 -22q-51 0 -79.5 28.5t-28.5 79.5t28.5 80.5t79.5 29.5t79.5 -29.5t28.5 -80.5t-28.5 -79.5t-79.5 -28.5z" />
    <glyph glyph-name="comma.tnum" horiz-adv-x="400" 
d="M90 -292q15 57 22.5 103.5t7.5 78.5q0 34 -4.5 61.5t-10.5 50t-10.5 43t-4.5 41.5q0 50 27.5 80t80.5 30q54 0 81 -32t27 -86q0 -23 -5 -61t-15.5 -86.5t-27.5 -105t-40 -117.5h-128v0z" />
    <glyph glyph-name="a.alt" horiz-adv-x="894" 
d="M618 56q-42 -36 -95 -58t-119 -22q-81 0 -138.5 25t-94.5 85.5t-54 161t-17 252.5q0 148 18 248.5t55 162t93 87.5t132 26q69 0 123.5 -21t96.5 -57l16 54h126v-1000h-126zM444 132q41 0 75.5 12t64.5 32v646q-30 20 -64.5 33t-75.5 13q-48 0 -79.5 -16.5t-50.5 -58
t-26.5 -113t-7.5 -180.5q0 -110 7.5 -181t26.5 -112.5t50.5 -58t79.5 -16.5z" />
    <glyph glyph-name="aacute.alt" horiz-adv-x="894" 
d="M444 1308h216l-178 -186h-154zM618 56q-42 -36 -95 -58t-119 -22q-81 0 -138.5 25t-94.5 85.5t-54 161t-17 252.5q0 148 18 248.5t55 162t93 87.5t132 26q69 0 123.5 -21t96.5 -57l16 54h126v-1000h-126zM444 132q41 0 75.5 12t64.5 32v646q-30 20 -64.5 33t-75.5 13
q-48 0 -79.5 -16.5t-50.5 -58t-26.5 -113t-7.5 -180.5q0 -110 7.5 -181t26.5 -112.5t50.5 -58t79.5 -16.5z" />
    <glyph glyph-name="agrave.alt" horiz-adv-x="894" 
d="M618 56q-42 -36 -95 -58t-119 -22q-81 0 -138.5 25t-94.5 85.5t-54 161t-17 252.5q0 148 18 248.5t55 162t93 87.5t132 26q69 0 123.5 -21t96.5 -57l16 54h126v-1000h-126zM444 132q41 0 75.5 12t64.5 32v646q-30 20 -64.5 33t-75.5 13q-48 0 -79.5 -16.5t-50.5 -58
t-26.5 -113t-7.5 -180.5q0 -110 7.5 -181t26.5 -112.5t50.5 -58t79.5 -16.5zM204 1308h216l116 -186h-154z" />
    <glyph glyph-name="acircumflex.alt" horiz-adv-x="894" 
d="M198 1214l234 118l234 -118v-116l-234 76l-234 -76v116zM618 56q-42 -36 -95 -58t-119 -22q-81 0 -138.5 25t-94.5 85.5t-54 161t-17 252.5q0 148 18 248.5t55 162t93 87.5t132 26q69 0 123.5 -21t96.5 -57l16 54h126v-1000h-126zM444 132q41 0 75.5 12t64.5 32v646
q-30 20 -64.5 33t-75.5 13q-48 0 -79.5 -16.5t-50.5 -58t-26.5 -113t-7.5 -180.5q0 -110 7.5 -181t26.5 -112.5t50.5 -58t79.5 -16.5z" />
    <glyph glyph-name="adieresis.alt" horiz-adv-x="894" 
d="M266 1110q-48 0 -76 27t-28 75q0 50 28 76t76 26t76 -27t28 -75q0 -50 -28 -76t-76 -26zM598 1110q-48 0 -76 27t-28 75q0 50 28 76t76 26t76 -27t28 -75q0 -50 -28 -76t-76 -26zM618 56q-42 -36 -95 -58t-119 -22q-81 0 -138.5 25t-94.5 85.5t-54 161t-17 252.5
q0 148 18 248.5t55 162t93 87.5t132 26q69 0 123.5 -21t96.5 -57l16 54h126v-1000h-126zM444 132q41 0 75.5 12t64.5 32v646q-30 20 -64.5 33t-75.5 13q-48 0 -79.5 -16.5t-50.5 -58t-26.5 -113t-7.5 -180.5q0 -110 7.5 -181t26.5 -112.5t50.5 -58t79.5 -16.5z" />
    <glyph glyph-name="atilde.alt" horiz-adv-x="894" 
d="M618 56q-42 -36 -95 -58t-119 -22q-81 0 -138.5 25t-94.5 85.5t-54 161t-17 252.5q0 148 18 248.5t55 162t93 87.5t132 26q69 0 123.5 -21t96.5 -57l16 54h126v-1000h-126zM444 132q41 0 75.5 12t64.5 32v646q-30 20 -64.5 33t-75.5 13q-48 0 -79.5 -16.5t-50.5 -58
t-26.5 -113t-7.5 -180.5q0 -110 7.5 -181t26.5 -112.5t50.5 -58t79.5 -16.5zM524 1112q-35 0 -61.5 12t-49.5 26t-46 26t-51 12q-36 0 -64 -16.5t-46 -33.5v120q8 11 21 23t30 21.5t38 15.5t45 6q35 0 61.5 -12t49.5 -26t45.5 -26t51.5 -12q36 0 64 17t46 35v-122
q-8 -11 -21 -22.5t-30 -21t-38 -16t-45 -6.5z" />
    <glyph glyph-name="aring.alt" horiz-adv-x="894" 
d="M432 1088q-47 0 -86 13.5t-66.5 39t-42.5 63.5t-15 88q0 48 15.5 86t43 64t66 40t85.5 14q95 0 151.5 -53t56.5 -151q0 -49 -15.5 -87t-43 -64t-65.5 -39.5t-84 -13.5zM432 1194q44 0 71 24t27 74t-27 74t-71 24t-71 -24t-27 -74t27 -74t71 -24zM618 56q-42 -36 -95 -58
t-119 -22q-81 0 -138.5 25t-94.5 85.5t-54 161t-17 252.5q0 148 18 248.5t55 162t93 87.5t132 26q69 0 123.5 -21t96.5 -57l16 54h126v-1000h-126zM444 132q41 0 75.5 12t64.5 32v646q-30 20 -64.5 33t-75.5 13q-48 0 -79.5 -16.5t-50.5 -58t-26.5 -113t-7.5 -180.5
q0 -110 7.5 -181t26.5 -112.5t50.5 -58t79.5 -16.5z" />
    <glyph glyph-name="amacron.alt" horiz-adv-x="894" 
d="M618 56q-42 -36 -95 -58t-119 -22q-81 0 -138.5 25t-94.5 85.5t-54 161t-17 252.5q0 148 18 248.5t55 162t93 87.5t132 26q69 0 123.5 -21t96.5 -57l16 54h126v-1000h-126zM444 132q41 0 75.5 12t64.5 32v646q-30 20 -64.5 33t-75.5 13q-48 0 -79.5 -16.5t-50.5 -58
t-26.5 -113t-7.5 -180.5q0 -110 7.5 -181t26.5 -112.5t50.5 -58t79.5 -16.5zM192 1284h480v-140h-480v140z" />
    <glyph glyph-name="abreve.alt" horiz-adv-x="894" 
d="M618 56q-42 -36 -95 -58t-119 -22q-81 0 -138.5 25t-94.5 85.5t-54 161t-17 252.5q0 148 18 248.5t55 162t93 87.5t132 26q69 0 123.5 -21t96.5 -57l16 54h126v-1000h-126zM444 132q41 0 75.5 12t64.5 32v646q-30 20 -64.5 33t-75.5 13q-48 0 -79.5 -16.5t-50.5 -58
t-26.5 -113t-7.5 -180.5q0 -110 7.5 -181t26.5 -112.5t50.5 -58t79.5 -16.5zM432 1108q-58 0 -101.5 16.5t-74 39t-48.5 45t-24 35.5l60 92q6 -8 20.5 -22t38 -27.5t56 -24t73.5 -10.5t73.5 10.5t56 24t38 27.5t20.5 22l60 -92q-6 -13 -24 -35.5t-48.5 -45t-74 -39
t-101.5 -16.5z" />
    <glyph glyph-name="aogonek.alt" horiz-adv-x="894" 
d="M642 -314q-29 0 -55 6t-46.5 19.5t-32.5 33.5t-12 49q0 33 14 64.5t34.5 58.5t44 49.5t43.5 37.5l-14 52q-42 -36 -95 -58t-119 -22q-81 0 -138.5 25t-94.5 85.5t-54 161t-17 252.5q0 148 18 248.5t55 162t93 87.5t132 26q69 0 123.5 -21t96.5 -57l16 54h126v-1000
q-13 -8 -34 -26.5t-41.5 -41t-35.5 -46t-15 -42.5q0 -24 17 -33t47 -9q21 0 37.5 3t24.5 5v-102q-15 -8 -46 -15t-72 -7zM444 132q41 0 75.5 12t64.5 32v646q-30 20 -64.5 33t-75.5 13q-48 0 -79.5 -16.5t-50.5 -58t-26.5 -113t-7.5 -180.5q0 -110 7.5 -181t26.5 -112.5
t50.5 -58t79.5 -16.5z" />
    <glyph glyph-name="g.alt" horiz-adv-x="850" 
d="M404 300q-35 0 -65 3t-57 11q-15 -17 -23.5 -36t-8.5 -42q0 -42 34.5 -59t99.5 -17h146q70 0 121 -17t83.5 -46t48 -67.5t15.5 -81.5q0 -77 -30.5 -129t-84.5 -83.5t-128 -45.5t-161 -14q-72 0 -134 10t-108 33.5t-72 62t-26 94.5q0 35 10 63.5t26.5 50.5t37.5 38.5
t42 27.5q-32 20 -56 52.5t-24 79.5q0 63 30 103.5t74 66.5q-53 41 -77.5 114.5t-24.5 189.5q0 100 20 169t59.5 112t97.5 62t135 19q132 0 206 -56q23 23 57.5 39.5t88.5 16.5q30 0 50 -4t32 -10v-152h-148q14 -39 21 -87.5t7 -108.5q0 -100 -20 -169t-59.5 -112t-98.5 -62
t-136 -19zM404 444q46 0 75 15t44.5 43t21 68.5t5.5 91.5q0 50 -5.5 90.5t-21 69t-44.5 43.5t-75 15t-74 -15t-43.5 -43.5t-21 -69t-5.5 -90.5q0 -51 5.5 -91.5t21 -68.5t43.5 -43t74 -15zM384 8q-29 0 -61 3t-59 9q-20 -18 -32 -42.5t-12 -57.5q0 -31 13.5 -52t37.5 -34.5
t58.5 -19.5t76.5 -6q104 0 161 27.5t57 90.5q0 44 -31.5 63t-108.5 19h-100z" />
    <glyph glyph-name="gbreve.alt" horiz-adv-x="850" 
d="M404 300q-35 0 -65 3t-57 11q-15 -17 -23.5 -36t-8.5 -42q0 -42 34.5 -59t99.5 -17h146q70 0 121 -17t83.5 -46t48 -67.5t15.5 -81.5q0 -77 -30.5 -129t-84.5 -83.5t-128 -45.5t-161 -14q-72 0 -134 10t-108 33.5t-72 62t-26 94.5q0 35 10 63.5t26.5 50.5t37.5 38.5
t42 27.5q-32 20 -56 52.5t-24 79.5q0 63 30 103.5t74 66.5q-53 41 -77.5 114.5t-24.5 189.5q0 100 20 169t59.5 112t97.5 62t135 19q132 0 206 -56q23 23 57.5 39.5t88.5 16.5q30 0 50 -4t32 -10v-152h-148q14 -39 21 -87.5t7 -108.5q0 -100 -20 -169t-59.5 -112t-98.5 -62
t-136 -19zM404 444q46 0 75 15t44.5 43t21 68.5t5.5 91.5q0 50 -5.5 90.5t-21 69t-44.5 43.5t-75 15t-74 -15t-43.5 -43.5t-21 -69t-5.5 -90.5q0 -51 5.5 -91.5t21 -68.5t43.5 -43t74 -15zM384 8q-29 0 -61 3t-59 9q-20 -18 -32 -42.5t-12 -57.5q0 -31 13.5 -52t37.5 -34.5
t58.5 -19.5t76.5 -6q104 0 161 27.5t57 90.5q0 44 -31.5 63t-108.5 19h-100zM406 1108q-58 0 -101.5 16.5t-74 39t-48.5 45t-24 35.5l60 92q6 -8 20.5 -22t38 -27.5t56 -24t73.5 -10.5t73.5 10.5t56 24t38 27.5t20.5 22l60 -92q-6 -13 -24 -35.5t-48.5 -45t-74 -39
t-101.5 -16.5z" />
    <glyph glyph-name="gcircumflex.alt" horiz-adv-x="850" 
d="M172 1214l234 118l234 -118v-116l-234 76l-234 -76v116zM404 300q-35 0 -65 3t-57 11q-15 -17 -23.5 -36t-8.5 -42q0 -42 34.5 -59t99.5 -17h146q70 0 121 -17t83.5 -46t48 -67.5t15.5 -81.5q0 -77 -30.5 -129t-84.5 -83.5t-128 -45.5t-161 -14q-72 0 -134 10t-108 33.5
t-72 62t-26 94.5q0 35 10 63.5t26.5 50.5t37.5 38.5t42 27.5q-32 20 -56 52.5t-24 79.5q0 63 30 103.5t74 66.5q-53 41 -77.5 114.5t-24.5 189.5q0 100 20 169t59.5 112t97.5 62t135 19q132 0 206 -56q23 23 57.5 39.5t88.5 16.5q30 0 50 -4t32 -10v-152h-148
q14 -39 21 -87.5t7 -108.5q0 -100 -20 -169t-59.5 -112t-98.5 -62t-136 -19zM404 444q46 0 75 15t44.5 43t21 68.5t5.5 91.5q0 50 -5.5 90.5t-21 69t-44.5 43.5t-75 15t-74 -15t-43.5 -43.5t-21 -69t-5.5 -90.5q0 -51 5.5 -91.5t21 -68.5t43.5 -43t74 -15zM384 8
q-29 0 -61 3t-59 9q-20 -18 -32 -42.5t-12 -57.5q0 -31 13.5 -52t37.5 -34.5t58.5 -19.5t76.5 -6q104 0 161 27.5t57 90.5q0 44 -31.5 63t-108.5 19h-100z" />
    <glyph glyph-name="gcommaaccent.alt" horiz-adv-x="850" 
d="M404 300q-35 0 -65 3t-57 11q-15 -17 -23.5 -36t-8.5 -42q0 -42 34.5 -59t99.5 -17h146q70 0 121 -17t83.5 -46t48 -67.5t15.5 -81.5q0 -77 -30.5 -129t-84.5 -83.5t-128 -45.5t-161 -14q-72 0 -134 10t-108 33.5t-72 62t-26 94.5q0 35 10 63.5t26.5 50.5t37.5 38.5
t42 27.5q-32 20 -56 52.5t-24 79.5q0 63 30 103.5t74 66.5q-53 41 -77.5 114.5t-24.5 189.5q0 100 20 169t59.5 112t97.5 62t135 19q132 0 206 -56q23 23 57.5 39.5t88.5 16.5q30 0 50 -4t32 -10v-152h-148q14 -39 21 -87.5t7 -108.5q0 -100 -20 -169t-59.5 -112t-98.5 -62
t-136 -19zM404 444q46 0 75 15t44.5 43t21 68.5t5.5 91.5q0 50 -5.5 90.5t-21 69t-44.5 43.5t-75 15t-74 -15t-43.5 -43.5t-21 -69t-5.5 -90.5q0 -51 5.5 -91.5t21 -68.5t43.5 -43t74 -15zM384 8q-29 0 -61 3t-59 9q-20 -18 -32 -42.5t-12 -57.5q0 -31 13.5 -52t37.5 -34.5
t58.5 -19.5t76.5 -6q104 0 161 27.5t57 90.5q0 44 -31.5 63t-108.5 19h-100zM406 1112q-44 0 -63 25t-19 63q0 39 13.5 103.5t54.5 150.5h94q-12 -39 -18 -72t-6 -54q0 -24 4 -42.5t9 -35t9 -31.5t4 -31q0 -35 -21.5 -55.5t-60.5 -20.5z" />
    <glyph glyph-name="gdotaccent.alt" horiz-adv-x="850" 
d="M404 300q-35 0 -65 3t-57 11q-15 -17 -23.5 -36t-8.5 -42q0 -42 34.5 -59t99.5 -17h146q70 0 121 -17t83.5 -46t48 -67.5t15.5 -81.5q0 -77 -30.5 -129t-84.5 -83.5t-128 -45.5t-161 -14q-72 0 -134 10t-108 33.5t-72 62t-26 94.5q0 35 10 63.5t26.5 50.5t37.5 38.5
t42 27.5q-32 20 -56 52.5t-24 79.5q0 63 30 103.5t74 66.5q-53 41 -77.5 114.5t-24.5 189.5q0 100 20 169t59.5 112t97.5 62t135 19q132 0 206 -56q23 23 57.5 39.5t88.5 16.5q30 0 50 -4t32 -10v-152h-148q14 -39 21 -87.5t7 -108.5q0 -100 -20 -169t-59.5 -112t-98.5 -62
t-136 -19zM404 444q46 0 75 15t44.5 43t21 68.5t5.5 91.5q0 50 -5.5 90.5t-21 69t-44.5 43.5t-75 15t-74 -15t-43.5 -43.5t-21 -69t-5.5 -90.5q0 -51 5.5 -91.5t21 -68.5t43.5 -43t74 -15zM384 8q-29 0 -61 3t-59 9q-20 -18 -32 -42.5t-12 -57.5q0 -31 13.5 -52t37.5 -34.5
t58.5 -19.5t76.5 -6q104 0 161 27.5t57 90.5q0 44 -31.5 63t-108.5 19h-100zM406 1110q-50 0 -77 27t-27 75q0 50 27 76t77 26t77 -27t27 -75q0 -50 -27 -76t-77 -26z" />
    <glyph glyph-name="ampersand.alt" horiz-adv-x="1260" 
d="M616 -24q-114 0 -209 20.5t-163 75t-106 150t-38 244.5q0 133 21.5 223t63.5 145t103.5 78.5t141.5 23.5q81 0 142.5 -22t103.5 -77.5t63 -151t21 -241.5v-44h-482q5 -89 30.5 -143t69 -83.5t104 -39.5t134.5 -10q199 0 289.5 97t90.5 295q0 309 -150.5 473.5
t-451.5 164.5h-118v146h832v-142h-272q55 -26 113 -74.5t104.5 -126t76.5 -186.5t30 -255q0 -276 -140 -408t-404 -132zM430 794q-43 0 -71 -14.5t-45.5 -46t-25.5 -81.5t-10 -122h302q-2 71 -10.5 121.5t-25.5 82t-45 46t-69 14.5z" />
    <glyph glyph-name="uni2070" unicode="&#x2070;" horiz-adv-x="720" 
d="M360 594q39 0 64 13t40 46t20.5 90t5.5 145t-5.5 145t-20.5 90t-40 46t-64 13t-64 -13t-40 -46t-20.5 -90t-5.5 -145t5.5 -145t20.5 -90t40 -46t64 -13zM360 460q-75 0 -129.5 18t-89.5 65.5t-52 130.5t-17 214q0 129 17.5 212t53.5 131t90 66.5t127 18.5q75 0 129.5 -18
t89.5 -65.5t52 -131t17 -213.5q0 -129 -17.5 -212t-53.5 -131t-90 -66.5t-127 -18.5z" />
    <glyph glyph-name="uni2070.alt" horiz-adv-x="720" 
d="M360 832q-27 0 -42.5 14.5t-15.5 41.5t15.5 41.5t42.5 14.5t42.5 -14.5t15.5 -41.5t-15.5 -41.5t-42.5 -14.5zM360 594q39 0 64 13t40 46t20.5 90t5.5 145t-5.5 145t-20.5 90t-40 46t-64 13t-64 -13t-40 -46t-20.5 -90t-5.5 -145t5.5 -145t20.5 -90t40 -46t64 -13z
M360 460q-75 0 -129.5 18t-89.5 65.5t-52 130.5t-17 214q0 129 17.5 212t53.5 131t90 66.5t127 18.5q75 0 129.5 -18t89.5 -65.5t52 -131t17 -213.5q0 -129 -17.5 -212t-53.5 -131t-90 -66.5t-127 -18.5z" />
    <glyph glyph-name="uni2074" unicode="&#x2074;" horiz-adv-x="720" 
d="M64 740l336 560h168l-328 -536h186v148h152v-148h102v-126h-102v-164h-152v164h-362v102z" />
    <glyph glyph-name="uni2075" unicode="&#x2075;" horiz-adv-x="720" 
d="M296 460q-57 0 -109 10.5t-81 25.5v144q12 -7 30.5 -14.5t42 -14t50 -11t55.5 -4.5q83 0 127.5 26.5t44.5 89.5q0 46 -25.5 77t-69 49.5t-101.5 27.5t-124 12l24 422h422v-130h-286l-12 -174q157 -18 242.5 -91t85.5 -197q0 -119 -82 -183.5t-234 -64.5z" />
    <glyph glyph-name="uni2076" unicode="&#x2076;" horiz-adv-x="720" 
d="M364 460q-88 0 -143 30t-86 86t-42 135.5t-11 178.5q0 102 19.5 181.5t60.5 133.5t104 82.5t150 28.5q25 0 50.5 -3t48.5 -8t42.5 -11.5t32.5 -13.5v-140q-29 15 -71 28.5t-93 13.5q-92 0 -137.5 -54t-50.5 -160q27 18 66 30t92 12q70 0 118 -20t76.5 -55.5t41 -84
t12.5 -104.5q0 -47 -11.5 -97.5t-42.5 -92.5t-85.5 -69t-140.5 -27zM358 890q-29 0 -61 -9.5t-59 -26.5q1 -70 7 -120t20.5 -82.5t38.5 -48t60 -15.5q38 0 62 13t37.5 34t18 48.5t4.5 56.5q0 33 -5 60.5t-19 47.5t-39 31t-65 11z" />
    <glyph glyph-name="uni2077" unicode="&#x2077;" horiz-adv-x="720" 
d="M444 1170h-334v130h500v-102l-276 -724h-162z" />
    <glyph glyph-name="uni2078" unicode="&#x2078;" horiz-adv-x="720" 
d="M360 460q-61 0 -113.5 10.5t-91.5 34.5t-61 62.5t-22 94.5q0 43 13 77t35.5 61t52.5 49.5t65 42.5q-28 16 -54.5 39t-47.5 50t-33.5 58.5t-12.5 66.5q0 52 21 91.5t57 66t85.5 39.5t106.5 13q59 0 108.5 -13t85.5 -39t56 -65.5t20 -92.5q0 -35 -13 -66.5t-34 -58.5
t-48 -50t-55 -39q35 -20 66 -42.5t53.5 -49.5t35.5 -61t13 -77q0 -54 -23 -92.5t-62 -62.5t-91.5 -35.5t-111.5 -11.5zM360 588q62 0 99 22t37 72q0 47 -38.5 82.5t-97.5 61.5q-59 -26 -97.5 -61.5t-38.5 -82.5q0 -50 37 -72t99 -22zM360 960q57 27 89.5 61.5t32.5 76.5
q0 48 -34 69t-88 21t-88 -21t-34 -69q0 -42 32.5 -76.5t89.5 -61.5z" />
    <glyph glyph-name="uni2079" unicode="&#x2079;" horiz-adv-x="720" 
d="M304 460q-51 0 -100 11.5t-76 26.5v138q29 -15 71 -28.5t93 -13.5q98 0 143 59t47 175q-27 -20 -66 -32t-92 -12q-68 0 -115.5 19.5t-77.5 54t-43.5 82.5t-13.5 104q0 46 13 94.5t45 88t86 64.5t136 25q91 0 146.5 -31t86 -87.5t41 -135.5t10.5 -176q0 -206 -80 -316
t-254 -110zM360 904q27 0 60 9t62 27q-2 64 -8.5 111t-21.5 77.5t-39 45t-59 14.5q-38 0 -62 -12.5t-37.5 -33t-19 -46.5t-5.5 -52q0 -29 5.5 -54.5t20.5 -44.5t40 -30t64 -11z" />
    <glyph glyph-name="uni2080" unicode="&#x2080;" horiz-adv-x="720" 
d="M360 121q39 0 64 13t40 46t20.5 90t5.5 145t-5.5 145t-20.5 90t-40 46t-64 13t-64 -13t-40 -46t-20.5 -90t-5.5 -145t5.5 -145t20.5 -90t40 -46t64 -13zM360 -13q-75 0 -129.5 18t-89.5 65.5t-52 130.5t-17 214q0 129 17.5 212t53.5 131t90 66.5t127 18.5q75 0 129.5 -18
t89.5 -65.5t52 -131t17 -213.5q0 -129 -17.5 -212t-53.5 -131t-90 -66.5t-127 -18.5z" />
    <glyph glyph-name="uni2080.alt" horiz-adv-x="720" 
d="M360 359q-27 0 -42.5 14.5t-15.5 41.5t15.5 41.5t42.5 14.5t42.5 -14.5t15.5 -41.5t-15.5 -41.5t-42.5 -14.5zM360 121q39 0 64 13t40 46t20.5 90t5.5 145t-5.5 145t-20.5 90t-40 46t-64 13t-64 -13t-40 -46t-20.5 -90t-5.5 -145t5.5 -145t20.5 -90t40 -46t64 -13z
M360 -13q-75 0 -129.5 18t-89.5 65.5t-52 130.5t-17 214q0 129 17.5 212t53.5 131t90 66.5t127 18.5q75 0 129.5 -18t89.5 -65.5t52 -131t17 -213.5q0 -129 -17.5 -212t-53.5 -131t-90 -66.5t-127 -18.5z" />
    <glyph glyph-name="uni2081" unicode="&#x2081;" horiz-adv-x="720" 
d="M148 131h148v542l-148 -44v136l202 62h100v-696h150v-130h-452v130z" />
    <glyph glyph-name="uni2082" unicode="&#x2082;" horiz-adv-x="720" 
d="M106 93q0 67 13 116t37 84.5t56.5 61t71.5 46.5q36 19 66 35.5t52 37t34 47t12 64.5q0 62 -32 91t-110 29q-54 0 -100 -14t-72 -26v140q33 15 82.5 26.5t103.5 11.5q79 0 133.5 -20t88 -54.5t48 -80t14.5 -95.5q0 -66 -20 -113.5t-53 -83t-75 -61.5t-86 -48
q-28 -15 -47.5 -29.5t-32.5 -32.5t-20 -40.5t-8 -53.5h348v-130h-504v92z" />
    <glyph glyph-name="uni2083" unicode="&#x2083;" horiz-adv-x="720" 
d="M296 -13q-57 0 -109 10.5t-81 25.5v144q12 -7 31 -14.5t42.5 -14t50.5 -11t56 -4.5q81 0 125.5 27.5t44.5 90.5q0 43 -21 71.5t-57 46.5t-83 25.5t-99 8.5v90l198 214h-286v130h486v-104l-220 -234q55 -9 99 -31.5t75 -55.5t47.5 -74t16.5 -87q0 -124 -81 -189t-235 -65z
" />
    <glyph glyph-name="uni2084" unicode="&#x2084;" horiz-adv-x="720" 
d="M64 267l336 560h168l-328 -536h186v148h152v-148h102v-126h-102v-164h-152v164h-362v102z" />
    <glyph glyph-name="uni2085" unicode="&#x2085;" horiz-adv-x="720" 
d="M296 -13q-57 0 -109 10.5t-81 25.5v144q12 -7 30.5 -14.5t42 -14t50 -11t55.5 -4.5q83 0 127.5 26.5t44.5 89.5q0 46 -25.5 77t-69 49.5t-101.5 27.5t-124 12l24 422h422v-130h-286l-12 -174q157 -18 242.5 -91t85.5 -197q0 -119 -82 -183.5t-234 -64.5z" />
    <glyph glyph-name="uni2086" unicode="&#x2086;" horiz-adv-x="720" 
d="M364 -13q-88 0 -143 30t-86 86t-42 135.5t-11 178.5q0 102 19.5 181.5t60.5 133.5t104 82.5t150 28.5q25 0 50.5 -3t48.5 -8t42.5 -11.5t32.5 -13.5v-140q-29 15 -71 28.5t-93 13.5q-92 0 -137.5 -54t-50.5 -160q27 18 66 30t92 12q70 0 118 -20t76.5 -55.5t41 -84
t12.5 -104.5q0 -47 -11.5 -97.5t-42.5 -92.5t-85.5 -69t-140.5 -27zM358 417q-29 0 -61 -9.5t-59 -26.5q1 -70 7 -120t20.5 -82.5t38.5 -48t60 -15.5q38 0 62 13t37.5 34t18 48.5t4.5 56.5q0 33 -5 60.5t-19 47.5t-39 31t-65 11z" />
    <glyph glyph-name="uni2087" unicode="&#x2087;" horiz-adv-x="720" 
d="M444 697h-334v130h500v-102l-276 -724h-162z" />
    <glyph glyph-name="uni2088" unicode="&#x2088;" horiz-adv-x="720" 
d="M360 -13q-61 0 -113.5 10.5t-91.5 34.5t-61 62.5t-22 94.5q0 43 13 77t35.5 61t52.5 49.5t65 42.5q-28 16 -54.5 39t-47.5 50t-33.5 58.5t-12.5 66.5q0 52 21 91.5t57 66t85.5 39.5t106.5 13q59 0 108.5 -13t85.5 -39t56 -65.5t20 -92.5q0 -35 -13 -66.5t-34 -58.5
t-48 -50t-55 -39q35 -20 66 -42.5t53.5 -49.5t35.5 -61t13 -77q0 -54 -23 -92.5t-62 -62.5t-91.5 -35.5t-111.5 -11.5zM360 115q62 0 99 22t37 72q0 47 -38.5 82.5t-97.5 61.5q-59 -26 -97.5 -61.5t-38.5 -82.5q0 -50 37 -72t99 -22zM360 487q57 27 89.5 61.5t32.5 76.5
q0 48 -34 69t-88 21t-88 -21t-34 -69q0 -42 32.5 -76.5t89.5 -61.5z" />
    <glyph glyph-name="uni2089" unicode="&#x2089;" horiz-adv-x="720" 
d="M304 -13q-51 0 -100 11.5t-76 26.5v138q29 -15 71 -28.5t93 -13.5q98 0 143 59t47 175q-27 -20 -66 -32t-92 -12q-68 0 -115.5 19.5t-77.5 54t-43.5 82.5t-13.5 104q0 46 13 94.5t45 88t86 64.5t136 25q91 0 146.5 -31t86 -87.5t41 -135.5t10.5 -176q0 -206 -80 -316
t-254 -110zM360 431q27 0 60 9t62 27q-2 64 -8.5 111t-21.5 77.5t-39 45t-59 14.5q-38 0 -62 -12.5t-37.5 -33t-19 -46.5t-5.5 -52q0 -29 5.5 -54.5t20.5 -44.5t40 -30t64 -11z" />
    <glyph glyph-name="uni03A9" unicode="&#x3a9;" horiz-adv-x="1008" 
d="M52 156h190q-28 46 -53 105.5t-44 129.5t-30 148t-11 161q0 183 25 303.5t74.5 191.5t124.5 100t176 29q103 0 178 -28t124.5 -98.5t73.5 -191.5t24 -306q0 -83 -11.5 -161t-30.5 -148t-44 -129.5t-52 -105.5h190v-156h-384v128q32 54 58.5 120.5t45 139t28.5 148
t10 146.5q0 136 -9.5 228t-33.5 148.5t-64.5 81t-102.5 24.5t-102.5 -24.5t-64 -81t-32.5 -148.5t-9 -228q0 -71 10 -146.5t28 -148t44 -139t58 -120.5v-128h-384v156z" />
    <glyph glyph-name="uni03BC" unicode="&#x3bc;" horiz-adv-x="900" 
d="M624 54q-44 -36 -94.5 -57t-107.5 -21q-39 0 -70.5 6.5t-57.5 17.5q6 -32 10 -65.5t4 -68.5v-166h-174v1300h174v-666q0 -46 5.5 -83.5t21.5 -64.5t45 -41.5t76 -14.5q39 0 72.5 11t63.5 31v828h174v-1000h-128z" />
    <glyph glyph-name="uni0315" unicode="&#x315;" 
d="M-80 972q12 39 19 72t7 56q0 25 -4 44t-9 35t-9 30t-4 29q0 36 21 56t59 20q44 0 63 -24.5t19 -65.5q0 -38 -15 -101t-53 -151h-94v0z" />
    <glyph glyph-name="acute.case" 
d="M12 1586h216l-178 -186h-154z" />
    <glyph glyph-name="breve.case" 
d="M-188 1614q6 -8 20.5 -22t38 -27.5t56 -24t73.5 -10.5t73.5 10.5t56 24t38 27.5t20.5 22l60 -90q-6 -13 -24 -36t-48.5 -45.5t-74 -39.5t-101.5 -17t-101.5 17t-74 39.5t-48.5 45.5t-24 36z" />
    <glyph glyph-name="caron.case" 
d="M-234 1612l234 -76l234 76v-116l-234 -120l-234 120v116z" />
    <glyph glyph-name="circumflex.case" 
d="M-234 1492l234 120l234 -120v-116l-234 76l-234 -76v116z" />
    <glyph glyph-name="dieresis.case" 
d="M-166 1388q-48 0 -76 27t-28 75q0 50 28 77t76 27t76 -28t28 -76t-28 -75t-76 -27zM166 1388q-48 0 -76 27t-28 75q0 50 28 77t76 27t76 -28t28 -76t-28 -75t-76 -27z" />
    <glyph glyph-name="dotaccent.case" 
d="M0 1388q-50 0 -77 27t-27 75q0 50 27 77t77 27t77 -27t27 -77t-27 -76t-77 -26z" />
    <glyph glyph-name="grave.case" 
d="M-230 1586h216l116 -186h-154z" />
    <glyph glyph-name="hungarumlaut.case" 
d="M-134 1586h190l-172 -186h-134zM144 1586h190l-172 -186h-134z" />
    <glyph glyph-name="macron.case" 
d="M-240 1562h480v-138h-480v138z" />
    <glyph glyph-name="ring.case" 
d="M-208 1538q0 49 15.5 87t43 64t65.5 39.5t84 13.5q96 0 153 -52.5t57 -151.5q0 -48 -15.5 -86t-43 -64t-66.5 -40t-85 -14q-95 0 -151.5 53t-56.5 151zM0 1440q44 0 71 24t27 74t-27 74t-71 24q-42 0 -69 -24t-27 -74t27 -74t69 -24z" />
    <glyph glyph-name="tilde.case" 
d="M-226 1536q8 11 21 23t30 22t38 16.5t45 6.5q35 0 61.5 -12t49.5 -26t45.5 -26t51.5 -12q36 0 64 16t46 34v-120q-8 -11 -21 -23t-30 -22t-38 -16.5t-45 -6.5q-35 0 -61.5 12t-49.5 26t-46 26t-51 12q-36 0 -64 -16.5t-46 -33.5v120z" />
    <glyph glyph-name="uni01CD" unicode="&#x1cd;" horiz-adv-x="898" 
d="M354 1300h190l346 -1300h-192l-76 294h-354l-74 -294h-186zM304 450h286l-54 216q-11 40 -22.5 90.5t-23 105t-22 111.5t-18.5 111q-9 -54 -20.5 -111t-23.5 -111.5t-24 -105t-22 -90.5zM214 1612l234 -76l234 76v-116l-234 -120l-234 120v116z" />
    <glyph glyph-name="uni1EA0" unicode="&#x1ea0;" horiz-adv-x="898" 
d="M354 1300h190l346 -1300h-192l-76 294h-354l-74 -294h-186zM304 450h286l-54 216q-11 40 -22.5 90.5t-23 105t-22 111.5t-18.5 111q-9 -54 -20.5 -111t-23.5 -111.5t-24 -105t-22 -90.5zM344 -204q0 50 27 77t77 27t77 -27t27 -77t-27 -76t-77 -26t-77 27t-27 75z" />
    <glyph glyph-name="uni1EA2" unicode="&#x1ea2;" horiz-adv-x="898" 
d="M354 1300h190l346 -1300h-192l-76 294h-354l-74 -294h-186zM304 450h286l-54 216q-11 40 -22.5 90.5t-23 105t-22 111.5t-18.5 111q-9 -54 -20.5 -111t-23.5 -111.5t-24 -105t-22 -90.5zM382 1370q10 10 22.5 25t24 33t19.5 37.5t8 38.5q0 52 -68 52q-18 0 -33.5 -4
t-24.5 -10v104q15 9 45 15.5t63 6.5q71 0 113.5 -33.5t42.5 -92.5q0 -29 -10.5 -54.5t-26 -48t-34.5 -40t-35 -29.5h-106z" />
    <glyph glyph-name="uni1EA4" unicode="&#x1ea4;" horiz-adv-x="898" 
d="M354 1300h190l346 -1300h-192l-76 294h-354l-74 -294h-186zM304 450h286l-54 216q-11 40 -22.5 90.5t-23 105t-22 111.5t-18.5 111q-9 -54 -20.5 -111t-23.5 -111.5t-24 -105t-22 -90.5zM218 1480l230 116l230 -116v-106l-230 76l-230 -76v106zM612 1772h190l-154 -174
h-130z" />
    <glyph glyph-name="uni1EA6" unicode="&#x1ea6;" horiz-adv-x="898" 
d="M354 1300h190l346 -1300h-192l-76 294h-354l-74 -294h-186zM304 450h286l-54 216q-11 40 -22.5 90.5t-23 105t-22 111.5t-18.5 111q-9 -54 -20.5 -111t-23.5 -111.5t-24 -105t-22 -90.5zM218 1480l230 116l230 -116v-106l-230 76l-230 -76v106zM94 1772h190l94 -174h-130
z" />
    <glyph glyph-name="uni1EA8" unicode="&#x1ea8;" horiz-adv-x="898" 
d="M354 1300h190l346 -1300h-192l-76 294h-354l-74 -294h-186zM304 450h286l-54 216q-11 40 -22.5 90.5t-23 105t-22 111.5t-18.5 111q-9 -54 -20.5 -111t-23.5 -111.5t-24 -105t-22 -90.5zM218 1474l230 116l230 -116v-106l-230 74l-230 -74v106zM558 1564q10 9 22.5 23
t24 31t19.5 35.5t8 36.5q0 50 -68 50q-18 0 -33.5 -4t-24.5 -10v98q15 8 45 14t65 6q69 0 111.5 -31.5t42.5 -84.5q0 -27 -10.5 -52t-26 -46t-34.5 -38t-35 -28h-106z" />
    <glyph glyph-name="uni1EAA" unicode="&#x1eaa;" horiz-adv-x="898" 
d="M354 1300h190l346 -1300h-192l-76 294h-354l-74 -294h-186zM304 450h286l-54 216q-11 40 -22.5 90.5t-23 105t-22 111.5t-18.5 111q-9 -54 -20.5 -111t-23.5 -111.5t-24 -105t-22 -90.5zM218 1476l230 108l230 -108v-102l-230 68l-230 -68v102zM222 1724q17 18 51.5 37
t82.5 19q35 0 61.5 -9t50 -20t46 -20t50.5 -9q36 0 64 15.5t46 32.5v-108q-17 -18 -51.5 -37t-82.5 -19q-35 0 -61.5 9t-50 20t-46 20t-50.5 9q-36 0 -64 -15.5t-46 -32.5v108z" />
    <glyph glyph-name="uni1EAC" unicode="&#x1eac;" horiz-adv-x="898" 
d="M354 1300h190l346 -1300h-192l-76 294h-354l-74 -294h-186zM304 450h286l-54 216q-11 40 -22.5 90.5t-23 105t-22 111.5t-18.5 111q-9 -54 -20.5 -111t-23.5 -111.5t-24 -105t-22 -90.5zM214 1492l234 120l234 -120v-116l-234 76l-234 -76v116zM344 -204q0 50 27 77
t77 27t77 -27t27 -77t-27 -76t-77 -26t-77 27t-27 75z" />
    <glyph glyph-name="uni1EAE" unicode="&#x1eae;" horiz-adv-x="898" 
d="M354 1300h190l346 -1300h-192l-76 294h-354l-74 -294h-186zM304 450h286l-54 216q-11 40 -22.5 90.5t-23 105t-22 111.5t-18.5 111q-9 -54 -20.5 -111t-23.5 -111.5t-24 -105t-22 -90.5zM260 1592q6 -7 20.5 -20t38 -26t56 -22.5t73.5 -9.5t73.5 9.5t56 22.5t38 26
t20.5 20l60 -82q-6 -13 -24.5 -34.5t-50 -42.5t-75 -36t-98.5 -15q-56 0 -99 15t-74.5 36t-50 42.5t-24.5 34.5zM468 1772h192l-156 -174h-130z" />
    <glyph glyph-name="uni1EB0" unicode="&#x1eb0;" horiz-adv-x="898" 
d="M354 1300h190l346 -1300h-192l-76 294h-354l-74 -294h-186zM304 450h286l-54 216q-11 40 -22.5 90.5t-23 105t-22 111.5t-18.5 111q-9 -54 -20.5 -111t-23.5 -111.5t-24 -105t-22 -90.5zM260 1592q6 -7 20.5 -20t38 -26t56 -22.5t73.5 -9.5t73.5 9.5t56 22.5t38 26
t20.5 20l60 -82q-6 -13 -24.5 -34.5t-50 -42.5t-75 -36t-98.5 -15q-56 0 -99 15t-74.5 36t-50 42.5t-24.5 34.5zM236 1772h192l94 -174h-130z" />
    <glyph glyph-name="uni1EB2" unicode="&#x1eb2;" horiz-adv-x="898" 
d="M354 1300h190l346 -1300h-192l-76 294h-354l-74 -294h-186zM304 450h286l-54 216q-11 40 -22.5 90.5t-23 105t-22 111.5t-18.5 111q-9 -54 -20.5 -111t-23.5 -111.5t-24 -105t-22 -90.5zM260 1592q6 -7 20.5 -20t38 -26t56 -22.5t73.5 -9.5t73.5 9.5t56 22.5t38 26
t20.5 20l60 -82q-6 -13 -24.5 -34.5t-50 -42.5t-75 -36t-98.5 -15q-56 0 -99 15t-74.5 36t-50 42.5t-24.5 34.5zM388 1554q10 9 22.5 23.5t24 31.5t19.5 36t8 37q0 24 -17 36t-49 12q-20 0 -35.5 -3.5t-24.5 -8.5v96q15 9 45 15.5t65 6.5q69 0 111.5 -32t42.5 -86
q0 -27 -10 -51.5t-25.5 -45.5t-34 -38t-34.5 -29h-108z" />
    <glyph glyph-name="uni1EB4" unicode="&#x1eb4;" horiz-adv-x="898" 
d="M354 1300h190l346 -1300h-192l-76 294h-354l-74 -294h-186zM304 450h286l-54 216q-11 40 -22.5 90.5t-23 105t-22 111.5t-18.5 111q-9 -54 -20.5 -111t-23.5 -111.5t-24 -105t-22 -90.5zM260 1588q6 -7 20.5 -20t38 -26t56 -22.5t73.5 -9.5t73.5 9.5t56 22.5t38 26
t20.5 20l60 -82q-6 -12 -24.5 -33t-50 -41t-75 -35t-98.5 -15q-56 0 -99 15t-74.5 36t-50 42.5t-24.5 34.5zM222 1724q17 18 51.5 37t82.5 19q35 0 61.5 -9t50 -20t46 -20t50.5 -9q36 0 64 15.5t46 32.5v-108q-17 -18 -51.5 -37t-82.5 -19q-35 0 -61.5 9t-50 20t-46 20
t-50.5 9q-36 0 -64 -15.5t-46 -32.5v108z" />
    <glyph glyph-name="uni1EB6" unicode="&#x1eb6;" horiz-adv-x="898" 
d="M354 1300h190l346 -1300h-192l-76 294h-354l-74 -294h-186zM304 450h286l-54 216q-11 40 -22.5 90.5t-23 105t-22 111.5t-18.5 111q-9 -54 -20.5 -111t-23.5 -111.5t-24 -105t-22 -90.5zM260 1614q6 -8 20.5 -22t38 -27.5t56 -24t73.5 -10.5t73.5 10.5t56 24t38 27.5
t20.5 22l60 -90q-6 -13 -24 -36t-48.5 -45.5t-74 -39.5t-101.5 -17t-101.5 17t-74 39.5t-48.5 45.5t-24 36zM344 -204q0 50 27 77t77 27t77 -27t27 -77t-27 -76t-77 -26t-77 27t-27 75z" />
    <glyph glyph-name="uni0226" unicode="&#x226;" horiz-adv-x="898" 
d="M354 1300h190l346 -1300h-192l-76 294h-354l-74 -294h-186zM304 450h286l-54 216q-11 40 -22.5 90.5t-23 105t-22 111.5t-18.5 111q-9 -54 -20.5 -111t-23.5 -111.5t-24 -105t-22 -90.5zM448 1388q-50 0 -77 27t-27 75q0 50 27 77t77 27t77 -27t27 -77t-27 -76t-77 -26z
" />
    <glyph glyph-name="uni0243" unicode="&#x243;" horiz-adv-x="970" 
d="M158 308h-104v114h104v878h256q95 0 175 -15t137.5 -54.5t89.5 -108.5t32 -178q0 -59 -11 -104.5t-31.5 -80t-49 -59t-62.5 -40.5q43 -15 78.5 -39t61 -60.5t40 -87t14.5 -117.5q0 -107 -31.5 -176t-88.5 -109t-136.5 -55.5t-175.5 -15.5h-298v308zM442 152q54 0 100 5
t80 26t53 63.5t19 117.5q0 74 -19 116.5t-53 63.5t-80 26.5t-100 5.5h-98v-158h186v-106h-186v-160h98zM402 724q54 0 100 5.5t80 26.5t53 63.5t19 116.5q0 75 -19 117.5t-53 63.5t-80 26t-100 5h-58v-424h58z" />
    <glyph glyph-name="uni1E04" unicode="&#x1e04;" horiz-adv-x="964" 
d="M154 1300h254q96 0 176 -15t137 -54.5t89 -108.5t32 -178q0 -56 -10.5 -101t-30 -79.5t-46.5 -60t-59 -43.5q40 -16 74.5 -41t59 -62t38.5 -87t14 -114q0 -107 -31.5 -176t-88.5 -109t-136.5 -55.5t-175.5 -15.5h-296v1300zM338 576v-424h106q55 0 100.5 5t78.5 26t51 63
t18 116q0 75 -18.5 118t-51.5 64t-78.5 26.5t-99.5 5.5h-106zM338 1148v-424h64q55 0 101 5.5t79 26.5t51.5 64t18.5 118q0 74 -18.5 116t-51.5 63t-79 26t-101 5h-64zM410 -204q0 50 27 77t77 27t77 -27t27 -77t-27 -76t-77 -26t-77 27t-27 75z" />
    <glyph glyph-name="uni1E0C" unicode="&#x1e0c;" horiz-adv-x="1018" 
d="M154 1300h340q127 0 209 -36t128.5 -114t64.5 -201.5t18 -298.5q0 -173 -18 -296.5t-65 -202t-128.5 -115t-208.5 -36.5h-340v1300zM338 1148v-996h142q70 0 117 20t75.5 74.5t40 151.5t11.5 252q0 154 -11.5 251.5t-40 152t-75.5 74.5t-117 20h-142zM376 -204
q0 50 27 77t77 27t77 -27t27 -77t-27 -76t-77 -26t-77 27t-27 75z" />
    <glyph glyph-name="uni1E0E" unicode="&#x1e0e;" horiz-adv-x="1018" 
d="M154 1300h340q127 0 209 -36t128.5 -114t64.5 -201.5t18 -298.5q0 -173 -18 -296.5t-65 -202t-128.5 -115t-208.5 -36.5h-340v1300zM338 1148v-996h142q70 0 117 20t75.5 74.5t40 151.5t11.5 252q0 154 -11.5 251.5t-40 152t-75.5 74.5t-117 20h-142zM240 -122h480v-140
h-480v140z" />
    <glyph glyph-name="uni1EB8" unicode="&#x1eb8;" horiz-adv-x="868" 
d="M154 1300h608v-156h-424v-398h342v-154h-342v-436h424v-156h-608v1300zM352 -204q0 50 27 77t77 27t77 -27t27 -77t-27 -76t-77 -26t-77 27t-27 75z" />
    <glyph glyph-name="uni1EBA" unicode="&#x1eba;" horiz-adv-x="868" 
d="M154 1300h608v-156h-424v-398h342v-154h-342v-436h424v-156h-608v1300zM394 1370q10 10 22.5 25t24 33t19.5 37.5t8 38.5q0 52 -68 52q-18 0 -33.5 -4t-24.5 -10v104q15 9 45 15.5t63 6.5q71 0 113.5 -33.5t42.5 -92.5q0 -29 -10.5 -54.5t-26 -48t-34.5 -40t-35 -29.5
h-106z" />
    <glyph glyph-name="uni1EBC" unicode="&#x1ebc;" horiz-adv-x="868" 
d="M154 1300h608v-156h-424v-398h342v-154h-342v-436h424v-156h-608v1300zM234 1536q8 11 21 23t30 22t38 16.5t45 6.5q35 0 61.5 -12t49.5 -26t45.5 -26t51.5 -12q36 0 64 16t46 34v-120q-8 -11 -21 -23t-30 -22t-38 -16.5t-45 -6.5q-35 0 -61.5 12t-49.5 26t-46 26t-51 12
q-36 0 -64 -16.5t-46 -33.5v120z" />
    <glyph glyph-name="uni1EBE" unicode="&#x1ebe;" horiz-adv-x="868" 
d="M154 1300h608v-156h-424v-398h342v-154h-342v-436h424v-156h-608v1300zM230 1480l230 116l230 -116v-106l-230 76l-230 -76v106zM624 1772h190l-154 -174h-130z" />
    <glyph glyph-name="uni1EC0" unicode="&#x1ec0;" horiz-adv-x="868" 
d="M154 1300h608v-156h-424v-398h342v-154h-342v-436h424v-156h-608v1300zM230 1480l230 116l230 -116v-106l-230 76l-230 -76v106zM106 1772h190l94 -174h-130z" />
    <glyph glyph-name="uni1EC2" unicode="&#x1ec2;" horiz-adv-x="868" 
d="M154 1300h608v-156h-424v-398h342v-154h-342v-436h424v-156h-608v1300zM230 1474l230 116l230 -116v-106l-230 74l-230 -74v106zM570 1564q10 9 22.5 23t24 31t19.5 35.5t8 36.5q0 50 -68 50q-18 0 -33.5 -4t-24.5 -10v98q15 8 45 14t65 6q69 0 111.5 -31.5t42.5 -84.5
q0 -27 -10.5 -52t-26 -46t-34.5 -38t-35 -28h-106z" />
    <glyph glyph-name="uni1EC4" unicode="&#x1ec4;" horiz-adv-x="868" 
d="M154 1300h608v-156h-424v-398h342v-154h-342v-436h424v-156h-608v1300zM230 1476l230 108l230 -108v-102l-230 68l-230 -68v102zM234 1724q17 18 51.5 37t82.5 19q35 0 61.5 -9t50 -20t46 -20t50.5 -9q36 0 64 15.5t46 32.5v-108q-17 -18 -51.5 -37t-82.5 -19
q-35 0 -61.5 9t-50 20t-46 20t-50.5 9q-36 0 -64 -15.5t-46 -32.5v108z" />
    <glyph glyph-name="uni1EC6" unicode="&#x1ec6;" horiz-adv-x="868" 
d="M154 1300h608v-156h-424v-398h342v-154h-342v-436h424v-156h-608v1300zM226 1492l234 120l234 -120v-116l-234 76l-234 -76v116zM352 -204q0 50 27 77t77 27t77 -27t27 -77t-27 -76t-77 -26t-77 27t-27 75z" />
    <glyph glyph-name="uni01E6" unicode="&#x1e6;" horiz-adv-x="1002" 
d="M542 -24q-132 0 -217 36.5t-134 117t-68 208.5t-19 312q0 192 26.5 321.5t83.5 207.5t147 111.5t217 33.5q36 0 72 -4.5t68.5 -12t58.5 -16.5t43 -19v-170q-18 10 -43.5 20.5t-55.5 19t-63 13.5t-66 5q-54 0 -97 -8t-76 -29t-57 -57t-39 -92.5t-22 -136.5t-7 -187
q0 -160 12 -260t40.5 -156.5t75.5 -77t118 -20.5q44 0 79.5 5t62.5 13v434h-192v156h376v-702q-14 -9 -47.5 -20.5t-78.5 -21.5t-96.5 -17t-101.5 -7zM294 1612l234 -76l234 76v-116l-234 -120l-234 120v116z" />
    <glyph glyph-name="uni1E20" unicode="&#x1e20;" horiz-adv-x="1002" 
d="M542 -24q-132 0 -217 36.5t-134 117t-68 208.5t-19 312q0 192 26.5 321.5t83.5 207.5t147 111.5t217 33.5q36 0 72 -4.5t68.5 -12t58.5 -16.5t43 -19v-170q-18 10 -43.5 20.5t-55.5 19t-63 13.5t-66 5q-54 0 -97 -8t-76 -29t-57 -57t-39 -92.5t-22 -136.5t-7 -187
q0 -160 12 -260t40.5 -156.5t75.5 -77t118 -20.5q44 0 79.5 5t62.5 13v434h-192v156h376v-702q-14 -9 -47.5 -20.5t-78.5 -21.5t-96.5 -17t-101.5 -7zM288 1562h480v-138h-480v138z" />
    <glyph glyph-name="uni1E24" unicode="&#x1e24;" horiz-adv-x="1072" 
d="M734 590h-396v-590h-184v1300h184v-554h396v554h184v-1300h-184v590zM434 -204q0 50 27 77t77 27t77 -27t27 -77t-27 -76t-77 -26t-77 27t-27 75z" />
    <glyph glyph-name="uni1E2A" unicode="&#x1e2a;" horiz-adv-x="1072" 
d="M734 590h-396v-590h-184v1300h184v-554h396v554h184v-1300h-184v590zM350 -64q6 -8 20.5 -22t38 -27.5t56 -24t73.5 -10.5t73.5 10.5t56 24t38 27.5t20.5 22l60 -92q-6 -13 -24 -35.5t-48.5 -45t-74 -39t-101.5 -16.5t-101.5 16.5t-74 39t-48.5 45t-24 35.5z" />
    <glyph glyph-name="uni01CF" unicode="&#x1cf;" horiz-adv-x="492" 
d="M154 1300h184v-1300h-184v1300zM12 1612l234 -76l234 76v-116l-234 -120l-234 120v116z" />
    <glyph glyph-name="uni1EC8" unicode="&#x1ec8;" horiz-adv-x="492" 
d="M154 1300h184v-1300h-184v1300zM180 1370q10 10 22.5 25t24 33t19.5 37.5t8 38.5q0 52 -68 52q-18 0 -33.5 -4t-24.5 -10v104q15 9 45 15.5t63 6.5q71 0 113.5 -33.5t42.5 -92.5q0 -29 -10.5 -54.5t-26 -48t-34.5 -40t-35 -29.5h-106z" />
    <glyph glyph-name="uni1ECA" unicode="&#x1eca;" horiz-adv-x="492" 
d="M154 1300h184v-1300h-184v1300zM142 -204q0 50 27 77t77 27t77 -27t27 -77t-27 -76t-77 -26t-77 27t-27 75z" />
    <glyph glyph-name="uni1E32" unicode="&#x1e32;" horiz-adv-x="952" 
d="M154 1300h184v-590l378 590h206l-410 -634l440 -666h-222l-392 610v-610h-184v1300zM420 -204q0 50 27 77t77 27t77 -27t27 -77t-27 -76t-77 -26t-77 27t-27 75z" />
    <glyph glyph-name="uni1E36" unicode="&#x1e36;" horiz-adv-x="782" 
d="M154 1300h184v-1144h404v-156h-588v1300zM344 -204q0 50 27 77t77 27t77 -27t27 -77t-27 -76t-77 -26t-77 27t-27 75z" />
    <glyph glyph-name="uni1E38" unicode="&#x1e38;" horiz-adv-x="782" 
d="M154 1300h184v-1144h404v-156h-588v1300zM10 1562h480v-138h-480v138zM344 -204q0 50 27 77t77 27t77 -27t27 -77t-27 -76t-77 -26t-77 27t-27 75z" />
    <glyph glyph-name="uni1E3A" unicode="&#x1e3a;" horiz-adv-x="782" 
d="M154 1300h184v-1144h404v-156h-588v1300zM208 -122h480v-140h-480v140z" />
    <glyph glyph-name="uni1E42" unicode="&#x1e42;" horiz-adv-x="1234" 
d="M154 1300h238l228 -684l230 684h230v-1300h-176v676q0 109 6.5 215.5t15.5 194.5l-236 -700h-146l-238 702q9 -88 16.5 -195.5t7.5 -216.5v-676h-176v1300zM512 -204q0 50 27 77t77 27t77 -27t27 -77t-27 -76t-77 -26t-77 27t-27 75z" />
    <glyph glyph-name="uni1E40" unicode="&#x1e40;" horiz-adv-x="1234" 
d="M154 1300h238l228 -684l230 684h230v-1300h-176v676q0 109 6.5 215.5t15.5 194.5l-236 -700h-146l-238 702q9 -88 16.5 -195.5t7.5 -216.5v-676h-176v1300zM616 1388q-50 0 -77 27t-27 75q0 50 27 77t77 27t77 -27t27 -77t-27 -76t-77 -26z" />
    <glyph glyph-name="uni1E3E" unicode="&#x1e3e;" horiz-adv-x="1234" 
d="M154 1300h238l228 -684l230 684h230v-1300h-176v676q0 109 6.5 215.5t15.5 194.5l-236 -700h-146l-238 702q9 -88 16.5 -195.5t7.5 -216.5v-676h-176v1300zM628 1586h216l-178 -186h-154z" />
    <glyph glyph-name="uni1E44" unicode="&#x1e44;" horiz-adv-x="1080" 
d="M154 1300h212l410 -1036q-11 80 -18.5 169t-7.5 177v690h176v-1300h-212l-414 1040q12 -80 21 -170.5t9 -179.5v-690h-176v1300zM540 1388q-50 0 -77 27t-27 75q0 50 27 77t77 27t77 -27t27 -77t-27 -76t-77 -26z" />
    <glyph glyph-name="uni1E46" unicode="&#x1e46;" horiz-adv-x="1080" 
d="M154 1300h212l410 -1036q-11 80 -18.5 169t-7.5 177v690h176v-1300h-212l-414 1040q12 -80 21 -170.5t9 -179.5v-690h-176v1300zM436 -204q0 50 27 77t77 27t77 -27t27 -77t-27 -76t-77 -26t-77 27t-27 75z" />
    <glyph glyph-name="uni1E48" unicode="&#x1e48;" horiz-adv-x="1080" 
d="M154 1300h212l410 -1036q-11 80 -18.5 169t-7.5 177v690h176v-1300h-212l-414 1040q12 -80 21 -170.5t9 -179.5v-690h-176v1300zM300 -122h480v-140h-480v140z" />
    <glyph glyph-name="uni01F8" unicode="&#x1f8;" horiz-adv-x="1080" 
d="M154 1300h212l410 -1036q-11 80 -18.5 169t-7.5 177v690h176v-1300h-212l-414 1040q12 -80 21 -170.5t9 -179.5v-690h-176v1300zM310 1586h216l116 -186h-154z" />
    <glyph glyph-name="uni01D1" unicode="&#x1d1;" horiz-adv-x="1006" 
d="M502 -24q-69 0 -125.5 12t-100.5 41.5t-76.5 79t-53.5 124t-31.5 177.5t-10.5 240q0 202 24 332.5t73.5 206.5t124.5 105.5t176 29.5q104 0 179.5 -29t124.5 -104t72.5 -206t23.5 -335q0 -135 -10.5 -237.5t-32.5 -177.5t-55 -124.5t-77.5 -79.5t-100.5 -42.5t-124 -12.5
zM502 136q63 0 103.5 23t64.5 81t33 157.5t9 252.5t-9 252.5t-33 157.5t-64.5 81t-103.5 23t-103.5 -23t-63.5 -81t-32 -157.5t-9 -252.5t9 -252.5t32 -157.5t63.5 -81t103.5 -23zM268 1612l234 -76l234 76v-116l-234 -120l-234 120v116z" />
    <glyph glyph-name="uni1ECC" unicode="&#x1ecc;" horiz-adv-x="1006" 
d="M502 -24q-69 0 -125.5 12t-100.5 41.5t-76.5 79t-53.5 124t-31.5 177.5t-10.5 240q0 202 24 332.5t73.5 206.5t124.5 105.5t176 29.5q104 0 179.5 -29t124.5 -104t72.5 -206t23.5 -335q0 -135 -10.5 -237.5t-32.5 -177.5t-55 -124.5t-77.5 -79.5t-100.5 -42.5t-124 -12.5
zM502 136q63 0 103.5 23t64.5 81t33 157.5t9 252.5t-9 252.5t-33 157.5t-64.5 81t-103.5 23t-103.5 -23t-63.5 -81t-32 -157.5t-9 -252.5t9 -252.5t32 -157.5t63.5 -81t103.5 -23zM398 -204q0 50 27 77t77 27t77 -27t27 -77t-27 -76t-77 -26t-77 27t-27 75z" />
    <glyph glyph-name="uni1ECE" unicode="&#x1ece;" horiz-adv-x="1006" 
d="M502 -24q-69 0 -125.5 12t-100.5 41.5t-76.5 79t-53.5 124t-31.5 177.5t-10.5 240q0 202 24 332.5t73.5 206.5t124.5 105.5t176 29.5q104 0 179.5 -29t124.5 -104t72.5 -206t23.5 -335q0 -135 -10.5 -237.5t-32.5 -177.5t-55 -124.5t-77.5 -79.5t-100.5 -42.5t-124 -12.5
zM502 136q63 0 103.5 23t64.5 81t33 157.5t9 252.5t-9 252.5t-33 157.5t-64.5 81t-103.5 23t-103.5 -23t-63.5 -81t-32 -157.5t-9 -252.5t9 -252.5t32 -157.5t63.5 -81t103.5 -23zM436 1370q10 10 22.5 25t24 33t19.5 37.5t8 38.5q0 52 -68 52q-18 0 -33.5 -4t-24.5 -10v104
q15 9 45 15.5t63 6.5q71 0 113.5 -33.5t42.5 -92.5q0 -29 -10.5 -54.5t-26 -48t-34.5 -40t-35 -29.5h-106z" />
    <glyph glyph-name="uni1ED0" unicode="&#x1ed0;" horiz-adv-x="1006" 
d="M502 -24q-69 0 -125.5 12t-100.5 41.5t-76.5 79t-53.5 124t-31.5 177.5t-10.5 240q0 202 24 332.5t73.5 206.5t124.5 105.5t176 29.5q104 0 179.5 -29t124.5 -104t72.5 -206t23.5 -335q0 -135 -10.5 -237.5t-32.5 -177.5t-55 -124.5t-77.5 -79.5t-100.5 -42.5t-124 -12.5
zM502 136q63 0 103.5 23t64.5 81t33 157.5t9 252.5t-9 252.5t-33 157.5t-64.5 81t-103.5 23t-103.5 -23t-63.5 -81t-32 -157.5t-9 -252.5t9 -252.5t32 -157.5t63.5 -81t103.5 -23zM272 1480l230 116l230 -116v-106l-230 76l-230 -76v106zM666 1772h190l-154 -174h-130z" />
    <glyph glyph-name="uni1ED2" unicode="&#x1ed2;" horiz-adv-x="1006" 
d="M502 -24q-69 0 -125.5 12t-100.5 41.5t-76.5 79t-53.5 124t-31.5 177.5t-10.5 240q0 202 24 332.5t73.5 206.5t124.5 105.5t176 29.5q104 0 179.5 -29t124.5 -104t72.5 -206t23.5 -335q0 -135 -10.5 -237.5t-32.5 -177.5t-55 -124.5t-77.5 -79.5t-100.5 -42.5t-124 -12.5
zM502 136q63 0 103.5 23t64.5 81t33 157.5t9 252.5t-9 252.5t-33 157.5t-64.5 81t-103.5 23t-103.5 -23t-63.5 -81t-32 -157.5t-9 -252.5t9 -252.5t32 -157.5t63.5 -81t103.5 -23zM272 1480l230 116l230 -116v-106l-230 76l-230 -76v106zM148 1772h190l94 -174h-130z" />
    <glyph glyph-name="uni1ED4" unicode="&#x1ed4;" horiz-adv-x="1006" 
d="M502 -24q-69 0 -125.5 12t-100.5 41.5t-76.5 79t-53.5 124t-31.5 177.5t-10.5 240q0 202 24 332.5t73.5 206.5t124.5 105.5t176 29.5q104 0 179.5 -29t124.5 -104t72.5 -206t23.5 -335q0 -135 -10.5 -237.5t-32.5 -177.5t-55 -124.5t-77.5 -79.5t-100.5 -42.5t-124 -12.5
zM502 136q63 0 103.5 23t64.5 81t33 157.5t9 252.5t-9 252.5t-33 157.5t-64.5 81t-103.5 23t-103.5 -23t-63.5 -81t-32 -157.5t-9 -252.5t9 -252.5t32 -157.5t63.5 -81t103.5 -23zM272 1474l230 116l230 -116v-106l-230 74l-230 -74v106zM612 1564q10 9 22.5 23t24 31
t19.5 35.5t8 36.5q0 50 -68 50q-18 0 -33.5 -4t-24.5 -10v98q15 8 45 14t65 6q69 0 111.5 -31.5t42.5 -84.5q0 -27 -10.5 -52t-26 -46t-34.5 -38t-35 -28h-106z" />
    <glyph glyph-name="uni1ED6" unicode="&#x1ed6;" horiz-adv-x="1006" 
d="M502 -24q-69 0 -125.5 12t-100.5 41.5t-76.5 79t-53.5 124t-31.5 177.5t-10.5 240q0 202 24 332.5t73.5 206.5t124.5 105.5t176 29.5q104 0 179.5 -29t124.5 -104t72.5 -206t23.5 -335q0 -135 -10.5 -237.5t-32.5 -177.5t-55 -124.5t-77.5 -79.5t-100.5 -42.5t-124 -12.5
zM502 136q63 0 103.5 23t64.5 81t33 157.5t9 252.5t-9 252.5t-33 157.5t-64.5 81t-103.5 23t-103.5 -23t-63.5 -81t-32 -157.5t-9 -252.5t9 -252.5t32 -157.5t63.5 -81t103.5 -23zM272 1476l230 108l230 -108v-102l-230 68l-230 -68v102zM276 1724q17 18 51.5 37t82.5 19
q35 0 61.5 -9t50 -20t46 -20t50.5 -9q36 0 64 15.5t46 32.5v-108q-17 -18 -51.5 -37t-82.5 -19q-35 0 -61.5 9t-50 20t-46 20t-50.5 9q-36 0 -64 -15.5t-46 -32.5v108z" />
    <glyph glyph-name="uni1ED8" unicode="&#x1ed8;" horiz-adv-x="1006" 
d="M502 -24q-69 0 -125.5 12t-100.5 41.5t-76.5 79t-53.5 124t-31.5 177.5t-10.5 240q0 202 24 332.5t73.5 206.5t124.5 105.5t176 29.5q104 0 179.5 -29t124.5 -104t72.5 -206t23.5 -335q0 -135 -10.5 -237.5t-32.5 -177.5t-55 -124.5t-77.5 -79.5t-100.5 -42.5t-124 -12.5
zM502 136q63 0 103.5 23t64.5 81t33 157.5t9 252.5t-9 252.5t-33 157.5t-64.5 81t-103.5 23t-103.5 -23t-63.5 -81t-32 -157.5t-9 -252.5t9 -252.5t32 -157.5t63.5 -81t103.5 -23zM268 1492l234 120l234 -120v-116l-234 76l-234 -76v116zM398 -204q0 50 27 77t77 27t77 -27
t27 -77t-27 -76t-77 -26t-77 27t-27 75z" />
    <glyph glyph-name="uni022E" unicode="&#x22e;" horiz-adv-x="1006" 
d="M502 -24q-69 0 -125.5 12t-100.5 41.5t-76.5 79t-53.5 124t-31.5 177.5t-10.5 240q0 202 24 332.5t73.5 206.5t124.5 105.5t176 29.5q104 0 179.5 -29t124.5 -104t72.5 -206t23.5 -335q0 -135 -10.5 -237.5t-32.5 -177.5t-55 -124.5t-77.5 -79.5t-100.5 -42.5t-124 -12.5
zM502 136q63 0 103.5 23t64.5 81t33 157.5t9 252.5t-9 252.5t-33 157.5t-64.5 81t-103.5 23t-103.5 -23t-63.5 -81t-32 -157.5t-9 -252.5t9 -252.5t32 -157.5t63.5 -81t103.5 -23zM502 1388q-50 0 -77 27t-27 75q0 50 27 77t77 27t77 -27t27 -77t-27 -76t-77 -26z" />
    <glyph glyph-name="uni01A0" unicode="&#x1a0;" horiz-adv-x="1006" 
d="M686 1300q56 0 78 24.5t22 65.5q0 24 -4.5 45t-9.5 33h146q9 -17 12.5 -36t3.5 -42q0 -71 -37.5 -114t-108.5 -58q58 -72 86 -209t28 -359q0 -135 -10.5 -237.5t-32 -177.5t-54.5 -124.5t-77 -79.5t-100 -42.5t-124 -12.5q-70 0 -127 12.5t-101.5 42.5t-76.5 79.5
t-53.5 124.5t-31.5 177.5t-10 237.5q0 202 24 333t73.5 206.5t124.5 105t178 29.5q95 0 164 -24h18zM504 136q62 0 102 23t63 81t32 157.5t9 252.5t-9 252.5t-32 157.5t-63 81t-102 23q-63 0 -103.5 -23t-63.5 -81t-32 -157.5t-9 -252.5t9 -252.5t32 -157.5t63.5 -81
t103.5 -23z" />
    <glyph glyph-name="uni1EDA" unicode="&#x1eda;" horiz-adv-x="1006" 
d="M686 1300q56 0 78 24.5t22 65.5q0 24 -4.5 45t-9.5 33h146q9 -17 12.5 -36t3.5 -42q0 -71 -37.5 -114t-108.5 -58q58 -72 86 -209t28 -359q0 -135 -10.5 -237.5t-32 -177.5t-54.5 -124.5t-77 -79.5t-100 -42.5t-124 -12.5q-70 0 -127 12.5t-101.5 42.5t-76.5 79.5
t-53.5 124.5t-31.5 177.5t-10 237.5q0 202 24 333t73.5 206.5t124.5 105t178 29.5q95 0 164 -24h18zM504 136q62 0 102 23t63 81t32 157.5t9 252.5t-9 252.5t-32 157.5t-63 81t-102 23q-63 0 -103.5 -23t-63.5 -81t-32 -157.5t-9 -252.5t9 -252.5t32 -157.5t63.5 -81
t103.5 -23zM514 1586h216l-178 -186h-154z" />
    <glyph glyph-name="uni1EDC" unicode="&#x1edc;" horiz-adv-x="1006" 
d="M686 1300q56 0 78 24.5t22 65.5q0 24 -4.5 45t-9.5 33h146q9 -17 12.5 -36t3.5 -42q0 -71 -37.5 -114t-108.5 -58q58 -72 86 -209t28 -359q0 -135 -10.5 -237.5t-32 -177.5t-54.5 -124.5t-77 -79.5t-100 -42.5t-124 -12.5q-70 0 -127 12.5t-101.5 42.5t-76.5 79.5
t-53.5 124.5t-31.5 177.5t-10 237.5q0 202 24 333t73.5 206.5t124.5 105t178 29.5q95 0 164 -24h18zM504 136q62 0 102 23t63 81t32 157.5t9 252.5t-9 252.5t-32 157.5t-63 81t-102 23q-63 0 -103.5 -23t-63.5 -81t-32 -157.5t-9 -252.5t9 -252.5t32 -157.5t63.5 -81
t103.5 -23zM272 1586h216l116 -186h-154z" />
    <glyph glyph-name="uni1EDE" unicode="&#x1ede;" horiz-adv-x="1006" 
d="M686 1300q56 0 78 24.5t22 65.5q0 24 -4.5 45t-9.5 33h146q9 -17 12.5 -36t3.5 -42q0 -71 -37.5 -114t-108.5 -58q58 -72 86 -209t28 -359q0 -135 -10.5 -237.5t-32 -177.5t-54.5 -124.5t-77 -79.5t-100 -42.5t-124 -12.5q-70 0 -127 12.5t-101.5 42.5t-76.5 79.5
t-53.5 124.5t-31.5 177.5t-10 237.5q0 202 24 333t73.5 206.5t124.5 105t178 29.5q95 0 164 -24h18zM504 136q62 0 102 23t63 81t32 157.5t9 252.5t-9 252.5t-32 157.5t-63 81t-102 23q-63 0 -103.5 -23t-63.5 -81t-32 -157.5t-9 -252.5t9 -252.5t32 -157.5t63.5 -81
t103.5 -23zM436 1370q10 10 22.5 25t24 33t19.5 37.5t8 38.5q0 52 -68 52q-18 0 -33.5 -4t-24.5 -10v104q15 9 45 15.5t63 6.5q71 0 113.5 -33.5t42.5 -92.5q0 -29 -10.5 -54.5t-26 -48t-34.5 -40t-35 -29.5h-106z" />
    <glyph glyph-name="uni1EE0" unicode="&#x1ee0;" horiz-adv-x="1004" 
d="M578 1390q-31 0 -53.5 12t-42 26t-38.5 26t-42 12q-29 0 -53 -14.5t-41 -31.5v116q8 11 20 23t27 22t33 16.5t38 6.5q31 0 53.5 -12t42 -26t38.5 -26t42 -12q29 0 52.5 14.5t41.5 31.5v-116q-8 -11 -20 -23t-27 -22t-33 -16.5t-38 -6.5zM686 1300q56 0 78 24.5t22 65.5
q0 24 -4.5 45t-9.5 33h146q9 -17 12.5 -36t3.5 -42q0 -71 -37.5 -114t-108.5 -58q58 -72 86 -209t28 -359q0 -135 -10.5 -237.5t-32 -177.5t-54.5 -124.5t-77 -79.5t-100 -42.5t-124 -12.5q-70 0 -127 12.5t-101.5 42.5t-76.5 79.5t-53.5 124.5t-31.5 177.5t-10 237.5
q0 202 24 333t73.5 206.5t124.5 105t178 29.5q95 0 164 -24h18zM504 136q62 0 102 23t63 81t32 157.5t9 252.5t-9 252.5t-32 157.5t-63 81t-102 23q-63 0 -103.5 -23t-63.5 -81t-32 -157.5t-9 -252.5t9 -252.5t32 -157.5t63.5 -81t103.5 -23z" />
    <glyph glyph-name="uni1EE2" unicode="&#x1ee2;" horiz-adv-x="1006" 
d="M686 1300q56 0 78 24.5t22 65.5q0 24 -4.5 45t-9.5 33h146q9 -17 12.5 -36t3.5 -42q0 -71 -37.5 -114t-108.5 -58q58 -72 86 -209t28 -359q0 -135 -10.5 -237.5t-32 -177.5t-54.5 -124.5t-77 -79.5t-100 -42.5t-124 -12.5q-70 0 -127 12.5t-101.5 42.5t-76.5 79.5
t-53.5 124.5t-31.5 177.5t-10 237.5q0 202 24 333t73.5 206.5t124.5 105t178 29.5q95 0 164 -24h18zM504 136q62 0 102 23t63 81t32 157.5t9 252.5t-9 252.5t-32 157.5t-63 81t-102 23q-63 0 -103.5 -23t-63.5 -81t-32 -157.5t-9 -252.5t9 -252.5t32 -157.5t63.5 -81
t103.5 -23zM398 -204q0 50 27 77t77 27t77 -27t27 -77t-27 -76t-77 -26t-77 27t-27 75z" />
    <glyph glyph-name="uni01EA" unicode="&#x1ea;" horiz-adv-x="1006" 
d="M618 -288q-15 -9 -46 -15.5t-66 -6.5q-32 0 -59.5 6.5t-48 20t-32.5 34t-12 49.5t11 55t27.5 48.5t37 41.5t40.5 33q-95 3 -164 35t-114 108.5t-66.5 204.5t-21.5 324q0 202 24 333t73.5 206.5t125 105t179.5 29.5q69 0 125 -12.5t100 -42.5t76.5 -80.5t53.5 -126
t31 -178.5t10 -238q0 -130 -8.5 -224t-25 -160.5t-40 -110.5t-53 -74.5t-65.5 -51.5t-76 -41q-22 -11 -47 -24.5t-46 -30t-35 -36t-14 -41.5q0 -27 18.5 -36.5t45.5 -9.5q21 0 37.5 3t24.5 5v-102zM504 136q62 0 102 23t63 81t32 157.5t9 252.5t-9 252.5t-32 157.5t-63 81
t-102 23q-63 0 -103.5 -23t-63.5 -81t-32 -157.5t-9 -252.5t9 -252.5t32 -157.5t63.5 -81t103.5 -23z" />
    <glyph glyph-name="uni1E56" unicode="&#x1e56;" horiz-adv-x="936" 
d="M154 1300h312q92 0 165 -21t123.5 -69.5t77 -128t26.5 -195.5q0 -113 -27.5 -192t-78.5 -128.5t-123.5 -71.5t-162.5 -22h-128v-472h-184v1300zM338 1144v-518h108q54 0 95.5 11.5t69.5 40.5t42.5 79.5t14.5 128.5t-14.5 128t-42.5 79t-69.5 40t-95.5 11h-108zM478 1388
q-50 0 -77 27t-27 75q0 50 27 77t77 27t77 -27t27 -77t-27 -76t-77 -26z" />
    <glyph glyph-name="uni1E5A" unicode="&#x1e5a;" horiz-adv-x="980" 
d="M154 1300h300q90 0 165.5 -18.5t130.5 -63t85.5 -118.5t30.5 -184q0 -77 -17.5 -135.5t-48 -100.5t-72 -70.5t-88.5 -45.5l276 -564h-210l-244 530h-124v-530h-184v1300zM338 1144v-458h98q54 0 98 8t75.5 32t49 69.5t17.5 120.5q0 74 -17.5 119t-49 69t-75.5 32t-98 8
h-98zM408 -204q0 50 27 77t77 27t77 -27t27 -77t-27 -76t-77 -26t-77 27t-27 75z" />
    <glyph glyph-name="uni1E5C" unicode="&#x1e5c;" horiz-adv-x="980" 
d="M154 1300h300q90 0 165.5 -18.5t130.5 -63t85.5 -118.5t30.5 -184q0 -77 -17.5 -135.5t-48 -100.5t-72 -70.5t-88.5 -45.5l276 -564h-210l-244 530h-124v-530h-184v1300zM338 1144v-458h98q54 0 98 8t75.5 32t49 69.5t17.5 120.5q0 74 -17.5 119t-49 69t-75.5 32t-98 8
h-98zM236 1562h480v-138h-480v138zM408 -204q0 50 27 77t77 27t77 -27t27 -77t-27 -76t-77 -26t-77 27t-27 75z" />
    <glyph glyph-name="uni1E5E" unicode="&#x1e5e;" horiz-adv-x="980" 
d="M154 1300h300q90 0 165.5 -18.5t130.5 -63t85.5 -118.5t30.5 -184q0 -77 -17.5 -135.5t-48 -100.5t-72 -70.5t-88.5 -45.5l276 -564h-210l-244 530h-124v-530h-184v1300zM338 1144v-458h98q54 0 98 8t75.5 32t49 69.5t17.5 120.5q0 74 -17.5 119t-49 69t-75.5 32t-98 8
h-98zM272 -122h480v-140h-480v140z" />
    <glyph glyph-name="uni1E58" unicode="&#x1e58;" horiz-adv-x="980" 
d="M154 1300h300q90 0 165.5 -18.5t130.5 -63t85.5 -118.5t30.5 -184q0 -77 -17.5 -135.5t-48 -100.5t-72 -70.5t-88.5 -45.5l276 -564h-210l-244 530h-124v-530h-184v1300zM338 1144v-458h98q54 0 98 8t75.5 32t49 69.5t17.5 120.5q0 74 -17.5 119t-49 69t-75.5 32t-98 8
h-98zM476 1388q-50 0 -77 27t-27 75q0 50 27 77t77 27t77 -27t27 -77t-27 -76t-77 -26z" />
    <glyph glyph-name="uni1E60" unicode="&#x1e60;" horiz-adv-x="784" 
d="M324 -24q-86 0 -147 15t-91 33v170q38 -21 94.5 -37.5t127.5 -16.5q46 0 84 9.5t64.5 30t41 53t14.5 79.5q0 40 -9.5 71t-27.5 58t-43.5 51.5t-57.5 51.5l-104 90q-43 37 -77.5 72t-58.5 75.5t-37 89t-13 111.5q0 76 25 139t73.5 108t119 70t162.5 25q33 0 65 -4
t59.5 -10.5t49.5 -15t36 -16.5v-168q-30 18 -82 34t-112 16q-47 0 -84.5 -9.5t-64 -30t-41 -53.5t-14.5 -79q0 -40 9.5 -70.5t27.5 -57.5t43.5 -51.5t57.5 -52.5l104 -90q43 -37 77.5 -72t58.5 -75.5t37 -89t13 -111.5q0 -76 -25 -139t-73.5 -108t-119.5 -70t-162 -25z
M402 1388q-50 0 -77 27t-27 75q0 50 27 77t77 27t77 -27t27 -77t-27 -76t-77 -26z" />
    <glyph glyph-name="uni1E62" unicode="&#x1e62;" horiz-adv-x="784" 
d="M324 -24q-86 0 -147 15t-91 33v170q38 -21 94.5 -37.5t127.5 -16.5q46 0 84 9.5t64.5 30t41 53t14.5 79.5q0 40 -9.5 71t-27.5 58t-43.5 51.5t-57.5 51.5l-104 90q-43 37 -77.5 72t-58.5 75.5t-37 89t-13 111.5q0 76 25 139t73.5 108t119 70t162.5 25q33 0 65 -4
t59.5 -10.5t49.5 -15t36 -16.5v-168q-30 18 -82 34t-112 16q-47 0 -84.5 -9.5t-64 -30t-41 -53.5t-14.5 -79q0 -40 9.5 -70.5t27.5 -57.5t43.5 -51.5t57.5 -52.5l104 -90q43 -37 77.5 -72t58.5 -75.5t37 -89t13 -111.5q0 -76 -25 -139t-73.5 -108t-119.5 -70t-162 -25z
M256 -204q0 50 27 77t77 27t77 -27t27 -77t-27 -76t-77 -26t-77 27t-27 75z" />
    <glyph glyph-name="uni1E6C" unicode="&#x1e6c;" horiz-adv-x="782" 
d="M18 1300h746v-156h-282v-1144h-184v1144h-280v156zM288 -204q0 50 27 77t77 27t77 -27t27 -77t-27 -76t-77 -26t-77 27t-27 75z" />
    <glyph glyph-name="uni1E6E" unicode="&#x1e6e;" horiz-adv-x="782" 
d="M18 1300h746v-156h-282v-1144h-184v1144h-280v156zM152 -122h480v-140h-480v140z" />
    <glyph glyph-name="uni01D3" unicode="&#x1d3;" horiz-adv-x="1056" 
d="M528 -24q-99 0 -171.5 23t-119.5 72.5t-70 128.5t-23 192v908h184v-916q0 -72 12.5 -120t37.5 -76.5t62.5 -40t87.5 -11.5t87.5 11.5t62.5 40t37.5 76.5t12.5 120v916h184v-908q0 -111 -23.5 -190t-71 -129t-120 -73.5t-169.5 -23.5zM294 1612l234 -76l234 76v-116
l-234 -120l-234 120v116z" />
    <glyph glyph-name="uni01D5" unicode="&#x1d5;" horiz-adv-x="1056" 
d="M528 -24q-99 0 -171.5 23t-119.5 72.5t-70 128.5t-23 192v908h184v-916q0 -72 12.5 -120t37.5 -76.5t62.5 -40t87.5 -11.5t87.5 11.5t62.5 40t37.5 76.5t12.5 120v916h184v-908q0 -111 -23.5 -190t-71 -129t-120 -73.5t-169.5 -23.5zM362 1378q-45 0 -70.5 24t-25.5 68
q0 42 25.5 66t70.5 24t70.5 -24t25.5 -66q0 -44 -25.5 -68t-70.5 -24zM694 1378q-45 0 -70.5 24t-25.5 68q0 42 25.5 66t70.5 24t70.5 -24t25.5 -66q0 -44 -25.5 -68t-70.5 -24zM296 1748h464v-122h-464v122z" />
    <glyph glyph-name="uni01D7" unicode="&#x1d7;" horiz-adv-x="1056" 
d="M528 -24q-99 0 -171.5 23t-119.5 72.5t-70 128.5t-23 192v908h184v-916q0 -72 12.5 -120t37.5 -76.5t62.5 -40t87.5 -11.5t87.5 11.5t62.5 40t37.5 76.5t12.5 120v916h184v-908q0 -111 -23.5 -190t-71 -129t-120 -73.5t-169.5 -23.5zM362 1378q-45 0 -70.5 24t-25.5 68
q0 42 25.5 66t70.5 24t70.5 -24t25.5 -66q0 -44 -25.5 -68t-70.5 -24zM694 1378q-45 0 -70.5 24t-25.5 68q0 42 25.5 66t70.5 24t70.5 -24t25.5 -66q0 -44 -25.5 -68t-70.5 -24zM548 1772h192l-156 -174h-130z" />
    <glyph glyph-name="uni01D9" unicode="&#x1d9;" horiz-adv-x="1056" 
d="M528 -24q-99 0 -171.5 23t-119.5 72.5t-70 128.5t-23 192v908h184v-916q0 -72 12.5 -120t37.5 -76.5t62.5 -40t87.5 -11.5t87.5 11.5t62.5 40t37.5 76.5t12.5 120v916h184v-908q0 -111 -23.5 -190t-71 -129t-120 -73.5t-169.5 -23.5zM362 1378q-45 0 -70.5 24t-25.5 68
q0 42 25.5 66t70.5 24t70.5 -24t25.5 -66q0 -44 -25.5 -68t-70.5 -24zM694 1378q-45 0 -70.5 24t-25.5 68q0 42 25.5 66t70.5 24t70.5 -24t25.5 -66q0 -44 -25.5 -68t-70.5 -24zM306 1794l222 -74l222 74v-106l-222 -116l-222 116v106z" />
    <glyph glyph-name="uni01DB" unicode="&#x1db;" horiz-adv-x="1056" 
d="M528 -24q-99 0 -171.5 23t-119.5 72.5t-70 128.5t-23 192v908h184v-916q0 -72 12.5 -120t37.5 -76.5t62.5 -40t87.5 -11.5t87.5 11.5t62.5 40t37.5 76.5t12.5 120v916h184v-908q0 -111 -23.5 -190t-71 -129t-120 -73.5t-169.5 -23.5zM362 1378q-45 0 -70.5 24t-25.5 68
q0 42 25.5 66t70.5 24t70.5 -24t25.5 -66q0 -44 -25.5 -68t-70.5 -24zM694 1378q-45 0 -70.5 24t-25.5 68q0 42 25.5 66t70.5 24t70.5 -24t25.5 -66q0 -44 -25.5 -68t-70.5 -24zM316 1772h192l94 -174h-130z" />
    <glyph glyph-name="uni1EE4" unicode="&#x1ee4;" horiz-adv-x="1056" 
d="M528 -24q-99 0 -171.5 23t-119.5 72.5t-70 128.5t-23 192v908h184v-916q0 -72 12.5 -120t37.5 -76.5t62.5 -40t87.5 -11.5t87.5 11.5t62.5 40t37.5 76.5t12.5 120v916h184v-908q0 -111 -23.5 -190t-71 -129t-120 -73.5t-169.5 -23.5zM424 -204q0 50 27 77t77 27t77 -27
t27 -77t-27 -76t-77 -26t-77 27t-27 75z" />
    <glyph glyph-name="uni1EE6" unicode="&#x1ee6;" horiz-adv-x="1056" 
d="M528 -24q-99 0 -171.5 23t-119.5 72.5t-70 128.5t-23 192v908h184v-916q0 -72 12.5 -120t37.5 -76.5t62.5 -40t87.5 -11.5t87.5 11.5t62.5 40t37.5 76.5t12.5 120v916h184v-908q0 -111 -23.5 -190t-71 -129t-120 -73.5t-169.5 -23.5zM462 1370q10 10 22.5 25t24 33
t19.5 37.5t8 38.5q0 52 -68 52q-18 0 -33.5 -4t-24.5 -10v104q15 9 45 15.5t63 6.5q71 0 113.5 -33.5t42.5 -92.5q0 -29 -10.5 -54.5t-26 -48t-34.5 -40t-35 -29.5h-106z" />
    <glyph glyph-name="uni01AF" unicode="&#x1af;" horiz-adv-x="1056" 
d="M144 1300h186v-916q0 -72 12.5 -120t37.5 -76.5t62 -40t86 -11.5t86.5 11.5t62 40t37 76.5t12.5 120v916h88q54 0 77 24.5t23 65.5q0 24 -4.5 45t-9.5 33h146q9 -17 12.5 -36t3.5 -42q0 -72 -39.5 -115.5t-108.5 -58.5v-824q0 -113 -23.5 -192t-71.5 -128.5t-120.5 -72.5
t-170.5 -23q-100 0 -172.5 22t-119.5 71.5t-69.5 129t-22.5 193.5v908z" />
    <glyph glyph-name="uni1EE8" unicode="&#x1ee8;" horiz-adv-x="1056" 
d="M144 1300h186v-916q0 -72 12.5 -120t37.5 -76.5t62 -40t86 -11.5t86.5 11.5t62 40t37 76.5t12.5 120v916h88q54 0 77 24.5t23 65.5q0 24 -4.5 45t-9.5 33h146q9 -17 12.5 -36t3.5 -42q0 -72 -39.5 -115.5t-108.5 -58.5v-824q0 -113 -23.5 -192t-71.5 -128.5t-120.5 -72.5
t-170.5 -23q-100 0 -172.5 22t-119.5 71.5t-69.5 129t-22.5 193.5v908zM540 1586h216l-178 -186h-154z" />
    <glyph glyph-name="uni1EEA" unicode="&#x1eea;" horiz-adv-x="1056" 
d="M144 1300h186v-916q0 -72 12.5 -120t37.5 -76.5t62 -40t86 -11.5t86.5 11.5t62 40t37 76.5t12.5 120v916h88q54 0 77 24.5t23 65.5q0 24 -4.5 45t-9.5 33h146q9 -17 12.5 -36t3.5 -42q0 -72 -39.5 -115.5t-108.5 -58.5v-824q0 -113 -23.5 -192t-71.5 -128.5t-120.5 -72.5
t-170.5 -23q-100 0 -172.5 22t-119.5 71.5t-69.5 129t-22.5 193.5v908zM298 1586h216l116 -186h-154z" />
    </font>
</defs>
</svg>
