<?xml version="1.0" standalone="no"?>
<!DOCTYPE svg PUBLIC "-//W3C//DTD SVG 1.1//EN" "http://www.w3.org/Graphics/SVG/1.1/DTD/svg11.dtd" >
<svg xmlns="http://www.w3.org/2000/svg" xmlns:xlink="http://www.w3.org/1999/xlink" version="1.1">
<metadata>
Created by FontForge 20161003 at Wed Jan 11 21:18:14 2017
 By www-data
This is a Bold Monday webfont. For licensing information visit www.boldmonday.com
</metadata>
<defs>
<font id="hAxDPvXQWcjPvsIUAfchiGHGGS" horiz-adv-x="0" >
  <font-face 
    font-family="hAxDPvXQWcjPvsIUAfchiGHGGS"
    font-weight="300"
    font-stretch="normal"
    units-per-em="2048"
    panose-1="2 0 4 6 4 0 0 4 0 3"
    ascent="1617"
    descent="-431"
    x-height="1000"
    cap-height="1300"
    bbox="-314 -500 1700 1876"
    underline-thickness="96"
    underline-position="-252"
    unicode-range="U+000D-FB02"
  />
<missing-glyph horiz-adv-x="1100" 
d="M150 1500h800v-2000h-800v2000zM210 -364l306 868l-306 860v-1728zM246 -440h606l-304 856zM552 584l300 856h-606zM890 -364v1728l-306 -870z" />
    <glyph glyph-name="fi" unicode="fi" horiz-adv-x="940" 
d="M32 942h158v138q0 71 19.5 114.5t51.5 67t74 31t87 7.5h84v-102h-56q-37 0 -63.5 -4.5t-43.5 -18.5t-25 -40t-8 -69v-124h196v-104h-196v-838h-120v838h-158v104zM738 1128q-39 0 -60.5 21t-21.5 57t21.5 57t60.5 21q41 0 61.5 -21t20.5 -57t-20.5 -57t-61.5 -21z
M678 1000h120v-1000h-120v1000z" />
    <glyph glyph-name="fl" unicode="fl" horiz-adv-x="988" 
d="M32 942h158v138q0 71 19.5 114.5t51.5 67t74 31t87 7.5h84v-102h-56q-37 0 -63.5 -4.5t-43.5 -18.5t-25 -40t-8 -69v-124h196v-104h-196v-838h-120v838h-158v104zM874 -8q-42 0 -79 8t-65 29t-44 58.5t-16 96.5v1116h120v-1092q0 -30 4.5 -51.5t16.5 -35.5t34 -20.5
t57 -6.5h48v-102h-76v0z" />
    <glyph glyph-name=".notdef" horiz-adv-x="1100" 
d="M150 1500h800v-2000h-800v2000zM210 -364l306 868l-306 860v-1728zM246 -440h606l-304 856zM552 584l300 856h-606zM890 -364v1728l-306 -870z" />
    <glyph glyph-name=".null" 
 />
    <glyph glyph-name=".null" 
 />
    <glyph glyph-name="uni000D" unicode="&#xd;" horiz-adv-x="400" 
 />
    <glyph glyph-name="space" unicode=" " horiz-adv-x="400" 
 />
    <glyph glyph-name="numbersign" unicode="#" horiz-adv-x="986" 
d="M656 384h-326v-384h-112v384h-142v100h142v348h-142v100h142v368h112v-368h326v368h112v-368h144v-100h-144v-348h144v-100h-144v-384h-112v384zM330 484h326v348h-326v-348z" />
    <glyph glyph-name="dollar" unicode="$" horiz-adv-x="728" 
d="M284 -24q-77 2 -130.5 15t-77.5 27v118q14 -8 35.5 -16t48.5 -15.5t58 -12t64 -4.5q55 0 100 11t76.5 36t48.5 65t17 98q0 46 -12 82t-33 67.5t-50 60t-63 58.5l-104 88q-39 33 -73.5 67.5t-60 75t-40 90t-14.5 113.5q0 131 68.5 211t193.5 103v186h108v-176
q59 -2 106.5 -14t73.5 -24v-118q-27 14 -74.5 29t-103.5 15q-55 0 -99 -11t-75.5 -36t-48.5 -65t-17 -98q0 -46 11.5 -82t32.5 -67.5t50 -60t64 -58.5l102 -88q39 -33 73.5 -67.5t60.5 -75t41 -90t15 -113.5q0 -133 -69 -213t-193 -101v-186h-110v176z" />
    <glyph glyph-name="percent" unicode="%" horiz-adv-x="1066" 
d="M300 752q-116 0 -169 70.5t-53 215.5q0 143 54.5 214.5t167.5 71.5q118 0 171 -70.5t53 -215.5q0 -286 -224 -286zM300 844q35 0 58.5 12.5t37 36.5t19 60.5t5.5 84.5t-5.5 84.5t-19 60.5t-37 36.5t-58.5 12.5q-69 0 -93.5 -48.5t-24.5 -145.5t24.5 -145.5t93.5 -48.5z
M766 -24q-116 0 -170 70.5t-54 215.5q0 143 54.5 214.5t169.5 71.5q116 0 169 -70.5t53 -215.5q0 -286 -222 -286zM766 68q69 0 93.5 48.5t24.5 145.5t-24.5 145.5t-93.5 48.5q-35 0 -58.5 -12.5t-37 -36.5t-19 -60.5t-5.5 -84.5t5.5 -84.5t19 -60.5t37 -36.5t58.5 -12.5z
M862 1300h110l-768 -1300h-110z" />
    <glyph glyph-name="ampersand" unicode="&#x26;" horiz-adv-x="914" 
d="M498 0q-93 0 -169 14.5t-130 53.5t-83.5 106t-29.5 172q0 71 15 124.5t41.5 92t63 64t80.5 41.5q-36 17 -65.5 43t-50.5 62t-32.5 83.5t-11.5 109.5q0 74 20.5 139.5t65 114t114.5 76.5t168 28q30 0 61 -3.5t60 -10t54.5 -15.5t44.5 -19v-118q-17 9 -39.5 18.5
t-49.5 17.5t-57.5 13t-61.5 5q-71 0 -119.5 -18t-78 -51t-42 -80t-12.5 -105q0 -83 23 -131t65 -73.5t99.5 -32.5t126.5 -7h326v-106h-134v-608h-262zM212 356q0 -83 22 -132.5t61.5 -75.5t95 -34t123.5 -8h120v502h-112q-68 0 -124.5 -8t-98 -34.5t-64.5 -76.5t-23 -133z
" />
    <glyph glyph-name="quotesingle" unicode="'" horiz-adv-x="288" 
d="M104 900q-7 53 -13.5 103t-11.5 93.5t-8 79t-3 60.5q0 39 18.5 61.5t57.5 22.5t57.5 -22.5t18.5 -61.5q0 -25 -3 -60.5t-8 -79t-11.5 -93.5t-13.5 -103h-80v0z" />
    <glyph glyph-name="parenleft" unicode="(" horiz-adv-x="560" 
d="M512 -300q-78 0 -137 7.5t-102 34t-71 78t-44.5 140.5t-23 221t-6.5 319t7 319t24 221t45 140.5t70.5 78t101 34t136.5 7.5v-96q-56 0 -98 -5.5t-71.5 -27.5t-48.5 -66.5t-29.5 -122.5t-14.5 -196t-4 -286t4 -286t14.5 -196t29.5 -122.5t48.5 -66.5t71 -27.5t98.5 -5.5
v-96v0z" />
    <glyph glyph-name="parenright" unicode=")" horiz-adv-x="560" 
d="M48 -204q56 0 98 5.5t72 27.5t49 66.5t30 122.5t15 195.5t4 286.5q0 168 -4 286t-15 196t-30 122.5t-49 66.5t-72 27.5t-98 5.5v96q78 0 137.5 -7.5t102.5 -34t71 -78t44.5 -140.5t23.5 -221t7 -319t-7 -319t-24 -221t-45 -140.5t-71 -78t-102 -34t-137 -7.5v96z" />
    <glyph glyph-name="asterisk" unicode="*" horiz-adv-x="700" 
d="M134 790l142 190l-226 68l32 94l224 -78l-6 236h100l-6 -236l222 78l34 -94l-226 -68l140 -190l-80 -56l-134 196l-134 -196z" />
    <glyph glyph-name="plus" unicode="+" horiz-adv-x="868" 
d="M90 704h288v290h112v-290h288v-106h-288v-290h-112v290h-288v106z" />
    <glyph glyph-name="comma" unicode="," horiz-adv-x="276" 
d="M58 -278q14 45 22 91t8 73q0 30 -4.5 54.5t-10.5 45.5t-10.5 39t-4.5 35q0 41 22.5 61.5t57.5 20.5q44 0 62 -26.5t18 -67.5q0 -26 -3.5 -61.5t-11.5 -78t-20.5 -90t-30.5 -96.5h-94v0z" />
    <glyph glyph-name="hyphen" unicode="-" horiz-adv-x="612" 
d="M90 710h432v-118h-432v118z" />
    <glyph glyph-name="period" unicode="." horiz-adv-x="276" 
d="M138 -20q-39 0 -59.5 22t-20.5 58q0 38 20.5 60t59.5 22t59.5 -22t20.5 -60q0 -36 -20.5 -58t-59.5 -22z" />
    <glyph glyph-name="slash" unicode="/" horiz-adv-x="448" 
d="M336 1300h112l-414 -1600h-112z" />
    <glyph glyph-name="zero" unicode="0" horiz-adv-x="968" 
d="M484 -24q-103 0 -174.5 31t-116.5 108t-65 207t-20 328q0 196 21 325.5t66 207t116.5 109.5t172.5 32q103 0 174.5 -31t116.5 -108t65 -207t20 -328q0 -197 -21 -326.5t-66 -207t-116.5 -109t-172.5 -31.5zM484 86q70 0 117.5 25.5t76 89.5t40.5 173t12 276t-12 276
t-40.5 173t-76 89.5t-117.5 25.5q-71 0 -118 -25.5t-75.5 -89.5t-40.5 -173t-12 -276t12 -276t40.5 -173t75.5 -89.5t118 -25.5z" />
    <glyph glyph-name="one" unicode="1" horiz-adv-x="542" 
d="M256 1162l-206 -72v114l262 96h70v-1300h-126v1162z" />
    <glyph glyph-name="two" unicode="2" horiz-adv-x="818" 
d="M80 100q0 105 17 180.5t48.5 131t74.5 94t96 70.5q59 37 108 69t84 72.5t54.5 94.5t19.5 134q0 63 -13.5 112t-43.5 83t-77 51.5t-114 17.5q-68 0 -123.5 -18t-88.5 -36v122q19 10 45 18.5t55.5 14.5t61 9.5t62.5 3.5q103 0 172.5 -29.5t112 -80.5t61 -119t18.5 -145
q0 -100 -23.5 -169t-65 -120t-98 -90t-121.5 -79q-53 -33 -90 -66t-60 -76t-34 -101t-12 -141h512v-108h-638v100z" />
    <glyph glyph-name="three" unicode="3" horiz-adv-x="850" 
d="M330 -24q-32 0 -67 4t-66.5 10t-57.5 14.5t-41 17.5v122q12 -8 34.5 -17t51.5 -17.5t62.5 -14t67.5 -5.5q70 0 126 13.5t94.5 43.5t59 78.5t20.5 118.5q0 91 -31.5 151.5t-85.5 98t-125 54.5t-150 20v78l340 446h-460v108h622v-90l-350 -452q76 -12 143 -41.5
t117.5 -80.5t80 -124.5t29.5 -173.5q0 -88 -28 -155.5t-81 -113.5t-130 -69.5t-175 -23.5z" />
    <glyph glyph-name="four" unicode="4" horiz-adv-x="882" 
d="M50 382l490 918h138l-486 -904h390v366h126v-366h150v-108h-150v-288h-126v288h-532v94z" />
    <glyph glyph-name="five" unicode="5" horiz-adv-x="832" 
d="M320 -24q-32 0 -67 4t-66.5 10t-57.5 14.5t-41 17.5v122q12 -8 34.5 -17t51 -17.5t62 -14t68.5 -5.5q70 0 126 13.5t94.5 43.5t59 78.5t20.5 118.5q0 98 -36.5 161.5t-100 101.5t-150.5 56.5t-187 26.5l24 610h542v-108h-420l-18 -402q107 -13 194.5 -43.5t149.5 -84.5
t96 -133.5t34 -190.5q0 -88 -27.5 -155.5t-80 -113.5t-129.5 -69.5t-175 -23.5z" />
    <glyph glyph-name="six" unicode="6" horiz-adv-x="918" 
d="M478 -24q-114 0 -186 43t-113 126.5t-56 206t-15 280.5q0 178 30 308t87.5 215.5t141.5 127t193 41.5q65 0 119 -12.5t83 -27.5v-118q-12 7 -32.5 15t-46.5 15.5t-55.5 12.5t-59.5 5q-152 0 -238 -122t-92 -366q45 35 112 57.5t148 22.5q95 0 160 -32t105 -87t57.5 -129
t17.5 -158q0 -48 -6.5 -98.5t-22 -97.5t-42 -88.5t-66.5 -72.5t-95 -49t-128 -18zM472 694q-35 0 -68 -7t-63 -18.5t-56.5 -26t-46.5 -30.5q1 -134 11.5 -232.5t37.5 -164t73 -97.5t118 -32q69 0 113.5 25.5t70.5 68t36 97t10 113.5q0 63 -10.5 118.5t-37 96.5t-72.5 65
t-116 24z" />
    <glyph glyph-name="seven" unicode="7" horiz-adv-x="788" 
d="M584 1192h-524v108h658v-90l-410 -1210h-132z" />
    <glyph glyph-name="eight" unicode="8" horiz-adv-x="954" 
d="M478 -24q-182 0 -281 73.5t-99 220.5q0 70 18.5 125t54 101.5t86 86t115.5 77.5q-119 75 -180.5 163.5t-61.5 208.5q0 71 25.5 125.5t71.5 91.5t110 56t141 19q79 0 143 -18.5t109 -55.5t69.5 -91.5t24.5 -126.5q0 -60 -15.5 -111.5t-46 -96.5t-76 -85t-104.5 -77
q64 -39 114.5 -79t86 -86.5t54.5 -101.5t19 -125q0 -73 -26 -128t-74.5 -92t-119 -55.5t-158.5 -18.5zM478 86q59 0 105.5 11t78.5 35t49 61.5t17 90.5q0 54 -18 97t-51 80t-80 70t-105 67q-58 -34 -103.5 -67t-77 -70t-48.5 -80t-17 -97q0 -53 16.5 -90.5t48.5 -61.5
t78.5 -35t106.5 -11zM260 1028q0 -52 14 -94t42 -78t69 -68.5t95 -65.5q52 33 92 65.5t67 68.5t41 78t14 94q0 49 -15 85t-43 58.5t-68 33.5t-90 11q-102 0 -160 -44.5t-58 -143.5z" />
    <glyph glyph-name="nine" unicode="9" horiz-adv-x="918" 
d="M358 -24q-65 0 -119 12.5t-83 27.5v118q12 -7 32.5 -15t46.5 -15.5t55.5 -12.5t59.5 -5q82 0 143 29t102 90t62 155.5t23 225.5q-45 -32 -108.5 -54t-151.5 -22q-89 0 -153 29.5t-105.5 83.5t-61.5 128.5t-20 164.5q0 73 17 145.5t58 131t110.5 95t174.5 36.5
q114 0 186 -43t113 -126.5t56 -206t15 -280.5q0 -184 -27.5 -315t-83.5 -215t-141 -123t-200 -39zM446 622q71 0 131.5 22.5t102.5 51.5q-2 131 -12.5 228.5t-37.5 162t-73 96t-117 31.5q-66 0 -110 -24.5t-71 -65.5t-38 -95t-11 -113q0 -68 11.5 -122t39 -92.5t72.5 -59
t113 -20.5z" />
    <glyph glyph-name="colon" unicode=":" horiz-adv-x="326" 
d="M158 -20q-39 0 -59.5 22t-20.5 58q0 38 20.5 60t59.5 22t59.5 -22t20.5 -60q0 -36 -20.5 -58t-59.5 -22zM158 858q-39 0 -59.5 22t-20.5 58q0 38 20.5 60t59.5 22t59.5 -22t20.5 -60q0 -36 -20.5 -58t-59.5 -22z" />
    <glyph glyph-name="semicolon" unicode=";" horiz-adv-x="326" 
d="M78 -278q14 45 22 91t8 73q0 30 -4.5 54.5t-10.5 45.5t-10.5 39t-4.5 35q0 41 22.5 61.5t57.5 20.5q44 0 62 -26.5t18 -67.5q0 -26 -3.5 -61.5t-11.5 -78t-20.5 -90t-30.5 -96.5h-94v0zM158 858q-39 0 -59.5 22t-20.5 58q0 38 20.5 60t59.5 22t59.5 -22t20.5 -60
q0 -36 -20.5 -58t-59.5 -22z" />
    <glyph glyph-name="less" unicode="&#x3c;" horiz-adv-x="890" 
d="M90 618v72l660 340l50 -94l-554 -282l554 -282l-50 -94z" />
    <glyph glyph-name="equal" unicode="=" horiz-adv-x="868" 
d="M90 564h688v-104h-688v104zM90 850h688v-104h-688v104z" />
    <glyph glyph-name="greater" unicode="&#x3e;" horiz-adv-x="890" 
d="M90 372l554 282l-554 282l50 94l660 -340v-72l-660 -340z" />
    <glyph glyph-name="question" unicode="?" horiz-adv-x="686" 
d="M228 630l96 88q29 28 58 59t51.5 67t36.5 78t14 92q0 51 -16 88.5t-45.5 62.5t-71 37t-93.5 12q-38 0 -70.5 -5.5t-58 -13.5t-43 -16.5t-26.5 -14.5v112q10 8 30.5 16.5t48.5 15.5t62.5 11.5t72.5 4.5q78 0 140.5 -20t106.5 -58t67.5 -94t23.5 -128q0 -65 -18.5 -119.5
t-47.5 -101t-65.5 -86t-72.5 -73.5l-66 -62l-12 -232h-86zM286 -20q-38 0 -59 22t-21 58q0 38 21 60t59 22q39 0 60.5 -22t21.5 -60q0 -36 -21.5 -58t-60.5 -22z" />
    <glyph glyph-name="at" unicode="@" horiz-adv-x="1390" 
d="M606 74q-48 0 -80.5 20t-52 54t-27.5 78.5t-8 93.5q0 20 1.5 43.5t3 46t3.5 43t4 35.5q14 124 38.5 205.5t56.5 129t70 66.5t79 19q30 0 55 -8.5t46 -22t37.5 -31t29.5 -36.5l22 78h76l-76 -602q-4 -32 -1.5 -58.5t13 -45.5t29.5 -29.5t49 -10.5q33 0 69.5 23t66.5 81
t50 156t20 248q0 130 -32.5 231t-91.5 170t-142 105t-184 36q-105 0 -199 -45.5t-165 -142.5t-112.5 -248.5t-41.5 -363.5q0 -306 109.5 -456t316.5 -150q100 0 181 27.5t141 68.5v-102q-23 -16 -57.5 -31.5t-78 -27.5t-93 -19.5t-101.5 -7.5q-119 0 -215.5 41t-164.5 127
t-105 219t-37 317q0 231 50.5 398.5t136 276.5t199 161t240.5 52q123 0 224 -42.5t173 -123.5t111.5 -198t39.5 -266q0 -167 -26 -281.5t-69.5 -185t-99.5 -101t-117 -30.5q-71 0 -111.5 31t-54.5 85q-36 -41 -86 -70.5t-112 -29.5zM636 172q41 0 75.5 22t58.5 46l64 500
q-21 27 -50.5 48.5t-65.5 21.5q-62 0 -98.5 -79t-57.5 -245q-5 -38 -8.5 -80.5t-3.5 -83.5q0 -72 18 -111t68 -39z" />
    <glyph glyph-name="A" unicode="A" horiz-adv-x="860" 
d="M366 1300h128l354 -1300h-132l-86 318h-404l-86 -318h-128zM252 426h350l-68 264q-14 56 -29.5 117t-29.5 121t-26.5 117t-20.5 107q-8 -50 -19.5 -107t-25 -117t-29 -121t-30.5 -117z" />
    <glyph glyph-name="B" unicode="B" horiz-adv-x="916" 
d="M162 1300h216q92 0 168 -13.5t130 -51.5t84 -106t30 -177q0 -65 -12.5 -114t-35 -84t-54.5 -58.5t-70 -37.5q46 -12 85 -34.5t67.5 -59t44 -90t15.5 -126.5q0 -108 -30 -176t-84.5 -106t-130.5 -52t-167 -14h-256v1300zM286 598v-490h116q67 0 122 6.5t94 31.5t60.5 73.5
t21.5 132.5q0 83 -21.5 132t-60.5 74.5t-94 32.5t-122 7h-116zM286 1192v-490h76q67 0 122 7t94 32.5t60.5 74.5t21.5 132q0 84 -21.5 132.5t-60.5 73.5t-94 31.5t-122 6.5h-76z" />
    <glyph glyph-name="C" unicode="C" horiz-adv-x="792" 
d="M508 -24q-117 0 -194 32t-123 110t-64.5 207.5t-18.5 324.5q0 193 22 322.5t70 207.5t123.5 111t182.5 33q65 0 123 -14t87 -32v-120q-13 9 -35 18.5t-49 17.5t-56.5 13t-57.5 5q-52 0 -93 -10t-72 -35t-53 -66.5t-35.5 -104t-20 -148t-6.5 -198.5q0 -175 13.5 -284.5
t45.5 -171t85.5 -84t133.5 -22.5q31 0 63 5.5t60.5 13.5t51.5 17.5t37 17.5v-118q-14 -9 -39.5 -17.5t-56 -15.5t-63.5 -11t-61 -4z" />
    <glyph glyph-name="D" unicode="D" horiz-adv-x="970" 
d="M162 1300h290q114 0 192.5 -30.5t126.5 -105.5t69.5 -200t21.5 -314q0 -188 -21.5 -313t-69.5 -200t-126.5 -106t-192.5 -31h-290v1300zM286 1192v-1084h156q53 0 95.5 9t75 32t55 62.5t37 99.5t21 143.5t6.5 195.5q0 111 -6.5 195t-21 144t-37 99.5t-55 62.5t-75 32
t-95.5 9h-156z" />
    <glyph glyph-name="E" unicode="E" horiz-adv-x="818" 
d="M162 1300h554v-108h-430v-468h346v-108h-346v-508h430v-108h-554v1300z" />
    <glyph glyph-name="F" unicode="F" horiz-adv-x="752" 
d="M162 1300h532v-108h-408v-468h328v-108h-328v-616h-124v1300z" />
    <glyph glyph-name="G" unicode="G" horiz-adv-x="962" 
d="M522 -24q-122 0 -201.5 31t-127 108t-66.5 207t-19 328q0 202 27 333t82 206.5t137.5 105t193.5 29.5q33 0 67 -4t65 -11.5t56.5 -17.5t41.5 -21v-118q-13 8 -36 18.5t-53 19.5t-64.5 15.5t-70.5 6.5q-54 0 -98 -9t-79 -32.5t-61 -63.5t-43.5 -102.5t-26 -150
t-8.5 -204.5q0 -174 13.5 -284t46 -172t86.5 -85t136 -23q54 0 98 8.5t76 19.5v496h-248v108h372v-678q-18 -10 -50.5 -21t-73 -20.5t-85 -16t-87.5 -6.5z" />
    <glyph glyph-name="H" unicode="H" horiz-adv-x="1028" 
d="M742 614h-456v-614h-124v1300h124v-578h456v578h124v-1300h-124v614z" />
    <glyph glyph-name="I" unicode="I" horiz-adv-x="448" 
d="M162 1300h124v-1300h-124v1300z" />
    <glyph glyph-name="J" unicode="J" horiz-adv-x="660" 
d="M190 -24q-29 0 -56 3.5t-51 9t-43 12t-30 13.5v118q10 -6 29.5 -13.5t43.5 -14.5t51.5 -11.5t53.5 -4.5q41 0 77 8t62.5 35t41.5 77t15 134v958h126v-972q0 -95 -19.5 -162t-59.5 -109t-100 -61.5t-141 -19.5z" />
    <glyph glyph-name="K" unicode="K" horiz-adv-x="894" 
d="M162 1300h124v-608l436 608h146l-464 -636l490 -664h-156l-452 626v-626h-124v1300z" />
    <glyph glyph-name="L" unicode="L" horiz-adv-x="720" 
d="M162 1300h124v-1192h408v-108h-532v1300z" />
    <glyph glyph-name="M" unicode="M" horiz-adv-x="1190" 
d="M162 1300h152l282 -734l284 734h150v-1300h-118v754q0 112 4 208t10 168l-278 -722h-106l-276 720q5 -72 9.5 -167t4.5 -207v-754h-118v1300z" />
    <glyph glyph-name="N" unicode="N" horiz-adv-x="1032" 
d="M162 1300h142l464 -1114q-6 66 -10 146.5t-4 163.5v804h118v-1300h-144l-466 1114q8 -66 13 -147.5t5 -162.5v-804h-118v1300z" />
    <glyph glyph-name="O" unicode="O" horiz-adv-x="968" 
d="M484 -24q-103 0 -174.5 31t-116.5 108t-65 207t-20 328q0 196 21 325.5t66 207t116.5 109.5t172.5 32q103 0 174.5 -31t116.5 -108t65 -207t20 -328q0 -197 -21 -326.5t-66 -207t-116.5 -109t-172.5 -31.5zM484 86q70 0 117.5 25.5t76 89.5t40.5 173t12 276t-12 276
t-40.5 173t-76 89.5t-117.5 25.5q-71 0 -118 -25.5t-75.5 -89.5t-40.5 -173t-12 -276t12 -276t40.5 -173t75.5 -89.5t118 -25.5z" />
    <glyph glyph-name="P" unicode="P" horiz-adv-x="892" 
d="M162 1300h252q93 0 166.5 -18.5t124.5 -64t78 -122.5t27 -193q0 -115 -27.5 -191.5t-79 -123t-125 -66t-164.5 -19.5h-128v-502h-124v1300zM286 1192v-582h110q66 0 118.5 10.5t89.5 42t56.5 88.5t19.5 151q0 93 -19.5 150t-56.5 88t-89.5 41.5t-118.5 10.5h-110z" />
    <glyph glyph-name="Q" unicode="Q" horiz-adv-x="968" 
d="M484 -24q-103 0 -174.5 31t-116.5 108t-65 207t-20 328q0 196 21 325.5t66 207t116.5 109.5t172.5 32q103 0 174.5 -31t116.5 -108t65 -207t20 -328q0 -111 -6.5 -200t-20 -159t-35 -122t-50.5 -89l106 -120l-78 -64l-104 120q-39 -21 -85.5 -30.5t-102.5 -9.5zM484 86
q32 0 58.5 4t49.5 16l-104 120l78 68l102 -118q34 61 48 176t14 298q0 167 -12 276t-40.5 173t-76 89.5t-117.5 25.5q-71 0 -118 -25.5t-75.5 -89.5t-40.5 -173t-12 -276t12 -276t40.5 -173t75.5 -89.5t118 -25.5z" />
    <glyph glyph-name="R" unicode="R" horiz-adv-x="926" 
d="M162 1300h248q92 0 167.5 -17.5t129 -60t82.5 -114t29 -178.5q0 -87 -20.5 -148t-55 -101.5t-79 -64t-91.5 -36.5l282 -580h-140l-262 560h-166v-560h-124v1300zM286 1192v-524h110q66 0 120 9.5t92 37.5t59 79.5t21 135.5t-21 135.5t-59 79.5t-92 37.5t-120 9.5h-110z
" />
    <glyph glyph-name="S" unicode="S" horiz-adv-x="728" 
d="M294 -24q-80 0 -136 14t-82 28v118q14 -8 35.5 -16t48.5 -15.5t58 -12t64 -4.5q55 0 100 11t76.5 36t48.5 65t17 98q0 46 -12 82t-33 67.5t-50 60t-63 58.5l-104 88q-39 33 -73.5 67.5t-60 75t-40 90t-14.5 113.5q0 78 25 138.5t71.5 101.5t113.5 62.5t152 21.5
q62 0 112 -12t76 -26v-118q-27 14 -74.5 29t-103.5 15q-55 0 -99 -11t-75.5 -36t-48.5 -65t-17 -98q0 -46 11.5 -82t32.5 -67.5t50 -60t64 -58.5l102 -88q39 -33 73.5 -67.5t60.5 -75t41 -90t15 -113.5q0 -78 -25 -138.5t-71.5 -101.5t-113.5 -62.5t-152 -21.5z" />
    <glyph glyph-name="T" unicode="T" horiz-adv-x="718" 
d="M12 1300h694v-108h-284v-1192h-126v1192h-284v108z" />
    <glyph glyph-name="U" unicode="U" horiz-adv-x="1012" 
d="M506 -24q-90 0 -156.5 21.5t-110.5 69.5t-65.5 125.5t-21.5 189.5v918h124v-908q0 -87 13 -145.5t41 -94.5t71.5 -51t104.5 -15t104.5 15t71.5 51t41 94.5t13 145.5v908h124v-918q0 -110 -22 -187.5t-66.5 -126t-111 -70.5t-154.5 -22z" />
    <glyph glyph-name="V" unicode="V" horiz-adv-x="844" 
d="M16 1300h130l184 -716q14 -56 28 -114.5t26.5 -115t22.5 -109t17 -95.5q7 43 17 95.5t22 109t26 115t29 114.5l184 716h128l-342 -1300h-132z" />
    <glyph glyph-name="W" unicode="W" horiz-adv-x="1234" 
d="M52 1300h126l114 -624q10 -53 20.5 -121t20 -140t18 -141.5t13.5 -125.5q6 56 15 125.5t19.5 141t21 139.5t20.5 122l114 624h128l114 -624q10 -54 20.5 -122.5t21 -140.5t19 -141.5t13.5 -125.5q6 56 14.5 126t18.5 142t20.5 140.5t20.5 121.5l116 624h122l-248 -1300
h-130l-116 624q-10 51 -20 116t-19.5 134t-18 137t-14.5 125q-6 -57 -14.5 -124.5t-18 -136.5t-19.5 -134t-20 -117l-114 -624h-130z" />
    <glyph glyph-name="X" unicode="X" horiz-adv-x="882" 
d="M370 676l-312 624h140l160 -330q10 -20 21 -45t22.5 -51t22 -51.5t18.5 -46.5q7 21 17.5 46.5t21.5 51.5t22.5 51t22.5 45l162 330h136l-314 -624l340 -676h-138l-190 380q-11 21 -22.5 46t-22.5 51t-21.5 51t-17.5 46q-8 -21 -18.5 -46.5t-22 -51.5t-22.5 -51t-21 -45
l-186 -380h-136z" />
    <glyph glyph-name="Y" unicode="Y" horiz-adv-x="838" 
d="M356 546l-362 754h138l172 -368q33 -74 64 -145.5t52 -134.5q21 63 52 134.5t66 145.5l170 368h136l-362 -754v-546h-126v546z" />
    <glyph glyph-name="Z" unicode="Z" horiz-adv-x="768" 
d="M80 88l458 1104h-448v108h588v-90l-460 -1102h470v-108h-608v88z" />
    <glyph glyph-name="bracketleft" unicode="[" horiz-adv-x="552" 
d="M182 1300h316v-92h-204v-1416h204v-92h-316v1600z" />
    <glyph glyph-name="backslash" unicode="\" horiz-adv-x="448" 
d="M0 1300h112l414 -1600h-112z" />
    <glyph glyph-name="bracketright" unicode="]" horiz-adv-x="552" 
d="M54 -208h204v1416h-204v92h318v-1600h-318v92z" />
    <glyph glyph-name="asciicircum" unicode="^" horiz-adv-x="692" 
d="M60 894l256 406h62l254 -406l-88 -54l-198 330l-198 -330z" />
    <glyph glyph-name="underscore" unicode="_" horiz-adv-x="708" 
d="M10 -156h688v-104h-688v104z" />
    <glyph glyph-name="grave" unicode="`" 
d="M-190 1288h152l116 -176h-110z" />
    <glyph glyph-name="a" unicode="a" horiz-adv-x="818" 
d="M582 60q-45 -39 -100.5 -61.5t-121.5 -22.5q-75 0 -125.5 22t-81.5 63.5t-44 100t-13 132.5q0 73 13.5 131.5t45 100t81.5 64t124 22.5q59 0 110.5 -20.5t95.5 -53.5v130q0 61 -10.5 108t-35 78.5t-66 47.5t-102.5 16q-36 0 -69.5 -7t-61.5 -17.5t-49.5 -22t-33.5 -19.5
v114q13 9 35.5 19t51.5 19t64.5 14.5t76.5 5.5q165 0 241.5 -85.5t76.5 -248.5v-690h-86zM382 76q57 0 102.5 19.5t81.5 48.5v300q-36 27 -81.5 46.5t-102.5 19.5q-47 0 -78.5 -13.5t-50.5 -40.5t-27 -67.5t-8 -94.5q0 -55 8 -96t27 -68t50.5 -40.5t78.5 -13.5z" />
    <glyph glyph-name="b" unicode="b" horiz-adv-x="860" 
d="M142 1300h120v-340q36 29 83 46.5t101 17.5q81 0 139 -23.5t95 -82.5t54.5 -160.5t17.5 -257.5q0 -154 -18.5 -255t-56 -161t-94.5 -84t-135 -24q-60 0 -113.5 18.5t-94.5 53.5l-10 -48h-88v1300zM426 918q-48 0 -90 -15.5t-74 -38.5v-730q32 -23 74 -37.5t90 -14.5
q58 0 97 19t62.5 66.5t33 128t9.5 204.5t-9.5 204.5t-33 128t-62.5 66.5t-97 19z" />
    <glyph glyph-name="c" unicode="c" horiz-adv-x="678" 
d="M428 -24q-82 0 -142 25.5t-99.5 86.5t-59 161.5t-19.5 250.5q0 160 24.5 262t68.5 160.5t104.5 80t132.5 21.5q60 0 100.5 -10.5t67.5 -25.5v-114q-10 7 -27 14.5t-38 13.5t-44.5 10t-46.5 4q-55 0 -96 -17t-68 -63.5t-40.5 -127.5t-13.5 -208q0 -125 12 -205.5t37 -127
t64 -65t93 -18.5q28 0 54.5 4.5t49.5 11t41.5 14.5t30.5 16v-114q-27 -15 -77 -27.5t-109 -12.5z" />
    <glyph glyph-name="d" unicode="d" horiz-adv-x="860" 
d="M618 52q-41 -36 -93 -56t-111 -20q-81 0 -139 23.5t-95 82.5t-54.5 160.5t-17.5 257.5q0 154 18 255t55.5 161t95 84t135.5 24q54 0 100 -16.5t84 -43.5v336h120v-1300h-86zM434 82q47 0 88.5 15.5t73.5 36.5v730q-32 23 -73.5 38.5t-88.5 15.5q-59 0 -97.5 -19
t-62 -66.5t-33 -128t-9.5 -204.5t9.5 -204.5t33 -128t62 -66.5t97.5 -19z" />
    <glyph glyph-name="e" unicode="e" horiz-adv-x="812" 
d="M450 -24q-89 0 -153.5 24.5t-106.5 84.5t-62 160.5t-20 252.5q0 154 18.5 255.5t56 161.5t95 84.5t136.5 24.5q80 0 138 -24t95.5 -83.5t55 -161t17.5 -255.5v-28h-490q1 -119 14.5 -194t41.5 -118.5t72 -59.5t106 -16q33 0 66 6t62 15t51.5 19t34.5 18v-114
q-13 -8 -35 -17.5t-52 -17t-65.5 -12.5t-75.5 -5zM414 920q-51 0 -85.5 -18t-55.5 -58.5t-31 -106.5t-12 -163h368q-2 97 -12.5 163t-31.5 106.5t-55.5 58.5t-84.5 18z" />
    <glyph glyph-name="f" unicode="f" horiz-adv-x="538" 
d="M32 942h158v138q0 71 19.5 114.5t51.5 67t74 31t87 7.5h84v-102h-56q-37 0 -63.5 -4.5t-43.5 -18.5t-25 -40t-8 -69v-124h196v-104h-196v-838h-120v838h-158v104z" />
    <glyph glyph-name="g" unicode="g" horiz-adv-x="860" 
d="M400 -324q-38 0 -73.5 4.5t-65 11.5t-52 16t-35.5 18v116q13 -9 36 -19t51.5 -19t61.5 -14.5t65 -5.5q49 0 87.5 9.5t65.5 32.5t41 62.5t14 99.5v100q-38 -29 -83.5 -45.5t-98.5 -16.5q-81 0 -139 22.5t-95 79.5t-54.5 153.5t-17.5 244.5q0 145 18 241t55.5 153t95 80.5
t135.5 23.5q59 0 112 -19.5t94 -54.5l12 50h86v-1038q0 -87 -27 -142.5t-71.5 -87.5t-101.5 -44t-116 -12zM434 132q47 0 88.5 15.5t73.5 38.5v678q-32 23 -73.5 38.5t-88.5 15.5q-59 0 -97.5 -18.5t-62 -63.5t-33 -120.5t-9.5 -189.5q0 -115 9.5 -191t33 -121t62 -63.5
t97.5 -18.5z" />
    <glyph glyph-name="h" unicode="h" horiz-adv-x="864" 
d="M142 1300h120v-344q41 33 91.5 50.5t104.5 17.5q79 0 131.5 -27t84 -72t45 -105t13.5 -126v-694h-120v674q0 52 -8 97t-28.5 78t-55.5 52t-88 19q-51 0 -94 -17t-76 -41v-862h-120v1300z" />
    <glyph glyph-name="i" unicode="i" horiz-adv-x="404" 
d="M202 1128q-39 0 -60.5 21t-21.5 57t21.5 57t60.5 21q41 0 61.5 -21t20.5 -57t-20.5 -57t-61.5 -21zM142 1000h120v-1000h-120v1000z" />
    <glyph glyph-name="j" unicode="j" horiz-adv-x="404" 
d="M202 1128q-39 0 -60.5 21t-21.5 57t21.5 57t60.5 21q41 0 61.5 -21t20.5 -57t-20.5 -57t-61.5 -21zM-6 -198h36q36 0 58 6.5t34 20.5t16 35.5t4 51.5v1084h120v-1108q0 -59 -16 -96.5t-43.5 -58.5t-64.5 -29t-80 -8h-64v102z" />
    <glyph glyph-name="k" unicode="k" horiz-adv-x="760" 
d="M142 1300h120v-746l308 446h138l-334 -474l368 -526h-146l-334 490v-490h-120v1300z" />
    <glyph glyph-name="l" unicode="l" horiz-adv-x="450" 
d="M336 -8q-42 0 -79 8t-65 29t-44 58.5t-16 96.5v1116h120v-1092q0 -30 4.5 -51.5t16.5 -35.5t34 -20.5t57 -6.5h48v-102h-76v0z" />
    <glyph glyph-name="m" unicode="m" horiz-adv-x="1334" 
d="M142 1000h88l12 -56q44 39 99.5 59.5t114.5 20.5q80 0 133 -27.5t85 -74.5q47 50 113 76t131 26q82 0 137 -27t87.5 -72t46 -105t13.5 -126v-694h-120v674q0 52 -8 97t-28.5 78t-55.5 52t-88 19q-54 0 -104 -22t-86 -54q11 -35 15.5 -73t4.5 -77v-694h-120v674
q0 52 -8 97t-28.5 78t-55.5 52t-88 19q-51 0 -94 -17t-76 -41v-862h-120v1000z" />
    <glyph glyph-name="n" unicode="n" horiz-adv-x="864" 
d="M142 1000h88l12 -56q44 39 99.5 59.5t114.5 20.5q79 0 132.5 -27t85 -72t45 -105t13.5 -126v-694h-120v674q0 52 -8 97t-28.5 78t-55.5 52t-88 19q-51 0 -94 -17t-76 -41v-862h-120v1000z" />
    <glyph glyph-name="o" unicode="o" horiz-adv-x="850" 
d="M424 -24q-86 0 -146 25t-97.5 85t-55 161t-17.5 253q0 151 18 251.5t56.5 161t98.5 86t143 25.5q86 0 146.5 -25t98.5 -85t55.5 -161t17.5 -253q0 -151 -18 -251.5t-57 -161t-99 -86t-144 -25.5zM424 82q57 0 94.5 19.5t60 67.5t32 128.5t9.5 202.5q0 121 -9.5 201.5
t-32 128.5t-60 68t-94.5 20q-56 0 -93.5 -20t-60 -68t-31.5 -128.5t-9 -201.5q0 -122 9 -202.5t31.5 -128.5t60 -67.5t93.5 -19.5z" />
    <glyph glyph-name="p" unicode="p" horiz-adv-x="860" 
d="M142 1000h88l12 -52q41 35 93 55.5t111 20.5q81 0 139 -23.5t95 -82.5t54.5 -160.5t17.5 -257.5q0 -154 -18.5 -255t-56 -161t-94.5 -84t-135 -24q-54 0 -101 16.5t-85 43.5v-336h-120v1300zM426 918q-48 0 -90 -15.5t-74 -38.5v-730q32 -23 74 -37.5t90 -14.5
q58 0 97 19t62.5 66.5t33 128t9.5 204.5t-9.5 204.5t-33 128t-62.5 66.5t-97 19z" />
    <glyph glyph-name="q" unicode="q" horiz-adv-x="860" 
d="M596 38q-38 -29 -83.5 -45.5t-98.5 -16.5q-81 0 -139 23.5t-95 82.5t-54.5 160.5t-17.5 257.5q0 154 18 255t55.5 161t95 84t135.5 24q59 0 112 -19.5t94 -54.5l12 50h86v-1300h-120v338zM434 82q47 0 88.5 15.5t73.5 36.5v730q-32 23 -73.5 38.5t-88.5 15.5
q-59 0 -97.5 -19t-62 -66.5t-33 -128t-9.5 -204.5t9.5 -204.5t33 -128t62 -66.5t97.5 -19z" />
    <glyph glyph-name="r" unicode="r" horiz-adv-x="582" 
d="M142 1000h88l16 -78q56 41 124.5 66.5t163.5 25.5v-118q-86 0 -151 -12.5t-121 -41.5v-842h-120v1000z" />
    <glyph glyph-name="s" unicode="s" horiz-adv-x="694" 
d="M304 -24q-71 0 -129 16t-85 36v116q13 -9 33.5 -19.5t47.5 -19.5t58.5 -15t66.5 -6q99 0 143.5 41.5t44.5 112.5q0 66 -31.5 109t-82.5 75l-122 76q-81 50 -117.5 114.5t-36.5 141.5q0 64 20.5 114t59 84.5t93.5 53t125 18.5q65 0 106 -11t70 -25v-114q-10 7 -26.5 14.5
t-38 13.5t-47 10t-52.5 4q-97 0 -142.5 -41.5t-45.5 -112.5q0 -33 8.5 -59t24 -47t36.5 -38.5t47 -33.5l124 -80q83 -53 116.5 -118t33.5 -140q0 -126 -76 -198t-226 -72z" />
    <glyph glyph-name="t" unicode="t" horiz-adv-x="560" 
d="M34 1000h142v300h120v-300h204v-102h-204v-672q0 -43 8 -69t25 -40t43.5 -18.5t63.5 -4.5h44v-102h-74q-44 0 -85.5 7.5t-73.5 31t-51.5 67t-19.5 114.5v686h-142v102z" />
    <glyph glyph-name="u" unicode="u" horiz-adv-x="856" 
d="M614 52q-44 -38 -96.5 -57t-109.5 -19q-80 0 -133 27t-84.5 72t-45 105t-13.5 126v694h120v-674q0 -54 8 -99t28.5 -78t55.5 -51t88 -18q50 0 89.5 15.5t72.5 38.5v866h118v-1000h-86z" />
    <glyph glyph-name="v" unicode="v" horiz-adv-x="748" 
d="M38 1000h124l152 -582q8 -32 17 -67t17 -71t15.5 -72t12.5 -68q4 32 11 68t15 72t17 71t17 67l154 582h120l-278 -1000h-116z" />
    <glyph glyph-name="w" unicode="w" horiz-adv-x="1200" 
d="M60 1000h120l128 -576q14 -65 27 -143.5t21 -146.5q9 68 23 146.5t29 143.5l130 576h126l130 -576q7 -32 14.5 -69t14 -74.5t12 -75t9.5 -71.5q9 68 23 146.5t29 143.5l128 576h116l-234 -1000h-126l-130 576q-8 32 -15 69t-13.5 74.5t-12 75t-9.5 71.5
q-4 -34 -9.5 -71.5t-12 -75t-14 -74.5t-14.5 -69l-132 -576h-124z" />
    <glyph glyph-name="x" unicode="x" horiz-adv-x="768" 
d="M318 520l-252 480h134l138 -278q15 -32 26.5 -62t19.5 -54q8 24 20.5 54t29.5 62l136 278h130l-252 -480l272 -520h-136l-148 300q-18 36 -33 69.5t-23 62.5q-8 -29 -22 -62.5t-32 -69.5l-148 -300h-130z" />
    <glyph glyph-name="y" unicode="y" horiz-adv-x="748" 
d="M312 8l-274 992h124l152 -582q8 -32 17 -67t17 -71t15.5 -72t12.5 -68q4 32 11 68t15 72t17 71t17 67l154 582h120l-362 -1300h-124z" />
    <glyph glyph-name="z" unicode="z" horiz-adv-x="720" 
d="M92 78l398 820h-388v102h528v-78l-400 -820h408v-102h-546v78z" />
    <glyph glyph-name="braceleft" unicode="{" horiz-adv-x="536" 
d="M426 -300q-72 0 -119 11.5t-75 41t-39 80.5t-11 131v334q0 46 -11 77.5t-31 50t-49 26.5t-65 8v80q36 0 65 8t49 26.5t31 49.5t11 78v334q0 79 11 130.5t39 81t75 41t119 11.5h56v-92h-34q-50 0 -80.5 -7t-47 -28t-21.5 -58.5t-5 -98.5v-336q0 -77 -31 -119.5t-79 -60.5
q48 -18 79 -61.5t31 -118.5v-336q0 -61 5 -98.5t21.5 -58.5t47 -28t80.5 -7h34v-92h-56v0z" />
    <glyph glyph-name="bar" unicode="|" horiz-adv-x="434" 
d="M162 1300h112v-1600h-112v1600z" />
    <glyph glyph-name="braceright" unicode="}" horiz-adv-x="536" 
d="M54 -208h36q49 0 79.5 7t47 28t22 58.5t5.5 98.5v336q0 75 30 118.5t78 61.5q-48 18 -78 60.5t-30 119.5v336q0 61 -5.5 98.5t-22 58.5t-47 28t-79.5 7h-36v92h56q72 0 119.5 -11.5t75.5 -41t39.5 -81t11.5 -130.5v-334q0 -47 10.5 -78t30.5 -49.5t49 -26.5t66 -8v-80
q-37 0 -66 -8t-49 -26.5t-30.5 -50t-10.5 -77.5v-334q0 -80 -11.5 -131t-39.5 -80.5t-75.5 -41t-119.5 -11.5h-56v92z" />
    <glyph glyph-name="asciitilde" unicode="~" horiz-adv-x="672" 
d="M452 1138q-39 0 -71 12.5t-60.5 27.5t-55.5 27.5t-57 12.5q-39 0 -69.5 -18t-48.5 -36v98q7 10 20.5 21t30.5 20t37 15t42 6q39 0 70.5 -12.5t60 -27.5t56 -27.5t57.5 -12.5q39 0 69.5 19t48.5 37v-100q-8 -9 -21 -20t-30 -20t-37 -15.5t-42 -6.5z" />
    <glyph glyph-name="Euro" unicode="&#x20ac;" horiz-adv-x="914" 
d="M332 552h392v-102h-390q8 -107 30 -176.5t59 -111t89 -58t120 -16.5q33 0 66 5.5t62.5 14t52.5 17.5t37 17v-118q-14 -9 -40.5 -17.5t-58 -15.5t-65 -11t-62.5 -4q-99 0 -173.5 25t-125.5 81.5t-80 146.5t-37 221h-148v102h144v98v98h-144v102h148q8 130 37 220t80 146.5
t125.5 82t173.5 25.5q29 0 62.5 -4t65 -11t58 -15.5t40.5 -17.5v-118q-14 8 -37 17.5t-52.5 17.5t-62.5 13.5t-66 5.5q-68 0 -120 -16.5t-89 -58t-59 -111.5t-30 -176h390v-102h-392v-98v-98z" />
    <glyph glyph-name="quotesinglbase" unicode="&#x201a;" horiz-adv-x="296" 
d="M68 -278q14 45 22 91t8 73q0 30 -4.5 54.5t-10.5 45.5t-10.5 39t-4.5 35q0 41 22.5 61.5t57.5 20.5q44 0 62 -26.5t18 -67.5q0 -26 -3.5 -61.5t-11.5 -78t-20.5 -90t-30.5 -96.5h-94v0z" />
    <glyph glyph-name="florin" unicode="&#x192;" horiz-adv-x="788" 
d="M12 718h230v182q0 424 328 424q62 0 103 -10t67 -22v-114q-10 6 -26 12.5t-36 12.5t-43 9.5t-47 3.5q-68 0 -111 -22t-68.5 -64.5t-35 -105t-9.5 -144.5v-162h316v-106h-316v-912h-122v912h-230v106z" />
    <glyph glyph-name="quotedblbase" unicode="&#x201e;" horiz-adv-x="560" 
d="M68 -278q14 45 22 91t8 73q0 30 -4.5 54.5t-10.5 45.5t-10.5 39t-4.5 35q0 41 22.5 61.5t57.5 20.5q44 0 62 -26.5t18 -67.5q0 -26 -3.5 -61.5t-11.5 -78t-20.5 -90t-30.5 -96.5h-94v0zM332 -278q14 45 22 91t8 73q0 30 -4.5 54.5t-10.5 45.5t-10.5 39t-4.5 35
q0 41 22.5 61.5t57.5 20.5q44 0 62 -26.5t18 -67.5q0 -26 -3.5 -61.5t-11.5 -78t-20.5 -90t-30.5 -96.5h-94v0z" />
    <glyph glyph-name="ellipsis" unicode="&#x2026;" horiz-adv-x="828" 
d="M138 -20q-39 0 -59.5 22t-20.5 58q0 38 20.5 60t59.5 22t59.5 -22t20.5 -60q0 -36 -20.5 -58t-59.5 -22zM414 -20q-39 0 -59.5 22t-20.5 58q0 38 20.5 60t59.5 22t59.5 -22t20.5 -60q0 -36 -20.5 -58t-59.5 -22zM690 -20q-39 0 -59.5 22t-20.5 58q0 38 20.5 60t59.5 22
t59.5 -22t20.5 -60q0 -36 -20.5 -58t-59.5 -22z" />
    <glyph glyph-name="dagger" unicode="&#x2020;" horiz-adv-x="530" 
d="M216 1054h-156v88h156v158h96v-158h158v-88h-158v-428h-96v428z" />
    <glyph glyph-name="daggerdbl" unicode="&#x2021;" horiz-adv-x="590" 
d="M246 758h-156v88h156v208h-156v88h156v158h96v-158h158v-88h-158v-208h158v-88h-158v-428h-96v428z" />
    <glyph glyph-name="circumflex" unicode="&#x2c6;" 
d="M-204 1182l204 116l204 -116v-80l-204 76l-204 -76v80z" />
    <glyph glyph-name="perthousand" unicode="&#x2030;" horiz-adv-x="1598" 
d="M1296 -24q-116 0 -169 70.5t-53 215.5q0 143 54.5 214.5t167.5 71.5q116 0 170 -70.5t54 -215.5q0 -286 -224 -286zM1296 68q35 0 58.5 12.5t37 36.5t19 60.5t5.5 84.5t-5.5 84.5t-19 60.5t-37 36.5t-58.5 12.5t-58 -12.5t-36.5 -36.5t-18.5 -60.5t-5 -84.5t5 -84.5
t18.5 -60.5t36.5 -36.5t58 -12.5zM300 752q-116 0 -169 70.5t-53 215.5q0 143 54.5 214.5t167.5 71.5q118 0 171 -70.5t53 -215.5q0 -286 -224 -286zM300 844q35 0 58.5 12.5t37 36.5t19 60.5t5.5 84.5t-5.5 84.5t-19 60.5t-37 36.5t-58.5 12.5q-69 0 -93.5 -48.5
t-24.5 -145.5t24.5 -145.5t93.5 -48.5zM766 -24q-116 0 -170 70.5t-54 215.5q0 143 54.5 214.5t169.5 71.5q116 0 169 -70.5t53 -215.5q0 -286 -222 -286zM766 68q69 0 93.5 48.5t24.5 145.5t-24.5 145.5t-93.5 48.5q-35 0 -58.5 -12.5t-37 -36.5t-19 -60.5t-5.5 -84.5
t5.5 -84.5t19 -60.5t37 -36.5t58.5 -12.5zM862 1300h110l-768 -1300h-110z" />
    <glyph glyph-name="Scaron" unicode="&#x160;" horiz-adv-x="728" 
d="M294 -24q-80 0 -136 14t-82 28v118q14 -8 35.5 -16t48.5 -15.5t58 -12t64 -4.5q55 0 100 11t76.5 36t48.5 65t17 98q0 46 -12 82t-33 67.5t-50 60t-63 58.5l-104 88q-39 33 -73.5 67.5t-60 75t-40 90t-14.5 113.5q0 78 25 138.5t71.5 101.5t113.5 62.5t152 21.5
q62 0 112 -12t76 -26v-118q-27 14 -74.5 29t-103.5 15q-55 0 -99 -11t-75.5 -36t-48.5 -65t-17 -98q0 -46 11.5 -82t32.5 -67.5t50 -60t64 -58.5l102 -88q39 -33 73.5 -67.5t60.5 -75t41 -90t15 -113.5q0 -78 -25 -138.5t-71.5 -101.5t-113.5 -62.5t-152 -21.5zM166 1592
l204 -76l204 76v-80l-204 -116l-204 116v80z" />
    <glyph glyph-name="guilsinglleft" unicode="&#x2039;" horiz-adv-x="388" 
d="M42 600l182 322h102l-160 -322l160 -322h-102z" />
    <glyph glyph-name="OE" unicode="&#x152;" horiz-adv-x="1340" 
d="M518 0q-114 0 -192.5 30.5t-126.5 105.5t-69.5 200t-21.5 314q0 187 21.5 312t69.5 200t126.5 106.5t192.5 31.5h720v-108h-430v-468h346v-108h-346v-508h430v-108h-720zM238 650q0 -111 6.5 -195t21 -144t37 -99.5t55 -62.5t74.5 -32t96 -9h156v1084h-156
q-53 0 -95.5 -9t-75 -32t-55 -62.5t-37 -99.5t-21 -144t-6.5 -195z" />
    <glyph glyph-name="Zcaron" unicode="&#x17d;" horiz-adv-x="768" 
d="M80 88l458 1104h-448v108h588v-90l-460 -1102h470v-108h-608v88zM180 1592l204 -76l204 76v-80l-204 -116l-204 116v80z" />
    <glyph glyph-name="quoteleft" unicode="&#x2018;" horiz-adv-x="336" 
d="M168 882q-44 0 -62 26.5t-18 67.5q0 25 3.5 60.5t11.5 77.5t20.5 89.5t30.5 96.5h94q-14 -45 -22 -91t-8 -73q0 -30 4.5 -54.5t10.5 -45.5t10.5 -39t4.5 -35q0 -41 -22.5 -60.5t-57.5 -19.5z" />
    <glyph glyph-name="quoteright" unicode="&#x2019;" horiz-adv-x="336" 
d="M88 900q14 45 22 91t8 73q0 30 -4.5 54.5t-10.5 45.5t-10.5 39t-4.5 35q0 41 22.5 61.5t57.5 20.5q44 0 62 -26.5t18 -67.5q0 -26 -3.5 -61.5t-11.5 -78t-20.5 -90t-30.5 -96.5h-94v0z" />
    <glyph glyph-name="quotedblleft" unicode="&#x201c;" horiz-adv-x="598" 
d="M168 882q-44 0 -62 26.5t-18 67.5q0 25 3.5 60.5t11.5 77.5t20.5 89.5t30.5 96.5h94q-14 -45 -22 -91t-8 -73q0 -30 4.5 -54.5t10.5 -45.5t10.5 -39t4.5 -35q0 -41 -22.5 -60.5t-57.5 -19.5zM430 882q-44 0 -62 26.5t-18 67.5q0 25 3.5 60.5t11.5 77.5t20.5 89.5
t30.5 96.5h94q-14 -45 -22 -91t-8 -73q0 -30 4.5 -54.5t10.5 -45.5t10.5 -39t4.5 -35q0 -41 -22.5 -60.5t-57.5 -19.5z" />
    <glyph glyph-name="quotedblright" unicode="&#x201d;" horiz-adv-x="598" 
d="M88 900q14 45 22 91t8 73q0 30 -4.5 54.5t-10.5 45.5t-10.5 39t-4.5 35q0 41 22.5 61.5t57.5 20.5q44 0 62 -26.5t18 -67.5q0 -26 -3.5 -61.5t-11.5 -78t-20.5 -90t-30.5 -96.5h-94v0zM348 900q14 45 22 91t8 73q0 30 -4.5 54.5t-10.5 45.5t-10.5 39t-4.5 35
q0 41 22.5 61.5t57.5 20.5q44 0 62 -26.5t18 -67.5q0 -26 -3.5 -61.5t-11.5 -78t-20.5 -90t-30.5 -96.5h-94v0z" />
    <glyph glyph-name="bullet" unicode="&#x2022;" horiz-adv-x="482" 
d="M240 480q-78 0 -123 44.5t-45 125.5q0 80 45 125t123 45q80 0 125 -45t45 -125q0 -81 -45 -125.5t-125 -44.5z" />
    <glyph glyph-name="endash" unicode="&#x2013;" horiz-adv-x="868" 
d="M90 554h688v-104h-688v104z" />
    <glyph glyph-name="emdash" unicode="&#x2014;" horiz-adv-x="1570" 
d="M90 554h1390v-104h-1390v104z" />
    <glyph glyph-name="tilde" unicode="&#x2dc;" 
d="M88 1114q-35 0 -59 10.5t-44.5 22.5t-41 22.5t-47.5 10.5q-33 0 -59 -14.5t-43 -31.5v88q15 20 46 39t72 19q34 0 58.5 -10.5t45 -22.5t41 -22.5t47.5 -10.5q33 0 59 14.5t43 31.5v-88q-15 -20 -46 -39t-72 -19z" />
    <glyph glyph-name="trademark" unicode="&#x2122;" horiz-adv-x="972" 
d="M466 1300h106l102 -274l102 274h106v-558h-92v240q0 33 1.5 70t4.5 70l-88 -232h-70l-86 230q3 -33 4.5 -69t1.5 -69v-240h-92v558zM10 1300h380v-88h-140v-470h-100v470h-140v88z" />
    <glyph glyph-name="scaron" unicode="&#x161;" horiz-adv-x="694" 
d="M158 1220v78l204 -76l204 76v-78l-204 -118zM304 -24q-71 0 -129 16t-85 36v116q13 -9 33.5 -19.5t47.5 -19.5t58.5 -15t66.5 -6q99 0 143.5 41.5t44.5 112.5q0 66 -31.5 109t-82.5 75l-122 76q-81 50 -117.5 114.5t-36.5 141.5q0 64 20.5 114t59 84.5t93.5 53t125 18.5
q65 0 106 -11t70 -25v-114q-10 7 -26.5 14.5t-38 13.5t-47 10t-52.5 4q-97 0 -142.5 -41.5t-45.5 -112.5q0 -33 8.5 -59t24 -47t36.5 -38.5t47 -33.5l124 -80q83 -53 116.5 -118t33.5 -140q0 -126 -76 -198t-226 -72z" />
    <glyph glyph-name="guilsinglright" unicode="&#x203a;" horiz-adv-x="388" 
d="M222 600l-160 322h102l182 -322l-182 -322h-102z" />
    <glyph glyph-name="oe" unicode="&#x153;" horiz-adv-x="1324" 
d="M424 -24q-86 0 -146 25t-97.5 85t-55 161t-17.5 253q0 151 18 251.5t56 161t98 86t144 25.5q100 0 162 -37t94 -125q31 90 91 126t153 36q81 0 139 -24t95.5 -83.5t55.5 -161t18 -255.5v-28h-490q1 -119 14.5 -194t41.5 -118.5t72 -59.5t106 -16q33 0 66 6t62 15t51.5 19
t34.5 18v-114q-13 -8 -35.5 -17.5t-52.5 -17t-65.5 -12.5t-74.5 -5q-55 0 -99 9t-78.5 29t-60 52.5t-42.5 79.5q-32 -93 -95 -131.5t-163 -38.5zM424 82q57 0 94.5 19.5t59.5 67.5t31 128.5t9 202.5q0 121 -9 201.5t-31 128.5t-59.5 68t-94.5 20q-56 0 -93.5 -20t-60 -68
t-31.5 -128.5t-9 -201.5q0 -122 9 -202.5t31.5 -128.5t60 -67.5t93.5 -19.5zM924 920q-50 0 -84 -18t-55 -58.5t-31 -106.5t-12 -163h366q-2 97 -12 163t-31 106.5t-55.5 58.5t-85.5 18z" />
    <glyph glyph-name="zcaron" unicode="&#x17e;" horiz-adv-x="720" 
d="M162 1220v78l204 -76l204 76v-78l-204 -118zM92 78l398 820h-388v102h528v-78l-400 -820h408v-102h-546v78z" />
    <glyph glyph-name="Ydieresis" unicode="&#x178;" horiz-adv-x="838" 
d="M356 546l-362 754h138l172 -368q33 -74 64 -145.5t52 -134.5q21 63 52 134.5t66 145.5l170 368h136l-362 -754v-546h-126v546zM262 1412q-38 0 -57 20.5t-19 55.5t19 54.5t57 19.5q36 0 55 -19.5t19 -54.5t-19 -55.5t-55 -20.5zM578 1412q-36 0 -55 20.5t-19 55.5
t19 54.5t55 19.5q38 0 57 -19.5t19 -54.5t-19 -55.5t-57 -20.5z" />
    <glyph glyph-name="uni00A0" unicode="&#xa0;" horiz-adv-x="400" 
 />
    <glyph glyph-name="exclamdown" unicode="&#xa1;" horiz-adv-x="444" 
d="M222 858q-39 0 -59.5 22t-20.5 60q0 36 20.5 58t59.5 22q38 0 59 -22t21 -58q0 -38 -21 -60t-59 -22zM178 650h88l28 -950h-146z" />
    <glyph glyph-name="cent" unicode="&#xa2;" horiz-adv-x="678" 
d="M356 -18q-63 10 -109.5 42t-77.5 93.5t-46 155.5t-15 227q0 136 18 230t50.5 154t78 90.5t101.5 41.5v184h108v-176q48 -3 83 -12.5t59 -23.5v-114q-10 7 -27 14.5t-38 13.5t-44.5 10t-46.5 4q-55 0 -96 -17t-68 -63.5t-40.5 -127.5t-13.5 -208q0 -125 12 -205.5t37 -127
t64 -65t93 -18.5q28 0 54.5 4.5t49.5 11t41.5 14.5t30.5 16v-114q-23 -12 -62.5 -23.5t-87.5 -14.5v-178h-108v182z" />
    <glyph glyph-name="sterling" unicode="&#xa3;" horiz-adv-x="874" 
d="M70 718h198v176q0 211 81.5 320.5t258.5 109.5q30 0 58.5 -4t52 -10t40.5 -13t25 -13v-116q-10 7 -27 14.5t-39.5 14t-49 11t-54.5 4.5q-62 0 -104 -19.5t-67.5 -61.5t-37 -106.5t-11.5 -154.5v-152h298v-106h-298v-506h390v-106h-714v106h198v506h-198v106z" />
    <glyph glyph-name="currency" unicode="&#xa4;" horiz-adv-x="848" 
d="M612 296q-36 -27 -82.5 -39.5t-105.5 -12.5q-60 0 -106.5 12.5t-81.5 39.5l-110 -112l-76 74l120 120q-26 48 -37 116t-11 156t11 155t37 117l-120 120l76 74l110 -114q69 54 188 54q116 0 188 -54l110 114l74 -74l-120 -120q50 -97 50 -272q0 -178 -50 -272l120 -120
l-74 -74zM424 348q51 0 85 18t55 55t29.5 94t8.5 135t-8.5 135t-29.5 94t-55 55t-85 18t-85 -18t-55 -55t-29.5 -94t-8.5 -135t8.5 -135t29.5 -94t55 -55t85 -18z" />
    <glyph glyph-name="yen" unicode="&#xa5;" horiz-adv-x="898" 
d="M134 644h204l-314 656h138l172 -368q33 -74 63 -152t51 -144h2q21 66 52 144t66 152l170 368h136l-316 -656h220v-102h-266v-160h266v-102h-266v-280h-126v280h-252v102h252v160h-252v102z" />
    <glyph glyph-name="brokenbar" unicode="&#xa6;" horiz-adv-x="434" 
d="M162 302h112v-602h-112v602zM162 1300h112v-602h-112v602z" />
    <glyph glyph-name="section" unicode="&#xa7;" horiz-adv-x="826" 
d="M264 -324q-89 0 -152.5 18t-93.5 36v116q30 -21 73 -35.5t91 -14.5q94 0 140 59t46 155q0 53 -14.5 109.5t-43.5 110.5l-122 234q-25 48 -46 95t-36.5 96t-24.5 102t-9 113q0 118 41 203.5t109 141t156.5 82.5t183.5 27q62 0 118.5 -12.5t85.5 -27.5v-110q-23 14 -53 22
t-69 8q-47 0 -82 -15.5t-58 -43.5t-34.5 -67.5t-11.5 -87.5q0 -53 14.5 -109.5t43.5 -110.5l122 -234q25 -48 46 -95t36.5 -96t24.5 -102t9 -113q0 -118 -41 -203.5t-109 -141t-156.5 -82.5t-183.5 -27zM354 -232q44 7 94 31t92 67.5t70 108t28 153.5q0 88 -27.5 174
t-68.5 164l-120 228q-33 65 -54.5 134.5t-21.5 147.5q0 37 6.5 73t21.5 69t39.5 62t60.5 52q-45 -8 -95 -32t-92 -67.5t-69.5 -108t-27.5 -152.5t27 -174t69 -164l118 -228q35 -65 55.5 -134.5t20.5 -147.5q0 -37 -6.5 -73t-21.5 -69t-39 -62.5t-59 -51.5z" />
    <glyph glyph-name="dieresis" unicode="&#xa8;" 
d="M-158 1118q-38 0 -57 20.5t-19 55.5t19 55.5t57 20.5q36 0 55 -20.5t19 -55.5t-19 -55.5t-55 -20.5zM158 1118q-36 0 -55 20.5t-19 55.5t19 55.5t55 20.5q38 0 57 -20.5t19 -55.5t-19 -55.5t-57 -20.5z" />
    <glyph glyph-name="copyright" unicode="&#xa9;" horiz-adv-x="1130" 
d="M592 270q-67 0 -113.5 18t-75.5 61.5t-42 117t-13 183.5q0 106 13 179t42 117.5t75.5 64t113.5 19.5q21 0 43 -3t42 -7.5t37 -10.5t28 -13v-94q-9 4 -24 10.5t-33.5 12t-39.5 9.5t-43 4q-44 0 -73.5 -11.5t-47 -43t-24.5 -88t-7 -145.5t7 -145.5t24.5 -88t47 -43
t73.5 -11.5t83 12.5t57 23.5v-94q-11 -7 -28 -13t-37 -10.5t-42 -7.5t-43 -3zM566 -24q-131 0 -218.5 32t-141 110t-76 207.5t-22.5 324.5q0 190 22 319.5t74.5 208t140.5 112.5t221 34q130 0 217.5 -32t140.5 -110t75.5 -207.5t22.5 -324.5q0 -191 -22 -320t-74.5 -207.5
t-140 -112.5t-219.5 -34zM566 68q65 0 116.5 9t91 32.5t68 64.5t46 105.5t26 155.5t8.5 215q0 123 -8.5 214.5t-26 156t-46 105.5t-68 64.5t-91 32.5t-116.5 9t-117 -9t-91.5 -32.5t-67.5 -64.5t-46 -105.5t-26 -156t-8 -214.5t8 -214.5t26 -156t46 -105.5t67.5 -64.5
t91 -32.5t117.5 -9z" />
    <glyph glyph-name="ordfeminine" unicode="&#xaa;" horiz-adv-x="676" 
d="M492 528q-33 -29 -79.5 -48.5t-100.5 -19.5q-59 0 -100 18.5t-67.5 53t-38.5 82t-12 106.5q0 58 12 105.5t38.5 82t67.5 53.5t100 19q48 0 89 -15.5t73 -38.5v94q0 49 -8.5 85.5t-28.5 61t-52.5 37t-80.5 12.5q-29 0 -56.5 -6t-50 -14.5t-40 -17.5t-27.5 -16v106
q27 17 76 32.5t112 15.5q134 0 201 -69.5t67 -206.5v-560h-84zM334 556q44 0 78.5 16t61.5 34v228q-27 20 -61.5 35t-78.5 15q-69 0 -97.5 -40.5t-28.5 -123.5t28.5 -123.5t97.5 -40.5zM124 340h462v-98h-462v98z" />
    <glyph glyph-name="guillemotleft" unicode="&#xab;" horiz-adv-x="700" 
d="M42 600l182 322h102l-160 -322l160 -322h-102zM354 600l182 322h102l-160 -322l160 -322h-102z" />
    <glyph glyph-name="logicalnot" unicode="&#xac;" horiz-adv-x="888" 
d="M666 450h-576v104h688v-344h-112v240z" />
    <glyph glyph-name="uni00AD" unicode="&#xad;" horiz-adv-x="612" 
d="M90 710h432v-118h-432v118z" />
    <glyph glyph-name="registered" unicode="&#xae;" horiz-adv-x="864" 
d="M432 380q-98 0 -163 23.5t-104 79t-55 145.5t-16 224q0 131 16.5 221.5t55.5 146t104 80t162 24.5t162.5 -23.5t105 -79t56 -146t16.5 -223.5q0 -131 -17 -221.5t-56.5 -146t-104.5 -80t-162 -24.5zM432 460q69 0 117.5 13.5t78.5 55.5t44 119t14 204t-14 204t-44 119
t-78.5 55.5t-117.5 13.5t-117 -13.5t-78 -55.5t-43.5 -119t-13.5 -204t13.5 -204t43.5 -119t78 -55.5t117 -13.5zM290 1110h122q39 0 71 -8t55 -26.5t35.5 -48.5t12.5 -73q0 -56 -22.5 -88.5t-63.5 -47.5l110 -222h-94l-92 206h-54v-206h-80v514zM370 1032v-156h38
q22 0 39 3t29 11.5t18 23.5t6 40t-6 40.5t-18 24t-29 11t-39 2.5h-38z" />
    <glyph glyph-name="macron" unicode="&#xaf;" 
d="M-220 1244h440v-98h-440v98z" />
    <glyph glyph-name="degree" unicode="&#xb0;" horiz-adv-x="748" 
d="M374 780q-58 0 -106.5 16t-84 49.5t-55.5 84.5t-20 122q0 70 20.5 121.5t56.5 85t84.5 49.5t104.5 16q57 0 105.5 -16t84.5 -49.5t56 -85t20 -121.5q0 -71 -21 -122t-57 -84.5t-84.5 -49.5t-103.5 -16zM374 872q34 0 63.5 9.5t51.5 31t34.5 55.5t12.5 84q0 49 -12.5 83.5
t-34.5 56t-51.5 31t-63.5 9.5q-35 0 -64.5 -9.5t-51 -31t-34 -56t-12.5 -83.5q0 -50 12.5 -84t34 -55.5t51 -31t64.5 -9.5z" />
    <glyph glyph-name="plusminus" unicode="&#xb1;" horiz-adv-x="868" 
d="M90 104h688v-104h-688v104zM90 704h288v290h112v-290h288v-106h-288v-290h-112v290h-288v106z" />
    <glyph glyph-name="twosuperior" unicode="&#xb2;" horiz-adv-x="696" 
d="M116 550q0 67 12.5 115t35 83t53 59.5t67.5 44.5q39 22 71.5 41.5t56.5 43.5t37 55t13 76q0 72 -36.5 110t-123.5 38q-48 0 -89.5 -12t-68.5 -26v104q29 14 74.5 24t89.5 10q74 0 125 -19.5t82.5 -53t45 -78t13.5 -93.5q0 -65 -18 -110.5t-48.5 -79t-71 -59t-84.5 -49.5
q-32 -18 -55 -36t-38 -41t-22.5 -53.5t-8.5 -73.5h352v-96h-464v76z" />
    <glyph glyph-name="threesuperior" unicode="&#xb3;" horiz-adv-x="696" 
d="M288 460q-24 0 -49.5 3t-49 7.5t-43 10.5t-32.5 13v106q10 -6 28 -13t40.5 -13t48.5 -10t53 -4q88 0 138 33.5t50 108.5q0 52 -22.5 86t-60 55t-86.5 31t-103 12v66l218 252h-302v96h448v-76l-232 -266q55 -8 101.5 -28.5t80 -53.5t52 -77.5t18.5 -100.5
q0 -113 -78 -175.5t-218 -62.5z" />
    <glyph glyph-name="acute" unicode="&#xb4;" 
d="M38 1288h152l-158 -176h-110z" />
    <glyph glyph-name="mu" unicode="&#xb5;" horiz-adv-x="866" 
d="M624 52q-44 -38 -96 -57t-106 -19q-57 0 -99.5 15.5t-72.5 42.5q5 -30 8.5 -61t3.5 -63v-210h-120v1300h120v-674q0 -54 8 -99t28.5 -78t55.5 -51t88 -18q50 0 89.5 15.5t72.5 38.5v866h120v-1000h-88z" />
    <glyph glyph-name="paragraph" unicode="&#xb6;" horiz-adv-x="812" 
d="M454 526q-98 0 -168 30t-114.5 82.5t-65 123t-20.5 152.5q0 83 22 154t67 122.5t114.5 80.5t164.5 29v-774zM546 1300h104v-1600h-104v1600z" />
    <glyph glyph-name="periodcentered" unicode="&#xb7;" horiz-adv-x="316" 
d="M158 568q-39 0 -59.5 22t-20.5 58q0 38 20.5 60t59.5 22t59.5 -22t20.5 -60q0 -36 -20.5 -58t-59.5 -22z" />
    <glyph glyph-name="cedilla" unicode="&#xb8;" 
d="M-16 -298q-30 0 -56.5 6t-41.5 14v76q9 -2 26.5 -5t41.5 -3q29 0 45.5 12.5t16.5 39.5q0 19 -8.5 42t-21 45t-27 41t-25.5 30h90q15 -14 32 -34.5t32 -45t24.5 -52t9.5 -54.5q0 -53 -37.5 -82.5t-100.5 -29.5z" />
    <glyph glyph-name="onesuperior" unicode="&#xb9;" horiz-adv-x="696" 
d="M166 570h144v614l-144 -44v100l190 60h64v-730h144v-96h-398v96z" />
    <glyph glyph-name="ordmasculine" unicode="&#xba;" horiz-adv-x="702" 
d="M352 460q-74 0 -125.5 19.5t-84 68t-47.5 131t-15 209.5q0 126 15 208.5t48 131.5t84.5 68.5t124.5 19.5t125 -19.5t84.5 -68t47.5 -131t15 -209.5q0 -126 -15.5 -208.5t-48.5 -131.5t-84.5 -68.5t-123.5 -19.5zM352 556q45 0 75 14.5t48 52t25.5 102t7.5 163.5t-7.5 163
t-25.5 101.5t-48 52.5t-75 15q-46 0 -76.5 -15t-48.5 -52.5t-25.5 -101.5t-7.5 -163t7.5 -163.5t25.5 -102t48.5 -52t76.5 -14.5zM110 340h484v-98h-484v98z" />
    <glyph glyph-name="guillemotright" unicode="&#xbb;" horiz-adv-x="700" 
d="M222 600l-160 322h102l182 -322l-182 -322h-102zM534 600l-160 322h102l182 -322l-182 -322h-102z" />
    <glyph glyph-name="onequarter" unicode="&#xbc;" horiz-adv-x="1748" 
d="M1118 259l344 568h122l-336 -552h240v192h110v-192h102v-94h-102v-180h-110v180h-370v78zM166 570h144v614l-144 -44v100l190 60h64v-730h144v-96h-398v96zM1204 1300h110l-768 -1300h-110z" />
    <glyph glyph-name="onehalf" unicode="&#xbd;" horiz-adv-x="1748" 
d="M1168 77q0 67 12.5 115t35 83t53 59.5t67.5 44.5q39 22 71.5 41.5t56.5 43.5t37 55t13 76q0 72 -36.5 110t-123.5 38q-48 0 -89.5 -12t-68.5 -26v104q29 14 74.5 24t89.5 10q74 0 125 -19.5t82.5 -53t45 -78t13.5 -93.5q0 -65 -18 -110.5t-48.5 -79t-71 -59t-84.5 -49.5
q-32 -18 -55 -36t-38 -41t-22.5 -53.5t-8.5 -73.5h352v-96h-464v76zM166 570h144v614l-144 -44v100l190 60h64v-730h144v-96h-398v96zM1204 1300h110l-768 -1300h-110z" />
    <glyph glyph-name="threequarters" unicode="&#xbe;" horiz-adv-x="1748" 
d="M1118 259l344 568h122l-336 -552h240v192h110v-192h102v-94h-102v-180h-110v180h-370v78zM288 460q-24 0 -49.5 3t-49 7.5t-43 10.5t-32.5 13v106q10 -6 28 -13t40.5 -13t48.5 -10t53 -4q88 0 138 33.5t50 108.5q0 52 -22.5 86t-60 55t-86.5 31t-103 12v66l218 252h-302
v96h448v-76l-232 -266q55 -8 101.5 -28.5t80 -53.5t52 -77.5t18.5 -100.5q0 -113 -78 -175.5t-218 -62.5zM1204 1300h110l-768 -1300h-110z" />
    <glyph glyph-name="questiondown" unicode="&#xbf;" horiz-adv-x="644" 
d="M402 -320q-78 0 -140.5 20t-106.5 58.5t-67.5 94.5t-23.5 129q0 64 18.5 119t47.5 101.5t65.5 85.5t72.5 72l66 60l12 234h86l16 -278l-96 -90q-29 -27 -57.5 -58t-51 -67t-36 -78t-13.5 -91q0 -102 60 -152t164 -50q38 0 70.5 6t58 14t43 16.5t26.5 13.5v-112
q-11 -8 -31 -16t-48 -15.5t-62.5 -12t-72.5 -4.5zM390 864q-39 0 -60.5 22t-21.5 58t21.5 58t60.5 22q38 0 59 -22t21 -58t-21 -58t-59 -22z" />
    <glyph glyph-name="Agrave" unicode="&#xc0;" horiz-adv-x="860" 
d="M366 1300h128l354 -1300h-132l-86 318h-404l-86 -318h-128zM252 426h350l-68 264q-14 56 -29.5 117t-29.5 121t-26.5 117t-20.5 107q-8 -50 -19.5 -107t-25 -117t-29 -121t-30.5 -117zM240 1582h152l116 -176h-110z" />
    <glyph glyph-name="Aacute" unicode="&#xc1;" horiz-adv-x="860" 
d="M366 1300h128l354 -1300h-132l-86 318h-404l-86 -318h-128zM252 426h350l-68 264q-14 56 -29.5 117t-29.5 121t-26.5 117t-20.5 107q-8 -50 -19.5 -107t-25 -117t-29 -121t-30.5 -117zM468 1582h152l-158 -176h-110z" />
    <glyph glyph-name="Acircumflex" unicode="&#xc2;" horiz-adv-x="860" 
d="M366 1300h128l354 -1300h-132l-86 318h-404l-86 -318h-128zM252 426h350l-68 264q-14 56 -29.5 117t-29.5 121t-26.5 117t-20.5 107q-8 -50 -19.5 -107t-25 -117t-29 -121t-30.5 -117zM226 1476l204 116l204 -116v-80l-204 76l-204 -76v80z" />
    <glyph glyph-name="Atilde" unicode="&#xc3;" horiz-adv-x="860" 
d="M366 1300h128l354 -1300h-132l-86 318h-404l-86 -318h-128zM252 426h350l-68 264q-14 56 -29.5 117t-29.5 121t-26.5 117t-20.5 107q-8 -50 -19.5 -107t-25 -117t-29 -121t-30.5 -117zM224 1516q15 20 46 38t72 18q34 0 58.5 -10.5t45 -22.5t41 -22.5t47.5 -10.5
q33 0 59 15.5t43 32.5v-90q-15 -18 -46 -37t-72 -19q-35 0 -59 10.5t-44.5 22.5t-41 22.5t-47.5 10.5q-33 0 -59 -14.5t-43 -31.5v88z" />
    <glyph glyph-name="Adieresis" unicode="&#xc4;" horiz-adv-x="860" 
d="M366 1300h128l354 -1300h-132l-86 318h-404l-86 -318h-128zM252 426h350l-68 264q-14 56 -29.5 117t-29.5 121t-26.5 117t-20.5 107q-8 -50 -19.5 -107t-25 -117t-29 -121t-30.5 -117zM272 1412q-38 0 -57 20.5t-19 55.5t19 54.5t57 19.5q36 0 55 -19.5t19 -54.5
t-19 -55.5t-55 -20.5zM588 1412q-36 0 -55 20.5t-19 55.5t19 54.5t55 19.5q38 0 57 -19.5t19 -54.5t-19 -55.5t-57 -20.5z" />
    <glyph glyph-name="Aring" unicode="&#xc5;" horiz-adv-x="860" 
d="M366 1300h128l354 -1300h-132l-86 318h-404l-86 -318h-128zM252 426h350l-68 264q-14 56 -29.5 117t-29.5 121t-26.5 117t-20.5 107q-8 -50 -19.5 -107t-25 -117t-29 -121t-30.5 -117zM246 1401q0 42 14 75.5t38 56.5t57.5 35.5t72.5 12.5q40 0 73 -12t57 -35t37 -56.5
t13 -76.5q0 -42 -14 -75t-38 -56t-57 -35t-71 -12q-40 0 -73.5 12t-57.5 34.5t-37.5 55.5t-13.5 76zM428 1301q41 0 70.5 24.5t29.5 75.5q0 26 -8 45.5t-21.5 32t-32 18.5t-38.5 6q-42 0 -71 -24.5t-29 -77.5q0 -51 29 -75.5t71 -24.5z" />
    <glyph glyph-name="AE" unicode="&#xc6;" horiz-adv-x="1200" 
d="M568 318h-340l-86 -318h-130l356 1300h730v-108h-406v-468h322v-108h-322v-508h406v-108h-530v318zM254 426h314v766h-108z" />
    <glyph glyph-name="Ccedilla" unicode="&#xc7;" horiz-adv-x="792" 
d="M508 -24q-117 0 -194 32t-123 110t-64.5 207.5t-18.5 324.5q0 193 22 322.5t70 207.5t123.5 111t182.5 33q65 0 123 -14t87 -32v-120q-13 9 -35 18.5t-49 17.5t-56.5 13t-57.5 5q-52 0 -93 -10t-72 -35t-53 -66.5t-35.5 -104t-20 -148t-6.5 -198.5q0 -175 13.5 -284.5
t45.5 -171t85.5 -84t133.5 -22.5q31 0 63 5.5t60.5 13.5t51.5 17.5t37 17.5v-118q-14 -9 -39.5 -17.5t-56 -15.5t-63.5 -11t-61 -4zM442 -298q-30 0 -56.5 6t-41.5 14v76q9 -2 26.5 -5t41.5 -3q29 0 45.5 12.5t16.5 39.5q0 19 -8.5 42t-21 45t-27 41t-25.5 30h90
q15 -14 32 -34.5t32 -45t24.5 -52t9.5 -54.5q0 -53 -37.5 -82.5t-100.5 -29.5z" />
    <glyph glyph-name="Egrave" unicode="&#xc8;" horiz-adv-x="818" 
d="M162 1300h554v-108h-430v-468h346v-108h-346v-508h430v-108h-554v1300zM256 1582h152l116 -176h-110z" />
    <glyph glyph-name="Eacute" unicode="&#xc9;" horiz-adv-x="818" 
d="M162 1300h554v-108h-430v-468h346v-108h-346v-508h430v-108h-554v1300zM484 1582h152l-158 -176h-110z" />
    <glyph glyph-name="Ecircumflex" unicode="&#xca;" horiz-adv-x="818" 
d="M162 1300h554v-108h-430v-468h346v-108h-346v-508h430v-108h-554v1300zM242 1476l204 116l204 -116v-80l-204 76l-204 -76v80z" />
    <glyph glyph-name="Edieresis" unicode="&#xcb;" horiz-adv-x="818" 
d="M162 1300h554v-108h-430v-468h346v-108h-346v-508h430v-108h-554v1300zM288 1412q-38 0 -57 20.5t-19 55.5t19 54.5t57 19.5q36 0 55 -19.5t19 -54.5t-19 -55.5t-55 -20.5zM604 1412q-36 0 -55 20.5t-19 55.5t19 54.5t55 19.5q38 0 57 -19.5t19 -54.5t-19 -55.5
t-57 -20.5z" />
    <glyph glyph-name="Igrave" unicode="&#xcc;" horiz-adv-x="448" 
d="M162 1300h124v-1300h-124v1300zM34 1582h152l116 -176h-110z" />
    <glyph glyph-name="Iacute" unicode="&#xcd;" horiz-adv-x="448" 
d="M162 1300h124v-1300h-124v1300zM262 1582h152l-158 -176h-110z" />
    <glyph glyph-name="Icircumflex" unicode="&#xce;" horiz-adv-x="448" 
d="M162 1300h124v-1300h-124v1300zM20 1476l204 116l204 -116v-80l-204 76l-204 -76v80z" />
    <glyph glyph-name="Idieresis" unicode="&#xcf;" horiz-adv-x="448" 
d="M162 1300h124v-1300h-124v1300zM66 1412q-38 0 -57 20.5t-19 55.5t19 54.5t57 19.5q36 0 55 -19.5t19 -54.5t-19 -55.5t-55 -20.5zM382 1412q-36 0 -55 20.5t-19 55.5t19 54.5t55 19.5q38 0 57 -19.5t19 -54.5t-19 -55.5t-57 -20.5z" />
    <glyph glyph-name="Eth" unicode="&#xd0;" horiz-adv-x="980" 
d="M62 706h110v594h290q114 0 192.5 -30.5t126.5 -105.5t69.5 -200t21.5 -314q0 -188 -21.5 -313t-69.5 -200t-126.5 -106t-192.5 -31h-290v600h-110v106zM296 1192v-486h224v-106h-224v-492h156q53 0 95.5 9t75 32t55 62.5t37 99.5t21 143.5t6.5 195.5q0 111 -6.5 195
t-21 144t-37 99.5t-55 62.5t-75 32t-95.5 9h-156z" />
    <glyph glyph-name="Ntilde" unicode="&#xd1;" horiz-adv-x="1032" 
d="M162 1300h142l464 -1114q-6 66 -10 146.5t-4 163.5v804h118v-1300h-144l-466 1114q8 -66 13 -147.5t5 -162.5v-804h-118v1300zM310 1516q15 20 46 38t72 18q34 0 58.5 -10.5t45 -22.5t41 -22.5t47.5 -10.5q33 0 59 15.5t43 32.5v-90q-15 -18 -46 -37t-72 -19
q-35 0 -59 10.5t-44.5 22.5t-41 22.5t-47.5 10.5q-33 0 -59 -14.5t-43 -31.5v88z" />
    <glyph glyph-name="Ograve" unicode="&#xd2;" horiz-adv-x="968" 
d="M484 -24q-103 0 -174.5 31t-116.5 108t-65 207t-20 328q0 196 21 325.5t66 207t116.5 109.5t172.5 32q103 0 174.5 -31t116.5 -108t65 -207t20 -328q0 -197 -21 -326.5t-66 -207t-116.5 -109t-172.5 -31.5zM484 86q70 0 117.5 25.5t76 89.5t40.5 173t12 276t-12 276
t-40.5 173t-76 89.5t-117.5 25.5q-71 0 -118 -25.5t-75.5 -89.5t-40.5 -173t-12 -276t12 -276t40.5 -173t75.5 -89.5t118 -25.5zM294 1582h152l116 -176h-110z" />
    <glyph glyph-name="Oacute" unicode="&#xd3;" horiz-adv-x="968" 
d="M484 -24q-103 0 -174.5 31t-116.5 108t-65 207t-20 328q0 196 21 325.5t66 207t116.5 109.5t172.5 32q103 0 174.5 -31t116.5 -108t65 -207t20 -328q0 -197 -21 -326.5t-66 -207t-116.5 -109t-172.5 -31.5zM484 86q70 0 117.5 25.5t76 89.5t40.5 173t12 276t-12 276
t-40.5 173t-76 89.5t-117.5 25.5q-71 0 -118 -25.5t-75.5 -89.5t-40.5 -173t-12 -276t12 -276t40.5 -173t75.5 -89.5t118 -25.5zM522 1582h152l-158 -176h-110z" />
    <glyph glyph-name="Ocircumflex" unicode="&#xd4;" horiz-adv-x="968" 
d="M484 -24q-103 0 -174.5 31t-116.5 108t-65 207t-20 328q0 196 21 325.5t66 207t116.5 109.5t172.5 32q103 0 174.5 -31t116.5 -108t65 -207t20 -328q0 -197 -21 -326.5t-66 -207t-116.5 -109t-172.5 -31.5zM484 86q70 0 117.5 25.5t76 89.5t40.5 173t12 276t-12 276
t-40.5 173t-76 89.5t-117.5 25.5q-71 0 -118 -25.5t-75.5 -89.5t-40.5 -173t-12 -276t12 -276t40.5 -173t75.5 -89.5t118 -25.5zM280 1476l204 116l204 -116v-80l-204 76l-204 -76v80z" />
    <glyph glyph-name="Otilde" unicode="&#xd5;" horiz-adv-x="968" 
d="M484 -24q-103 0 -174.5 31t-116.5 108t-65 207t-20 328q0 196 21 325.5t66 207t116.5 109.5t172.5 32q103 0 174.5 -31t116.5 -108t65 -207t20 -328q0 -197 -21 -326.5t-66 -207t-116.5 -109t-172.5 -31.5zM484 86q70 0 117.5 25.5t76 89.5t40.5 173t12 276t-12 276
t-40.5 173t-76 89.5t-117.5 25.5q-71 0 -118 -25.5t-75.5 -89.5t-40.5 -173t-12 -276t12 -276t40.5 -173t75.5 -89.5t118 -25.5zM278 1516q15 20 46 38t72 18q34 0 58.5 -10.5t45 -22.5t41 -22.5t47.5 -10.5q33 0 59 15.5t43 32.5v-90q-15 -18 -46 -37t-72 -19
q-35 0 -59 10.5t-44.5 22.5t-41 22.5t-47.5 10.5q-33 0 -59 -14.5t-43 -31.5v88z" />
    <glyph glyph-name="Odieresis" unicode="&#xd6;" horiz-adv-x="968" 
d="M484 -24q-103 0 -174.5 31t-116.5 108t-65 207t-20 328q0 196 21 325.5t66 207t116.5 109.5t172.5 32q103 0 174.5 -31t116.5 -108t65 -207t20 -328q0 -197 -21 -326.5t-66 -207t-116.5 -109t-172.5 -31.5zM484 86q70 0 117.5 25.5t76 89.5t40.5 173t12 276t-12 276
t-40.5 173t-76 89.5t-117.5 25.5q-71 0 -118 -25.5t-75.5 -89.5t-40.5 -173t-12 -276t12 -276t40.5 -173t75.5 -89.5t118 -25.5zM326 1412q-38 0 -57 20.5t-19 55.5t19 54.5t57 19.5q36 0 55 -19.5t19 -54.5t-19 -55.5t-55 -20.5zM642 1412q-36 0 -55 20.5t-19 55.5t19 54.5
t55 19.5q38 0 57 -19.5t19 -54.5t-19 -55.5t-57 -20.5z" />
    <glyph glyph-name="multiply" unicode="&#xd7;" horiz-adv-x="826" 
d="M86 398l252 252l-252 252l76 74l250 -252l252 252l76 -74l-252 -252l252 -252l-76 -74l-252 250l-250 -250z" />
    <glyph glyph-name="Oslash" unicode="&#xd8;" horiz-adv-x="968" 
d="M184 132q-41 78 -58.5 204t-17.5 314q0 196 21 325.5t66 207t116.5 109.5t172.5 32q74 0 132 -16t100 -54l70 146h108l-110 -232q39 -78 57.5 -204.5t18.5 -313.5q0 -197 -21 -326.5t-66 -207t-116.5 -109t-172.5 -31.5q-75 0 -132.5 16t-101.5 52l-68 -144h-108zM484 86
q70 0 117.5 25.5t76 89.5t40.5 173t12 276q0 116 -4.5 206.5t-15.5 153.5l-406 -850q29 -38 74.5 -56t105.5 -18zM238 650q0 -118 4 -207.5t16 -154.5l404 850q-56 76 -178 76q-71 0 -118 -25.5t-75.5 -89.5t-40.5 -173t-12 -276z" />
    <glyph glyph-name="Ugrave" unicode="&#xd9;" horiz-adv-x="1012" 
d="M506 -24q-90 0 -156.5 21.5t-110.5 69.5t-65.5 125.5t-21.5 189.5v918h124v-908q0 -87 13 -145.5t41 -94.5t71.5 -51t104.5 -15t104.5 15t71.5 51t41 94.5t13 145.5v908h124v-918q0 -110 -22 -187.5t-66.5 -126t-111 -70.5t-154.5 -22zM316 1582h152l116 -176h-110z" />
    <glyph glyph-name="Uacute" unicode="&#xda;" horiz-adv-x="1012" 
d="M506 -24q-90 0 -156.5 21.5t-110.5 69.5t-65.5 125.5t-21.5 189.5v918h124v-908q0 -87 13 -145.5t41 -94.5t71.5 -51t104.5 -15t104.5 15t71.5 51t41 94.5t13 145.5v908h124v-918q0 -110 -22 -187.5t-66.5 -126t-111 -70.5t-154.5 -22zM544 1582h152l-158 -176h-110z" />
    <glyph glyph-name="Ucircumflex" unicode="&#xdb;" horiz-adv-x="1012" 
d="M506 -24q-90 0 -156.5 21.5t-110.5 69.5t-65.5 125.5t-21.5 189.5v918h124v-908q0 -87 13 -145.5t41 -94.5t71.5 -51t104.5 -15t104.5 15t71.5 51t41 94.5t13 145.5v908h124v-918q0 -110 -22 -187.5t-66.5 -126t-111 -70.5t-154.5 -22zM302 1476l204 116l204 -116v-80
l-204 76l-204 -76v80z" />
    <glyph glyph-name="Udieresis" unicode="&#xdc;" horiz-adv-x="1012" 
d="M506 -24q-90 0 -156.5 21.5t-110.5 69.5t-65.5 125.5t-21.5 189.5v918h124v-908q0 -87 13 -145.5t41 -94.5t71.5 -51t104.5 -15t104.5 15t71.5 51t41 94.5t13 145.5v908h124v-918q0 -110 -22 -187.5t-66.5 -126t-111 -70.5t-154.5 -22zM348 1412q-38 0 -57 20.5t-19 55.5
t19 54.5t57 19.5q36 0 55 -19.5t19 -54.5t-19 -55.5t-55 -20.5zM664 1412q-36 0 -55 20.5t-19 55.5t19 54.5t55 19.5q38 0 57 -19.5t19 -54.5t-19 -55.5t-57 -20.5z" />
    <glyph glyph-name="Yacute" unicode="&#xdd;" horiz-adv-x="838" 
d="M356 546l-362 754h138l172 -368q33 -74 64 -145.5t52 -134.5q21 63 52 134.5t66 145.5l170 368h136l-362 -754v-546h-126v546zM458 1582h152l-158 -176h-110z" />
    <glyph glyph-name="Thorn" unicode="&#xde;" horiz-adv-x="894" 
d="M162 1300h124v-224h128q93 0 166.5 -19.5t124.5 -66.5t78 -125t27 -195q0 -114 -27.5 -191.5t-79 -125.5t-125 -68.5t-164.5 -20.5h-128v-264h-124v1300zM286 968v-596h110q66 0 118.5 11.5t89.5 44.5t56.5 91t19.5 151t-19.5 151t-56.5 91t-89.5 44.5t-118.5 11.5h-110z
" />
    <glyph glyph-name="germandbls" unicode="&#xdf;" horiz-adv-x="934" 
d="M594 -24q-65 0 -110.5 11t-69.5 25v114q10 -6 26 -13.5t37 -14.5t46.5 -11.5t54.5 -4.5q85 0 131.5 44.5t46.5 127.5q0 58 -24 104.5t-68.5 87t-107.5 79t-142 81.5v82q40 27 79.5 61.5t71 78t51.5 95t20 113.5q0 97 -51.5 140.5t-138.5 43.5q-50 0 -84.5 -14.5t-57 -49
t-32.5 -92.5t-10 -144v-920h-120v950q0 110 23 182.5t64 115t97 59.5t122 17q71 0 129 -17.5t98.5 -53t62.5 -89t22 -124.5q0 -65 -18 -121t-48 -104t-70 -87.5t-84 -71.5q76 -40 138.5 -81t107 -89t68.5 -105.5t24 -130.5q0 -130 -74 -202t-210 -72z" />
    <glyph glyph-name="agrave" unicode="&#xe0;" horiz-adv-x="818" 
d="M582 60q-45 -39 -100.5 -61.5t-121.5 -22.5q-75 0 -125.5 22t-81.5 63.5t-44 100t-13 132.5q0 73 13.5 131.5t45 100t81.5 64t124 22.5q59 0 110.5 -20.5t95.5 -53.5v130q0 61 -10.5 108t-35 78.5t-66 47.5t-102.5 16q-36 0 -69.5 -7t-61.5 -17.5t-49.5 -22t-33.5 -19.5
v114q13 9 35.5 19t51.5 19t64.5 14.5t76.5 5.5q165 0 241.5 -85.5t76.5 -248.5v-690h-86zM382 76q57 0 102.5 19.5t81.5 48.5v300q-36 27 -81.5 46.5t-102.5 19.5q-47 0 -78.5 -13.5t-50.5 -40.5t-27 -67.5t-8 -94.5q0 -55 8 -96t27 -68t50.5 -40.5t78.5 -13.5zM204 1288
h152l116 -176h-110z" />
    <glyph glyph-name="aacute" unicode="&#xe1;" horiz-adv-x="818" 
d="M582 60q-45 -39 -100.5 -61.5t-121.5 -22.5q-75 0 -125.5 22t-81.5 63.5t-44 100t-13 132.5q0 73 13.5 131.5t45 100t81.5 64t124 22.5q59 0 110.5 -20.5t95.5 -53.5v130q0 61 -10.5 108t-35 78.5t-66 47.5t-102.5 16q-36 0 -69.5 -7t-61.5 -17.5t-49.5 -22t-33.5 -19.5
v114q13 9 35.5 19t51.5 19t64.5 14.5t76.5 5.5q165 0 241.5 -85.5t76.5 -248.5v-690h-86zM382 76q57 0 102.5 19.5t81.5 48.5v300q-36 27 -81.5 46.5t-102.5 19.5q-47 0 -78.5 -13.5t-50.5 -40.5t-27 -67.5t-8 -94.5q0 -55 8 -96t27 -68t50.5 -40.5t78.5 -13.5zM432 1288
h152l-158 -176h-110z" />
    <glyph glyph-name="acircumflex" unicode="&#xe2;" horiz-adv-x="818" 
d="M582 60q-45 -39 -100.5 -61.5t-121.5 -22.5q-75 0 -125.5 22t-81.5 63.5t-44 100t-13 132.5q0 73 13.5 131.5t45 100t81.5 64t124 22.5q59 0 110.5 -20.5t95.5 -53.5v130q0 61 -10.5 108t-35 78.5t-66 47.5t-102.5 16q-36 0 -69.5 -7t-61.5 -17.5t-49.5 -22t-33.5 -19.5
v114q13 9 35.5 19t51.5 19t64.5 14.5t76.5 5.5q165 0 241.5 -85.5t76.5 -248.5v-690h-86zM382 76q57 0 102.5 19.5t81.5 48.5v300q-36 27 -81.5 46.5t-102.5 19.5q-47 0 -78.5 -13.5t-50.5 -40.5t-27 -67.5t-8 -94.5q0 -55 8 -96t27 -68t50.5 -40.5t78.5 -13.5zM190 1182
l204 116l204 -116v-80l-204 76l-204 -76v80z" />
    <glyph glyph-name="atilde" unicode="&#xe3;" horiz-adv-x="818" 
d="M582 60q-45 -39 -100.5 -61.5t-121.5 -22.5q-75 0 -125.5 22t-81.5 63.5t-44 100t-13 132.5q0 73 13.5 131.5t45 100t81.5 64t124 22.5q59 0 110.5 -20.5t95.5 -53.5v130q0 61 -10.5 108t-35 78.5t-66 47.5t-102.5 16q-36 0 -69.5 -7t-61.5 -17.5t-49.5 -22t-33.5 -19.5
v114q13 9 35.5 19t51.5 19t64.5 14.5t76.5 5.5q165 0 241.5 -85.5t76.5 -248.5v-690h-86zM382 76q57 0 102.5 19.5t81.5 48.5v300q-36 27 -81.5 46.5t-102.5 19.5q-47 0 -78.5 -13.5t-50.5 -40.5t-27 -67.5t-8 -94.5q0 -55 8 -96t27 -68t50.5 -40.5t78.5 -13.5zM482 1114
q-35 0 -59 10.5t-44.5 22.5t-41 22.5t-47.5 10.5q-33 0 -59 -14.5t-43 -31.5v88q15 20 46 39t72 19q34 0 58.5 -10.5t45 -22.5t41 -22.5t47.5 -10.5q33 0 59 14.5t43 31.5v-88q-15 -20 -46 -39t-72 -19z" />
    <glyph glyph-name="adieresis" unicode="&#xe4;" horiz-adv-x="818" 
d="M582 60q-45 -39 -100.5 -61.5t-121.5 -22.5q-75 0 -125.5 22t-81.5 63.5t-44 100t-13 132.5q0 73 13.5 131.5t45 100t81.5 64t124 22.5q59 0 110.5 -20.5t95.5 -53.5v130q0 61 -10.5 108t-35 78.5t-66 47.5t-102.5 16q-36 0 -69.5 -7t-61.5 -17.5t-49.5 -22t-33.5 -19.5
v114q13 9 35.5 19t51.5 19t64.5 14.5t76.5 5.5q165 0 241.5 -85.5t76.5 -248.5v-690h-86zM382 76q57 0 102.5 19.5t81.5 48.5v300q-36 27 -81.5 46.5t-102.5 19.5q-47 0 -78.5 -13.5t-50.5 -40.5t-27 -67.5t-8 -94.5q0 -55 8 -96t27 -68t50.5 -40.5t78.5 -13.5zM236 1118
q-38 0 -57 20.5t-19 55.5t19 55.5t57 20.5q36 0 55 -20.5t19 -55.5t-19 -55.5t-55 -20.5zM552 1118q-36 0 -55 20.5t-19 55.5t19 55.5t55 20.5q38 0 57 -20.5t19 -55.5t-19 -55.5t-57 -20.5z" />
    <glyph glyph-name="aring" unicode="&#xe5;" horiz-adv-x="818" 
d="M582 60q-45 -39 -100.5 -61.5t-121.5 -22.5q-75 0 -125.5 22t-81.5 63.5t-44 100t-13 132.5q0 73 13.5 131.5t45 100t81.5 64t124 22.5q59 0 110.5 -20.5t95.5 -53.5v130q0 61 -10.5 108t-35 78.5t-66 47.5t-102.5 16q-36 0 -69.5 -7t-61.5 -17.5t-49.5 -22t-33.5 -19.5
v114q13 9 35.5 19t51.5 19t64.5 14.5t76.5 5.5q165 0 241.5 -85.5t76.5 -248.5v-690h-86zM382 76q57 0 102.5 19.5t81.5 48.5v300q-36 27 -81.5 46.5t-102.5 19.5q-47 0 -78.5 -13.5t-50.5 -40.5t-27 -67.5t-8 -94.5q0 -55 8 -96t27 -68t50.5 -40.5t78.5 -13.5zM394 1078
q-40 0 -73.5 12t-57.5 35t-37.5 56t-13.5 75t14 75.5t38 56.5t57.5 35.5t72.5 12.5q40 0 73 -12t57 -35t37 -56.5t13 -76.5q0 -41 -14 -74t-38 -56t-57 -35.5t-71 -12.5zM394 1156q41 0 70.5 24.5t29.5 75.5q0 26 -8 45.5t-21.5 32t-32 18.5t-38.5 6q-41 0 -70.5 -25
t-29.5 -77q0 -51 29.5 -75.5t70.5 -24.5z" />
    <glyph glyph-name="ae" unicode="&#xe6;" horiz-adv-x="1266" 
d="M360 -24q-75 0 -125.5 22.5t-81.5 64t-44 100t-13 131.5t13.5 131.5t45 100t81.5 64t124 22.5q59 0 110.5 -19.5t95.5 -52.5v128q0 62 -10.5 109t-35 78.5t-65 47t-101.5 15.5q-36 0 -70 -7t-62.5 -17.5t-50 -22t-33.5 -19.5v114q13 9 35.5 19t51.5 19t64.5 14.5
t76.5 5.5q104 0 168.5 -33.5t97.5 -96.5q38 69 95.5 99.5t138.5 30.5t139 -24t95 -83.5t54.5 -161t17.5 -255.5v-28h-488q1 -119 14 -194t41 -118.5t72 -59.5t107 -16q33 0 66 6t62 15t51.5 19t34.5 18v-114q-13 -8 -35.5 -17.5t-52.5 -17t-65.5 -12.5t-74.5 -5
q-92 0 -158 25.5t-108 90.5q-50 -48 -119 -82t-159 -34zM600 174q-18 51 -27.5 118.5t-12.5 155.5q-35 26 -79.5 44t-98.5 18q-47 0 -78.5 -13.5t-50.5 -40.5t-27 -67.5t-8 -94.5q0 -55 8 -96t27 -68t50.5 -40.5t78.5 -13.5q34 0 65.5 8.5t58.5 22t50.5 31t43.5 36.5z
M866 920q-50 0 -84 -18t-55 -58.5t-31 -106.5t-12 -163h364q-2 97 -11.5 163t-30.5 106.5t-55 58.5t-85 18z" />
    <glyph glyph-name="ccedilla" unicode="&#xe7;" horiz-adv-x="678" 
d="M428 -24q-82 0 -142 25.5t-99.5 86.5t-59 161.5t-19.5 250.5q0 160 24.5 262t68.5 160.5t104.5 80t132.5 21.5q60 0 100.5 -10.5t67.5 -25.5v-114q-10 7 -27 14.5t-38 13.5t-44.5 10t-46.5 4q-55 0 -96 -17t-68 -63.5t-40.5 -127.5t-13.5 -208q0 -125 12 -205.5t37 -127
t64 -65t93 -18.5q28 0 54.5 4.5t49.5 11t41.5 14.5t30.5 16v-114q-27 -15 -77 -27.5t-109 -12.5zM394 -298q-30 0 -56.5 6t-41.5 14v76q9 -2 26.5 -5t41.5 -3q29 0 45.5 12.5t16.5 39.5q0 19 -8.5 42t-21 45t-27 41t-25.5 30h90q15 -14 32 -34.5t32 -45t24.5 -52t9.5 -54.5
q0 -53 -37.5 -82.5t-100.5 -29.5z" />
    <glyph glyph-name="egrave" unicode="&#xe8;" horiz-adv-x="812" 
d="M450 -24q-89 0 -153.5 24.5t-106.5 84.5t-62 160.5t-20 252.5q0 154 18.5 255.5t56 161.5t95 84.5t136.5 24.5q80 0 138 -24t95.5 -83.5t55 -161t17.5 -255.5v-28h-490q1 -119 14.5 -194t41.5 -118.5t72 -59.5t106 -16q33 0 66 6t62 15t51.5 19t34.5 18v-114
q-13 -8 -35 -17.5t-52 -17t-65.5 -12.5t-75.5 -5zM414 920q-51 0 -85.5 -18t-55.5 -58.5t-31 -106.5t-12 -163h368q-2 97 -12.5 163t-31.5 106.5t-55.5 58.5t-84.5 18zM224 1288h152l116 -176h-110z" />
    <glyph glyph-name="eacute" unicode="&#xe9;" horiz-adv-x="812" 
d="M452 1288h152l-158 -176h-110zM450 -24q-89 0 -153.5 24.5t-106.5 84.5t-62 160.5t-20 252.5q0 154 18.5 255.5t56 161.5t95 84.5t136.5 24.5q80 0 138 -24t95.5 -83.5t55 -161t17.5 -255.5v-28h-490q1 -119 14.5 -194t41.5 -118.5t72 -59.5t106 -16q33 0 66 6t62 15
t51.5 19t34.5 18v-114q-13 -8 -35 -17.5t-52 -17t-65.5 -12.5t-75.5 -5zM414 920q-51 0 -85.5 -18t-55.5 -58.5t-31 -106.5t-12 -163h368q-2 97 -12.5 163t-31.5 106.5t-55.5 58.5t-84.5 18z" />
    <glyph glyph-name="ecircumflex" unicode="&#xea;" horiz-adv-x="812" 
d="M210 1182l204 116l204 -116v-80l-204 76l-204 -76v80zM450 -24q-89 0 -153.5 24.5t-106.5 84.5t-62 160.5t-20 252.5q0 154 18.5 255.5t56 161.5t95 84.5t136.5 24.5q80 0 138 -24t95.5 -83.5t55 -161t17.5 -255.5v-28h-490q1 -119 14.5 -194t41.5 -118.5t72 -59.5
t106 -16q33 0 66 6t62 15t51.5 19t34.5 18v-114q-13 -8 -35 -17.5t-52 -17t-65.5 -12.5t-75.5 -5zM414 920q-51 0 -85.5 -18t-55.5 -58.5t-31 -106.5t-12 -163h368q-2 97 -12.5 163t-31.5 106.5t-55.5 58.5t-84.5 18z" />
    <glyph glyph-name="edieresis" unicode="&#xeb;" horiz-adv-x="812" 
d="M256 1118q-38 0 -57 20.5t-19 55.5t19 55.5t57 20.5q36 0 55 -20.5t19 -55.5t-19 -55.5t-55 -20.5zM572 1118q-36 0 -55 20.5t-19 55.5t19 55.5t55 20.5q38 0 57 -20.5t19 -55.5t-19 -55.5t-57 -20.5zM450 -24q-89 0 -153.5 24.5t-106.5 84.5t-62 160.5t-20 252.5
q0 154 18.5 255.5t56 161.5t95 84.5t136.5 24.5q80 0 138 -24t95.5 -83.5t55 -161t17.5 -255.5v-28h-490q1 -119 14.5 -194t41.5 -118.5t72 -59.5t106 -16q33 0 66 6t62 15t51.5 19t34.5 18v-114q-13 -8 -35 -17.5t-52 -17t-65.5 -12.5t-75.5 -5zM414 920q-51 0 -85.5 -18
t-55.5 -58.5t-31 -106.5t-12 -163h368q-2 97 -12.5 163t-31.5 106.5t-55.5 58.5t-84.5 18z" />
    <glyph glyph-name="igrave" unicode="&#xec;" horiz-adv-x="404" 
d="M142 1000h120v-1000h-120v1000zM12 1288h152l116 -176h-110z" />
    <glyph glyph-name="iacute" unicode="&#xed;" horiz-adv-x="404" 
d="M240 1288h152l-158 -176h-110zM142 1000h120v-1000h-120v1000z" />
    <glyph glyph-name="icircumflex" unicode="&#xee;" horiz-adv-x="404" 
d="M-2 1182l204 116l204 -116v-80l-204 76l-204 -76v80zM142 1000h120v-1000h-120v1000z" />
    <glyph glyph-name="idieresis" unicode="&#xef;" horiz-adv-x="404" 
d="M44 1118q-38 0 -57 20.5t-19 55.5t19 55.5t57 20.5q36 0 55 -20.5t19 -55.5t-19 -55.5t-55 -20.5zM360 1118q-36 0 -55 20.5t-19 55.5t19 55.5t55 20.5q38 0 57 -20.5t19 -55.5t-19 -55.5t-57 -20.5zM142 1000h120v-1000h-120v1000z" />
    <glyph glyph-name="eth" unicode="&#xf0;" horiz-adv-x="850" 
d="M354 1058l164 84q-35 41 -81 59.5t-111 18.5q-28 0 -54 -4.5t-48.5 -11.5t-41 -15t-30.5 -15v110q27 15 77 27.5t115 12.5q91 0 159.5 -30.5t118.5 -95.5l188 98v-112l-138 -72q74 -160 74 -464q0 -185 -14.5 -313t-51 -207.5t-99 -115.5t-159.5 -36q-96 0 -157 36
t-96 95.5t-48 136.5t-13 160q0 88 16.5 164t52.5 131.5t91.5 87t133.5 31.5q63 0 120 -16.5t98 -39.5q-3 95 -16.5 167.5t-37.5 126.5l-212 -110v112zM422 82q58 0 96.5 25t61.5 82t32.5 149t9.5 226v94q-38 21 -86.5 36.5t-107.5 15.5t-97.5 -22t-61 -62.5t-31 -97
t-8.5 -124.5t8 -127t29.5 -102.5t58.5 -68t96 -24.5z" />
    <glyph glyph-name="ntilde" unicode="&#xf1;" horiz-adv-x="864" 
d="M142 1000h88l12 -56q44 39 99.5 59.5t114.5 20.5q79 0 132.5 -27t85 -72t45 -105t13.5 -126v-694h-120v674q0 52 -8 97t-28.5 78t-55.5 52t-88 19q-51 0 -94 -17t-76 -41v-862h-120v1000zM526 1114q-35 0 -59 10.5t-44.5 22.5t-41 22.5t-47.5 10.5q-33 0 -59 -14.5
t-43 -31.5v88q15 20 46 39t72 19q34 0 58.5 -10.5t45 -22.5t41 -22.5t47.5 -10.5q33 0 59 14.5t43 31.5v-88q-15 -20 -46 -39t-72 -19z" />
    <glyph glyph-name="ograve" unicode="&#xf2;" horiz-adv-x="850" 
d="M424 -24q-86 0 -146 25t-97.5 85t-55 161t-17.5 253q0 151 18 251.5t56.5 161t98.5 86t143 25.5q86 0 146.5 -25t98.5 -85t55.5 -161t17.5 -253q0 -151 -18 -251.5t-57 -161t-99 -86t-144 -25.5zM424 82q57 0 94.5 19.5t60 67.5t32 128.5t9.5 202.5q0 121 -9.5 201.5
t-32 128.5t-60 68t-94.5 20q-56 0 -93.5 -20t-60 -68t-31.5 -128.5t-9 -201.5q0 -122 9 -202.5t31.5 -128.5t60 -67.5t93.5 -19.5zM234 1288h152l116 -176h-110z" />
    <glyph glyph-name="oacute" unicode="&#xf3;" horiz-adv-x="850" 
d="M462 1288h152l-158 -176h-110zM424 -24q-86 0 -146 25t-97.5 85t-55 161t-17.5 253q0 151 18 251.5t56.5 161t98.5 86t143 25.5q86 0 146.5 -25t98.5 -85t55.5 -161t17.5 -253q0 -151 -18 -251.5t-57 -161t-99 -86t-144 -25.5zM424 82q57 0 94.5 19.5t60 67.5t32 128.5
t9.5 202.5q0 121 -9.5 201.5t-32 128.5t-60 68t-94.5 20q-56 0 -93.5 -20t-60 -68t-31.5 -128.5t-9 -201.5q0 -122 9 -202.5t31.5 -128.5t60 -67.5t93.5 -19.5z" />
    <glyph glyph-name="ocircumflex" unicode="&#xf4;" horiz-adv-x="850" 
d="M220 1182l204 116l204 -116v-80l-204 76l-204 -76v80zM424 -24q-86 0 -146 25t-97.5 85t-55 161t-17.5 253q0 151 18 251.5t56.5 161t98.5 86t143 25.5q86 0 146.5 -25t98.5 -85t55.5 -161t17.5 -253q0 -151 -18 -251.5t-57 -161t-99 -86t-144 -25.5zM424 82
q57 0 94.5 19.5t60 67.5t32 128.5t9.5 202.5q0 121 -9.5 201.5t-32 128.5t-60 68t-94.5 20q-56 0 -93.5 -20t-60 -68t-31.5 -128.5t-9 -201.5q0 -122 9 -202.5t31.5 -128.5t60 -67.5t93.5 -19.5z" />
    <glyph glyph-name="otilde" unicode="&#xf5;" horiz-adv-x="850" 
d="M424 -24q-86 0 -146 25t-97.5 85t-55 161t-17.5 253q0 151 18 251.5t56.5 161t98.5 86t143 25.5q86 0 146.5 -25t98.5 -85t55.5 -161t17.5 -253q0 -151 -18 -251.5t-57 -161t-99 -86t-144 -25.5zM424 82q57 0 94.5 19.5t60 67.5t32 128.5t9.5 202.5q0 121 -9.5 201.5
t-32 128.5t-60 68t-94.5 20q-56 0 -93.5 -20t-60 -68t-31.5 -128.5t-9 -201.5q0 -122 9 -202.5t31.5 -128.5t60 -67.5t93.5 -19.5zM512 1114q-35 0 -59 10.5t-44.5 22.5t-41 22.5t-47.5 10.5q-33 0 -59 -14.5t-43 -31.5v88q15 20 46 39t72 19q34 0 58.5 -10.5t45 -22.5
t41 -22.5t47.5 -10.5q33 0 59 14.5t43 31.5v-88q-15 -20 -46 -39t-72 -19z" />
    <glyph glyph-name="odieresis" unicode="&#xf6;" horiz-adv-x="850" 
d="M266 1118q-38 0 -57 20.5t-19 55.5t19 55.5t57 20.5q36 0 55 -20.5t19 -55.5t-19 -55.5t-55 -20.5zM582 1118q-36 0 -55 20.5t-19 55.5t19 55.5t55 20.5q38 0 57 -20.5t19 -55.5t-19 -55.5t-57 -20.5zM424 -24q-86 0 -146 25t-97.5 85t-55 161t-17.5 253q0 151 18 251.5
t56.5 161t98.5 86t143 25.5q86 0 146.5 -25t98.5 -85t55.5 -161t17.5 -253q0 -151 -18 -251.5t-57 -161t-99 -86t-144 -25.5zM424 82q57 0 94.5 19.5t60 67.5t32 128.5t9.5 202.5q0 121 -9.5 201.5t-32 128.5t-60 68t-94.5 20q-56 0 -93.5 -20t-60 -68t-31.5 -128.5
t-9 -201.5q0 -122 9 -202.5t31.5 -128.5t60 -67.5t93.5 -19.5z" />
    <glyph glyph-name="divide" unicode="&#xf7;" horiz-adv-x="868" 
d="M434 196q-39 0 -59.5 22t-20.5 58t20.5 58t59.5 22q38 0 59 -22t21 -58t-21 -58t-59 -22zM434 944q-39 0 -59.5 22t-20.5 58t20.5 58t59.5 22q38 0 59 -22t21 -58t-21 -58t-59 -22zM90 702h688v-104h-688v104z" />
    <glyph glyph-name="oslash" unicode="&#xf8;" horiz-adv-x="850" 
d="M172 98q-33 60 -48.5 158t-15.5 244q0 151 18 251.5t56.5 161t98.5 86t143 25.5q59 0 105 -11t81 -37l62 124h104l-100 -198q35 -62 50.5 -159.5t15.5 -242.5q0 -151 -18 -251.5t-57 -161t-99 -86t-144 -25.5q-59 0 -104.5 11t-81.5 35l-60 -122h-104zM230 500
q0 -81 1.5 -144t10.5 -116l314 626q-43 52 -132 52q-56 0 -93.5 -20t-60 -68t-31.5 -128.5t-9 -201.5zM424 82q57 0 94.5 19.5t60 67.5t32 128.5t9.5 202.5q0 81 -2.5 143t-11.5 115l-312 -626q23 -27 54.5 -38.5t75.5 -11.5z" />
    <glyph glyph-name="ugrave" unicode="&#xf9;" horiz-adv-x="856" 
d="M614 52q-44 -38 -96.5 -57t-109.5 -19q-80 0 -133 27t-84.5 72t-45 105t-13.5 126v694h120v-674q0 -54 8 -99t28.5 -78t55.5 -51t88 -18q50 0 89.5 15.5t72.5 38.5v866h118v-1000h-86zM234 1288h152l116 -176h-110z" />
    <glyph glyph-name="uacute" unicode="&#xfa;" horiz-adv-x="856" 
d="M462 1288h152l-158 -176h-110zM614 52q-44 -38 -96.5 -57t-109.5 -19q-80 0 -133 27t-84.5 72t-45 105t-13.5 126v694h120v-674q0 -54 8 -99t28.5 -78t55.5 -51t88 -18q50 0 89.5 15.5t72.5 38.5v866h118v-1000h-86z" />
    <glyph glyph-name="ucircumflex" unicode="&#xfb;" horiz-adv-x="856" 
d="M220 1182l204 116l204 -116v-80l-204 76l-204 -76v80zM614 52q-44 -38 -96.5 -57t-109.5 -19q-80 0 -133 27t-84.5 72t-45 105t-13.5 126v694h120v-674q0 -54 8 -99t28.5 -78t55.5 -51t88 -18q50 0 89.5 15.5t72.5 38.5v866h118v-1000h-86z" />
    <glyph glyph-name="udieresis" unicode="&#xfc;" horiz-adv-x="856" 
d="M266 1118q-38 0 -57 20.5t-19 55.5t19 55.5t57 20.5q36 0 55 -20.5t19 -55.5t-19 -55.5t-55 -20.5zM582 1118q-36 0 -55 20.5t-19 55.5t19 55.5t55 20.5q38 0 57 -20.5t19 -55.5t-19 -55.5t-57 -20.5zM614 52q-44 -38 -96.5 -57t-109.5 -19q-80 0 -133 27t-84.5 72
t-45 105t-13.5 126v694h120v-674q0 -54 8 -99t28.5 -78t55.5 -51t88 -18q50 0 89.5 15.5t72.5 38.5v866h118v-1000h-86z" />
    <glyph glyph-name="yacute" unicode="&#xfd;" horiz-adv-x="748" 
d="M312 8l-274 992h124l152 -582q8 -32 17 -67t17 -71t15.5 -72t12.5 -68q4 32 11 68t15 72t17 71t17 67l154 582h120l-362 -1300h-124zM412 1288h152l-158 -176h-110z" />
    <glyph glyph-name="thorn" unicode="&#xfe;" horiz-adv-x="860" 
d="M142 1300h120v-338q38 29 85 45.5t101 16.5q80 0 137.5 -23.5t94.5 -82.5t54.5 -160.5t17.5 -257.5q0 -154 -18.5 -255t-56 -161t-94.5 -84t-135 -24q-54 0 -101 16.5t-85 43.5v-336h-120v1600zM426 918q-48 0 -90 -15.5t-74 -38.5v-730q32 -23 74 -37.5t90 -14.5
q58 0 97 19t62.5 66.5t33 128t9.5 204.5t-9.5 204.5t-33 128t-62.5 66.5t-97 19z" />
    <glyph glyph-name="ydieresis" unicode="&#xff;" horiz-adv-x="748" 
d="M312 8l-274 992h124l152 -582q8 -32 17 -67t17 -71t15.5 -72t12.5 -68q4 32 11 68t15 72t17 71t17 67l154 582h120l-362 -1300h-124zM216 1118q-38 0 -57 20.5t-19 55.5t19 55.5t57 20.5q36 0 55 -20.5t19 -55.5t-19 -55.5t-55 -20.5zM532 1118q-36 0 -55 20.5t-19 55.5
t19 55.5t55 20.5q38 0 57 -20.5t19 -55.5t-19 -55.5t-57 -20.5z" />
    <glyph glyph-name="quotedbl" unicode="&#x22;" horiz-adv-x="558" 
d="M104 900q-7 53 -13.5 103t-11.5 93.5t-8 79t-3 60.5q0 39 18.5 61.5t57.5 22.5t57.5 -22.5t18.5 -61.5q0 -25 -3 -60.5t-8 -79t-11.5 -93.5t-13.5 -103h-80v0zM374 900q-7 53 -13.5 103t-11.5 93.5t-8 79t-3 60.5q0 39 18.5 61.5t57.5 22.5t57.5 -22.5t18.5 -61.5
q0 -25 -3 -60.5t-8 -79t-11.5 -93.5t-13.5 -103h-80v0z" />
    <glyph glyph-name="exclam" unicode="!" horiz-adv-x="484" 
d="M242 -20q-39 0 -59.5 22t-20.5 58q0 38 20.5 60t59.5 22t59.5 -22t20.5 -60q0 -36 -20.5 -58t-59.5 -22zM170 1300h144l-28 -950h-88z" />
    <glyph glyph-name="lslash" unicode="&#x142;" horiz-adv-x="500" 
d="M66 602l76 38v660h120v-598l160 84v-118l-160 -84v-376q0 -30 4.5 -51.5t16.5 -35.5t34 -20.5t57 -6.5h48v-102h-76q-42 0 -79 8t-65 29t-44 58.5t-16 96.5v338l-76 -38v118z" />
    <glyph glyph-name="minus" unicode="&#x2212;" horiz-adv-x="868" 
d="M90 704h688v-106h-688v106z" />
    <glyph glyph-name="Lslash" unicode="&#x141;" horiz-adv-x="738" 
d="M72 608l102 54v638h124v-574l158 84v-118l-158 -84v-500h408v-108h-532v544l-102 -54v118z" />
    <glyph glyph-name="zero.alt" horiz-adv-x="968" 
d="M488 576q-36 0 -55 19.5t-19 54.5t19 54.5t55 19.5t56 -19.5t20 -54.5t-20 -54.5t-56 -19.5zM484 -24q-103 0 -174.5 31t-116.5 108t-65 207t-20 328q0 196 21 325.5t66 207t116.5 109.5t172.5 32q103 0 174.5 -31t116.5 -108t65 -207t20 -328q0 -197 -21 -326.5
t-66 -207t-116.5 -109t-172.5 -31.5zM484 86q70 0 117.5 25.5t76 89.5t40.5 173t12 276t-12 276t-40.5 173t-76 89.5t-117.5 25.5q-71 0 -118 -25.5t-75.5 -89.5t-40.5 -173t-12 -276t12 -276t40.5 -173t75.5 -89.5t118 -25.5z" />
    <glyph glyph-name="notequal" unicode="&#x2260;" horiz-adv-x="868" 
d="M90 850h394l116 218h104l-116 -218h190v-104h-246l-96 -182h342v-104h-396l-116 -218h-104l116 218h-188v104h242l96 182h-338v104z" />
    <glyph glyph-name="infinity" unicode="&#x221e;" horiz-adv-x="1188" 
d="M878 210q-49 0 -89 15t-74 41t-63.5 62t-57.5 78q-28 -42 -57.5 -78t-64 -62t-74.5 -41t-88 -15q-115 0 -172.5 75.5t-57.5 214.5q0 135 58.5 212.5t171.5 77.5q48 0 88 -15t74.5 -42t64 -63t57.5 -78q28 42 57.5 78t63.5 63t74 42t89 15q115 0 172.5 -75.5t57.5 -214.5
q0 -135 -58 -212.5t-172 -77.5zM868 690q-32 0 -62.5 -16t-59 -43t-53.5 -61t-47 -70q22 -37 47 -71t53.5 -60.5t59 -42.5t62.5 -16q63 0 97.5 45t34.5 145t-34.5 145t-97.5 45zM320 310q32 0 62.5 16t59 42.5t53.5 60.5t47 71q-22 36 -47 70t-53.5 61t-59 43t-62.5 16
q-62 0 -96 -45t-34 -145t34 -145t96 -45z" />
    <glyph glyph-name="lessequal" unicode="&#x2264;" horiz-adv-x="890" 
d="M90 104h704v-104h-704v104zM90 618v72l660 340l50 -94l-554 -282l554 -282l-50 -94z" />
    <glyph glyph-name="greaterequal" unicode="&#x2265;" horiz-adv-x="890" 
d="M98 104h702v-104h-702v104zM90 372l554 282l-554 282l50 94l660 -340v-72l-660 -340z" />
    <glyph glyph-name="partialdiff" unicode="&#x2202;" horiz-adv-x="852" 
d="M422 -24q-96 0 -157 36t-96 96t-48 137t-13 159q0 88 16.5 164t52.5 131.5t91.5 87t133.5 31.5q63 0 120 -16.5t98 -39.5q-8 229 -77.5 342.5t-210.5 113.5q-28 0 -54.5 -4.5t-49.5 -11.5t-41.5 -15t-30.5 -15v112q27 15 78 27.5t114 12.5q101 0 176 -38t124.5 -120
t73.5 -210t24 -308q0 -185 -14.5 -313t-51 -207.5t-99 -115.5t-159.5 -36zM422 82q58 0 96.5 25t61.5 82t32.5 149t9.5 226v94q-38 21 -86.5 36.5t-107.5 15.5t-97.5 -22t-61 -62.5t-31 -97t-8.5 -124.5t8 -127t29.5 -102.5t58.5 -68t96 -24.5z" />
    <glyph glyph-name="summation" unicode="&#x2211;" horiz-adv-x="710" 
d="M62 -210l296 708l-296 712v90h586v-108h-450l290 -692l-294 -692h454v-108h-586v90z" />
    <glyph glyph-name="product" unicode="&#x220f;" horiz-adv-x="1004" 
d="M718 1192h-432v-1492h-124v1600h682v-1600h-126v1492z" />
    <glyph glyph-name="pi" unicode="&#x3c0;" horiz-adv-x="848" 
d="M586 898h-324v-898h-120v1000h564v-1000h-120v898z" />
    <glyph glyph-name="integral" unicode="&#x222b;" horiz-adv-x="402" 
d="M-38 -198h40q37 0 63.5 4.5t43.5 18.5t25 40t8 69v1146q0 71 19 114.5t51 67t73.5 31t86.5 7.5h68v-102h-40q-37 0 -63.5 -4.5t-43.5 -18.5t-25 -40t-8 -69v-1146q0 -71 -19.5 -114.5t-51.5 -67t-73.5 -31t-85.5 -7.5h-68v102z" />
    <glyph glyph-name="Omega" unicode="&#x2126;" horiz-adv-x="978" 
d="M50 108h226q-32 45 -61.5 109t-52 140.5t-36.5 161.5t-14 171q0 181 21.5 302.5t67.5 195t117 105t170 31.5q100 0 171.5 -30.5t117 -103.5t66.5 -195t21 -305q0 -86 -14 -171t-36.5 -161.5t-52.5 -140.5t-61 -109h228v-108h-368v88q37 52 69 122t55.5 148t36.5 159.5
t13 156.5q0 159 -12.5 263t-41.5 165.5t-76 86.5t-116 25q-68 0 -115 -25t-76 -86.5t-42 -165.5t-13 -263q0 -75 13.5 -156.5t37 -159.5t55.5 -148t70 -122v-88h-368v108z" />
    <glyph glyph-name="radical" unicode="&#x221a;" horiz-adv-x="764" 
d="M72 896h-142v104h240l150 -582q9 -33 18 -69t17 -72.5t15 -72.5t12 -68q4 32 11 68t14.5 72.5t16.5 72.5t18 69l232 882h122l-352 -1300h-126z" />
    <glyph glyph-name="approxequal" unicode="&#x2248;" horiz-adv-x="868" 
d="M612 420q-50 0 -98 12.5t-93 27.5t-88 27.5t-83 12.5q-28 0 -53 -5.5t-46 -13.5t-36.5 -18t-24.5 -19v104q7 10 23 20t38 18.5t49 14t56 5.5q49 0 97 -12.5t93 -27.5t88 -27.5t84 -12.5q56 0 98 18t62 38v-106q-8 -9 -24 -19t-38 -18t-48.5 -13.5t-55.5 -5.5zM612 708
q-50 0 -98 12t-93 27t-88 27t-83 12q-28 0 -53 -5t-46 -13t-36.5 -17.5t-24.5 -18.5v104q7 10 23 20t38 18t49 13t56 5q49 0 97 -12.5t93 -27.5t88 -27.5t84 -12.5q56 0 98 19t62 37v-104q-17 -20 -62 -38t-104 -18z" />
    <glyph glyph-name="Delta" unicode="&#x2206;" horiz-adv-x="864" 
d="M368 1300h128l358 -1300h-846zM162 108h534l-156 582q-16 59 -32 121.5t-31 124t-27.5 118.5t-19.5 106q-8 -49 -19.5 -106t-26 -118.5t-30.5 -124t-32 -121.5z" />
    <glyph glyph-name="lozenge" unicode="&#x25ca;" horiz-adv-x="824" 
d="M30 650l322 650h120l322 -650l-322 -650h-120zM310 342q13 -26 27.5 -56t28.5 -62t26 -64.5t20 -61.5q8 29 20.5 61.5t27 64.5t29 62t27.5 56l148 308l-148 308q-12 25 -26.5 55t-29 61.5t-27.5 64t-21 61.5q-8 -29 -20 -61.5t-26.5 -64t-29 -61.5t-26.5 -55l-148 -308z
" />
    <glyph glyph-name="fraction" unicode="&#x2044;" horiz-adv-x="358" 
d="M508 1300h110l-768 -1300h-110z" />
    <glyph glyph-name="apple" horiz-adv-x="1340" 
d="M612 230q-60 0 -112.5 24t-91.5 71.5t-61.5 118t-22.5 162.5q0 64 15 121.5t44.5 104.5t73 81.5t101.5 52.5q-80 -53 -113 -139.5t-33 -210.5q0 -68 14.5 -126.5t41.5 -101.5t65 -67.5t85 -24.5t74.5 20t29.5 44l-2 2q-14 -5 -31.5 -6.5t-34.5 -1.5q-33 0 -60.5 20.5
t-47.5 57t-31 87t-11 109.5q0 67 10 128.5t35.5 109t67.5 76t107 28.5q60 0 112.5 -24t91.5 -71.5t61.5 -118t22.5 -162.5q0 -64 -15 -121.5t-45 -105t-74 -82.5t-102 -53q80 53 114 140t34 212q0 68 -15 126.5t-42 101.5t-65 67.5t-84 24.5q-47 0 -74.5 -20t-29.5 -44l2 -2
q14 5 31.5 6.5t34.5 1.5q33 0 60.5 -20.5t47.5 -57t31 -87t11 -109.5q0 -67 -10 -128.5t-35.5 -109t-68 -76t-106.5 -28.5zM616 158q111 0 201.5 30.5t154.5 88.5t99 141.5t35 189.5q0 109 -31 190.5t-83.5 135.5t-122.5 81t-149 27q-111 0 -201.5 -30.5t-154.5 -88.5
t-99 -141.5t-35 -189.5q0 -109 31 -190.5t83.5 -135.5t122.5 -81t149 -27zM80 1180h1180v-1180h-1180v1180z" />
    <glyph glyph-name="dotlessi" unicode="&#x131;" horiz-adv-x="404" 
d="M142 1000h120v-1000h-120v1000z" />
    <glyph glyph-name="breve" unicode="&#x2d8;" 
d="M0 1110q-50 0 -88 15t-65 35.5t-43.5 42t-21.5 35.5l40 62q6 -8 19.5 -21.5t35.5 -27t52.5 -23.5t70.5 -10t70.5 10t52.5 23.5t35.5 27t19.5 21.5l40 -62q-5 -14 -21.5 -35.5t-43.5 -42t-65.5 -35.5t-87.5 -15z" />
    <glyph glyph-name="dotaccent" unicode="&#x2d9;" 
d="M0 1118q-38 0 -57 20t-19 56t19 56t57 20t57 -20t19 -56t-19 -56t-57 -20z" />
    <glyph glyph-name="ring" unicode="&#x2da;" 
d="M0 1078q-40 0 -73.5 12t-57.5 35t-37.5 56t-13.5 75t14 75.5t38 56.5t57.5 35.5t72.5 12.5q40 0 73 -12t57 -35t37 -56.5t13 -76.5q0 -41 -14 -74t-38 -56t-57 -35.5t-71 -12.5zM0 1156q41 0 70.5 24.5t29.5 75.5q0 26 -8 45.5t-21.5 32t-32 18.5t-38.5 6
q-41 0 -70.5 -25t-29.5 -77q0 -51 29.5 -75.5t70.5 -24.5z" />
    <glyph glyph-name="hungarumlaut" unicode="&#x2dd;" 
d="M-78 1288h138l-154 -176h-100zM174 1288h140l-156 -176h-100z" />
    <glyph glyph-name="ogonek" unicode="&#x2db;" 
d="M-48 -298q-62 0 -100 24.5t-38 77.5q0 32 16.5 64t39.5 59t47 46t39 27h94q-14 -10 -36 -29t-43 -42.5t-36 -48.5t-15 -46q0 -24 16.5 -34t45.5 -10q24 0 41.5 3t26.5 5v-76q-15 -8 -41.5 -14t-56.5 -6z" />
    <glyph glyph-name="caron" unicode="&#x2c7;" 
d="M-204 1220v78l204 -76l204 76v-78l-204 -118z" />
    <glyph glyph-name="uni0326" unicode="&#x326;" 
d="M-58 -384q9 33 15.5 65.5t6.5 52.5q0 22 -3.5 39t-7.5 31t-7.5 27t-3.5 27q0 30 15.5 44t42.5 14q33 0 45.5 -20.5t12.5 -47.5q0 -39 -10.5 -101t-37.5 -131h-68v0z" />
    <glyph glyph-name="uni0312" unicode="&#x312;" 
d="M0 1110q-33 0 -45.5 20.5t-12.5 47.5q0 41 10.5 102t37.5 130h68q-9 -33 -15.5 -65.5t-6.5 -50.5q0 -23 3.5 -40.5t7.5 -31.5t7.5 -27t3.5 -27q0 -29 -15.5 -43.5t-42.5 -14.5z" />
    <glyph glyph-name="Amacron" unicode="&#x100;" horiz-adv-x="860" 
d="M366 1300h128l354 -1300h-132l-86 318h-404l-86 -318h-128zM252 426h350l-68 264q-14 56 -29.5 117t-29.5 121t-26.5 117t-20.5 107q-8 -50 -19.5 -107t-25 -117t-29 -121t-30.5 -117zM210 1538h440v-98h-440v98z" />
    <glyph glyph-name="Abreve" unicode="&#x102;" horiz-adv-x="860" 
d="M366 1300h128l354 -1300h-132l-86 318h-404l-86 -318h-128zM252 426h350l-68 264q-14 56 -29.5 117t-29.5 121t-26.5 117t-20.5 107q-8 -50 -19.5 -107t-25 -117t-29 -121t-30.5 -117zM252 1594q6 -8 19.5 -21.5t35.5 -27t52.5 -23.5t70.5 -10t70.5 10t52.5 23.5t35.5 27
t19.5 21.5l40 -64q-5 -13 -21.5 -34t-43.5 -41.5t-65.5 -35.5t-87.5 -15q-50 0 -88 15t-65 35.5t-43.5 41.5t-21.5 34z" />
    <glyph glyph-name="Aogonek" unicode="&#x104;" horiz-adv-x="860" 
d="M748 -298q-62 0 -100 24.5t-38 75.5q0 32 17 64.5t40 59.5t47 46.5t38 27.5h-36l-86 318h-404l-86 -318h-128l354 1300h128l354 -1300h-2q-11 -9 -33 -28.5t-43.5 -43.5t-37.5 -49.5t-16 -46.5q0 -23 17.5 -33.5t46.5 -10.5q24 0 41 3.5t25 6.5v-78q-15 -8 -40.5 -13
t-57.5 -5zM252 426h350l-68 264q-14 56 -29.5 117t-29.5 121t-26.5 117t-20.5 107q-8 -50 -19.5 -107t-25 -117t-29 -121t-30.5 -117z" />
    <glyph glyph-name="AEacute" unicode="&#x1fc;" horiz-adv-x="1200" 
d="M568 318h-340l-86 -318h-130l356 1300h730v-108h-406v-468h322v-108h-322v-508h406v-108h-530v318zM254 426h314v766h-108zM740 1582h152l-158 -176h-110z" />
    <glyph glyph-name="Cacute" unicode="&#x106;" horiz-adv-x="792" 
d="M508 -24q-117 0 -194 32t-123 110t-64.5 207.5t-18.5 324.5q0 193 22 322.5t70 207.5t123.5 111t182.5 33q65 0 123 -14t87 -32v-120q-13 9 -35 18.5t-49 17.5t-56.5 13t-57.5 5q-52 0 -93 -10t-72 -35t-53 -66.5t-35.5 -104t-20 -148t-6.5 -198.5q0 -175 13.5 -284.5
t45.5 -171t85.5 -84t133.5 -22.5q31 0 63 5.5t60.5 13.5t51.5 17.5t37 17.5v-118q-14 -9 -39.5 -17.5t-56 -15.5t-63.5 -11t-61 -4zM508 1582h152l-158 -176h-110z" />
    <glyph glyph-name="Ccaron" unicode="&#x10c;" horiz-adv-x="792" 
d="M508 -24q-117 0 -194 32t-123 110t-64.5 207.5t-18.5 324.5q0 193 22 322.5t70 207.5t123.5 111t182.5 33q65 0 123 -14t87 -32v-120q-13 9 -35 18.5t-49 17.5t-56.5 13t-57.5 5q-52 0 -93 -10t-72 -35t-53 -66.5t-35.5 -104t-20 -148t-6.5 -198.5q0 -175 13.5 -284.5
t45.5 -171t85.5 -84t133.5 -22.5q31 0 63 5.5t60.5 13.5t51.5 17.5t37 17.5v-118q-14 -9 -39.5 -17.5t-56 -15.5t-63.5 -11t-61 -4zM266 1592l204 -76l204 76v-80l-204 -116l-204 116v80z" />
    <glyph glyph-name="Ccircumflex" unicode="&#x108;" horiz-adv-x="792" 
d="M508 -24q-117 0 -194 32t-123 110t-64.5 207.5t-18.5 324.5q0 193 22 322.5t70 207.5t123.5 111t182.5 33q65 0 123 -14t87 -32v-120q-13 9 -35 18.5t-49 17.5t-56.5 13t-57.5 5q-52 0 -93 -10t-72 -35t-53 -66.5t-35.5 -104t-20 -148t-6.5 -198.5q0 -175 13.5 -284.5
t45.5 -171t85.5 -84t133.5 -22.5q31 0 63 5.5t60.5 13.5t51.5 17.5t37 17.5v-118q-14 -9 -39.5 -17.5t-56 -15.5t-63.5 -11t-61 -4zM266 1476l204 116l204 -116v-80l-204 76l-204 -76v80z" />
    <glyph glyph-name="Cdotaccent" unicode="&#x10a;" horiz-adv-x="792" 
d="M508 -24q-117 0 -194 32t-123 110t-64.5 207.5t-18.5 324.5q0 193 22 322.5t70 207.5t123.5 111t182.5 33q65 0 123 -14t87 -32v-120q-13 9 -35 18.5t-49 17.5t-56.5 13t-57.5 5q-52 0 -93 -10t-72 -35t-53 -66.5t-35.5 -104t-20 -148t-6.5 -198.5q0 -175 13.5 -284.5
t45.5 -171t85.5 -84t133.5 -22.5q31 0 63 5.5t60.5 13.5t51.5 17.5t37 17.5v-118q-14 -9 -39.5 -17.5t-56 -15.5t-63.5 -11t-61 -4zM470 1412q-38 0 -57 20t-19 56q0 74 76 74q38 0 57 -19.5t19 -54.5q0 -36 -19 -56t-57 -20z" />
    <glyph glyph-name="Dcaron" unicode="&#x10e;" horiz-adv-x="970" 
d="M162 1300h290q114 0 192.5 -30.5t126.5 -105.5t69.5 -200t21.5 -314q0 -188 -21.5 -313t-69.5 -200t-126.5 -106t-192.5 -31h-290v1300zM286 1192v-1084h156q53 0 95.5 9t75 32t55 62.5t37 99.5t21 143.5t6.5 195.5q0 111 -6.5 195t-21 144t-37 99.5t-55 62.5t-75 32
t-95.5 9h-156zM256 1592l204 -76l204 76v-80l-204 -116l-204 116v80z" />
    <glyph glyph-name="Dcroat" unicode="&#x110;" horiz-adv-x="980" 
d="M62 706h110v594h290q114 0 192.5 -30.5t126.5 -105.5t69.5 -200t21.5 -314q0 -188 -21.5 -313t-69.5 -200t-126.5 -106t-192.5 -31h-290v600h-110v106zM296 1192v-486h224v-106h-224v-492h156q53 0 95.5 9t75 32t55 62.5t37 99.5t21 143.5t6.5 195.5q0 111 -6.5 195
t-21 144t-37 99.5t-55 62.5t-75 32t-95.5 9h-156z" />
    <glyph glyph-name="Ebreve" unicode="&#x114;" horiz-adv-x="818" 
d="M162 1300h554v-108h-430v-468h346v-108h-346v-508h430v-108h-554v1300zM268 1594q6 -8 19.5 -21.5t35.5 -27t52.5 -23.5t70.5 -10t70.5 10t52.5 23.5t35.5 27t19.5 21.5l40 -64q-5 -13 -21.5 -34t-43.5 -41.5t-65.5 -35.5t-87.5 -15q-50 0 -88 15t-65 35.5t-43.5 41.5
t-21.5 34z" />
    <glyph glyph-name="Ecaron" unicode="&#x11a;" horiz-adv-x="818" 
d="M162 1300h554v-108h-430v-468h346v-108h-346v-508h430v-108h-554v1300zM242 1592l204 -76l204 76v-80l-204 -116l-204 116v80z" />
    <glyph glyph-name="Edotaccent" unicode="&#x116;" horiz-adv-x="818" 
d="M162 1300h554v-108h-430v-468h346v-108h-346v-508h430v-108h-554v1300zM446 1412q-38 0 -57 20t-19 56q0 74 76 74q38 0 57 -19.5t19 -54.5q0 -36 -19 -56t-57 -20z" />
    <glyph glyph-name="Emacron" unicode="&#x112;" horiz-adv-x="818" 
d="M162 1300h554v-108h-430v-468h346v-108h-346v-508h430v-108h-554v1300zM226 1538h440v-98h-440v98z" />
    <glyph glyph-name="Eogonek" unicode="&#x118;" horiz-adv-x="818" 
d="M162 1300h554v-108h-430v-468h346v-108h-346v-508h430v-108h-2q-11 -9 -33 -28.5t-43.5 -43.5t-37.5 -49.5t-16 -46.5q0 -23 17.5 -33.5t46.5 -10.5q24 0 41 3.5t25 6.5v-78q-15 -8 -40.5 -13t-57.5 -5q-62 0 -100 24.5t-38 75.5q0 32 17 64.5t40 59.5t47 46.5t38 27.5
h-458v1300z" />
    <glyph glyph-name="Eng" unicode="&#x14a;" horiz-adv-x="1032" 
d="M566 -324q-44 0 -78 5.5t-52 14.5v104q24 -9 52.5 -15.5t67.5 -6.5q31 0 64 8t61 32t47 67.5t22 114.5h-22l-466 1114q8 -66 13 -147.5t5 -162.5v-804h-118v1300h142l464 -1114q-6 66 -10 146.5t-4 163.5v804h118v-1274q0 -167 -76.5 -258.5t-229.5 -91.5z" />
    <glyph glyph-name="Gbreve" unicode="&#x11e;" horiz-adv-x="962" 
d="M522 -24q-122 0 -201.5 31t-127 108t-66.5 207t-19 328q0 202 27 333t82 206.5t137.5 105t193.5 29.5q33 0 67 -4t65 -11.5t56.5 -17.5t41.5 -21v-118q-13 8 -36 18.5t-53 19.5t-64.5 15.5t-70.5 6.5q-54 0 -98 -9t-79 -32.5t-61 -63.5t-43.5 -102.5t-26 -150
t-8.5 -204.5q0 -174 13.5 -284t46 -172t86.5 -85t136 -23q54 0 98 8.5t76 19.5v496h-248v108h372v-678q-18 -10 -50.5 -21t-73 -20.5t-85 -16t-87.5 -6.5zM338 1594q6 -8 19.5 -21.5t35.5 -27t52.5 -23.5t70.5 -10t70.5 10t52.5 23.5t35.5 27t19.5 21.5l40 -64
q-5 -13 -21.5 -34t-43.5 -41.5t-65.5 -35.5t-87.5 -15q-50 0 -88 15t-65 35.5t-43.5 41.5t-21.5 34z" />
    <glyph glyph-name="Gcircumflex" unicode="&#x11c;" horiz-adv-x="962" 
d="M522 -24q-122 0 -201.5 31t-127 108t-66.5 207t-19 328q0 202 27 333t82 206.5t137.5 105t193.5 29.5q33 0 67 -4t65 -11.5t56.5 -17.5t41.5 -21v-118q-13 8 -36 18.5t-53 19.5t-64.5 15.5t-70.5 6.5q-54 0 -98 -9t-79 -32.5t-61 -63.5t-43.5 -102.5t-26 -150
t-8.5 -204.5q0 -174 13.5 -284t46 -172t86.5 -85t136 -23q54 0 98 8.5t76 19.5v496h-248v108h372v-678q-18 -10 -50.5 -21t-73 -20.5t-85 -16t-87.5 -6.5zM312 1476l204 116l204 -116v-80l-204 76l-204 -76v80z" />
    <glyph glyph-name="Gcommaaccent" unicode="&#x122;" horiz-adv-x="962" 
d="M454 -384q9 33 15.5 65.5t6.5 52.5q0 22 -3.5 39t-7.5 31t-7.5 27t-3.5 27q0 30 15.5 44t42.5 14q33 0 45.5 -20.5t12.5 -47.5q0 -39 -10.5 -101t-37.5 -131h-68v0zM522 -24q-122 0 -201.5 31t-127 108t-66.5 207t-19 328q0 202 27 333t82 206.5t137.5 105t193.5 29.5
q33 0 67 -4t65 -11.5t56.5 -17.5t41.5 -21v-118q-13 8 -36 18.5t-53 19.5t-64.5 15.5t-70.5 6.5q-54 0 -98 -9t-79 -32.5t-61 -63.5t-43.5 -102.5t-26 -150t-8.5 -204.5q0 -174 13.5 -284t46 -172t86.5 -85t136 -23q54 0 98 8.5t76 19.5v496h-248v108h372v-678
q-18 -10 -50.5 -21t-73 -20.5t-85 -16t-87.5 -6.5z" />
    <glyph glyph-name="Gdotaccent" unicode="&#x120;" horiz-adv-x="962" 
d="M522 -24q-122 0 -201.5 31t-127 108t-66.5 207t-19 328q0 202 27 333t82 206.5t137.5 105t193.5 29.5q33 0 67 -4t65 -11.5t56.5 -17.5t41.5 -21v-118q-13 8 -36 18.5t-53 19.5t-64.5 15.5t-70.5 6.5q-54 0 -98 -9t-79 -32.5t-61 -63.5t-43.5 -102.5t-26 -150
t-8.5 -204.5q0 -174 13.5 -284t46 -172t86.5 -85t136 -23q54 0 98 8.5t76 19.5v496h-248v108h372v-678q-18 -10 -50.5 -21t-73 -20.5t-85 -16t-87.5 -6.5zM516 1412q-38 0 -57 20t-19 56q0 74 76 74q38 0 57 -19.5t19 -54.5q0 -36 -19 -56t-57 -20z" />
    <glyph glyph-name="Hbar" unicode="&#x126;" horiz-adv-x="1048" 
d="M40 1056h132v244h124v-244h456v244h124v-244h130v-100h-130v-956h-124v614h-456v-614h-124v956h-132v100zM752 722v234h-456v-234h456z" />
    <glyph glyph-name="Hcircumflex" unicode="&#x124;" horiz-adv-x="1028" 
d="M742 614h-456v-614h-124v1300h124v-578h456v578h124v-1300h-124v614zM310 1476l204 116l204 -116v-80l-204 76l-204 -76v80z" />
    <glyph glyph-name="Ibreve" unicode="&#x12c;" horiz-adv-x="448" 
d="M162 1300h124v-1300h-124v1300zM46 1594q6 -8 19.5 -21.5t35.5 -27t52.5 -23.5t70.5 -10t70.5 10t52.5 23.5t35.5 27t19.5 21.5l40 -64q-5 -13 -21.5 -34t-43.5 -41.5t-65.5 -35.5t-87.5 -15q-50 0 -88 15t-65 35.5t-43.5 41.5t-21.5 34z" />
    <glyph glyph-name="Imacron" unicode="&#x12a;" horiz-adv-x="448" 
d="M162 1300h124v-1300h-124v1300zM4 1538h440v-98h-440v98z" />
    <glyph glyph-name="Iogonek" unicode="&#x12e;" horiz-adv-x="448" 
d="M162 1300h124v-1300q-11 -9 -33 -28.5t-43.5 -43.5t-37.5 -49.5t-16 -46.5q0 -23 17.5 -33.5t46.5 -10.5q24 0 41 3.5t25 6.5v-78q-15 -8 -40.5 -13t-57.5 -5q-62 0 -100 24.5t-38 75.5q0 32 17 64.5t40 59.5t47 46.5t38 27.5h-30v1300z" />
    <glyph glyph-name="Itilde" unicode="&#x128;" horiz-adv-x="448" 
d="M162 1300h124v-1300h-124v1300zM18 1516q15 20 46 38t72 18q34 0 58.5 -10.5t45 -22.5t41 -22.5t47.5 -10.5q33 0 59 15.5t43 32.5v-90q-15 -18 -46 -37t-72 -19q-35 0 -59 10.5t-44.5 22.5t-41 22.5t-47.5 10.5q-33 0 -59 -14.5t-43 -31.5v88z" />
    <glyph glyph-name="Idotaccent" unicode="&#x130;" horiz-adv-x="448" 
d="M162 1300h124v-1300h-124v1300zM224 1412q-38 0 -57 20t-19 56q0 74 76 74q38 0 57 -19.5t19 -54.5q0 -36 -19 -56t-57 -20z" />
    <glyph glyph-name="Jcircumflex" unicode="&#x134;" horiz-adv-x="660" 
d="M190 -24q-29 0 -56 3.5t-51 9t-43 12t-30 13.5v118q10 -6 29.5 -13.5t43.5 -14.5t51.5 -11.5t53.5 -4.5q41 0 77 8t62.5 35t41.5 77t15 134v958h126v-972q0 -95 -19.5 -162t-59.5 -109t-100 -61.5t-141 -19.5zM242 1476l204 116l204 -116v-80l-204 76l-204 -76v80z" />
    <glyph glyph-name="Kcommaaccent" unicode="&#x136;" horiz-adv-x="894" 
d="M444 -384q9 33 15.5 65.5t6.5 52.5q0 22 -3.5 39t-7.5 31t-7.5 27t-3.5 27q0 30 15.5 44t42.5 14q33 0 45.5 -20.5t12.5 -47.5q0 -39 -10.5 -101t-37.5 -131h-68v0zM162 1300h124v-608l436 608h146l-464 -636l490 -664h-156l-452 626v-626h-124v1300z" />
    <glyph glyph-name="Lacute" unicode="&#x139;" horiz-adv-x="720" 
d="M147 1300h124v-1192h408v-108h-532v1300zM246 1582h152l-158 -176h-110z" />
    <glyph glyph-name="Lcaron" unicode="&#x13d;" horiz-adv-x="720" 
d="M162 1300h124v-1192h408v-108h-532v1300zM398 1014q9 33 15.5 65.5t6.5 52.5q0 22 -3.5 39.5t-7.5 31.5t-7.5 26.5t-3.5 26.5q0 30 16 44t42 14q33 0 45.5 -20t12.5 -50q0 -38 -10.5 -99.5t-37.5 -130.5h-68v0z" />
    <glyph glyph-name="Lcommaaccent" unicode="&#x13b;" horiz-adv-x="720" 
d="M370 -384q9 33 15.5 65.5t6.5 52.5q0 22 -3.5 39t-7.5 31t-7.5 27t-3.5 27q0 30 15.5 44t42.5 14q33 0 45.5 -20.5t12.5 -47.5q0 -39 -10.5 -101t-37.5 -131h-68v0zM162 1300h124v-1192h408v-108h-532v1300z" />
    <glyph glyph-name="Ldot" unicode="&#x13f;" horiz-adv-x="760" 
d="M162 1300h124v-1192h408v-108h-532v1300zM546 581q-38 0 -57 20t-19 56t19 56t57 20t57 -20t19 -56t-19 -56t-57 -20z" />
    <glyph glyph-name="Nacute" unicode="&#x143;" horiz-adv-x="1032" 
d="M162 1300h142l464 -1114q-6 66 -10 146.5t-4 163.5v804h118v-1300h-144l-466 1114q8 -66 13 -147.5t5 -162.5v-804h-118v1300zM554 1582h152l-158 -176h-110z" />
    <glyph glyph-name="Ncaron" unicode="&#x147;" horiz-adv-x="1032" 
d="M162 1300h142l464 -1114q-6 66 -10 146.5t-4 163.5v804h118v-1300h-144l-466 1114q8 -66 13 -147.5t5 -162.5v-804h-118v1300zM312 1592l204 -76l204 76v-80l-204 -116l-204 116v80z" />
    <glyph glyph-name="Ncommaaccent" unicode="&#x145;" horiz-adv-x="1032" 
d="M458 -384q9 33 15.5 65.5t6.5 52.5q0 22 -3.5 39t-7.5 31t-7.5 27t-3.5 27q0 30 15.5 44t42.5 14q33 0 45.5 -20.5t12.5 -47.5q0 -39 -10.5 -101t-37.5 -131h-68v0zM162 1300h142l464 -1114q-6 66 -10 146.5t-4 163.5v804h118v-1300h-144l-466 1114q8 -66 13 -147.5
t5 -162.5v-804h-118v1300z" />
    <glyph glyph-name="Obreve" unicode="&#x14e;" horiz-adv-x="968" 
d="M484 -24q-103 0 -174.5 31t-116.5 108t-65 207t-20 328q0 196 21 325.5t66 207t116.5 109.5t172.5 32q103 0 174.5 -31t116.5 -108t65 -207t20 -328q0 -197 -21 -326.5t-66 -207t-116.5 -109t-172.5 -31.5zM484 86q70 0 117.5 25.5t76 89.5t40.5 173t12 276t-12 276
t-40.5 173t-76 89.5t-117.5 25.5q-71 0 -118 -25.5t-75.5 -89.5t-40.5 -173t-12 -276t12 -276t40.5 -173t75.5 -89.5t118 -25.5zM306 1594q6 -8 19.5 -21.5t35.5 -27t52.5 -23.5t70.5 -10t70.5 10t52.5 23.5t35.5 27t19.5 21.5l40 -64q-5 -13 -21.5 -34t-43.5 -41.5
t-65.5 -35.5t-87.5 -15q-50 0 -88 15t-65 35.5t-43.5 41.5t-21.5 34z" />
    <glyph glyph-name="Ohungarumlaut" unicode="&#x150;" horiz-adv-x="968" 
d="M484 -24q-103 0 -174.5 31t-116.5 108t-65 207t-20 328q0 196 21 325.5t66 207t116.5 109.5t172.5 32q103 0 174.5 -31t116.5 -108t65 -207t20 -328q0 -197 -21 -326.5t-66 -207t-116.5 -109t-172.5 -31.5zM484 86q70 0 117.5 25.5t76 89.5t40.5 173t12 276t-12 276
t-40.5 173t-76 89.5t-117.5 25.5q-71 0 -118 -25.5t-75.5 -89.5t-40.5 -173t-12 -276t12 -276t40.5 -173t75.5 -89.5t118 -25.5zM400 1582h138l-154 -176h-100zM652 1582h138l-154 -176h-100z" />
    <glyph glyph-name="Omacron" unicode="&#x14c;" horiz-adv-x="968" 
d="M484 -24q-103 0 -174.5 31t-116.5 108t-65 207t-20 328q0 196 21 325.5t66 207t116.5 109.5t172.5 32q103 0 174.5 -31t116.5 -108t65 -207t20 -328q0 -197 -21 -326.5t-66 -207t-116.5 -109t-172.5 -31.5zM484 86q70 0 117.5 25.5t76 89.5t40.5 173t12 276t-12 276
t-40.5 173t-76 89.5t-117.5 25.5q-71 0 -118 -25.5t-75.5 -89.5t-40.5 -173t-12 -276t12 -276t40.5 -173t75.5 -89.5t118 -25.5zM264 1538h440v-98h-440v98z" />
    <glyph glyph-name="Oslashacute" unicode="&#x1fe;" horiz-adv-x="968" 
d="M184 132q-41 78 -58.5 204t-17.5 314q0 196 21 325.5t66 207t116.5 109.5t172.5 32q74 0 132 -16t100 -54l70 146h108l-110 -232q39 -78 57.5 -204.5t18.5 -313.5q0 -197 -21 -326.5t-66 -207t-116.5 -109t-172.5 -31.5q-75 0 -132.5 16t-101.5 52l-68 -144h-108zM484 86
q70 0 117.5 25.5t76 89.5t40.5 173t12 276q0 116 -4.5 206.5t-15.5 153.5l-406 -850q29 -38 74.5 -56t105.5 -18zM238 650q0 -118 4 -207.5t16 -154.5l404 850q-56 76 -178 76q-71 0 -118 -25.5t-75.5 -89.5t-40.5 -173t-12 -276zM522 1582h152l-158 -176h-110z" />
    <glyph glyph-name="Racute" unicode="&#x154;" horiz-adv-x="926" 
d="M162 1300h248q92 0 167.5 -17.5t129 -60t82.5 -114t29 -178.5q0 -87 -20.5 -148t-55 -101.5t-79 -64t-91.5 -36.5l282 -580h-140l-262 560h-166v-560h-124v1300zM286 1192v-524h110q66 0 120 9.5t92 37.5t59 79.5t21 135.5t-21 135.5t-59 79.5t-92 37.5t-120 9.5h-110z
M482 1582h152l-158 -176h-110z" />
    <glyph glyph-name="Rcaron" unicode="&#x158;" horiz-adv-x="926" 
d="M162 1300h248q92 0 167.5 -17.5t129 -60t82.5 -114t29 -178.5q0 -87 -20.5 -148t-55 -101.5t-79 -64t-91.5 -36.5l282 -580h-140l-262 560h-166v-560h-124v1300zM286 1192v-524h110q66 0 120 9.5t92 37.5t59 79.5t21 135.5t-21 135.5t-59 79.5t-92 37.5t-120 9.5h-110z
M240 1592l204 -76l204 76v-80l-204 -116l-204 116v80z" />
    <glyph glyph-name="Rcommaaccent" unicode="&#x156;" horiz-adv-x="926" 
d="M426 -384q9 33 15.5 65.5t6.5 52.5q0 22 -3.5 39t-7.5 31t-7.5 27t-3.5 27q0 30 15.5 44t42.5 14q33 0 45.5 -20.5t12.5 -47.5q0 -39 -10.5 -101t-37.5 -131h-68v0zM162 1300h248q92 0 167.5 -17.5t129 -60t82.5 -114t29 -178.5q0 -87 -20.5 -148t-55 -101.5t-79 -64
t-91.5 -36.5l282 -580h-140l-262 560h-166v-560h-124v1300zM286 1192v-524h110q66 0 120 9.5t92 37.5t59 79.5t21 135.5t-21 135.5t-59 79.5t-92 37.5t-120 9.5h-110z" />
    <glyph glyph-name="Sacute" unicode="&#x15a;" horiz-adv-x="728" 
d="M294 -24q-80 0 -136 14t-82 28v118q14 -8 35.5 -16t48.5 -15.5t58 -12t64 -4.5q55 0 100 11t76.5 36t48.5 65t17 98q0 46 -12 82t-33 67.5t-50 60t-63 58.5l-104 88q-39 33 -73.5 67.5t-60 75t-40 90t-14.5 113.5q0 78 25 138.5t71.5 101.5t113.5 62.5t152 21.5
q62 0 112 -12t76 -26v-118q-27 14 -74.5 29t-103.5 15q-55 0 -99 -11t-75.5 -36t-48.5 -65t-17 -98q0 -46 11.5 -82t32.5 -67.5t50 -60t64 -58.5l102 -88q39 -33 73.5 -67.5t60.5 -75t41 -90t15 -113.5q0 -78 -25 -138.5t-71.5 -101.5t-113.5 -62.5t-152 -21.5zM408 1582
h152l-158 -176h-110z" />
    <glyph glyph-name="Scedilla" unicode="&#x15e;" horiz-adv-x="728" 
d="M294 -24q-80 0 -136 14t-82 28v118q14 -8 35.5 -16t48.5 -15.5t58 -12t64 -4.5q55 0 100 11t76.5 36t48.5 65t17 98q0 46 -12 82t-33 67.5t-50 60t-63 58.5l-104 88q-39 33 -73.5 67.5t-60 75t-40 90t-14.5 113.5q0 78 25 138.5t71.5 101.5t113.5 62.5t152 21.5
q62 0 112 -12t76 -26v-118q-27 14 -74.5 29t-103.5 15q-55 0 -99 -11t-75.5 -36t-48.5 -65t-17 -98q0 -46 11.5 -82t32.5 -67.5t50 -60t64 -58.5l102 -88q39 -33 73.5 -67.5t60.5 -75t41 -90t15 -113.5q0 -78 -25 -138.5t-71.5 -101.5t-113.5 -62.5t-152 -21.5zM308 -298
q-30 0 -56.5 6t-41.5 14v76q9 -2 26.5 -5t41.5 -3q29 0 45.5 12.5t16.5 39.5q0 19 -8.5 42t-21 45t-27 41t-25.5 30h90q15 -14 32 -34.5t32 -45t24.5 -52t9.5 -54.5q0 -53 -37.5 -82.5t-100.5 -29.5z" />
    <glyph glyph-name="Scircumflex" unicode="&#x15c;" horiz-adv-x="728" 
d="M294 -24q-80 0 -136 14t-82 28v118q14 -8 35.5 -16t48.5 -15.5t58 -12t64 -4.5q55 0 100 11t76.5 36t48.5 65t17 98q0 46 -12 82t-33 67.5t-50 60t-63 58.5l-104 88q-39 33 -73.5 67.5t-60 75t-40 90t-14.5 113.5q0 78 25 138.5t71.5 101.5t113.5 62.5t152 21.5
q62 0 112 -12t76 -26v-118q-27 14 -74.5 29t-103.5 15q-55 0 -99 -11t-75.5 -36t-48.5 -65t-17 -98q0 -46 11.5 -82t32.5 -67.5t50 -60t64 -58.5l102 -88q39 -33 73.5 -67.5t60.5 -75t41 -90t15 -113.5q0 -78 -25 -138.5t-71.5 -101.5t-113.5 -62.5t-152 -21.5zM166 1476
l204 116l204 -116v-80l-204 76l-204 -76v80z" />
    <glyph glyph-name="Scommaaccent" unicode="&#x218;" horiz-adv-x="728" 
d="M266 -384q9 33 15.5 65.5t6.5 52.5q0 22 -3.5 39t-7.5 31t-7.5 27t-3.5 27q0 30 15.5 44t42.5 14q33 0 45.5 -20.5t12.5 -47.5q0 -39 -10.5 -101t-37.5 -131h-68v0zM294 -24q-80 0 -136 14t-82 28v118q14 -8 35.5 -16t48.5 -15.5t58 -12t64 -4.5q55 0 100 11t76.5 36
t48.5 65t17 98q0 46 -12 82t-33 67.5t-50 60t-63 58.5l-104 88q-39 33 -73.5 67.5t-60 75t-40 90t-14.5 113.5q0 78 25 138.5t71.5 101.5t113.5 62.5t152 21.5q62 0 112 -12t76 -26v-118q-27 14 -74.5 29t-103.5 15q-55 0 -99 -11t-75.5 -36t-48.5 -65t-17 -98
q0 -46 11.5 -82t32.5 -67.5t50 -60t64 -58.5l102 -88q39 -33 73.5 -67.5t60.5 -75t41 -90t15 -113.5q0 -78 -25 -138.5t-71.5 -101.5t-113.5 -62.5t-152 -21.5z" />
    <glyph glyph-name="Tbar" unicode="&#x166;" horiz-adv-x="718" 
d="M12 1300h694v-108h-284v-486h154v-104h-154v-602h-126v602h-154v104h154v486h-284v108z" />
    <glyph glyph-name="Tcaron" unicode="&#x164;" horiz-adv-x="718" 
d="M12 1300h694v-108h-284v-1192h-126v1192h-284v108zM156 1592l204 -76l204 76v-80l-204 -116l-204 116v80z" />
    <glyph glyph-name="Tcommaaccent" unicode="&#x162;" horiz-adv-x="718" 
d="M302 -384q9 33 15.5 65.5t6.5 52.5q0 22 -3.5 39t-7.5 31t-7.5 27t-3.5 27q0 30 15.5 44t42.5 14q33 0 45.5 -20.5t12.5 -47.5q0 -39 -10.5 -101t-37.5 -131h-68v0zM12 1300h694v-108h-284v-1192h-126v1192h-284v108z" />
    <glyph glyph-name="uni021A" unicode="&#x21a;" horiz-adv-x="718" 
d="M302 -384q9 33 15.5 65.5t6.5 52.5q0 22 -3.5 39t-7.5 31t-7.5 27t-3.5 27q0 30 15.5 44t42.5 14q33 0 45.5 -20.5t12.5 -47.5q0 -39 -10.5 -101t-37.5 -131h-68v0zM12 1300h694v-108h-284v-1192h-126v1192h-284v108z" />
    <glyph glyph-name="Ubreve" unicode="&#x16c;" horiz-adv-x="1012" 
d="M506 -24q-90 0 -156.5 21.5t-110.5 69.5t-65.5 125.5t-21.5 189.5v918h124v-908q0 -87 13 -145.5t41 -94.5t71.5 -51t104.5 -15t104.5 15t71.5 51t41 94.5t13 145.5v908h124v-918q0 -110 -22 -187.5t-66.5 -126t-111 -70.5t-154.5 -22zM328 1594q6 -8 19.5 -21.5
t35.5 -27t52.5 -23.5t70.5 -10t70.5 10t52.5 23.5t35.5 27t19.5 21.5l40 -64q-5 -13 -21.5 -34t-43.5 -41.5t-65.5 -35.5t-87.5 -15q-50 0 -88 15t-65 35.5t-43.5 41.5t-21.5 34z" />
    <glyph glyph-name="Uhungarumlaut" unicode="&#x170;" horiz-adv-x="1012" 
d="M506 -24q-90 0 -156.5 21.5t-110.5 69.5t-65.5 125.5t-21.5 189.5v918h124v-908q0 -87 13 -145.5t41 -94.5t71.5 -51t104.5 -15t104.5 15t71.5 51t41 94.5t13 145.5v908h124v-918q0 -110 -22 -187.5t-66.5 -126t-111 -70.5t-154.5 -22zM422 1582h138l-154 -176h-100z
M674 1582h138l-154 -176h-100z" />
    <glyph glyph-name="Umacron" unicode="&#x16a;" horiz-adv-x="1012" 
d="M506 -24q-90 0 -156.5 21.5t-110.5 69.5t-65.5 125.5t-21.5 189.5v918h124v-908q0 -87 13 -145.5t41 -94.5t71.5 -51t104.5 -15t104.5 15t71.5 51t41 94.5t13 145.5v908h124v-918q0 -110 -22 -187.5t-66.5 -126t-111 -70.5t-154.5 -22zM286 1538h440v-98h-440v98z" />
    <glyph glyph-name="Uogonek" unicode="&#x172;" horiz-adv-x="1012" 
d="M508 -298q-62 0 -100 24.5t-38 75.5q0 25 10.5 50.5t26.5 48.5t35 43t36 34q-83 3 -144.5 26t-102 71t-60 123.5t-19.5 183.5v918h124v-908q0 -87 13 -145.5t41 -94.5t71.5 -51t104.5 -15t104.5 15t71.5 51t41 94.5t13 145.5v908h124v-918q0 -98 -17.5 -169.5
t-52.5 -120.5t-87 -76.5t-121 -35.5q-16 -14 -34.5 -32t-34.5 -38t-26.5 -40.5t-10.5 -37.5q0 -23 17.5 -33.5t46.5 -10.5q24 0 41 3.5t25 6.5v-78q-15 -8 -40.5 -13t-57.5 -5z" />
    <glyph glyph-name="Uring" unicode="&#x16e;" horiz-adv-x="1012" 
d="M506 -24q-90 0 -156.5 21.5t-110.5 69.5t-65.5 125.5t-21.5 189.5v918h124v-908q0 -87 13 -145.5t41 -94.5t71.5 -51t104.5 -15t104.5 15t71.5 51t41 94.5t13 145.5v908h124v-918q0 -110 -22 -187.5t-66.5 -126t-111 -70.5t-154.5 -22zM324 1510q0 42 14 75.5t38 56.5
t57.5 35.5t72.5 12.5q40 0 73 -12t57 -35t37 -56.5t13 -76.5q0 -42 -14 -75t-38 -56t-57 -35t-71 -12q-40 0 -73.5 12t-57.5 34.5t-37.5 55.5t-13.5 76zM506 1410q41 0 70.5 24.5t29.5 75.5q0 26 -8 45.5t-21.5 32t-32 18.5t-38.5 6q-42 0 -71 -24.5t-29 -77.5
q0 -51 29 -75.5t71 -24.5z" />
    <glyph glyph-name="Utilde" unicode="&#x168;" horiz-adv-x="1012" 
d="M506 -24q-90 0 -156.5 21.5t-110.5 69.5t-65.5 125.5t-21.5 189.5v918h124v-908q0 -87 13 -145.5t41 -94.5t71.5 -51t104.5 -15t104.5 15t71.5 51t41 94.5t13 145.5v908h124v-918q0 -110 -22 -187.5t-66.5 -126t-111 -70.5t-154.5 -22zM300 1516q15 20 46 38t72 18
q34 0 58.5 -10.5t45 -22.5t41 -22.5t47.5 -10.5q33 0 59 15.5t43 32.5v-90q-15 -18 -46 -37t-72 -19q-35 0 -59 10.5t-44.5 22.5t-41 22.5t-47.5 10.5q-33 0 -59 -14.5t-43 -31.5v88z" />
    <glyph glyph-name="Wacute" unicode="&#x1e82;" horiz-adv-x="1234" 
d="M52 1300h126l114 -624q10 -53 20.5 -121t20 -140t18 -141.5t13.5 -125.5q6 56 15 125.5t19.5 141t21 139.5t20.5 122l114 624h128l114 -624q10 -54 20.5 -122.5t21 -140.5t19 -141.5t13.5 -125.5q6 56 14.5 126t18.5 142t20.5 140.5t20.5 121.5l116 624h122l-248 -1300
h-130l-116 624q-10 51 -20 116t-19.5 134t-18 137t-14.5 125q-6 -57 -14.5 -124.5t-18 -136.5t-19.5 -134t-20 -117l-114 -624h-130zM654 1582h152l-158 -176h-110z" />
    <glyph glyph-name="Wcircumflex" unicode="&#x174;" horiz-adv-x="1234" 
d="M52 1300h126l114 -624q10 -53 20.5 -121t20 -140t18 -141.5t13.5 -125.5q6 56 15 125.5t19.5 141t21 139.5t20.5 122l114 624h128l114 -624q10 -54 20.5 -122.5t21 -140.5t19 -141.5t13.5 -125.5q6 56 14.5 126t18.5 142t20.5 140.5t20.5 121.5l116 624h122l-248 -1300
h-130l-116 624q-10 51 -20 116t-19.5 134t-18 137t-14.5 125q-6 -57 -14.5 -124.5t-18 -136.5t-19.5 -134t-20 -117l-114 -624h-130zM412 1476l204 116l204 -116v-80l-204 76l-204 -76v80z" />
    <glyph glyph-name="Wdieresis" unicode="&#x1e84;" horiz-adv-x="1234" 
d="M52 1300h126l114 -624q10 -53 20.5 -121t20 -140t18 -141.5t13.5 -125.5q6 56 15 125.5t19.5 141t21 139.5t20.5 122l114 624h128l114 -624q10 -54 20.5 -122.5t21 -140.5t19 -141.5t13.5 -125.5q6 56 14.5 126t18.5 142t20.5 140.5t20.5 121.5l116 624h122l-248 -1300
h-130l-116 624q-10 51 -20 116t-19.5 134t-18 137t-14.5 125q-6 -57 -14.5 -124.5t-18 -136.5t-19.5 -134t-20 -117l-114 -624h-130zM458 1412q-38 0 -57 20.5t-19 55.5t19 54.5t57 19.5q36 0 55 -19.5t19 -54.5t-19 -55.5t-55 -20.5zM774 1412q-36 0 -55 20.5t-19 55.5
t19 54.5t55 19.5q38 0 57 -19.5t19 -54.5t-19 -55.5t-57 -20.5z" />
    <glyph glyph-name="Wgrave" unicode="&#x1e80;" horiz-adv-x="1234" 
d="M52 1300h126l114 -624q10 -53 20.5 -121t20 -140t18 -141.5t13.5 -125.5q6 56 15 125.5t19.5 141t21 139.5t20.5 122l114 624h128l114 -624q10 -54 20.5 -122.5t21 -140.5t19 -141.5t13.5 -125.5q6 56 14.5 126t18.5 142t20.5 140.5t20.5 121.5l116 624h122l-248 -1300
h-130l-116 624q-10 51 -20 116t-19.5 134t-18 137t-14.5 125q-6 -57 -14.5 -124.5t-18 -136.5t-19.5 -134t-20 -117l-114 -624h-130zM426 1582h152l116 -176h-110z" />
    <glyph glyph-name="Ycircumflex" unicode="&#x176;" horiz-adv-x="838" 
d="M356 546l-362 754h138l172 -368q33 -74 64 -145.5t52 -134.5q21 63 52 134.5t66 145.5l170 368h136l-362 -754v-546h-126v546zM216 1476l204 116l204 -116v-80l-204 76l-204 -76v80z" />
    <glyph glyph-name="Ygrave" unicode="&#x1ef2;" horiz-adv-x="838" 
d="M356 546l-362 754h138l172 -368q33 -74 64 -145.5t52 -134.5q21 63 52 134.5t66 145.5l170 368h136l-362 -754v-546h-126v546zM230 1582h152l116 -176h-110z" />
    <glyph glyph-name="Zacute" unicode="&#x179;" horiz-adv-x="768" 
d="M80 88l458 1104h-448v108h588v-90l-460 -1102h470v-108h-608v88zM422 1582h152l-158 -176h-110z" />
    <glyph glyph-name="Zdotaccent" unicode="&#x17b;" horiz-adv-x="768" 
d="M80 88l458 1104h-448v108h588v-90l-460 -1102h470v-108h-608v88zM384 1412q-38 0 -57 20t-19 56q0 74 76 74q38 0 57 -19.5t19 -54.5q0 -36 -19 -56t-57 -20z" />
    <glyph glyph-name="IJ" unicode="&#x132;" horiz-adv-x="984" 
d="M430 -24q-53 0 -97.5 7t-79 17.5t-58 21t-33.5 18.5v120q12 -9 36.5 -21.5t58.5 -23.5t75 -19t86 -8q67 0 120.5 15.5t91 52.5t58 98t20.5 152v894h126v-914q0 -205 -103 -307.5t-301 -102.5zM162 1300h124v-752h-124v752z" />
    <glyph glyph-name="amacron" unicode="&#x101;" horiz-adv-x="818" 
d="M582 60q-45 -39 -100.5 -61.5t-121.5 -22.5q-75 0 -125.5 22t-81.5 63.5t-44 100t-13 132.5q0 73 13.5 131.5t45 100t81.5 64t124 22.5q59 0 110.5 -20.5t95.5 -53.5v130q0 61 -10.5 108t-35 78.5t-66 47.5t-102.5 16q-36 0 -69.5 -7t-61.5 -17.5t-49.5 -22t-33.5 -19.5
v114q13 9 35.5 19t51.5 19t64.5 14.5t76.5 5.5q165 0 241.5 -85.5t76.5 -248.5v-690h-86zM382 76q57 0 102.5 19.5t81.5 48.5v300q-36 27 -81.5 46.5t-102.5 19.5q-47 0 -78.5 -13.5t-50.5 -40.5t-27 -67.5t-8 -94.5q0 -55 8 -96t27 -68t50.5 -40.5t78.5 -13.5zM174 1244
h440v-98h-440v98z" />
    <glyph glyph-name="abreve" unicode="&#x103;" horiz-adv-x="818" 
d="M582 60q-45 -39 -100.5 -61.5t-121.5 -22.5q-75 0 -125.5 22t-81.5 63.5t-44 100t-13 132.5q0 73 13.5 131.5t45 100t81.5 64t124 22.5q59 0 110.5 -20.5t95.5 -53.5v130q0 61 -10.5 108t-35 78.5t-66 47.5t-102.5 16q-36 0 -69.5 -7t-61.5 -17.5t-49.5 -22t-33.5 -19.5
v114q13 9 35.5 19t51.5 19t64.5 14.5t76.5 5.5q165 0 241.5 -85.5t76.5 -248.5v-690h-86zM382 76q57 0 102.5 19.5t81.5 48.5v300q-36 27 -81.5 46.5t-102.5 19.5q-47 0 -78.5 -13.5t-50.5 -40.5t-27 -67.5t-8 -94.5q0 -55 8 -96t27 -68t50.5 -40.5t78.5 -13.5zM394 1110
q-50 0 -88 15t-65 35.5t-43.5 42t-21.5 35.5l40 62q6 -8 19.5 -21.5t35.5 -27t52.5 -23.5t70.5 -10t70.5 10t52.5 23.5t35.5 27t19.5 21.5l40 -62q-5 -14 -21.5 -35.5t-43.5 -42t-65.5 -35.5t-87.5 -15z" />
    <glyph glyph-name="aogonek" unicode="&#x105;" horiz-adv-x="818" 
d="M586 -298q-62 0 -100 24.5t-38 75.5q0 30 16 61.5t38.5 60t47.5 51.5t44 37l-12 48q-45 -39 -100.5 -61.5t-121.5 -22.5q-75 0 -125.5 22t-81.5 63.5t-44 100t-13 132.5q0 73 13.5 131.5t45 100t81.5 64t124 22.5q59 0 110.5 -20.5t95.5 -53.5v130q0 61 -10.5 108
t-35 78.5t-66 47.5t-102.5 16q-36 0 -69.5 -7t-61.5 -17.5t-49.5 -22t-33.5 -19.5v114q13 9 35.5 19t51.5 19t64.5 14.5t76.5 5.5q165 0 241.5 -85.5t76.5 -248.5v-690q-12 -9 -34 -28.5t-43 -43.5t-37 -49t-16 -45q0 -24 17 -35t47 -11q24 0 41 3.5t25 6.5v-78
q-15 -8 -40.5 -13t-57.5 -5zM382 76q57 0 102.5 19.5t81.5 48.5v300q-36 27 -81.5 46.5t-102.5 19.5q-47 0 -78.5 -13.5t-50.5 -40.5t-27 -67.5t-8 -94.5q0 -55 8 -96t27 -68t50.5 -40.5t78.5 -13.5z" />
    <glyph glyph-name="aeacute" unicode="&#x1fd;" horiz-adv-x="1266" 
d="M360 -24q-75 0 -125.5 22.5t-81.5 64t-44 100t-13 131.5t13.5 131.5t45 100t81.5 64t124 22.5q59 0 110.5 -19.5t95.5 -52.5v128q0 62 -10.5 109t-35 78.5t-65 47t-101.5 15.5q-36 0 -70 -7t-62.5 -17.5t-50 -22t-33.5 -19.5v114q13 9 35.5 19t51.5 19t64.5 14.5
t76.5 5.5q104 0 168.5 -33.5t97.5 -96.5q38 69 95.5 99.5t138.5 30.5t139 -24t95 -83.5t54.5 -161t17.5 -255.5v-28h-488q1 -119 14 -194t41 -118.5t72 -59.5t107 -16q33 0 66 6t62 15t51.5 19t34.5 18v-114q-13 -8 -35.5 -17.5t-52.5 -17t-65.5 -12.5t-74.5 -5
q-92 0 -158 25.5t-108 90.5q-50 -48 -119 -82t-159 -34zM600 174q-18 51 -27.5 118.5t-12.5 155.5q-35 26 -79.5 44t-98.5 18q-47 0 -78.5 -13.5t-50.5 -40.5t-27 -67.5t-8 -94.5q0 -55 8 -96t27 -68t50.5 -40.5t78.5 -13.5q34 0 65.5 8.5t58.5 22t50.5 31t43.5 36.5z
M866 920q-50 0 -84 -18t-55 -58.5t-31 -106.5t-12 -163h364q-2 97 -11.5 163t-30.5 106.5t-55 58.5t-85 18zM680 1288h152l-158 -176h-110z" />
    <glyph glyph-name="cacute" unicode="&#x107;" horiz-adv-x="678" 
d="M450 1288h152l-158 -176h-110zM428 -24q-82 0 -142 25.5t-99.5 86.5t-59 161.5t-19.5 250.5q0 160 24.5 262t68.5 160.5t104.5 80t132.5 21.5q60 0 100.5 -10.5t67.5 -25.5v-114q-10 7 -27 14.5t-38 13.5t-44.5 10t-46.5 4q-55 0 -96 -17t-68 -63.5t-40.5 -127.5
t-13.5 -208q0 -125 12 -205.5t37 -127t64 -65t93 -18.5q28 0 54.5 4.5t49.5 11t41.5 14.5t30.5 16v-114q-27 -15 -77 -27.5t-109 -12.5z" />
    <glyph glyph-name="ccaron" unicode="&#x10d;" horiz-adv-x="678" 
d="M208 1220v78l204 -76l204 76v-78l-204 -118zM428 -24q-82 0 -142 25.5t-99.5 86.5t-59 161.5t-19.5 250.5q0 160 24.5 262t68.5 160.5t104.5 80t132.5 21.5q60 0 100.5 -10.5t67.5 -25.5v-114q-10 7 -27 14.5t-38 13.5t-44.5 10t-46.5 4q-55 0 -96 -17t-68 -63.5
t-40.5 -127.5t-13.5 -208q0 -125 12 -205.5t37 -127t64 -65t93 -18.5q28 0 54.5 4.5t49.5 11t41.5 14.5t30.5 16v-114q-27 -15 -77 -27.5t-109 -12.5z" />
    <glyph glyph-name="ccircumflex" unicode="&#x109;" horiz-adv-x="678" 
d="M208 1182l204 116l204 -116v-80l-204 76l-204 -76v80zM428 -24q-82 0 -142 25.5t-99.5 86.5t-59 161.5t-19.5 250.5q0 160 24.5 262t68.5 160.5t104.5 80t132.5 21.5q60 0 100.5 -10.5t67.5 -25.5v-114q-10 7 -27 14.5t-38 13.5t-44.5 10t-46.5 4q-55 0 -96 -17
t-68 -63.5t-40.5 -127.5t-13.5 -208q0 -125 12 -205.5t37 -127t64 -65t93 -18.5q28 0 54.5 4.5t49.5 11t41.5 14.5t30.5 16v-114q-27 -15 -77 -27.5t-109 -12.5z" />
    <glyph glyph-name="cdotaccent" unicode="&#x10b;" horiz-adv-x="678" 
d="M428 -24q-82 0 -142 25.5t-99.5 86.5t-59 161.5t-19.5 250.5q0 160 24.5 262t68.5 160.5t104.5 80t132.5 21.5q60 0 100.5 -10.5t67.5 -25.5v-114q-10 7 -27 14.5t-38 13.5t-44.5 10t-46.5 4q-55 0 -96 -17t-68 -63.5t-40.5 -127.5t-13.5 -208q0 -125 12 -205.5t37 -127
t64 -65t93 -18.5q28 0 54.5 4.5t49.5 11t41.5 14.5t30.5 16v-114q-27 -15 -77 -27.5t-109 -12.5zM412 1118q-38 0 -57 20t-19 56t19 56t57 20t57 -20t19 -56t-19 -56t-57 -20z" />
    <glyph glyph-name="dcaron" unicode="&#x10f;" horiz-adv-x="890" 
d="M618 52q-41 -36 -93 -56t-111 -20q-81 0 -139 23.5t-95 82.5t-54.5 160.5t-17.5 257.5q0 154 18 255t55.5 161t95 84t135.5 24q54 0 100 -16.5t84 -43.5v336h120v-1300h-86zM434 82q47 0 88.5 15.5t73.5 36.5v730q-32 23 -73.5 38.5t-88.5 15.5q-59 0 -97.5 -19
t-62 -66.5t-33 -128t-9.5 -204.5t9.5 -204.5t33 -128t62 -66.5t97.5 -19zM802 1014q9 33 15.5 65.5t6.5 52.5q0 22 -3.5 39.5t-7.5 31.5t-7.5 26.5t-3.5 26.5q0 30 16 44t42 14q33 0 45.5 -20t12.5 -50q0 -38 -10.5 -99.5t-37.5 -130.5h-68v0z" />
    <glyph glyph-name="dcroat" unicode="&#x111;" horiz-adv-x="870" 
d="M618 52q-41 -36 -94 -56t-110 -20q-81 0 -139 23.5t-95 82t-54.5 158.5t-17.5 254q0 151 18 250.5t55.5 159t95 84t135.5 24.5q54 0 100 -15.5t84 -42.5v140h-178v98h178v108h120v-108h100v-98h-100v-1094h-86zM434 82q47 0 88.5 15.5t73.5 36.5v718q-32 23 -73.5 38.5
t-88.5 15.5q-59 0 -97.5 -19.5t-62 -66.5t-33 -126.5t-9.5 -199.5q0 -121 9.5 -200.5t33 -126.5t62 -66t97.5 -19z" />
    <glyph glyph-name="ebreve" unicode="&#x115;" horiz-adv-x="812" 
d="M450 -24q-89 0 -153.5 24.5t-106.5 84.5t-62 160.5t-20 252.5q0 154 18.5 255.5t56 161.5t95 84.5t136.5 24.5q80 0 138 -24t95.5 -83.5t55 -161t17.5 -255.5v-28h-490q1 -119 14.5 -194t41.5 -118.5t72 -59.5t106 -16q33 0 66 6t62 15t51.5 19t34.5 18v-114
q-13 -8 -35 -17.5t-52 -17t-65.5 -12.5t-75.5 -5zM414 920q-51 0 -85.5 -18t-55.5 -58.5t-31 -106.5t-12 -163h368q-2 97 -12.5 163t-31.5 106.5t-55.5 58.5t-84.5 18zM414 1110q-50 0 -88 15t-65 35.5t-43.5 42t-21.5 35.5l40 62q6 -8 19.5 -21.5t35.5 -27t52.5 -23.5
t70.5 -10t70.5 10t52.5 23.5t35.5 27t19.5 21.5l40 -62q-5 -14 -21.5 -35.5t-43.5 -42t-65.5 -35.5t-87.5 -15z" />
    <glyph glyph-name="ecaron" unicode="&#x11b;" horiz-adv-x="812" 
d="M210 1220v78l204 -76l204 76v-78l-204 -118zM450 -24q-89 0 -153.5 24.5t-106.5 84.5t-62 160.5t-20 252.5q0 154 18.5 255.5t56 161.5t95 84.5t136.5 24.5q80 0 138 -24t95.5 -83.5t55 -161t17.5 -255.5v-28h-490q1 -119 14.5 -194t41.5 -118.5t72 -59.5t106 -16
q33 0 66 6t62 15t51.5 19t34.5 18v-114q-13 -8 -35 -17.5t-52 -17t-65.5 -12.5t-75.5 -5zM414 920q-51 0 -85.5 -18t-55.5 -58.5t-31 -106.5t-12 -163h368q-2 97 -12.5 163t-31.5 106.5t-55.5 58.5t-84.5 18z" />
    <glyph glyph-name="edotaccent" unicode="&#x117;" horiz-adv-x="812" 
d="M450 -24q-89 0 -153.5 24.5t-106.5 84.5t-62 160.5t-20 252.5q0 154 18.5 255.5t56 161.5t95 84.5t136.5 24.5q80 0 138 -24t95.5 -83.5t55 -161t17.5 -255.5v-28h-490q1 -119 14.5 -194t41.5 -118.5t72 -59.5t106 -16q33 0 66 6t62 15t51.5 19t34.5 18v-114
q-13 -8 -35 -17.5t-52 -17t-65.5 -12.5t-75.5 -5zM414 920q-51 0 -85.5 -18t-55.5 -58.5t-31 -106.5t-12 -163h368q-2 97 -12.5 163t-31.5 106.5t-55.5 58.5t-84.5 18zM414 1118q-38 0 -57 20t-19 56t19 56t57 20t57 -20t19 -56t-19 -56t-57 -20z" />
    <glyph glyph-name="emacron" unicode="&#x113;" horiz-adv-x="812" 
d="M450 -24q-89 0 -153.5 24.5t-106.5 84.5t-62 160.5t-20 252.5q0 154 18.5 255.5t56 161.5t95 84.5t136.5 24.5q80 0 138 -24t95.5 -83.5t55 -161t17.5 -255.5v-28h-490q1 -119 14.5 -194t41.5 -118.5t72 -59.5t106 -16q33 0 66 6t62 15t51.5 19t34.5 18v-114
q-13 -8 -35 -17.5t-52 -17t-65.5 -12.5t-75.5 -5zM414 920q-51 0 -85.5 -18t-55.5 -58.5t-31 -106.5t-12 -163h368q-2 97 -12.5 163t-31.5 106.5t-55.5 58.5t-84.5 18zM194 1244h440v-98h-440v98z" />
    <glyph glyph-name="eogonek" unicode="&#x119;" horiz-adv-x="812" 
d="M678 28q-14 -11 -41 -34.5t-53.5 -51.5t-46 -57.5t-19.5 -52.5t17.5 -33.5t46.5 -10.5q24 0 41 3.5t25 6.5v-78q-15 -8 -40.5 -13t-57.5 -5q-62 0 -99 24.5t-37 75.5q0 26 11.5 53t28.5 51t37.5 44t38.5 34q-18 -5 -40.5 -6.5t-39.5 -1.5q-89 0 -153.5 24.5t-106.5 84.5
t-62 160.5t-20 252.5q0 154 18.5 255.5t56 161.5t95 84.5t136.5 24.5q80 0 138 -24t95.5 -83.5t55 -161t17.5 -255.5v-28h-490q1 -119 14.5 -194t41.5 -118.5t72 -59.5t106 -16q33 0 66 6t62 15t51.5 19t34.5 18v-114zM414 920q-51 0 -85.5 -18t-55.5 -58.5t-31 -106.5
t-12 -163h368q-2 97 -12.5 163t-31.5 106.5t-55.5 58.5t-84.5 18z" />
    <glyph glyph-name="eng" unicode="&#x14b;" horiz-adv-x="864" 
d="M142 1000h88l12 -56q44 39 99.5 59.5t114.5 20.5q79 0 132.5 -27t85 -72t45 -105t13.5 -126v-802q0 -59 -16 -96.5t-43.5 -58.5t-64.5 -29t-80 -8h-66v102h38q35 0 57 6.5t34 20.5t16.5 35.5t4.5 51.5v758q0 52 -8 97t-28.5 78t-55.5 52t-88 19q-51 0 -94 -17t-76 -41
v-862h-120v1000z" />
    <glyph glyph-name="gbreve" unicode="&#x11f;" horiz-adv-x="860" 
d="M400 -324q-38 0 -73.5 4.5t-65 11.5t-52 16t-35.5 18v116q13 -9 36 -19t51.5 -19t61.5 -14.5t65 -5.5q49 0 87.5 9.5t65.5 32.5t41 62.5t14 99.5v100q-38 -29 -83.5 -45.5t-98.5 -16.5q-81 0 -139 22.5t-95 79.5t-54.5 153.5t-17.5 244.5q0 145 18 241t55.5 153t95 80.5
t135.5 23.5q59 0 112 -19.5t94 -54.5l12 50h86v-1038q0 -87 -27 -142.5t-71.5 -87.5t-101.5 -44t-116 -12zM434 132q47 0 88.5 15.5t73.5 38.5v678q-32 23 -73.5 38.5t-88.5 15.5q-59 0 -97.5 -18.5t-62 -63.5t-33 -120.5t-9.5 -189.5q0 -115 9.5 -191t33 -121t62 -63.5
t97.5 -18.5zM406 1110q-50 0 -88 15t-65 35.5t-43.5 42t-21.5 35.5l40 62q6 -8 19.5 -21.5t35.5 -27t52.5 -23.5t70.5 -10t70.5 10t52.5 23.5t35.5 27t19.5 21.5l40 -62q-5 -14 -21.5 -35.5t-43.5 -42t-65.5 -35.5t-87.5 -15z" />
    <glyph glyph-name="gcircumflex" unicode="&#x11d;" horiz-adv-x="860" 
d="M202 1182l204 116l204 -116v-80l-204 76l-204 -76v80zM400 -324q-38 0 -73.5 4.5t-65 11.5t-52 16t-35.5 18v116q13 -9 36 -19t51.5 -19t61.5 -14.5t65 -5.5q49 0 87.5 9.5t65.5 32.5t41 62.5t14 99.5v100q-38 -29 -83.5 -45.5t-98.5 -16.5q-81 0 -139 22.5t-95 79.5
t-54.5 153.5t-17.5 244.5q0 145 18 241t55.5 153t95 80.5t135.5 23.5q59 0 112 -19.5t94 -54.5l12 50h86v-1038q0 -87 -27 -142.5t-71.5 -87.5t-101.5 -44t-116 -12zM434 132q47 0 88.5 15.5t73.5 38.5v678q-32 23 -73.5 38.5t-88.5 15.5q-59 0 -97.5 -18.5t-62 -63.5
t-33 -120.5t-9.5 -189.5q0 -115 9.5 -191t33 -121t62 -63.5t97.5 -18.5z" />
    <glyph glyph-name="gcommaaccent" unicode="&#x123;" horiz-adv-x="860" 
d="M400 -324q-38 0 -73.5 4.5t-65 11.5t-52 16t-35.5 18v116q13 -9 36 -19t51.5 -19t61.5 -14.5t65 -5.5q49 0 87.5 9.5t65.5 32.5t41 62.5t14 99.5v100q-38 -29 -83.5 -45.5t-98.5 -16.5q-81 0 -139 22.5t-95 79.5t-54.5 153.5t-17.5 244.5q0 145 18 241t55.5 153t95 80.5
t135.5 23.5q59 0 112 -19.5t94 -54.5l12 50h86v-1038q0 -87 -27 -142.5t-71.5 -87.5t-101.5 -44t-116 -12zM434 132q47 0 88.5 15.5t73.5 38.5v678q-32 23 -73.5 38.5t-88.5 15.5q-59 0 -97.5 -18.5t-62 -63.5t-33 -120.5t-9.5 -189.5q0 -115 9.5 -191t33 -121t62 -63.5
t97.5 -18.5zM406 1110q-33 0 -45.5 20.5t-12.5 47.5q0 41 10.5 102t37.5 130h68q-9 -33 -15.5 -65.5t-6.5 -50.5q0 -23 3.5 -40.5t7.5 -31.5t7.5 -27t3.5 -27q0 -29 -15.5 -43.5t-42.5 -14.5z" />
    <glyph glyph-name="gdotaccent" unicode="&#x121;" horiz-adv-x="860" 
d="M400 -324q-38 0 -73.5 4.5t-65 11.5t-52 16t-35.5 18v116q13 -9 36 -19t51.5 -19t61.5 -14.5t65 -5.5q49 0 87.5 9.5t65.5 32.5t41 62.5t14 99.5v100q-38 -29 -83.5 -45.5t-98.5 -16.5q-81 0 -139 22.5t-95 79.5t-54.5 153.5t-17.5 244.5q0 145 18 241t55.5 153t95 80.5
t135.5 23.5q59 0 112 -19.5t94 -54.5l12 50h86v-1038q0 -87 -27 -142.5t-71.5 -87.5t-101.5 -44t-116 -12zM434 132q47 0 88.5 15.5t73.5 38.5v678q-32 23 -73.5 38.5t-88.5 15.5q-59 0 -97.5 -18.5t-62 -63.5t-33 -120.5t-9.5 -189.5q0 -115 9.5 -191t33 -121t62 -63.5
t97.5 -18.5zM406 1118q-38 0 -57 20t-19 56t19 56t57 20t57 -20t19 -56t-19 -56t-57 -20z" />
    <glyph glyph-name="hbar" unicode="&#x127;" horiz-adv-x="874" 
d="M54 1192h98v108h120v-108h178v-98h-178v-150q41 33 91.5 50.5t104.5 17.5q79 0 131.5 -27t84 -72t45 -105t13.5 -126v-682h-120v662q0 52 -8 97t-28.5 78t-55.5 52t-88 19q-51 0 -94 -17t-76 -43v-848h-120v1094h-98v98z" />
    <glyph glyph-name="hcircumflex" unicode="&#x125;" horiz-adv-x="864" 
d="M-2 1476l204 116l204 -116v-80l-204 76l-204 -76v80zM142 1300h120v-344q41 33 91.5 50.5t104.5 17.5q79 0 131.5 -27t84 -72t45 -105t13.5 -126v-694h-120v674q0 52 -8 97t-28.5 78t-55.5 52t-88 19q-51 0 -94 -17t-76 -41v-862h-120v1300z" />
    <glyph glyph-name="ibreve" unicode="&#x12d;" horiz-adv-x="404" 
d="M142 1000h120v-1000h-120v1000zM202 1110q-50 0 -88 15t-65 35.5t-43.5 42t-21.5 35.5l40 62q6 -8 19.5 -21.5t35.5 -27t52.5 -23.5t70.5 -10t70.5 10t52.5 23.5t35.5 27t19.5 21.5l40 -62q-5 -14 -21.5 -35.5t-43.5 -42t-65.5 -35.5t-87.5 -15z" />
    <glyph glyph-name="imacron" unicode="&#x12b;" horiz-adv-x="404" 
d="M142 1000h120v-1000h-120v1000zM-18 1244h440v-98h-440v98z" />
    <glyph glyph-name="iogonek" unicode="&#x12f;" horiz-adv-x="404" 
d="M142 1000h120v-1000q-11 -9 -33 -28.5t-43.5 -43.5t-37.5 -49.5t-16 -46.5q0 -23 17.5 -33.5t46.5 -10.5q24 0 41 3.5t25 6.5v-78q-15 -8 -40.5 -13t-57.5 -5q-62 0 -100 24.5t-38 75.5q0 32 17 64.5t40 59.5t47 46.5t38 27.5h-26v1000zM202 1128q-39 0 -60.5 21
t-21.5 57t21.5 57t60.5 21q41 0 61.5 -21t20.5 -57t-20.5 -57t-61.5 -21z" />
    <glyph glyph-name="itilde" unicode="&#x129;" horiz-adv-x="404" 
d="M142 1000h120v-1000h-120v1000zM290 1114q-35 0 -59 10.5t-44.5 22.5t-41 22.5t-47.5 10.5q-33 0 -59 -14.5t-43 -31.5v88q15 20 46 39t72 19q34 0 58.5 -10.5t45 -22.5t41 -22.5t47.5 -10.5q33 0 59 14.5t43 31.5v-88q-15 -20 -46 -39t-72 -19z" />
    <glyph glyph-name="uni0237" unicode="&#x237;" horiz-adv-x="404" 
d="M-6 -198h36q36 0 58 6.5t34 20.5t16 35.5t4 51.5v1084h120v-1108q0 -59 -16 -96.5t-43.5 -58.5t-64.5 -29t-80 -8h-64v102z" />
    <glyph glyph-name="jcircumflex" unicode="&#x135;" horiz-adv-x="404" 
d="M-6 -198h36q36 0 58 6.5t34 20.5t16 35.5t4 51.5v1084h120v-1108q0 -59 -16 -96.5t-43.5 -58.5t-64.5 -29t-80 -8h-64v102zM-2 1182l204 116l204 -116v-80l-204 76l-204 -76v80z" />
    <glyph glyph-name="kcommaaccent" unicode="&#x137;" horiz-adv-x="760" 
d="M360 -384q9 33 15.5 65.5t6.5 52.5q0 22 -3.5 39t-7.5 31t-7.5 27t-3.5 27q0 30 15.5 44t42.5 14q33 0 45.5 -20.5t12.5 -47.5q0 -39 -10.5 -101t-37.5 -131h-68v0zM142 1300h120v-746l308 446h138l-334 -474l368 -526h-146l-334 490v-490h-120v1300z" />
    <glyph glyph-name="kgreenlandic" unicode="&#x138;" horiz-adv-x="760" 
d="M142 1000h120v-446l308 446h138l-334 -474l368 -526h-146l-334 490v-490h-120v1000z" />
    <glyph glyph-name="lacute" unicode="&#x13a;" horiz-adv-x="450" 
d="M230 1582h152l-158 -176h-110zM336 -8q-42 0 -79 8t-65 29t-44 58.5t-16 96.5v1116h120v-1092q0 -30 4.5 -51.5t16.5 -35.5t34 -20.5t57 -6.5h48v-102h-76v0z" />
    <glyph glyph-name="lcaron" unicode="&#x13e;" horiz-adv-x="458" 
d="M336 -8q-42 0 -79 8t-65 29t-44 58.5t-16 96.5v1116h120v-1092q0 -30 4.5 -51.5t16.5 -35.5t34 -20.5t57 -6.5h48v-102h-76v0zM338 1014q9 33 15.5 65.5t6.5 52.5q0 22 -3.5 39.5t-7.5 31.5t-7.5 26.5t-3.5 26.5q0 30 16 44t42 14q33 0 45.5 -20t12.5 -50
q0 -38 -10.5 -99.5t-37.5 -130.5h-68v0z" />
    <glyph glyph-name="lcommaaccent" unicode="&#x13c;" horiz-adv-x="450" 
d="M216 -384q9 33 15.5 65.5t6.5 52.5q0 22 -3.5 39t-7.5 31t-7.5 27t-3.5 27q0 30 15.5 44t42.5 14q33 0 45.5 -20.5t12.5 -47.5q0 -39 -10.5 -101t-37.5 -131h-68v0zM336 -8q-42 0 -79 8t-65 29t-44 58.5t-16 96.5v1116h120v-1092q0 -30 4.5 -51.5t16.5 -35.5t34 -20.5
t57 -6.5h48v-102h-76v0z" />
    <glyph glyph-name="ldot" unicode="&#x140;" horiz-adv-x="524" 
d="M336 -8q-42 0 -79 8t-65 29t-44 58.5t-16 96.5v1116h120v-1092q0 -30 4.5 -51.5t16.5 -35.5t34 -20.5t57 -6.5h48v-102h-76v0zM446 581q-38 0 -57 20t-19 56t19 56t57 20t57 -20t19 -56t-19 -56t-57 -20z" />
    <glyph glyph-name="nacute" unicode="&#x144;" horiz-adv-x="864" 
d="M476 1288h152l-158 -176h-110zM142 1000h88l12 -56q44 39 99.5 59.5t114.5 20.5q79 0 132.5 -27t85 -72t45 -105t13.5 -126v-694h-120v674q0 52 -8 97t-28.5 78t-55.5 52t-88 19q-51 0 -94 -17t-76 -41v-862h-120v1000z" />
    <glyph glyph-name="napostrophe" unicode="&#x149;" horiz-adv-x="1050" 
d="M328 1000h88l12 -56q44 39 99.5 59.5t114.5 20.5q79 0 132.5 -27t85 -72t45 -105t13.5 -126v-694h-120v674q0 52 -8 97t-28.5 78t-55.5 52t-88 19q-51 0 -94 -17t-76 -41v-862h-120v1000zM39 900q14 45 22 91t8 73q0 30 -4.5 54.5t-10.5 45.5t-10.5 39t-4.5 35
q0 41 22.5 61.5t57.5 20.5q44 0 62 -26.5t18 -67.5q0 -26 -3.5 -61.5t-11.5 -78t-20.5 -90t-30.5 -96.5h-94v0z" />
    <glyph glyph-name="ncaron" unicode="&#x148;" horiz-adv-x="864" 
d="M234 1220v78l204 -76l204 76v-78l-204 -118zM142 1000h88l12 -56q44 39 99.5 59.5t114.5 20.5q79 0 132.5 -27t85 -72t45 -105t13.5 -126v-694h-120v674q0 52 -8 97t-28.5 78t-55.5 52t-88 19q-51 0 -94 -17t-76 -41v-862h-120v1000z" />
    <glyph glyph-name="ncommaaccent" unicode="&#x146;" horiz-adv-x="864" 
d="M380 -384q9 33 15.5 65.5t6.5 52.5q0 22 -3.5 39t-7.5 31t-7.5 27t-3.5 27q0 30 15.5 44t42.5 14q33 0 45.5 -20.5t12.5 -47.5q0 -39 -10.5 -101t-37.5 -131h-68v0zM142 1000h88l12 -56q44 39 99.5 59.5t114.5 20.5q79 0 132.5 -27t85 -72t45 -105t13.5 -126v-694h-120
v674q0 52 -8 97t-28.5 78t-55.5 52t-88 19q-51 0 -94 -17t-76 -41v-862h-120v1000z" />
    <glyph glyph-name="obreve" unicode="&#x14f;" horiz-adv-x="850" 
d="M424 -24q-86 0 -146 25t-97.5 85t-55 161t-17.5 253q0 151 18 251.5t56.5 161t98.5 86t143 25.5q86 0 146.5 -25t98.5 -85t55.5 -161t17.5 -253q0 -151 -18 -251.5t-57 -161t-99 -86t-144 -25.5zM424 82q57 0 94.5 19.5t60 67.5t32 128.5t9.5 202.5q0 121 -9.5 201.5
t-32 128.5t-60 68t-94.5 20q-56 0 -93.5 -20t-60 -68t-31.5 -128.5t-9 -201.5q0 -122 9 -202.5t31.5 -128.5t60 -67.5t93.5 -19.5zM424 1110q-50 0 -88 15t-65 35.5t-43.5 42t-21.5 35.5l40 62q6 -8 19.5 -21.5t35.5 -27t52.5 -23.5t70.5 -10t70.5 10t52.5 23.5t35.5 27
t19.5 21.5l40 -62q-5 -14 -21.5 -35.5t-43.5 -42t-65.5 -35.5t-87.5 -15z" />
    <glyph glyph-name="ohungarumlaut" unicode="&#x151;" horiz-adv-x="850" 
d="M346 1288h138l-154 -176h-100zM598 1288h140l-156 -176h-100zM424 -24q-86 0 -146 25t-97.5 85t-55 161t-17.5 253q0 151 18 251.5t56.5 161t98.5 86t143 25.5q86 0 146.5 -25t98.5 -85t55.5 -161t17.5 -253q0 -151 -18 -251.5t-57 -161t-99 -86t-144 -25.5zM424 82
q57 0 94.5 19.5t60 67.5t32 128.5t9.5 202.5q0 121 -9.5 201.5t-32 128.5t-60 68t-94.5 20q-56 0 -93.5 -20t-60 -68t-31.5 -128.5t-9 -201.5q0 -122 9 -202.5t31.5 -128.5t60 -67.5t93.5 -19.5z" />
    <glyph glyph-name="omacron" unicode="&#x14d;" horiz-adv-x="850" 
d="M204 1244h440v-98h-440v98zM424 -24q-86 0 -146 25t-97.5 85t-55 161t-17.5 253q0 151 18 251.5t56.5 161t98.5 86t143 25.5q86 0 146.5 -25t98.5 -85t55.5 -161t17.5 -253q0 -151 -18 -251.5t-57 -161t-99 -86t-144 -25.5zM424 82q57 0 94.5 19.5t60 67.5t32 128.5
t9.5 202.5q0 121 -9.5 201.5t-32 128.5t-60 68t-94.5 20q-56 0 -93.5 -20t-60 -68t-31.5 -128.5t-9 -201.5q0 -122 9 -202.5t31.5 -128.5t60 -67.5t93.5 -19.5z" />
    <glyph glyph-name="oslashacute" unicode="&#x1ff;" horiz-adv-x="850" 
d="M172 98q-33 60 -48.5 158t-15.5 244q0 151 18 251.5t56.5 161t98.5 86t143 25.5q59 0 105 -11t81 -37l62 124h104l-100 -198q35 -62 50.5 -159.5t15.5 -242.5q0 -151 -18 -251.5t-57 -161t-99 -86t-144 -25.5q-59 0 -104.5 11t-81.5 35l-60 -122h-104zM230 500
q0 -81 1.5 -144t10.5 -116l314 626q-43 52 -132 52q-56 0 -93.5 -20t-60 -68t-31.5 -128.5t-9 -201.5zM424 82q57 0 94.5 19.5t60 67.5t32 128.5t9.5 202.5q0 81 -2.5 143t-11.5 115l-312 -626q23 -27 54.5 -38.5t75.5 -11.5zM462 1288h152l-158 -176h-110z" />
    <glyph glyph-name="racute" unicode="&#x155;" horiz-adv-x="582" 
d="M364 1288h152l-158 -176h-110zM142 1000h88l16 -78q56 41 124.5 66.5t163.5 25.5v-118q-86 0 -151 -12.5t-121 -41.5v-842h-120v1000z" />
    <glyph glyph-name="rcaron" unicode="&#x159;" horiz-adv-x="582" 
d="M122 1220v78l204 -76l204 76v-78l-204 -118zM142 1000h88l16 -78q56 41 124.5 66.5t163.5 25.5v-118q-86 0 -151 -12.5t-121 -41.5v-842h-120v1000z" />
    <glyph glyph-name="rcommaaccent" unicode="&#x157;" horiz-adv-x="582" 
d="M144 -384q9 33 15.5 65.5t6.5 52.5q0 22 -3.5 39t-7.5 31t-7.5 27t-3.5 27q0 30 15.5 44t42.5 14q33 0 45.5 -20.5t12.5 -47.5q0 -39 -10.5 -101t-37.5 -131h-68v0zM142 1000h88l16 -78q56 41 124.5 66.5t163.5 25.5v-118q-86 0 -151 -12.5t-121 -41.5v-842h-120v1000z
" />
    <glyph glyph-name="sacute" unicode="&#x15b;" horiz-adv-x="694" 
d="M400 1288h152l-158 -176h-110zM304 -24q-71 0 -129 16t-85 36v116q13 -9 33.5 -19.5t47.5 -19.5t58.5 -15t66.5 -6q99 0 143.5 41.5t44.5 112.5q0 66 -31.5 109t-82.5 75l-122 76q-81 50 -117.5 114.5t-36.5 141.5q0 64 20.5 114t59 84.5t93.5 53t125 18.5q65 0 106 -11
t70 -25v-114q-10 7 -26.5 14.5t-38 13.5t-47 10t-52.5 4q-97 0 -142.5 -41.5t-45.5 -112.5q0 -33 8.5 -59t24 -47t36.5 -38.5t47 -33.5l124 -80q83 -53 116.5 -118t33.5 -140q0 -126 -76 -198t-226 -72z" />
    <glyph glyph-name="scedilla" unicode="&#x15f;" horiz-adv-x="694" 
d="M304 -24q-71 0 -129 16t-85 36v116q13 -9 33.5 -19.5t47.5 -19.5t58.5 -15t66.5 -6q99 0 143.5 41.5t44.5 112.5q0 66 -31.5 109t-82.5 75l-122 76q-81 50 -117.5 114.5t-36.5 141.5q0 64 20.5 114t59 84.5t93.5 53t125 18.5q65 0 106 -11t70 -25v-114q-10 7 -26.5 14.5
t-38 13.5t-47 10t-52.5 4q-97 0 -142.5 -41.5t-45.5 -112.5q0 -33 8.5 -59t24 -47t36.5 -38.5t47 -33.5l124 -80q83 -53 116.5 -118t33.5 -140q0 -126 -76 -198t-226 -72zM312 -298q-30 0 -56.5 6t-41.5 14v76q9 -2 26.5 -5t41.5 -3q29 0 45.5 12.5t16.5 39.5q0 19 -8.5 42
t-21 45t-27 41t-25.5 30h90q15 -14 32 -34.5t32 -45t24.5 -52t9.5 -54.5q0 -53 -37.5 -82.5t-100.5 -29.5z" />
    <glyph glyph-name="scircumflex" unicode="&#x15d;" horiz-adv-x="694" 
d="M158 1182l204 116l204 -116v-80l-204 76l-204 -76v80zM304 -24q-71 0 -129 16t-85 36v116q13 -9 33.5 -19.5t47.5 -19.5t58.5 -15t66.5 -6q99 0 143.5 41.5t44.5 112.5q0 66 -31.5 109t-82.5 75l-122 76q-81 50 -117.5 114.5t-36.5 141.5q0 64 20.5 114t59 84.5t93.5 53
t125 18.5q65 0 106 -11t70 -25v-114q-10 7 -26.5 14.5t-38 13.5t-47 10t-52.5 4q-97 0 -142.5 -41.5t-45.5 -112.5q0 -33 8.5 -59t24 -47t36.5 -38.5t47 -33.5l124 -80q83 -53 116.5 -118t33.5 -140q0 -126 -76 -198t-226 -72z" />
    <glyph glyph-name="scommaaccent" unicode="&#x219;" horiz-adv-x="694" 
d="M270 -384q9 33 15.5 65.5t6.5 52.5q0 22 -3.5 39t-7.5 31t-7.5 27t-3.5 27q0 30 15.5 44t42.5 14q33 0 45.5 -20.5t12.5 -47.5q0 -39 -10.5 -101t-37.5 -131h-68v0zM304 -24q-71 0 -129 16t-85 36v116q13 -9 33.5 -19.5t47.5 -19.5t58.5 -15t66.5 -6q99 0 143.5 41.5
t44.5 112.5q0 66 -31.5 109t-82.5 75l-122 76q-81 50 -117.5 114.5t-36.5 141.5q0 64 20.5 114t59 84.5t93.5 53t125 18.5q65 0 106 -11t70 -25v-114q-10 7 -26.5 14.5t-38 13.5t-47 10t-52.5 4q-97 0 -142.5 -41.5t-45.5 -112.5q0 -33 8.5 -59t24 -47t36.5 -38.5t47 -33.5
l124 -80q83 -53 116.5 -118t33.5 -140q0 -126 -76 -198t-226 -72z" />
    <glyph glyph-name="tbar" unicode="&#x167;" horiz-adv-x="580" 
d="M34 1000h142v300h120v-300h204v-102h-204v-198h158v-102h-158v-372q0 -43 8 -69t25 -40t43.5 -18.5t63.5 -4.5h44v-102h-74q-44 0 -85.5 7.5t-73.5 31t-51.5 67t-19.5 114.5v386h-90v102h90v198h-142v102z" />
    <glyph glyph-name="tcaron" unicode="&#x165;" horiz-adv-x="558" 
d="M34 1000h142v300h120v-300h204v-102h-204v-672q0 -43 8 -69t25 -40t43.5 -18.5t63.5 -4.5h44v-102h-74q-44 0 -85.5 7.5t-73.5 31t-51.5 67t-19.5 114.5v686h-142v102zM416 1094q9 33 15.5 65.5t6.5 52.5q0 22 -3.5 39.5t-7.5 31.5t-7.5 26.5t-3.5 26.5q0 30 16 44t42 14
q33 0 45.5 -20t12.5 -50q0 -38 -10.5 -99.5t-37.5 -130.5h-68v0z" />
    <glyph glyph-name="tcommaaccent" unicode="&#x163;" horiz-adv-x="560" 
d="M276 -384q9 33 15.5 65.5t6.5 52.5q0 22 -3.5 39t-7.5 31t-7.5 27t-3.5 27q0 30 15.5 44t42.5 14q33 0 45.5 -20.5t12.5 -47.5q0 -39 -10.5 -101t-37.5 -131h-68v0zM34 1000h142v300h120v-300h204v-102h-204v-672q0 -43 8 -69t25 -40t43.5 -18.5t63.5 -4.5h44v-102h-74
q-44 0 -85.5 7.5t-73.5 31t-51.5 67t-19.5 114.5v686h-142v102z" />
    <glyph glyph-name="uni021B" unicode="&#x21b;" horiz-adv-x="560" 
d="M276 -384q9 33 15.5 65.5t6.5 52.5q0 22 -3.5 39t-7.5 31t-7.5 27t-3.5 27q0 30 15.5 44t42.5 14q33 0 45.5 -20.5t12.5 -47.5q0 -39 -10.5 -101t-37.5 -131h-68v0zM34 1000h142v300h120v-300h204v-102h-204v-672q0 -43 8 -69t25 -40t43.5 -18.5t63.5 -4.5h44v-102h-74
q-44 0 -85.5 7.5t-73.5 31t-51.5 67t-19.5 114.5v686h-142v102z" />
    <glyph glyph-name="ubreve" unicode="&#x16d;" horiz-adv-x="856" 
d="M614 52q-44 -38 -96.5 -57t-109.5 -19q-80 0 -133 27t-84.5 72t-45 105t-13.5 126v694h120v-674q0 -54 8 -99t28.5 -78t55.5 -51t88 -18q50 0 89.5 15.5t72.5 38.5v866h118v-1000h-86zM424 1110q-50 0 -88 15t-65 35.5t-43.5 42t-21.5 35.5l40 62q6 -8 19.5 -21.5
t35.5 -27t52.5 -23.5t70.5 -10t70.5 10t52.5 23.5t35.5 27t19.5 21.5l40 -62q-5 -14 -21.5 -35.5t-43.5 -42t-65.5 -35.5t-87.5 -15z" />
    <glyph glyph-name="uhungarumlaut" unicode="&#x171;" horiz-adv-x="856" 
d="M614 52q-44 -38 -96.5 -57t-109.5 -19q-80 0 -133 27t-84.5 72t-45 105t-13.5 126v694h120v-674q0 -54 8 -99t28.5 -78t55.5 -51t88 -18q50 0 89.5 15.5t72.5 38.5v866h118v-1000h-86zM346 1288h138l-154 -176h-100zM598 1288h140l-156 -176h-100z" />
    <glyph glyph-name="umacron" unicode="&#x16b;" horiz-adv-x="856" 
d="M614 52q-44 -38 -96.5 -57t-109.5 -19q-80 0 -133 27t-84.5 72t-45 105t-13.5 126v694h120v-674q0 -54 8 -99t28.5 -78t55.5 -51t88 -18q50 0 89.5 15.5t72.5 38.5v866h118v-1000h-86zM204 1244h440v-98h-440v98z" />
    <glyph glyph-name="uogonek" unicode="&#x173;" horiz-adv-x="856" 
d="M614 -298q-60 0 -98 24.5t-38 75.5q0 30 15.5 61t38 59.5t47 52t43.5 37.5l-8 40q-44 -38 -96.5 -57t-109.5 -19q-80 0 -133 27t-84.5 72t-45 105t-13.5 126v694h120v-674q0 -54 8 -99t28.5 -78t55.5 -51t88 -18q50 0 89.5 15.5t72.5 38.5v866h118v-1000
q-12 -9 -34 -28.5t-43 -43.5t-37 -49t-16 -45q0 -24 17.5 -35t46.5 -11q24 0 41 3.5t25 6.5v-78q-15 -8 -40.5 -13t-57.5 -5z" />
    <glyph glyph-name="uring" unicode="&#x16f;" horiz-adv-x="856" 
d="M424 1078q-40 0 -73.5 12t-57.5 35t-37.5 56t-13.5 75t14 75.5t38 56.5t57.5 35.5t72.5 12.5q40 0 73 -12t57 -35t37 -56.5t13 -76.5q0 -41 -14 -74t-38 -56t-57 -35.5t-71 -12.5zM424 1156q41 0 70.5 24.5t29.5 75.5q0 26 -8 45.5t-21.5 32t-32 18.5t-38.5 6
q-41 0 -70.5 -25t-29.5 -77q0 -51 29.5 -75.5t70.5 -24.5zM614 52q-44 -38 -96.5 -57t-109.5 -19q-80 0 -133 27t-84.5 72t-45 105t-13.5 126v694h120v-674q0 -54 8 -99t28.5 -78t55.5 -51t88 -18q50 0 89.5 15.5t72.5 38.5v866h118v-1000h-86z" />
    <glyph glyph-name="utilde" unicode="&#x169;" horiz-adv-x="856" 
d="M614 52q-44 -38 -96.5 -57t-109.5 -19q-80 0 -133 27t-84.5 72t-45 105t-13.5 126v694h120v-674q0 -54 8 -99t28.5 -78t55.5 -51t88 -18q50 0 89.5 15.5t72.5 38.5v866h118v-1000h-86zM512 1114q-35 0 -59 10.5t-44.5 22.5t-41 22.5t-47.5 10.5q-33 0 -59 -14.5
t-43 -31.5v88q15 20 46 39t72 19q34 0 58.5 -10.5t45 -22.5t41 -22.5t47.5 -10.5q33 0 59 14.5t43 31.5v-88q-15 -20 -46 -39t-72 -19z" />
    <glyph glyph-name="wacute" unicode="&#x1e83;" horiz-adv-x="1200" 
d="M638 1288h152l-158 -176h-110zM60 1000h120l128 -576q14 -65 27 -143.5t21 -146.5q9 68 23 146.5t29 143.5l130 576h126l130 -576q7 -32 14.5 -69t14 -74.5t12 -75t9.5 -71.5q9 68 23 146.5t29 143.5l128 576h116l-234 -1000h-126l-130 576q-8 32 -15 69t-13.5 74.5
t-12 75t-9.5 71.5q-4 -34 -9.5 -71.5t-12 -75t-14 -74.5t-14.5 -69l-132 -576h-124z" />
    <glyph glyph-name="wcircumflex" unicode="&#x175;" horiz-adv-x="1200" 
d="M396 1182l204 116l204 -116v-80l-204 76l-204 -76v80zM60 1000h120l128 -576q14 -65 27 -143.5t21 -146.5q9 68 23 146.5t29 143.5l130 576h126l130 -576q7 -32 14.5 -69t14 -74.5t12 -75t9.5 -71.5q9 68 23 146.5t29 143.5l128 576h116l-234 -1000h-126l-130 576
q-8 32 -15 69t-13.5 74.5t-12 75t-9.5 71.5q-4 -34 -9.5 -71.5t-12 -75t-14 -74.5t-14.5 -69l-132 -576h-124z" />
    <glyph glyph-name="wdieresis" unicode="&#x1e85;" horiz-adv-x="1200" 
d="M442 1118q-38 0 -57 20.5t-19 55.5t19 55.5t57 20.5q36 0 55 -20.5t19 -55.5t-19 -55.5t-55 -20.5zM758 1118q-36 0 -55 20.5t-19 55.5t19 55.5t55 20.5q38 0 57 -20.5t19 -55.5t-19 -55.5t-57 -20.5zM60 1000h120l128 -576q14 -65 27 -143.5t21 -146.5q9 68 23 146.5
t29 143.5l130 576h126l130 -576q7 -32 14.5 -69t14 -74.5t12 -75t9.5 -71.5q9 68 23 146.5t29 143.5l128 576h116l-234 -1000h-126l-130 576q-8 32 -15 69t-13.5 74.5t-12 75t-9.5 71.5q-4 -34 -9.5 -71.5t-12 -75t-14 -74.5t-14.5 -69l-132 -576h-124z" />
    <glyph glyph-name="wgrave" unicode="&#x1e81;" horiz-adv-x="1200" 
d="M60 1000h120l128 -576q14 -65 27 -143.5t21 -146.5q9 68 23 146.5t29 143.5l130 576h126l130 -576q7 -32 14.5 -69t14 -74.5t12 -75t9.5 -71.5q9 68 23 146.5t29 143.5l128 576h116l-234 -1000h-126l-130 576q-8 32 -15 69t-13.5 74.5t-12 75t-9.5 71.5
q-4 -34 -9.5 -71.5t-12 -75t-14 -74.5t-14.5 -69l-132 -576h-124zM410 1288h152l116 -176h-110z" />
    <glyph glyph-name="ycircumflex" unicode="&#x177;" horiz-adv-x="748" 
d="M312 8l-274 992h124l152 -582q8 -32 17 -67t17 -71t15.5 -72t12.5 -68q4 32 11 68t15 72t17 71t17 67l154 582h120l-362 -1300h-124zM170 1182l204 116l204 -116v-80l-204 76l-204 -76v80z" />
    <glyph glyph-name="ygrave" unicode="&#x1ef3;" horiz-adv-x="748" 
d="M312 8l-274 992h124l152 -582q8 -32 17 -67t17 -71t15.5 -72t12.5 -68q4 32 11 68t15 72t17 71t17 67l154 582h120l-362 -1300h-124zM184 1288h152l116 -176h-110z" />
    <glyph glyph-name="zacute" unicode="&#x17a;" horiz-adv-x="720" 
d="M404 1288h152l-158 -176h-110zM92 78l398 820h-388v102h528v-78l-400 -820h408v-102h-546v78z" />
    <glyph glyph-name="zdotaccent" unicode="&#x17c;" horiz-adv-x="720" 
d="M92 78l398 820h-388v102h528v-78l-400 -820h408v-102h-546v78zM366 1118q-38 0 -57 20t-19 56t19 56t57 20t57 -20t19 -56t-19 -56t-57 -20z" />
    <glyph glyph-name="ij" unicode="&#x133;" horiz-adv-x="808" 
d="M202 1128q-39 0 -60.5 21t-21.5 57t21.5 57t60.5 21q41 0 61.5 -21t20.5 -57t-20.5 -57t-61.5 -21zM142 1000h120v-1000h-120v1000zM606 1128q-39 0 -60.5 21t-21.5 57t21.5 57t60.5 21q41 0 61.5 -21t20.5 -57t-20.5 -57t-61.5 -21zM398 -198h36q36 0 58 6.5t34 20.5
t16 35.5t4 51.5v1084h120v-1108q0 -59 -16 -96.5t-43.5 -58.5t-64.5 -29t-80 -8h-64v102z" />
    <glyph glyph-name="uni2190" unicode="&#x2190;" horiz-adv-x="1400" 
d="M68 650l494 494l82 -80l-368 -366q17 5 33 7.5t31 2.5h992v-116h-992q-15 0 -31 2.5t-33 7.5l368 -366l-82 -80z" />
    <glyph glyph-name="uni2191" unicode="&#x2191;" horiz-adv-x="1400" 
d="M204 830l494 494l496 -494l-80 -82l-366 366q5 -17 7.5 -32.5t2.5 -29.5v-1052h-118v1052q0 14 2.5 30.5t7.5 33.5l-366 -368z" />
    <glyph glyph-name="uni2192" unicode="&#x2192;" horiz-adv-x="1400" 
d="M756 236l366 366q-17 -5 -32.5 -7.5t-29.5 -2.5h-992v116h992q14 0 29.5 -2.5t32.5 -7.5l-366 366l82 80l494 -494l-494 -494z" />
    <glyph glyph-name="uni2193" unicode="&#x2193;" horiz-adv-x="1400" 
d="M204 470l80 82l366 -370q-5 18 -7.5 34.5t-2.5 31.5v1052h118v-1052q0 -14 -2.5 -29.5t-7.5 -32.5l366 366l80 -82l-496 -494z" />
    <glyph glyph-name="uni2196" unicode="&#x2196;" horiz-adv-x="1400" 
d="M232 1118h702v-114h-522q17 -9 30 -19t24 -19l702 -702l-82 -82l-702 702q-11 9 -20 23t-18 29v-520h-114v702z" />
    <glyph glyph-name="uni2197" unicode="&#x2197;" horiz-adv-x="1400" 
d="M1054 934q-18 -30 -38 -50l-700 -702l-84 82l702 702q9 9 23 19t29 19h-518v114h700v-702h-114v518z" />
    <glyph glyph-name="uni2198" unicode="&#x2198;" horiz-adv-x="1400" 
d="M468 296h516q-15 9 -28 18t-22 20l-702 700l84 84l700 -702q9 -11 19 -24t19 -28v518h114v-700h-700v114z" />
    <glyph glyph-name="uni2199" unicode="&#x2199;" horiz-adv-x="1400" 
d="M232 882h114v-520q19 35 38 54l702 702l82 -84l-702 -700q-11 -11 -24 -20t-28 -18h520v-114h-702v700z" />
    <glyph glyph-name="zero.tnum" horiz-adv-x="1000" 
d="M500 -24q-103 0 -174.5 31t-116.5 108t-65 207t-20 328q0 196 21 325.5t66 207t116.5 109.5t172.5 32q103 0 174.5 -31t116.5 -108t65 -207t20 -328q0 -197 -21 -326.5t-66 -207t-116.5 -109t-172.5 -31.5zM500 86q70 0 117.5 25.5t76 89.5t40.5 173t12 276t-12 276
t-40.5 173t-76 89.5t-117.5 25.5q-71 0 -118 -25.5t-75.5 -89.5t-40.5 -173t-12 -276t12 -276t40.5 -173t75.5 -89.5t118 -25.5z" />
    <glyph glyph-name="zero.tnum_alt" horiz-adv-x="1000" 
d="M500 576q-36 0 -56 19.5t-20 54.5q0 33 20 53.5t56 20.5t55 -20.5t19 -53.5q0 -35 -19 -54.5t-55 -19.5zM500 -24q-103 0 -174.5 31t-116.5 108t-65 207t-20 328q0 196 21 325.5t66 207t116.5 109.5t172.5 32q103 0 174.5 -31t116.5 -108t65 -207t20 -328
q0 -197 -21 -326.5t-66 -207t-116.5 -109t-172.5 -31.5zM500 86q70 0 117.5 25.5t76 89.5t40.5 173t12 276t-12 276t-40.5 173t-76 89.5t-117.5 25.5q-71 0 -118 -25.5t-75.5 -89.5t-40.5 -173t-12 -276t12 -276t40.5 -173t75.5 -89.5t118 -25.5z" />
    <glyph glyph-name="one.tnum" horiz-adv-x="1000" 
d="M264 108h204v1054l-206 -72v114l262 96h70v-1192h208v-108h-538v108z" />
    <glyph glyph-name="two.tnum" horiz-adv-x="1000" 
d="M180 100q0 105 17 180.5t48.5 131t74.5 94t96 70.5q59 37 108 69t84 72.5t54.5 94.5t19.5 134q0 63 -13.5 112t-43.5 83t-77 51.5t-114 17.5q-68 0 -123.5 -18t-88.5 -36v122q19 10 45 18.5t55.5 14.5t61 9.5t62.5 3.5q103 0 172.5 -29.5t112 -80.5t61 -119t18.5 -145
q0 -100 -23.5 -169t-65 -120t-98 -90t-121.5 -79q-53 -33 -90 -66t-60 -76t-34 -101t-12 -141h512v-108h-638v100z" />
    <glyph glyph-name="three.tnum" horiz-adv-x="1000" 
d="M416 -24q-32 0 -67 4t-66.5 10t-57.5 14.5t-41 17.5v122q12 -8 34.5 -17t51.5 -17.5t62.5 -14t67.5 -5.5q70 0 126 13.5t94.5 43.5t59 78.5t20.5 118.5q0 91 -31.5 151.5t-85.5 98t-125 54.5t-150 20v78l340 446h-460v108h622v-90l-350 -452q76 -12 143 -41.5
t117.5 -80.5t80 -124.5t29.5 -173.5q0 -88 -28 -155.5t-81 -113.5t-130 -69.5t-175 -23.5z" />
    <glyph glyph-name="four.tnum" horiz-adv-x="1000" 
d="M116 382l490 918h138l-486 -904h390v366h126v-366h150v-108h-150v-288h-126v288h-532v94z" />
    <glyph glyph-name="five.tnum" horiz-adv-x="1000" 
d="M416 -24q-32 0 -67 4t-66.5 10t-57.5 14.5t-41 17.5v122q12 -8 34.5 -17t51 -17.5t62 -14t68.5 -5.5q70 0 126 13.5t94.5 43.5t59 78.5t20.5 118.5q0 98 -36.5 161.5t-100 101.5t-150.5 56.5t-187 26.5l24 610h542v-108h-420l-18 -402q107 -13 194.5 -43.5t149.5 -84.5
t96 -133.5t34 -190.5q0 -88 -27.5 -155.5t-80 -113.5t-129.5 -69.5t-175 -23.5z" />
    <glyph glyph-name="six.tnum" horiz-adv-x="1000" 
d="M530 -24q-114 0 -186 43t-113 126.5t-56 206t-15 280.5q0 178 30 308t87.5 215.5t141.5 127t193 41.5q65 0 119 -12.5t83 -27.5v-118q-12 7 -32.5 15t-46.5 15.5t-55.5 12.5t-59.5 5q-152 0 -238 -122t-92 -366q45 35 112 57.5t148 22.5q95 0 160 -32t105 -87t57.5 -129
t17.5 -158q0 -48 -6.5 -98.5t-22 -97.5t-42 -88.5t-66.5 -72.5t-95 -49t-128 -18zM524 694q-35 0 -68 -7t-63 -18.5t-56.5 -26t-46.5 -30.5q1 -134 11.5 -232.5t37.5 -164t73 -97.5t118 -32q69 0 113.5 25.5t70.5 68t36 97t10 113.5q0 63 -10.5 118.5t-37 96.5t-72.5 65
t-116 24z" />
    <glyph glyph-name="seven.tnum" horiz-adv-x="1000" 
d="M696 1192h-524v108h658v-90l-410 -1210h-132z" />
    <glyph glyph-name="eight.tnum" horiz-adv-x="1000" 
d="M500 -24q-182 0 -281 73.5t-99 220.5q0 70 18.5 125t54 101.5t86 86t115.5 77.5q-119 75 -180.5 163.5t-61.5 208.5q0 71 25.5 125.5t71.5 91.5t110 56t141 19q79 0 143 -18.5t109 -55.5t69.5 -91.5t24.5 -126.5q0 -60 -15.5 -111.5t-46 -96.5t-76 -85t-104.5 -77
q64 -39 114.5 -79t86 -86.5t54.5 -101.5t19 -125q0 -73 -26 -128t-74.5 -92t-119 -55.5t-158.5 -18.5zM500 86q59 0 105.5 11t78.5 35t49 61.5t17 90.5q0 54 -18 97t-51 80t-80 70t-105 67q-58 -34 -103.5 -67t-77 -70t-48.5 -80t-17 -97q0 -53 16.5 -90.5t48.5 -61.5
t78.5 -35t106.5 -11zM282 1028q0 -52 14 -94t42 -78t69 -68.5t95 -65.5q52 33 92 65.5t67 68.5t41 78t14 94q0 49 -15 85t-43 58.5t-68 33.5t-90 11q-102 0 -160 -44.5t-58 -143.5z" />
    <glyph glyph-name="nine.tnum" horiz-adv-x="1000" 
d="M406 -24q-65 0 -119 12.5t-83 27.5v118q12 -7 32.5 -15t46.5 -15.5t55.5 -12.5t59.5 -5q82 0 143 29t102 90t62 155.5t23 225.5q-45 -32 -108.5 -54t-151.5 -22q-89 0 -153 29.5t-105.5 83.5t-61.5 128.5t-20 164.5q0 73 17 145.5t58 131t110.5 95t174.5 36.5
q114 0 186 -43t113 -126.5t56 -206t15 -280.5q0 -184 -27.5 -315t-83.5 -215t-141 -123t-200 -39zM494 622q71 0 131.5 22.5t102.5 51.5q-2 131 -12.5 228.5t-37.5 162t-73 96t-117 31.5q-66 0 -110 -24.5t-71 -65.5t-38 -95t-11 -113q0 -68 11.5 -122t39 -92.5t72.5 -59
t113 -20.5z" />
    <glyph glyph-name="dollar.tnum" horiz-adv-x="1000" 
d="M434 -24q-77 2 -130.5 15t-77.5 27v118q14 -8 35.5 -16t48.5 -15.5t58 -12t64 -4.5q55 0 100 11t76.5 36t48.5 65t17 98q0 46 -12 82t-33 67.5t-50 60t-63 58.5l-104 88q-39 33 -73.5 67.5t-60 75t-40 90t-14.5 113.5q0 131 68.5 211t193.5 103v186h108v-176
q59 -2 106.5 -14t73.5 -24v-118q-27 14 -74.5 29t-103.5 15q-55 0 -99 -11t-75.5 -36t-48.5 -65t-17 -98q0 -46 11.5 -82t32.5 -67.5t50 -60t64 -58.5l102 -88q39 -33 73.5 -67.5t60.5 -75t41 -90t15 -113.5q0 -133 -69 -213t-193 -101v-186h-110v176z" />
    <glyph glyph-name="cent.tnum" horiz-adv-x="1000" 
d="M508 -18q-63 10 -109.5 42t-77.5 93.5t-46 155.5t-15 227q0 136 18 230t50.5 154t78 90.5t101.5 41.5v184h108v-176q48 -3 83 -12.5t59 -23.5v-114q-10 7 -27 14.5t-38 13.5t-44.5 10t-46.5 4q-55 0 -96 -17t-68 -63.5t-40.5 -127.5t-13.5 -208q0 -125 12 -205.5t37 -127
t64 -65t93 -18.5q28 0 54.5 4.5t49.5 11t41.5 14.5t30.5 16v-114q-23 -12 -62.5 -23.5t-87.5 -14.5v-178h-108v182z" />
    <glyph glyph-name="sterling.tnum" horiz-adv-x="1000" 
d="M150 718h198v176q0 211 81.5 320.5t258.5 109.5q30 0 58.5 -4t52 -10t40.5 -13t25 -13v-116q-10 7 -27 14.5t-39.5 14t-49 11t-54.5 4.5q-62 0 -104 -19.5t-67.5 -61.5t-37 -106.5t-11.5 -154.5v-152h298v-106h-298v-506h390v-106h-714v106h198v506h-198v106z" />
    <glyph glyph-name="yen.tnum" horiz-adv-x="1000" 
d="M180 644h204l-314 656h138l172 -368q33 -74 63 -152t51 -144h2q21 66 52 144t66 152l170 368h136l-316 -656h220v-102h-266v-160h266v-102h-266v-280h-126v280h-252v102h252v160h-252v102z" />
    <glyph glyph-name="Euro.tnum" horiz-adv-x="1000" 
d="M378 552h392v-102h-390q8 -107 30 -176.5t59 -111t89 -58t120 -16.5q33 0 66 5.5t62.5 14t52.5 17.5t37 17v-118q-14 -9 -40.5 -17.5t-58 -15.5t-65 -11t-62.5 -4q-99 0 -173.5 25t-125.5 81.5t-80 146.5t-37 221h-148v102h144v98v98h-144v102h148q8 130 37 220t80 146.5
t125.5 82t173.5 25.5q29 0 62.5 -4t65 -11t58 -15.5t40.5 -17.5v-118q-14 8 -37 17.5t-52.5 17.5t-62.5 13.5t-66 5.5q-68 0 -120 -16.5t-89 -58t-59 -111.5t-30 -176h390v-102h-392v-98v-98z" />
    <glyph glyph-name="currency.tnum" horiz-adv-x="1000" 
d="M688 296q-36 -27 -82.5 -39.5t-105.5 -12.5q-60 0 -106.5 12.5t-81.5 39.5l-110 -112l-76 74l120 120q-26 48 -37 116t-11 156t11 155t37 117l-120 120l76 74l110 -114q69 54 188 54q116 0 188 -54l110 114l74 -74l-120 -120q50 -97 50 -272q0 -178 -50 -272l120 -120
l-74 -74zM500 348q51 0 85 18t55 55t29.5 94t8.5 135t-8.5 135t-29.5 94t-55 55t-85 18t-85 -18t-55 -55t-29.5 -94t-8.5 -135t8.5 -135t29.5 -94t55 -55t85 -18z" />
    <glyph glyph-name="florin.tnum" horiz-adv-x="1000" 
d="M138 718h230v182q0 424 328 424q62 0 103 -10t67 -22v-114q-10 6 -26 12.5t-36 12.5t-43 9.5t-47 3.5q-68 0 -111 -22t-68.5 -64.5t-35 -105t-9.5 -144.5v-162h316v-106h-316v-912h-122v912h-230v106z" />
    <glyph glyph-name="period.tnum" horiz-adv-x="400" 
d="M200 -20q-39 0 -59.5 22t-20.5 58q0 38 20.5 60t59.5 22t59.5 -22t20.5 -60q0 -36 -20.5 -58t-59.5 -22z" />
    <glyph glyph-name="comma.tnum" horiz-adv-x="400" 
d="M120 -278q14 45 22 91t8 73q0 30 -4.5 54.5t-10.5 45.5t-10.5 39t-4.5 35q0 41 22.5 61.5t57.5 20.5q44 0 62 -26.5t18 -67.5q0 -26 -3.5 -61.5t-11.5 -78t-20.5 -90t-30.5 -96.5h-94v0z" />
    <glyph glyph-name="a.alt" horiz-adv-x="860" 
d="M618 52q-41 -36 -93 -56t-111 -20q-81 0 -139 23.5t-95 82.5t-54.5 160.5t-17.5 257.5q0 154 18 255t55.5 161t95 84t135.5 24q59 0 112 -19.5t94 -54.5l12 50h86v-1000h-86zM434 82q47 0 88.5 15.5t73.5 36.5v730q-32 23 -73.5 38.5t-88.5 15.5q-59 0 -97.5 -19
t-62 -66.5t-33 -128t-9.5 -204.5t9.5 -204.5t33 -128t62 -66.5t97.5 -19z" />
    <glyph glyph-name="aacute.alt" horiz-adv-x="860" 
d="M458 1288h152l-158 -176h-110zM618 52q-41 -36 -93 -56t-111 -20q-81 0 -139 23.5t-95 82.5t-54.5 160.5t-17.5 257.5q0 154 18 255t55.5 161t95 84t135.5 24q59 0 112 -19.5t94 -54.5l12 50h86v-1000h-86zM434 82q47 0 88.5 15.5t73.5 36.5v730q-32 23 -73.5 38.5
t-88.5 15.5q-59 0 -97.5 -19t-62 -66.5t-33 -128t-9.5 -204.5t9.5 -204.5t33 -128t62 -66.5t97.5 -19z" />
    <glyph glyph-name="agrave.alt" horiz-adv-x="860" 
d="M618 52q-41 -36 -93 -56t-111 -20q-81 0 -139 23.5t-95 82.5t-54.5 160.5t-17.5 257.5q0 154 18 255t55.5 161t95 84t135.5 24q59 0 112 -19.5t94 -54.5l12 50h86v-1000h-86zM434 82q47 0 88.5 15.5t73.5 36.5v730q-32 23 -73.5 38.5t-88.5 15.5q-59 0 -97.5 -19
t-62 -66.5t-33 -128t-9.5 -204.5t9.5 -204.5t33 -128t62 -66.5t97.5 -19zM230 1288h152l116 -176h-110z" />
    <glyph glyph-name="acircumflex.alt" horiz-adv-x="860" 
d="M216 1182l204 116l204 -116v-80l-204 76l-204 -76v80zM618 52q-41 -36 -93 -56t-111 -20q-81 0 -139 23.5t-95 82.5t-54.5 160.5t-17.5 257.5q0 154 18 255t55.5 161t95 84t135.5 24q59 0 112 -19.5t94 -54.5l12 50h86v-1000h-86zM434 82q47 0 88.5 15.5t73.5 36.5v730
q-32 23 -73.5 38.5t-88.5 15.5q-59 0 -97.5 -19t-62 -66.5t-33 -128t-9.5 -204.5t9.5 -204.5t33 -128t62 -66.5t97.5 -19z" />
    <glyph glyph-name="adieresis.alt" horiz-adv-x="860" 
d="M262 1118q-38 0 -57 20.5t-19 55.5t19 55.5t57 20.5q36 0 55 -20.5t19 -55.5t-19 -55.5t-55 -20.5zM578 1118q-36 0 -55 20.5t-19 55.5t19 55.5t55 20.5q38 0 57 -20.5t19 -55.5t-19 -55.5t-57 -20.5zM618 52q-41 -36 -93 -56t-111 -20q-81 0 -139 23.5t-95 82.5
t-54.5 160.5t-17.5 257.5q0 154 18 255t55.5 161t95 84t135.5 24q59 0 112 -19.5t94 -54.5l12 50h86v-1000h-86zM434 82q47 0 88.5 15.5t73.5 36.5v730q-32 23 -73.5 38.5t-88.5 15.5q-59 0 -97.5 -19t-62 -66.5t-33 -128t-9.5 -204.5t9.5 -204.5t33 -128t62 -66.5t97.5 -19
z" />
    <glyph glyph-name="atilde.alt" horiz-adv-x="860" 
d="M618 52q-41 -36 -93 -56t-111 -20q-81 0 -139 23.5t-95 82.5t-54.5 160.5t-17.5 257.5q0 154 18 255t55.5 161t95 84t135.5 24q59 0 112 -19.5t94 -54.5l12 50h86v-1000h-86zM434 82q47 0 88.5 15.5t73.5 36.5v730q-32 23 -73.5 38.5t-88.5 15.5q-59 0 -97.5 -19
t-62 -66.5t-33 -128t-9.5 -204.5t9.5 -204.5t33 -128t62 -66.5t97.5 -19zM508 1114q-35 0 -59 10.5t-44.5 22.5t-41 22.5t-47.5 10.5q-33 0 -59 -14.5t-43 -31.5v88q15 20 46 39t72 19q34 0 58.5 -10.5t45 -22.5t41 -22.5t47.5 -10.5q33 0 59 14.5t43 31.5v-88
q-15 -20 -46 -39t-72 -19z" />
    <glyph glyph-name="aring.alt" horiz-adv-x="860" 
d="M420 1078q-40 0 -73.5 12t-57.5 35t-37.5 56t-13.5 75t14 75.5t38 56.5t57.5 35.5t72.5 12.5q40 0 73 -12t57 -35t37 -56.5t13 -76.5q0 -41 -14 -74t-38 -56t-57 -35.5t-71 -12.5zM420 1156q41 0 70.5 24.5t29.5 75.5q0 26 -8 45.5t-21.5 32t-32 18.5t-38.5 6
q-41 0 -70.5 -25t-29.5 -77q0 -51 29.5 -75.5t70.5 -24.5zM618 52q-41 -36 -93 -56t-111 -20q-81 0 -139 23.5t-95 82.5t-54.5 160.5t-17.5 257.5q0 154 18 255t55.5 161t95 84t135.5 24q59 0 112 -19.5t94 -54.5l12 50h86v-1000h-86zM434 82q47 0 88.5 15.5t73.5 36.5v730
q-32 23 -73.5 38.5t-88.5 15.5q-59 0 -97.5 -19t-62 -66.5t-33 -128t-9.5 -204.5t9.5 -204.5t33 -128t62 -66.5t97.5 -19z" />
    <glyph glyph-name="amacron.alt" horiz-adv-x="860" 
d="M618 52q-41 -36 -93 -56t-111 -20q-81 0 -139 23.5t-95 82.5t-54.5 160.5t-17.5 257.5q0 154 18 255t55.5 161t95 84t135.5 24q59 0 112 -19.5t94 -54.5l12 50h86v-1000h-86zM434 82q47 0 88.5 15.5t73.5 36.5v730q-32 23 -73.5 38.5t-88.5 15.5q-59 0 -97.5 -19
t-62 -66.5t-33 -128t-9.5 -204.5t9.5 -204.5t33 -128t62 -66.5t97.5 -19zM200 1244h440v-98h-440v98z" />
    <glyph glyph-name="abreve.alt" horiz-adv-x="860" 
d="M618 52q-41 -36 -93 -56t-111 -20q-81 0 -139 23.5t-95 82.5t-54.5 160.5t-17.5 257.5q0 154 18 255t55.5 161t95 84t135.5 24q59 0 112 -19.5t94 -54.5l12 50h86v-1000h-86zM434 82q47 0 88.5 15.5t73.5 36.5v730q-32 23 -73.5 38.5t-88.5 15.5q-59 0 -97.5 -19
t-62 -66.5t-33 -128t-9.5 -204.5t9.5 -204.5t33 -128t62 -66.5t97.5 -19zM420 1110q-50 0 -88 15t-65 35.5t-43.5 42t-21.5 35.5l40 62q6 -8 19.5 -21.5t35.5 -27t52.5 -23.5t70.5 -10t70.5 10t52.5 23.5t35.5 27t19.5 21.5l40 -62q-5 -14 -21.5 -35.5t-43.5 -42
t-65.5 -35.5t-87.5 -15z" />
    <glyph glyph-name="aogonek.alt" horiz-adv-x="860" 
d="M616 -298q-60 0 -98 24.5t-38 75.5q0 30 16 61t38.5 59.5t47.5 52t44 37.5l-8 40q-41 -36 -93 -56t-111 -20q-81 0 -139 23.5t-95 82.5t-54.5 160.5t-17.5 257.5q0 154 18 255t55.5 161t95 84t135.5 24q59 0 112 -19.5t94 -54.5l12 50h86v-1000q-12 -9 -34 -28.5
t-43 -43.5t-37 -49t-16 -45q0 -24 17 -35t47 -11q23 0 40 3.5t26 6.5v-78q-15 -8 -41 -13t-59 -5zM434 82q47 0 88.5 15.5t73.5 36.5v730q-32 23 -73.5 38.5t-88.5 15.5q-59 0 -97.5 -19t-62 -66.5t-33 -128t-9.5 -204.5t9.5 -204.5t33 -128t62 -66.5t97.5 -19z" />
    <glyph glyph-name="g.alt" horiz-adv-x="820" 
d="M396 322q-75 0 -132 18q-21 -18 -34.5 -43.5t-13.5 -58.5q0 -50 38.5 -69t107.5 -19h140q68 0 119 -15.5t84.5 -43t50 -66.5t16.5 -85q0 -73 -30.5 -123t-83 -81.5t-121.5 -45.5t-145 -14q-68 0 -129 11t-106.5 35.5t-72 64.5t-26.5 99q0 41 11.5 72t29.5 54t40.5 39
t44.5 27q-36 20 -60 53.5t-24 80.5q0 60 29.5 99t70.5 63q-50 39 -75 110.5t-25 187.5q0 100 19.5 167.5t57 108.5t93 58.5t126.5 17.5q54 0 99 -9.5t81 -32.5q20 15 55 28.5t89 13.5q33 0 52 -3t30 -9v-102h-158q24 -42 36 -100t12 -138q0 -100 -19.5 -167t-57 -107.5
t-93 -58t-126.5 -17.5zM396 418q55 0 90 18.5t54.5 52t26.5 80.5t7 103q0 57 -7 104t-26.5 81t-54.5 52.5t-90 18.5q-56 0 -91 -18.5t-54.5 -52.5t-26 -81t-6.5 -104q0 -56 6.5 -103t26 -80.5t54.5 -52t91 -18.5zM356 44q-27 0 -52 1.5t-46 6.5q-17 -13 -32 -26.5t-26 -30.5
t-17.5 -39t-6.5 -50q0 -37 17 -62.5t46.5 -41.5t69 -23t85.5 -7q53 0 100 8.5t82 27t55.5 48t20.5 72.5q0 62 -43.5 89t-134.5 27h-118z" />
    <glyph glyph-name="gbreve.alt" horiz-adv-x="820" 
d="M396 322q-75 0 -132 18q-21 -18 -34.5 -43.5t-13.5 -58.5q0 -50 38.5 -69t107.5 -19h140q68 0 119 -15.5t84.5 -43t50 -66.5t16.5 -85q0 -73 -30.5 -123t-83 -81.5t-121.5 -45.5t-145 -14q-68 0 -129 11t-106.5 35.5t-72 64.5t-26.5 99q0 41 11.5 72t29.5 54t40.5 39
t44.5 27q-36 20 -60 53.5t-24 80.5q0 60 29.5 99t70.5 63q-50 39 -75 110.5t-25 187.5q0 100 19.5 167.5t57 108.5t93 58.5t126.5 17.5q54 0 99 -9.5t81 -32.5q20 15 55 28.5t89 13.5q33 0 52 -3t30 -9v-102h-158q24 -42 36 -100t12 -138q0 -100 -19.5 -167t-57 -107.5
t-93 -58t-126.5 -17.5zM396 418q55 0 90 18.5t54.5 52t26.5 80.5t7 103q0 57 -7 104t-26.5 81t-54.5 52.5t-90 18.5q-56 0 -91 -18.5t-54.5 -52.5t-26 -81t-6.5 -104q0 -56 6.5 -103t26 -80.5t54.5 -52t91 -18.5zM356 44q-27 0 -52 1.5t-46 6.5q-17 -13 -32 -26.5t-26 -30.5
t-17.5 -39t-6.5 -50q0 -37 17 -62.5t46.5 -41.5t69 -23t85.5 -7q53 0 100 8.5t82 27t55.5 48t20.5 72.5q0 62 -43.5 89t-134.5 27h-118zM396 1110q-50 0 -88 15t-65 35.5t-43.5 42t-21.5 35.5l40 62q6 -8 19.5 -21.5t35.5 -27t52.5 -23.5t70.5 -10t70.5 10t52.5 23.5
t35.5 27t19.5 21.5l40 -62q-5 -14 -21.5 -35.5t-43.5 -42t-65.5 -35.5t-87.5 -15z" />
    <glyph glyph-name="gcircumflex.alt" horiz-adv-x="820" 
d="M192 1182l204 116l204 -116v-80l-204 76l-204 -76v80zM396 322q-75 0 -132 18q-21 -18 -34.5 -43.5t-13.5 -58.5q0 -50 38.5 -69t107.5 -19h140q68 0 119 -15.5t84.5 -43t50 -66.5t16.5 -85q0 -73 -30.5 -123t-83 -81.5t-121.5 -45.5t-145 -14q-68 0 -129 11t-106.5 35.5
t-72 64.5t-26.5 99q0 41 11.5 72t29.5 54t40.5 39t44.5 27q-36 20 -60 53.5t-24 80.5q0 60 29.5 99t70.5 63q-50 39 -75 110.5t-25 187.5q0 100 19.5 167.5t57 108.5t93 58.5t126.5 17.5q54 0 99 -9.5t81 -32.5q20 15 55 28.5t89 13.5q33 0 52 -3t30 -9v-102h-158
q24 -42 36 -100t12 -138q0 -100 -19.5 -167t-57 -107.5t-93 -58t-126.5 -17.5zM396 418q55 0 90 18.5t54.5 52t26.5 80.5t7 103q0 57 -7 104t-26.5 81t-54.5 52.5t-90 18.5q-56 0 -91 -18.5t-54.5 -52.5t-26 -81t-6.5 -104q0 -56 6.5 -103t26 -80.5t54.5 -52t91 -18.5z
M356 44q-27 0 -52 1.5t-46 6.5q-17 -13 -32 -26.5t-26 -30.5t-17.5 -39t-6.5 -50q0 -37 17 -62.5t46.5 -41.5t69 -23t85.5 -7q53 0 100 8.5t82 27t55.5 48t20.5 72.5q0 62 -43.5 89t-134.5 27h-118z" />
    <glyph glyph-name="gcommaaccent.alt" horiz-adv-x="820" 
d="M396 322q-75 0 -132 18q-21 -18 -34.5 -43.5t-13.5 -58.5q0 -50 38.5 -69t107.5 -19h140q68 0 119 -15.5t84.5 -43t50 -66.5t16.5 -85q0 -73 -30.5 -123t-83 -81.5t-121.5 -45.5t-145 -14q-68 0 -129 11t-106.5 35.5t-72 64.5t-26.5 99q0 41 11.5 72t29.5 54t40.5 39
t44.5 27q-36 20 -60 53.5t-24 80.5q0 60 29.5 99t70.5 63q-50 39 -75 110.5t-25 187.5q0 100 19.5 167.5t57 108.5t93 58.5t126.5 17.5q54 0 99 -9.5t81 -32.5q20 15 55 28.5t89 13.5q33 0 52 -3t30 -9v-102h-158q24 -42 36 -100t12 -138q0 -100 -19.5 -167t-57 -107.5
t-93 -58t-126.5 -17.5zM396 418q55 0 90 18.5t54.5 52t26.5 80.5t7 103q0 57 -7 104t-26.5 81t-54.5 52.5t-90 18.5q-56 0 -91 -18.5t-54.5 -52.5t-26 -81t-6.5 -104q0 -56 6.5 -103t26 -80.5t54.5 -52t91 -18.5zM356 44q-27 0 -52 1.5t-46 6.5q-17 -13 -32 -26.5t-26 -30.5
t-17.5 -39t-6.5 -50q0 -37 17 -62.5t46.5 -41.5t69 -23t85.5 -7q53 0 100 8.5t82 27t55.5 48t20.5 72.5q0 62 -43.5 89t-134.5 27h-118zM396 1110q-33 0 -45.5 20.5t-12.5 47.5q0 41 10.5 102t37.5 130h68q-9 -33 -15.5 -65.5t-6.5 -50.5q0 -23 3.5 -40.5t7.5 -31.5t7.5 -27
t3.5 -27q0 -29 -15.5 -43.5t-42.5 -14.5z" />
    <glyph glyph-name="gdotaccent.alt" horiz-adv-x="820" 
d="M396 322q-75 0 -132 18q-21 -18 -34.5 -43.5t-13.5 -58.5q0 -50 38.5 -69t107.5 -19h140q68 0 119 -15.5t84.5 -43t50 -66.5t16.5 -85q0 -73 -30.5 -123t-83 -81.5t-121.5 -45.5t-145 -14q-68 0 -129 11t-106.5 35.5t-72 64.5t-26.5 99q0 41 11.5 72t29.5 54t40.5 39
t44.5 27q-36 20 -60 53.5t-24 80.5q0 60 29.5 99t70.5 63q-50 39 -75 110.5t-25 187.5q0 100 19.5 167.5t57 108.5t93 58.5t126.5 17.5q54 0 99 -9.5t81 -32.5q20 15 55 28.5t89 13.5q33 0 52 -3t30 -9v-102h-158q24 -42 36 -100t12 -138q0 -100 -19.5 -167t-57 -107.5
t-93 -58t-126.5 -17.5zM396 418q55 0 90 18.5t54.5 52t26.5 80.5t7 103q0 57 -7 104t-26.5 81t-54.5 52.5t-90 18.5q-56 0 -91 -18.5t-54.5 -52.5t-26 -81t-6.5 -104q0 -56 6.5 -103t26 -80.5t54.5 -52t91 -18.5zM356 44q-27 0 -52 1.5t-46 6.5q-17 -13 -32 -26.5t-26 -30.5
t-17.5 -39t-6.5 -50q0 -37 17 -62.5t46.5 -41.5t69 -23t85.5 -7q53 0 100 8.5t82 27t55.5 48t20.5 72.5q0 62 -43.5 89t-134.5 27h-118zM396 1118q-38 0 -57 20t-19 56t19 56t57 20t57 -20t19 -56t-19 -56t-57 -20z" />
    <glyph glyph-name="ampersand.alt" horiz-adv-x="1202" 
d="M582 -24q-112 0 -200 21t-149 76t-93 150.5t-32 244.5q0 143 18.5 237.5t56.5 150t95.5 78t135.5 22.5q79 0 137 -24t95.5 -82.5t55.5 -156t18 -245.5v-22h-490q4 -109 27.5 -176.5t67.5 -105t108 -51t149 -13.5q110 0 186.5 26t124 79t68.5 134t21 191q0 164 -37.5 292
t-112.5 216t-187.5 134t-262.5 46h-104v102h762v-100h-302q64 -26 128 -76.5t115 -133t83 -201t32 -279.5q0 -140 -31 -241t-94 -166t-160 -96t-229 -31zM414 856q-53 0 -87.5 -17t-55.5 -56t-30.5 -103t-10.5 -158h368q-2 91 -12.5 155t-32 103.5t-56 57.5t-83.5 18z" />
    <glyph glyph-name="uni2070" unicode="&#x2070;" horiz-adv-x="696" 
d="M348 460q-74 0 -125.5 19.5t-84 68t-47.5 131t-15 209.5q0 126 15.5 208.5t48.5 131.5t84.5 68.5t123.5 19.5q73 0 125 -19.5t84.5 -68t47.5 -131t15 -209.5q0 -126 -15 -208.5t-48 -131.5t-84.5 -68.5t-124.5 -19.5zM348 556q46 0 76.5 14.5t48.5 52t25.5 102t7.5 163.5
t-7.5 163t-25.5 101.5t-48.5 52.5t-76.5 15q-45 0 -75.5 -15t-48.5 -52.5t-26 -101.5t-8 -163t8 -163.5t26 -102t48.5 -52t75.5 -14.5z" />
    <glyph glyph-name="uni2070.alt" horiz-adv-x="696" 
d="M348 460q-74 0 -125.5 19.5t-84 68t-47.5 131t-15 209.5q0 126 15.5 208.5t48.5 131.5t84.5 68.5t123.5 19.5q73 0 125 -19.5t84.5 -68t47.5 -131t15 -209.5q0 -126 -15 -208.5t-48 -131.5t-84.5 -68.5t-124.5 -19.5zM348 556q46 0 76.5 14.5t48.5 52t25.5 102t7.5 163.5
t-7.5 163t-25.5 101.5t-48.5 52.5t-76.5 15q-45 0 -75.5 -15t-48.5 -52.5t-26 -101.5t-8 -163t8 -163.5t26 -102t48.5 -52t75.5 -14.5zM348 834q-26 0 -40 15t-14 39t14 39t40 15q27 0 40.5 -15t13.5 -39t-13.5 -39t-40.5 -15z" />
    <glyph glyph-name="uni2074" unicode="&#x2074;" horiz-adv-x="696" 
d="M66 732l344 568h122l-336 -552h240v192h110v-192h102v-94h-102v-180h-110v180h-370v78z" />
    <glyph glyph-name="uni2075" unicode="&#x2075;" horiz-adv-x="696" 
d="M284 460q-24 0 -49.5 3t-49.5 7.5t-43.5 10.5t-31.5 13v106q10 -6 28 -13t40.5 -13t48.5 -10t53 -4q43 0 77.5 7.5t59 24t38 42t13.5 62.5q0 56 -25.5 93t-69.5 60t-104 34.5t-129 16.5l20 400h394v-96h-294l-12 -220q75 -8 136 -29.5t104.5 -57t67.5 -86t24 -117.5
q0 -57 -20.5 -100.5t-59 -73.5t-93.5 -45t-123 -15z" />
    <glyph glyph-name="uni2076" unicode="&#x2076;" horiz-adv-x="696" 
d="M352 460q-80 0 -131.5 28.5t-81.5 83.5t-41.5 136t-11.5 186q0 214 82 318t238 104q48 0 90.5 -9.5t65.5 -20.5v-106q-21 14 -61.5 27t-88.5 13q-100 0 -154.5 -63.5t-59.5 -206.5q29 20 73 35t101 15q67 0 113 -20.5t74.5 -56t40.5 -84t12 -103.5q0 -47 -11 -96
t-39.5 -89t-79.5 -65.5t-130 -25.5zM346 908q-39 0 -78.5 -13t-69.5 -33q1 -77 8.5 -134.5t25.5 -96t47 -58t73 -19.5q45 0 73.5 15t45 39.5t23 56.5t6.5 67q0 37 -6.5 69t-24 56t-47.5 37.5t-76 13.5z" />
    <glyph glyph-name="uni2077" unicode="&#x2077;" horiz-adv-x="696" 
d="M464 1204h-354v96h478v-74l-286 -752h-120z" />
    <glyph glyph-name="uni2078" unicode="&#x2078;" horiz-adv-x="696" 
d="M348 460q-126 0 -200 47.5t-74 146.5q0 45 14.5 79.5t39.5 63t59 51.5t73 46q-34 21 -63.5 45t-52 51.5t-35.5 59.5t-13 70q0 48 19 84.5t52.5 61.5t79.5 37.5t101 12.5q57 0 103.5 -12.5t79.5 -37t51 -61t18 -85.5q0 -38 -13 -70t-35.5 -59.5t-52 -51.5t-63.5 -45
q39 -23 73 -46t59 -51.5t39.5 -63t14.5 -79.5q0 -49 -20 -85.5t-56 -60.5t-86.5 -36t-111.5 -12zM348 554q75 0 119.5 26.5t44.5 85.5q0 30 -12 55t-33.5 46t-51.5 40t-67 37q-37 -18 -67 -37t-51.5 -40t-33.5 -46t-12 -55q0 -59 44.5 -85.5t119.5 -26.5zM348 946
q69 38 105.5 78t36.5 94q0 56 -39.5 80t-102.5 24t-102.5 -24t-39.5 -80q0 -54 36.5 -94t105.5 -78z" />
    <glyph glyph-name="uni2079" unicode="&#x2079;" horiz-adv-x="696" 
d="M290 460q-48 0 -90.5 10t-65.5 22v104q21 -14 61.5 -27t88.5 -13q50 0 89.5 16t66.5 50.5t41.5 88t16.5 129.5q-30 -21 -73 -35.5t-99 -14.5q-67 0 -113 20t-74.5 55t-41.5 82t-13 101q0 46 11.5 94t41 86.5t80 63t127.5 24.5q81 0 132.5 -29t81.5 -84.5t41 -136.5
t11 -184q0 -219 -82 -320.5t-238 -101.5zM350 884q38 0 78 12t70 32q-2 72 -9.5 127t-25.5 92t-47 56t-72 19q-44 0 -72 -15t-44.5 -39t-23 -54.5t-6.5 -61.5q0 -35 6.5 -65.5t23.5 -53t46.5 -36t75.5 -13.5z" />
    <glyph glyph-name="uni2080" unicode="&#x2080;" horiz-adv-x="696" 
d="M348 -13q-74 0 -125.5 19.5t-84 68t-47.5 131t-15 209.5q0 126 15.5 208.5t48.5 131.5t84.5 68.5t123.5 19.5q73 0 125 -19.5t84.5 -68t47.5 -131t15 -209.5q0 -126 -15 -208.5t-48 -131.5t-84.5 -68.5t-124.5 -19.5zM348 83q46 0 76.5 14.5t48.5 52t25.5 102t7.5 163.5
t-7.5 163t-25.5 101.5t-48.5 52.5t-76.5 15q-45 0 -75.5 -15t-48.5 -52.5t-26 -101.5t-8 -163t8 -163.5t26 -102t48.5 -52t75.5 -14.5z" />
    <glyph glyph-name="uni2080.alt" horiz-adv-x="696" 
d="M348 -13q-74 0 -125.5 19.5t-84 68t-47.5 131t-15 209.5q0 126 15.5 208.5t48.5 131.5t84.5 68.5t123.5 19.5q73 0 125 -19.5t84.5 -68t47.5 -131t15 -209.5q0 -126 -15 -208.5t-48 -131.5t-84.5 -68.5t-124.5 -19.5zM348 83q46 0 76.5 14.5t48.5 52t25.5 102t7.5 163.5
t-7.5 163t-25.5 101.5t-48.5 52.5t-76.5 15q-45 0 -75.5 -15t-48.5 -52.5t-26 -101.5t-8 -163t8 -163.5t26 -102t48.5 -52t75.5 -14.5zM348 361q-26 0 -40 15t-14 39t14 39t40 15q27 0 40.5 -15t13.5 -39t-13.5 -39t-40.5 -15z" />
    <glyph glyph-name="uni2081" unicode="&#x2081;" horiz-adv-x="696" 
d="M166 97h144v614l-144 -44v100l190 60h64v-730h144v-96h-398v96z" />
    <glyph glyph-name="uni2082" unicode="&#x2082;" horiz-adv-x="696" 
d="M116 77q0 67 12.5 115t35 83t53 59.5t67.5 44.5q39 22 71.5 41.5t56.5 43.5t37 55t13 76q0 72 -36.5 110t-123.5 38q-48 0 -89.5 -12t-68.5 -26v104q29 14 74.5 24t89.5 10q74 0 125 -19.5t82.5 -53t45 -78t13.5 -93.5q0 -65 -18 -110.5t-48.5 -79t-71 -59t-84.5 -49.5
q-32 -18 -55 -36t-38 -41t-22.5 -53.5t-8.5 -73.5h352v-96h-464v76z" />
    <glyph glyph-name="uni2083" unicode="&#x2083;" horiz-adv-x="696" 
d="M288 -13q-24 0 -49.5 3t-49 7.5t-43 10.5t-32.5 13v106q10 -6 28 -13t40.5 -13t48.5 -10t53 -4q88 0 138 33.5t50 108.5q0 52 -22.5 86t-60 55t-86.5 31t-103 12v66l218 252h-302v96h448v-76l-232 -266q55 -8 101.5 -28.5t80 -53.5t52 -77.5t18.5 -100.5
q0 -113 -78 -175.5t-218 -62.5z" />
    <glyph glyph-name="uni2084" unicode="&#x2084;" horiz-adv-x="696" 
d="M66 259l344 568h122l-336 -552h240v192h110v-192h102v-94h-102v-180h-110v180h-370v78z" />
    <glyph glyph-name="uni2085" unicode="&#x2085;" horiz-adv-x="696" 
d="M284 -13q-24 0 -49.5 3t-49.5 7.5t-43.5 10.5t-31.5 13v106q10 -6 28 -13t40.5 -13t48.5 -10t53 -4q43 0 77.5 7.5t59 24t38 42t13.5 62.5q0 56 -25.5 93t-69.5 60t-104 34.5t-129 16.5l20 400h394v-96h-294l-12 -220q75 -8 136 -29.5t104.5 -57t67.5 -86t24 -117.5
q0 -57 -20.5 -100.5t-59 -73.5t-93.5 -45t-123 -15z" />
    <glyph glyph-name="uni2086" unicode="&#x2086;" horiz-adv-x="696" 
d="M352 -13q-80 0 -131.5 28.5t-81.5 83.5t-41.5 136t-11.5 186q0 214 82 318t238 104q48 0 90.5 -9.5t65.5 -20.5v-106q-21 14 -61.5 27t-88.5 13q-100 0 -154.5 -63.5t-59.5 -206.5q29 20 73 35t101 15q67 0 113 -20.5t74.5 -56t40.5 -84t12 -103.5q0 -47 -11 -96
t-39.5 -89t-79.5 -65.5t-130 -25.5zM346 435q-39 0 -78.5 -13t-69.5 -33q1 -77 8.5 -134.5t25.5 -96t47 -58t73 -19.5q45 0 73.5 15t45 39.5t23 56.5t6.5 67q0 37 -6.5 69t-24 56t-47.5 37.5t-76 13.5z" />
    <glyph glyph-name="uni2087" unicode="&#x2087;" horiz-adv-x="696" 
d="M464 731h-354v96h478v-74l-286 -752h-120z" />
    <glyph glyph-name="uni2088" unicode="&#x2088;" horiz-adv-x="696" 
d="M348 -13q-126 0 -200 47.5t-74 146.5q0 45 14.5 79.5t39.5 63t59 51.5t73 46q-34 21 -63.5 45t-52 51.5t-35.5 59.5t-13 70q0 48 19 84.5t52.5 61.5t79.5 37.5t101 12.5q57 0 103.5 -12.5t79.5 -37t51 -61t18 -85.5q0 -38 -13 -70t-35.5 -59.5t-52 -51.5t-63.5 -45
q39 -23 73 -46t59 -51.5t39.5 -63t14.5 -79.5q0 -49 -20 -85.5t-56 -60.5t-86.5 -36t-111.5 -12zM348 81q75 0 119.5 26.5t44.5 85.5q0 30 -12 55t-33.5 46t-51.5 40t-67 37q-37 -18 -67 -37t-51.5 -40t-33.5 -46t-12 -55q0 -59 44.5 -85.5t119.5 -26.5zM348 473
q69 38 105.5 78t36.5 94q0 56 -39.5 80t-102.5 24t-102.5 -24t-39.5 -80q0 -54 36.5 -94t105.5 -78z" />
    <glyph glyph-name="uni2089" unicode="&#x2089;" horiz-adv-x="696" 
d="M290 -13q-48 0 -90.5 10t-65.5 22v104q21 -14 61.5 -27t88.5 -13q50 0 89.5 16t66.5 50.5t41.5 88t16.5 129.5q-30 -21 -73 -35.5t-99 -14.5q-67 0 -113 20t-74.5 55t-41.5 82t-13 101q0 46 11.5 94t41 86.5t80 63t127.5 24.5q81 0 132.5 -29t81.5 -84.5t41 -136.5
t11 -184q0 -219 -82 -320.5t-238 -101.5zM350 411q38 0 78 12t70 32q-2 72 -9.5 127t-25.5 92t-47 56t-72 19q-44 0 -72 -15t-44.5 -39t-23 -54.5t-6.5 -61.5q0 -35 6.5 -65.5t23.5 -53t46.5 -36t75.5 -13.5z" />
    <glyph glyph-name="uni03A9" unicode="&#x3a9;" horiz-adv-x="978" 
d="M50 108h226q-32 45 -61.5 109t-52 140.5t-36.5 161.5t-14 171q0 181 21.5 302.5t67.5 195t117 105t170 31.5q100 0 171.5 -30.5t117 -103.5t66.5 -195t21 -305q0 -86 -14 -171t-36.5 -161.5t-52.5 -140.5t-61 -109h228v-108h-368v88q37 52 69 122t55.5 148t36.5 159.5
t13 156.5q0 159 -12.5 263t-41.5 165.5t-76 86.5t-116 25q-68 0 -115 -25t-76 -86.5t-42 -165.5t-13 -263q0 -75 13.5 -156.5t37 -159.5t55.5 -148t70 -122v-88h-368v108z" />
    <glyph glyph-name="uni03BC" unicode="&#x3bc;" horiz-adv-x="866" 
d="M624 52q-44 -38 -96 -57t-106 -19q-57 0 -99.5 15.5t-72.5 42.5q5 -30 8.5 -61t3.5 -63v-210h-120v1300h120v-674q0 -54 8 -99t28.5 -78t55.5 -51t88 -18q50 0 89.5 15.5t72.5 38.5v866h120v-1000h-88z" />
    <glyph glyph-name="uni0315" unicode="&#x315;" 
d="M-58 1014q9 33 15.5 65.5t6.5 52.5q0 22 -3.5 39.5t-7.5 31.5t-7.5 26.5t-3.5 26.5q0 30 16 44t42 14q33 0 45.5 -20t12.5 -50q0 -38 -10.5 -99.5t-37.5 -130.5h-68v0z" />
    <glyph glyph-name="acute.case" 
d="M38 1582h152l-158 -176h-110z" />
    <glyph glyph-name="breve.case" 
d="M-178 1594q6 -8 19.5 -21.5t35.5 -27t52.5 -23.5t70.5 -10t70.5 10t52.5 23.5t35.5 27t19.5 21.5l40 -64q-5 -13 -21.5 -34t-43.5 -41.5t-65.5 -35.5t-87.5 -15q-50 0 -88 15t-65 35.5t-43.5 41.5t-21.5 34z" />
    <glyph glyph-name="caron.case" 
d="M-204 1592l204 -76l204 76v-80l-204 -116l-204 116v80z" />
    <glyph glyph-name="circumflex.case" 
d="M-204 1476l204 116l204 -116v-80l-204 76l-204 -76v80z" />
    <glyph glyph-name="dieresis.case" 
d="M-158 1412q-38 0 -57 20.5t-19 55.5t19 54.5t57 19.5q36 0 55 -19.5t19 -54.5t-19 -55.5t-55 -20.5zM158 1412q-36 0 -55 20.5t-19 55.5t19 54.5t55 19.5q38 0 57 -19.5t19 -54.5t-19 -55.5t-57 -20.5z" />
    <glyph glyph-name="dotaccent.case" 
d="M0 1412q-38 0 -57 20t-19 56q0 74 76 74q38 0 57 -19.5t19 -54.5q0 -36 -19 -56t-57 -20z" />
    <glyph glyph-name="grave.case" 
d="M-190 1582h152l116 -176h-110z" />
    <glyph glyph-name="hungarumlaut.case" 
d="M-84 1582h138l-154 -176h-100zM168 1582h138l-154 -176h-100z" />
    <glyph glyph-name="macron.case" 
d="M-220 1538h440v-98h-440v98z" />
    <glyph glyph-name="ring.case" 
d="M-180 1510q0 42 14 75.5t38 56.5t57.5 35.5t72.5 12.5q40 0 73 -12t57 -35t37 -56.5t13 -76.5q0 -42 -14 -75t-38 -56t-57 -35t-71 -12q-40 0 -73.5 12t-57.5 34.5t-37.5 55.5t-13.5 76zM2 1410q41 0 70.5 24.5t29.5 75.5q0 26 -8 45.5t-21.5 32t-32 18.5t-38.5 6
q-42 0 -71 -24.5t-29 -77.5q0 -51 29 -75.5t71 -24.5z" />
    <glyph glyph-name="tilde.case" 
d="M-206 1516q15 20 46 38t72 18q34 0 58.5 -10.5t45 -22.5t41 -22.5t47.5 -10.5q33 0 59 15.5t43 32.5v-90q-15 -18 -46 -37t-72 -19q-35 0 -59 10.5t-44.5 22.5t-41 22.5t-47.5 10.5q-33 0 -59 -14.5t-43 -31.5v88z" />
    <glyph glyph-name="uni01CD" unicode="&#x1cd;" horiz-adv-x="860" 
d="M366 1300h128l354 -1300h-132l-86 318h-404l-86 -318h-128zM252 426h350l-68 264q-14 56 -29.5 117t-29.5 121t-26.5 117t-20.5 107q-8 -50 -19.5 -107t-25 -117t-29 -121t-30.5 -117zM226 1592l204 -76l204 76v-80l-204 -116l-204 116v80z" />
    <glyph glyph-name="uni1EA0" unicode="&#x1ea0;" horiz-adv-x="860" 
d="M366 1300h128l354 -1300h-132l-86 318h-404l-86 -318h-128zM252 426h350l-68 264q-14 56 -29.5 117t-29.5 121t-26.5 117t-20.5 107q-8 -50 -19.5 -107t-25 -117t-29 -121t-30.5 -117zM354 -192q0 36 19 56t57 20t57 -20t19 -56q0 -35 -19 -54.5t-57 -19.5t-57 19.5
t-19 54.5z" />
    <glyph glyph-name="uni1EA2" unicode="&#x1ea2;" horiz-adv-x="860" 
d="M366 1300h128l354 -1300h-132l-86 318h-404l-86 -318h-128zM252 426h350l-68 264q-14 56 -29.5 117t-29.5 121t-26.5 117t-20.5 107q-8 -50 -19.5 -107t-25 -117t-29 -121t-30.5 -117zM372 1376q11 10 25.5 26t27 35.5t21 41t8.5 41.5q0 52 -64 52q-21 0 -39 -5t-27 -11
v78q15 9 41 14.5t55 5.5q65 0 102.5 -31t37.5 -81q0 -26 -9.5 -50.5t-24 -46t-32.5 -39t-34 -30.5h-88z" />
    <glyph glyph-name="uni1EA4" unicode="&#x1ea4;" horiz-adv-x="860" 
d="M366 1300h128l354 -1300h-132l-86 318h-404l-86 -318h-128zM252 426h350l-68 264q-14 56 -29.5 117t-29.5 121t-26.5 117t-20.5 107q-8 -50 -19.5 -107t-25 -117t-29 -121t-30.5 -117zM228 1458l202 116l202 -116v-76l-202 74l-202 -74v76zM596 1750h146l-152 -174h-102z
" />
    <glyph glyph-name="uni1EA6" unicode="&#x1ea6;" horiz-adv-x="860" 
d="M366 1300h128l354 -1300h-132l-86 318h-404l-86 -318h-128zM252 426h350l-68 264q-14 56 -29.5 117t-29.5 121t-26.5 117t-20.5 107q-8 -50 -19.5 -107t-25 -117t-29 -121t-30.5 -117zM228 1458l202 116l202 -116v-76l-202 74l-202 -74v76zM118 1750h146l108 -174h-102z
" />
    <glyph glyph-name="uni1EA8" unicode="&#x1ea8;" horiz-adv-x="860" 
d="M366 1300h128l354 -1300h-132l-86 318h-404l-86 -318h-128zM252 426h350l-68 264q-14 56 -29.5 117t-29.5 121t-26.5 117t-20.5 107q-8 -50 -19.5 -107t-25 -117t-29 -121t-30.5 -117zM228 1456l202 116l202 -116v-76l-202 74l-202 -74v76zM530 1548q11 9 25.5 24.5
t27 35t21 40t8.5 40.5q0 50 -64 50q-23 0 -40 -4.5t-26 -9.5v76q15 8 41 13t55 5q65 0 102.5 -30t37.5 -78q0 -26 -9.5 -50t-24 -45t-32.5 -38.5t-34 -28.5h-88z" />
    <glyph glyph-name="uni1EAA" unicode="&#x1eaa;" horiz-adv-x="860" 
d="M366 1300h128l354 -1300h-132l-86 318h-404l-86 -318h-128zM252 426h350l-68 264q-14 56 -29.5 117t-29.5 121t-26.5 117t-20.5 107q-8 -50 -19.5 -107t-25 -117t-29 -121t-30.5 -117zM228 1456l202 114l202 -114v-74l-202 72l-202 -72v74zM224 1698q15 18 46 36t72 18
q34 0 58.5 -9.5t45.5 -21.5t41.5 -21.5t46.5 -9.5q33 0 59 15.5t43 32.5v-86q-15 -18 -46 -36t-72 -18q-35 0 -59 9.5t-45 21.5t-41.5 21.5t-46.5 9.5q-33 0 -59 -14.5t-43 -31.5v84z" />
    <glyph glyph-name="uni1EAC" unicode="&#x1eac;" horiz-adv-x="860" 
d="M366 1300h128l354 -1300h-132l-86 318h-404l-86 -318h-128zM252 426h350l-68 264q-14 56 -29.5 117t-29.5 121t-26.5 117t-20.5 107q-8 -50 -19.5 -107t-25 -117t-29 -121t-30.5 -117zM226 1476l204 116l204 -116v-80l-204 76l-204 -76v80zM354 -192q0 36 19 56t57 20
t57 -20t19 -56q0 -35 -19 -54.5t-57 -19.5t-57 19.5t-19 54.5z" />
    <glyph glyph-name="uni1EAE" unicode="&#x1eae;" horiz-adv-x="860" 
d="M366 1300h128l354 -1300h-132l-86 318h-404l-86 -318h-128zM252 426h350l-68 264q-14 56 -29.5 117t-29.5 121t-26.5 117t-20.5 107q-8 -50 -19.5 -107t-25 -117t-29 -121t-30.5 -117zM252 1574q6 -8 19.5 -21.5t35.5 -27t52.5 -23.5t70.5 -10t70.5 10t52.5 23.5t35.5 27
t19.5 21.5l40 -62q-5 -13 -21.5 -34t-44 -41t-65.5 -34.5t-87 -14.5t-87 14.5t-65.5 34.5t-44 41t-21.5 34zM470 1750h144l-150 -174h-104z" />
    <glyph glyph-name="uni1EB0" unicode="&#x1eb0;" horiz-adv-x="860" 
d="M366 1300h128l354 -1300h-132l-86 318h-404l-86 -318h-128zM252 426h350l-68 264q-14 56 -29.5 117t-29.5 121t-26.5 117t-20.5 107q-8 -50 -19.5 -107t-25 -117t-29 -121t-30.5 -117zM252 1574q6 -8 19.5 -21.5t35.5 -27t52.5 -23.5t70.5 -10t70.5 10t52.5 23.5t35.5 27
t19.5 21.5l40 -62q-5 -13 -21.5 -34t-44 -41t-65.5 -34.5t-87 -14.5t-87 14.5t-65.5 34.5t-44 41t-21.5 34zM246 1750h144l110 -174h-104z" />
    <glyph glyph-name="uni1EB2" unicode="&#x1eb2;" horiz-adv-x="860" 
d="M366 1300h128l354 -1300h-132l-86 318h-404l-86 -318h-128zM252 426h350l-68 264q-14 56 -29.5 117t-29.5 121t-26.5 117t-20.5 107q-8 -50 -19.5 -107t-25 -117t-29 -121t-30.5 -117zM252 1574q6 -8 19.5 -21.5t35.5 -27t52.5 -23.5t70.5 -10t70.5 10t52.5 23.5t35.5 27
t19.5 21.5l40 -62q-5 -13 -21.5 -34t-44 -41t-65.5 -34.5t-87 -14.5t-87 14.5t-65.5 34.5t-44 41t-21.5 34zM374 1530q11 10 25.5 25.5t27 34.5t21 39.5t8.5 40.5q0 52 -64 52q-21 0 -39 -5t-27 -11v78q15 8 41 13t55 5q65 0 102.5 -30t37.5 -80q0 -25 -9.5 -49t-24 -45
t-32.5 -38.5t-34 -29.5h-88z" />
    <glyph glyph-name="uni1EB4" unicode="&#x1eb4;" horiz-adv-x="860" 
d="M366 1300h128l354 -1300h-132l-86 318h-404l-86 -318h-128zM252 426h350l-68 264q-14 56 -29.5 117t-29.5 121t-26.5 117t-20.5 107q-8 -50 -19.5 -107t-25 -117t-29 -121t-30.5 -117zM252 1572q6 -7 19.5 -20t35.5 -26.5t52.5 -23.5t70.5 -10t70.5 10t52.5 23.5
t35.5 26.5t19.5 20l40 -60q-5 -14 -21.5 -35t-44 -40.5t-65.5 -34t-87 -14.5t-87 14.5t-65.5 34.5t-44 41t-21.5 34zM224 1698q15 18 46 36t72 18q34 0 58.5 -9.5t45.5 -21.5t41.5 -21.5t46.5 -9.5q33 0 59 15.5t43 32.5v-86q-15 -18 -46 -36t-72 -18q-35 0 -59 9.5
t-45 21.5t-41.5 21.5t-46.5 9.5q-33 0 -59 -14.5t-43 -31.5v84z" />
    <glyph glyph-name="uni1EB6" unicode="&#x1eb6;" horiz-adv-x="860" 
d="M366 1300h128l354 -1300h-132l-86 318h-404l-86 -318h-128zM252 426h350l-68 264q-14 56 -29.5 117t-29.5 121t-26.5 117t-20.5 107q-8 -50 -19.5 -107t-25 -117t-29 -121t-30.5 -117zM252 1594q6 -8 19.5 -21.5t35.5 -27t52.5 -23.5t70.5 -10t70.5 10t52.5 23.5t35.5 27
t19.5 21.5l40 -64q-5 -13 -21.5 -34t-43.5 -41.5t-65.5 -35.5t-87.5 -15q-50 0 -88 15t-65 35.5t-43.5 41.5t-21.5 34zM354 -192q0 36 19 56t57 20t57 -20t19 -56q0 -35 -19 -54.5t-57 -19.5t-57 19.5t-19 54.5z" />
    <glyph glyph-name="uni0226" unicode="&#x226;" horiz-adv-x="860" 
d="M366 1300h128l354 -1300h-132l-86 318h-404l-86 -318h-128zM252 426h350l-68 264q-14 56 -29.5 117t-29.5 121t-26.5 117t-20.5 107q-8 -50 -19.5 -107t-25 -117t-29 -121t-30.5 -117zM430 1412q-38 0 -57 20t-19 56q0 74 76 74q38 0 57 -19.5t19 -54.5q0 -36 -19 -56
t-57 -20z" />
    <glyph glyph-name="uni0243" unicode="&#x243;" horiz-adv-x="924" 
d="M170 306h-108v96h108v898h216q92 0 168 -13.5t130 -51.5t84 -106t30 -177q0 -68 -13 -117t-36.5 -84t-57 -57.5t-73.5 -35.5q49 -12 89.5 -33.5t69.5 -57.5t45 -89.5t16 -129.5q0 -108 -30 -176t-84.5 -106t-130.5 -52t-167 -14h-256v306zM408 108q67 0 122.5 6.5
t95 31.5t61 73.5t21.5 132.5q0 83 -21.5 132t-61 74.5t-95 32.5t-122.5 7h-114v-198h222v-92h-222v-200h114zM368 702q67 0 122.5 7t95 32.5t61 74.5t21.5 132q0 84 -21.5 132.5t-61 73.5t-95 31.5t-122.5 6.5h-74v-490h74z" />
    <glyph glyph-name="uni1E04" unicode="&#x1e04;" horiz-adv-x="916" 
d="M162 1300h216q92 0 168 -13.5t130 -51.5t84 -106t30 -177q0 -65 -12.5 -114t-35 -84t-54.5 -58.5t-70 -37.5q46 -12 85 -34.5t67.5 -59t44 -90t15.5 -126.5q0 -108 -30 -176t-84.5 -106t-130.5 -52t-167 -14h-256v1300zM286 598v-490h116q67 0 122 6.5t94 31.5t60.5 73.5
t21.5 132.5q0 83 -21.5 132t-60.5 74.5t-94 32.5t-122 7h-116zM286 1192v-490h76q67 0 122 7t94 32.5t60.5 74.5t21.5 132q0 84 -21.5 132.5t-60.5 73.5t-94 31.5t-122 6.5h-76zM406 -192q0 36 19 56t57 20t57 -20t19 -56q0 -35 -19 -54.5t-57 -19.5t-57 19.5t-19 54.5z" />
    <glyph glyph-name="uni1E0C" unicode="&#x1e0c;" horiz-adv-x="970" 
d="M162 1300h290q114 0 192.5 -30.5t126.5 -105.5t69.5 -200t21.5 -314q0 -188 -21.5 -313t-69.5 -200t-126.5 -106t-192.5 -31h-290v1300zM286 1192v-1084h156q53 0 95.5 9t75 32t55 62.5t37 99.5t21 143.5t6.5 195.5q0 111 -6.5 195t-21 144t-37 99.5t-55 62.5t-75 32
t-95.5 9h-156zM384 -192q0 36 19 56t57 20t57 -20t19 -56q0 -35 -19 -54.5t-57 -19.5t-57 19.5t-19 54.5z" />
    <glyph glyph-name="uni1E0E" unicode="&#x1e0e;" horiz-adv-x="970" 
d="M162 1300h290q114 0 192.5 -30.5t126.5 -105.5t69.5 -200t21.5 -314q0 -188 -21.5 -313t-69.5 -200t-126.5 -106t-192.5 -31h-290v1300zM286 1192v-1084h156q53 0 95.5 9t75 32t55 62.5t37 99.5t21 143.5t6.5 195.5q0 111 -6.5 195t-21 144t-37 99.5t-55 62.5t-75 32
t-95.5 9h-156zM240 -138h440v-98h-440v98z" />
    <glyph glyph-name="uni1EB8" unicode="&#x1eb8;" horiz-adv-x="818" 
d="M162 1300h554v-108h-430v-468h346v-108h-346v-508h430v-108h-554v1300zM368 -192q0 36 19 56t57 20t57 -20t19 -56q0 -35 -19 -54.5t-57 -19.5t-57 19.5t-19 54.5z" />
    <glyph glyph-name="uni1EBA" unicode="&#x1eba;" horiz-adv-x="818" 
d="M162 1300h554v-108h-430v-468h346v-108h-346v-508h430v-108h-554v1300zM388 1376q11 10 25.5 26t27 35.5t21 41t8.5 41.5q0 52 -64 52q-21 0 -39 -5t-27 -11v78q15 9 41 14.5t55 5.5q65 0 102.5 -31t37.5 -81q0 -26 -9.5 -50.5t-24 -46t-32.5 -39t-34 -30.5h-88z" />
    <glyph glyph-name="uni1EBC" unicode="&#x1ebc;" horiz-adv-x="818" 
d="M162 1300h554v-108h-430v-468h346v-108h-346v-508h430v-108h-554v1300zM240 1516q15 20 46 38t72 18q34 0 58.5 -10.5t45 -22.5t41 -22.5t47.5 -10.5q33 0 59 15.5t43 32.5v-90q-15 -18 -46 -37t-72 -19q-35 0 -59 10.5t-44.5 22.5t-41 22.5t-47.5 10.5q-33 0 -59 -14.5
t-43 -31.5v88z" />
    <glyph glyph-name="uni1EBE" unicode="&#x1ebe;" horiz-adv-x="818" 
d="M162 1300h554v-108h-430v-468h346v-108h-346v-508h430v-108h-554v1300zM244 1458l202 116l202 -116v-76l-202 74l-202 -74v76zM612 1750h146l-152 -174h-102z" />
    <glyph glyph-name="uni1EC0" unicode="&#x1ec0;" horiz-adv-x="818" 
d="M162 1300h554v-108h-430v-468h346v-108h-346v-508h430v-108h-554v1300zM244 1458l202 116l202 -116v-76l-202 74l-202 -74v76zM134 1750h146l108 -174h-102z" />
    <glyph glyph-name="uni1EC2" unicode="&#x1ec2;" horiz-adv-x="818" 
d="M162 1300h554v-108h-430v-468h346v-108h-346v-508h430v-108h-554v1300zM244 1456l202 116l202 -116v-76l-202 74l-202 -74v76zM546 1548q11 9 25.5 24.5t27 35t21 40t8.5 40.5q0 50 -64 50q-23 0 -40 -4.5t-26 -9.5v76q15 8 41 13t55 5q65 0 102.5 -30t37.5 -78
q0 -26 -9.5 -50t-24 -45t-32.5 -38.5t-34 -28.5h-88z" />
    <glyph glyph-name="uni1EC4" unicode="&#x1ec4;" horiz-adv-x="818" 
d="M162 1300h554v-108h-430v-468h346v-108h-346v-508h430v-108h-554v1300zM244 1456l202 114l202 -114v-74l-202 72l-202 -72v74zM240 1698q15 18 46 36t72 18q34 0 58.5 -9.5t45.5 -21.5t41.5 -21.5t46.5 -9.5q33 0 59 15.5t43 32.5v-86q-15 -18 -46 -36t-72 -18
q-35 0 -59 9.5t-45 21.5t-41.5 21.5t-46.5 9.5q-33 0 -59 -14.5t-43 -31.5v84z" />
    <glyph glyph-name="uni1EC6" unicode="&#x1ec6;" horiz-adv-x="818" 
d="M162 1300h554v-108h-430v-468h346v-108h-346v-508h430v-108h-554v1300zM242 1476l204 116l204 -116v-80l-204 76l-204 -76v80zM368 -192q0 36 19 56t57 20t57 -20t19 -56q0 -35 -19 -54.5t-57 -19.5t-57 19.5t-19 54.5z" />
    <glyph glyph-name="uni01E6" unicode="&#x1e6;" horiz-adv-x="962" 
d="M522 -24q-122 0 -201.5 31t-127 108t-66.5 207t-19 328q0 202 27 333t82 206.5t137.5 105t193.5 29.5q33 0 67 -4t65 -11.5t56.5 -17.5t41.5 -21v-118q-13 8 -36 18.5t-53 19.5t-64.5 15.5t-70.5 6.5q-54 0 -98 -9t-79 -32.5t-61 -63.5t-43.5 -102.5t-26 -150
t-8.5 -204.5q0 -174 13.5 -284t46 -172t86.5 -85t136 -23q54 0 98 8.5t76 19.5v496h-248v108h372v-678q-18 -10 -50.5 -21t-73 -20.5t-85 -16t-87.5 -6.5zM312 1592l204 -76l204 76v-80l-204 -116l-204 116v80z" />
    <glyph glyph-name="uni1E20" unicode="&#x1e20;" horiz-adv-x="962" 
d="M522 -24q-122 0 -201.5 31t-127 108t-66.5 207t-19 328q0 202 27 333t82 206.5t137.5 105t193.5 29.5q33 0 67 -4t65 -11.5t56.5 -17.5t41.5 -21v-118q-13 8 -36 18.5t-53 19.5t-64.5 15.5t-70.5 6.5q-54 0 -98 -9t-79 -32.5t-61 -63.5t-43.5 -102.5t-26 -150
t-8.5 -204.5q0 -174 13.5 -284t46 -172t86.5 -85t136 -23q54 0 98 8.5t76 19.5v496h-248v108h372v-678q-18 -10 -50.5 -21t-73 -20.5t-85 -16t-87.5 -6.5zM296 1538h440v-98h-440v98z" />
    <glyph glyph-name="uni1E24" unicode="&#x1e24;" horiz-adv-x="1028" 
d="M742 614h-456v-614h-124v1300h124v-578h456v578h124v-1300h-124v614zM438 -192q0 36 19 56t57 20t57 -20t19 -56q0 -35 -19 -54.5t-57 -19.5t-57 19.5t-19 54.5z" />
    <glyph glyph-name="uni1E2A" unicode="&#x1e2a;" horiz-adv-x="1028" 
d="M742 614h-456v-614h-124v1300h124v-578h456v578h124v-1300h-124v614zM336 -80q6 -8 19.5 -21.5t35.5 -27t52.5 -23.5t70.5 -10t70.5 10t52.5 23.5t35.5 27t19.5 21.5l40 -64q-5 -13 -21.5 -34t-43.5 -41.5t-65.5 -35.5t-87.5 -15q-50 0 -88 15t-65 35.5t-43.5 41.5
t-21.5 34z" />
    <glyph glyph-name="uni01CF" unicode="&#x1cf;" horiz-adv-x="448" 
d="M162 1300h124v-1300h-124v1300zM20 1592l204 -76l204 76v-80l-204 -116l-204 116v80z" />
    <glyph glyph-name="uni1EC8" unicode="&#x1ec8;" horiz-adv-x="448" 
d="M162 1300h124v-1300h-124v1300zM166 1376q11 10 25.5 26t27 35.5t21 41t8.5 41.5q0 52 -64 52q-21 0 -39 -5t-27 -11v78q15 9 41 14.5t55 5.5q65 0 102.5 -31t37.5 -81q0 -26 -9.5 -50.5t-24 -46t-32.5 -39t-34 -30.5h-88z" />
    <glyph glyph-name="uni1ECA" unicode="&#x1eca;" horiz-adv-x="448" 
d="M162 1300h124v-1300h-124v1300zM148 -192q0 36 19 56t57 20t57 -20t19 -56q0 -35 -19 -54.5t-57 -19.5t-57 19.5t-19 54.5z" />
    <glyph glyph-name="uni1E32" unicode="&#x1e32;" horiz-adv-x="894" 
d="M162 1300h124v-608l436 608h146l-464 -636l490 -664h-156l-452 626v-626h-124v1300zM426 -192q0 36 19 56t57 20t57 -20t19 -56q0 -35 -19 -54.5t-57 -19.5t-57 19.5t-19 54.5z" />
    <glyph glyph-name="uni1E36" unicode="&#x1e36;" horiz-adv-x="720" 
d="M162 1300h124v-1192h408v-108h-532v1300zM352 -192q0 36 19 56t57 20t57 -20t19 -56q0 -35 -19 -54.5t-57 -19.5t-57 19.5t-19 54.5z" />
    <glyph glyph-name="uni1E38" unicode="&#x1e38;" horiz-adv-x="720" 
d="M162 1300h124v-1192h408v-108h-532v1300zM4 1538h440v-98h-440v98zM352 -192q0 36 19 56t57 20t57 -20t19 -56q0 -35 -19 -54.5t-57 -19.5t-57 19.5t-19 54.5z" />
    <glyph glyph-name="uni1E3A" unicode="&#x1e3a;" horiz-adv-x="720" 
d="M162 1300h124v-1192h408v-108h-532v1300zM208 -138h440v-98h-440v98z" />
    <glyph glyph-name="uni1E42" unicode="&#x1e42;" horiz-adv-x="1190" 
d="M162 1300h152l282 -734l284 734h150v-1300h-118v754q0 112 4 208t10 168l-278 -722h-106l-276 720q5 -72 9.5 -167t4.5 -207v-754h-118v1300zM518 -192q0 36 19 56t57 20t57 -20t19 -56q0 -35 -19 -54.5t-57 -19.5t-57 19.5t-19 54.5z" />
    <glyph glyph-name="uni1E40" unicode="&#x1e40;" horiz-adv-x="1190" 
d="M162 1300h152l282 -734l284 734h150v-1300h-118v754q0 112 4 208t10 168l-278 -722h-106l-276 720q5 -72 9.5 -167t4.5 -207v-754h-118v1300zM594 1412q-38 0 -57 20t-19 56q0 74 76 74q38 0 57 -19.5t19 -54.5q0 -36 -19 -56t-57 -20z" />
    <glyph glyph-name="uni1E3E" unicode="&#x1e3e;" horiz-adv-x="1190" 
d="M162 1300h152l282 -734l284 734h150v-1300h-118v754q0 112 4 208t10 168l-278 -722h-106l-276 720q5 -72 9.5 -167t4.5 -207v-754h-118v1300zM632 1582h152l-158 -176h-110z" />
    <glyph glyph-name="uni1E44" unicode="&#x1e44;" horiz-adv-x="1032" 
d="M162 1300h142l464 -1114q-6 66 -10 146.5t-4 163.5v804h118v-1300h-144l-466 1114q8 -66 13 -147.5t5 -162.5v-804h-118v1300zM516 1412q-38 0 -57 20t-19 56q0 74 76 74q38 0 57 -19.5t19 -54.5q0 -36 -19 -56t-57 -20z" />
    <glyph glyph-name="uni1E46" unicode="&#x1e46;" horiz-adv-x="1032" 
d="M162 1300h142l464 -1114q-6 66 -10 146.5t-4 163.5v804h118v-1300h-144l-466 1114q8 -66 13 -147.5t5 -162.5v-804h-118v1300zM440 -192q0 36 19 56t57 20t57 -20t19 -56q0 -35 -19 -54.5t-57 -19.5t-57 19.5t-19 54.5z" />
    <glyph glyph-name="uni1E48" unicode="&#x1e48;" horiz-adv-x="1032" 
d="M162 1300h142l464 -1114q-6 66 -10 146.5t-4 163.5v804h118v-1300h-144l-466 1114q8 -66 13 -147.5t5 -162.5v-804h-118v1300zM296 -138h440v-98h-440v98z" />
    <glyph glyph-name="uni01F8" unicode="&#x1f8;" horiz-adv-x="1032" 
d="M162 1300h142l464 -1114q-6 66 -10 146.5t-4 163.5v804h118v-1300h-144l-466 1114q8 -66 13 -147.5t5 -162.5v-804h-118v1300zM326 1582h152l116 -176h-110z" />
    <glyph glyph-name="uni01D1" unicode="&#x1d1;" horiz-adv-x="968" 
d="M484 -24q-103 0 -174.5 31t-116.5 108t-65 207t-20 328q0 196 21 325.5t66 207t116.5 109.5t172.5 32q103 0 174.5 -31t116.5 -108t65 -207t20 -328q0 -197 -21 -326.5t-66 -207t-116.5 -109t-172.5 -31.5zM484 86q70 0 117.5 25.5t76 89.5t40.5 173t12 276t-12 276
t-40.5 173t-76 89.5t-117.5 25.5q-71 0 -118 -25.5t-75.5 -89.5t-40.5 -173t-12 -276t12 -276t40.5 -173t75.5 -89.5t118 -25.5zM280 1592l204 -76l204 76v-80l-204 -116l-204 116v80z" />
    <glyph glyph-name="uni1ECC" unicode="&#x1ecc;" horiz-adv-x="968" 
d="M484 -24q-103 0 -174.5 31t-116.5 108t-65 207t-20 328q0 196 21 325.5t66 207t116.5 109.5t172.5 32q103 0 174.5 -31t116.5 -108t65 -207t20 -328q0 -197 -21 -326.5t-66 -207t-116.5 -109t-172.5 -31.5zM484 86q70 0 117.5 25.5t76 89.5t40.5 173t12 276t-12 276
t-40.5 173t-76 89.5t-117.5 25.5q-71 0 -118 -25.5t-75.5 -89.5t-40.5 -173t-12 -276t12 -276t40.5 -173t75.5 -89.5t118 -25.5zM408 -192q0 36 19 56t57 20t57 -20t19 -56q0 -35 -19 -54.5t-57 -19.5t-57 19.5t-19 54.5z" />
    <glyph glyph-name="uni1ECE" unicode="&#x1ece;" horiz-adv-x="968" 
d="M484 -24q-103 0 -174.5 31t-116.5 108t-65 207t-20 328q0 196 21 325.5t66 207t116.5 109.5t172.5 32q103 0 174.5 -31t116.5 -108t65 -207t20 -328q0 -197 -21 -326.5t-66 -207t-116.5 -109t-172.5 -31.5zM484 86q70 0 117.5 25.5t76 89.5t40.5 173t12 276t-12 276
t-40.5 173t-76 89.5t-117.5 25.5q-71 0 -118 -25.5t-75.5 -89.5t-40.5 -173t-12 -276t12 -276t40.5 -173t75.5 -89.5t118 -25.5zM426 1376q11 10 25.5 26t27 35.5t21 41t8.5 41.5q0 52 -64 52q-21 0 -39 -5t-27 -11v78q15 9 41 14.5t55 5.5q65 0 102.5 -31t37.5 -81
q0 -26 -9.5 -50.5t-24 -46t-32.5 -39t-34 -30.5h-88z" />
    <glyph glyph-name="uni1ED0" unicode="&#x1ed0;" horiz-adv-x="968" 
d="M484 -24q-103 0 -174.5 31t-116.5 108t-65 207t-20 328q0 196 21 325.5t66 207t116.5 109.5t172.5 32q103 0 174.5 -31t116.5 -108t65 -207t20 -328q0 -197 -21 -326.5t-66 -207t-116.5 -109t-172.5 -31.5zM484 86q70 0 117.5 25.5t76 89.5t40.5 173t12 276t-12 276
t-40.5 173t-76 89.5t-117.5 25.5q-71 0 -118 -25.5t-75.5 -89.5t-40.5 -173t-12 -276t12 -276t40.5 -173t75.5 -89.5t118 -25.5zM282 1458l202 116l202 -116v-76l-202 74l-202 -74v76zM650 1750h146l-152 -174h-102z" />
    <glyph glyph-name="uni1ED2" unicode="&#x1ed2;" horiz-adv-x="968" 
d="M484 -24q-103 0 -174.5 31t-116.5 108t-65 207t-20 328q0 196 21 325.5t66 207t116.5 109.5t172.5 32q103 0 174.5 -31t116.5 -108t65 -207t20 -328q0 -197 -21 -326.5t-66 -207t-116.5 -109t-172.5 -31.5zM484 86q70 0 117.5 25.5t76 89.5t40.5 173t12 276t-12 276
t-40.5 173t-76 89.5t-117.5 25.5q-71 0 -118 -25.5t-75.5 -89.5t-40.5 -173t-12 -276t12 -276t40.5 -173t75.5 -89.5t118 -25.5zM282 1458l202 116l202 -116v-76l-202 74l-202 -74v76zM172 1750h146l108 -174h-102z" />
    <glyph glyph-name="uni1ED4" unicode="&#x1ed4;" horiz-adv-x="968" 
d="M484 -24q-103 0 -174.5 31t-116.5 108t-65 207t-20 328q0 196 21 325.5t66 207t116.5 109.5t172.5 32q103 0 174.5 -31t116.5 -108t65 -207t20 -328q0 -197 -21 -326.5t-66 -207t-116.5 -109t-172.5 -31.5zM484 86q70 0 117.5 25.5t76 89.5t40.5 173t12 276t-12 276
t-40.5 173t-76 89.5t-117.5 25.5q-71 0 -118 -25.5t-75.5 -89.5t-40.5 -173t-12 -276t12 -276t40.5 -173t75.5 -89.5t118 -25.5zM282 1456l202 116l202 -116v-76l-202 74l-202 -74v76zM584 1548q11 9 25.5 24.5t27 35t21 40t8.5 40.5q0 50 -64 50q-23 0 -40 -4.5t-26 -9.5
v76q15 8 41 13t55 5q65 0 102.5 -30t37.5 -78q0 -26 -9.5 -50t-24 -45t-32.5 -38.5t-34 -28.5h-88z" />
    <glyph glyph-name="uni1ED6" unicode="&#x1ed6;" horiz-adv-x="968" 
d="M484 -24q-103 0 -174.5 31t-116.5 108t-65 207t-20 328q0 196 21 325.5t66 207t116.5 109.5t172.5 32q103 0 174.5 -31t116.5 -108t65 -207t20 -328q0 -197 -21 -326.5t-66 -207t-116.5 -109t-172.5 -31.5zM484 86q70 0 117.5 25.5t76 89.5t40.5 173t12 276t-12 276
t-40.5 173t-76 89.5t-117.5 25.5q-71 0 -118 -25.5t-75.5 -89.5t-40.5 -173t-12 -276t12 -276t40.5 -173t75.5 -89.5t118 -25.5zM282 1456l202 114l202 -114v-74l-202 72l-202 -72v74zM278 1698q15 18 46 36t72 18q34 0 58.5 -9.5t45.5 -21.5t41.5 -21.5t46.5 -9.5
q33 0 59 15.5t43 32.5v-86q-15 -18 -46 -36t-72 -18q-35 0 -59 9.5t-45 21.5t-41.5 21.5t-46.5 9.5q-33 0 -59 -14.5t-43 -31.5v84z" />
    <glyph glyph-name="uni1ED8" unicode="&#x1ed8;" horiz-adv-x="968" 
d="M484 -24q-103 0 -174.5 31t-116.5 108t-65 207t-20 328q0 196 21 325.5t66 207t116.5 109.5t172.5 32q103 0 174.5 -31t116.5 -108t65 -207t20 -328q0 -197 -21 -326.5t-66 -207t-116.5 -109t-172.5 -31.5zM484 86q70 0 117.5 25.5t76 89.5t40.5 173t12 276t-12 276
t-40.5 173t-76 89.5t-117.5 25.5q-71 0 -118 -25.5t-75.5 -89.5t-40.5 -173t-12 -276t12 -276t40.5 -173t75.5 -89.5t118 -25.5zM280 1476l204 116l204 -116v-80l-204 76l-204 -76v80zM408 -192q0 36 19 56t57 20t57 -20t19 -56q0 -35 -19 -54.5t-57 -19.5t-57 19.5
t-19 54.5z" />
    <glyph glyph-name="uni022E" unicode="&#x22e;" horiz-adv-x="968" 
d="M484 -24q-103 0 -174.5 31t-116.5 108t-65 207t-20 328q0 196 21 325.5t66 207t116.5 109.5t172.5 32q103 0 174.5 -31t116.5 -108t65 -207t20 -328q0 -197 -21 -326.5t-66 -207t-116.5 -109t-172.5 -31.5zM484 86q70 0 117.5 25.5t76 89.5t40.5 173t12 276t-12 276
t-40.5 173t-76 89.5t-117.5 25.5q-71 0 -118 -25.5t-75.5 -89.5t-40.5 -173t-12 -276t12 -276t40.5 -173t75.5 -89.5t118 -25.5zM484 1412q-38 0 -57 20t-19 56q0 74 76 74q38 0 57 -19.5t19 -54.5q0 -36 -19 -56t-57 -20z" />
    <glyph glyph-name="uni01A0" unicode="&#x1a0;" horiz-adv-x="968" 
d="M658 1300q51 0 73.5 23.5t22.5 64.5q0 21 -4.5 39t-7.5 29h110q6 -15 8 -31t2 -33q0 -68 -34 -105t-94 -49q34 -35 58 -87.5t39 -124.5t22 -165.5t7 -210.5q0 -197 -21 -326.5t-66 -207t-116.5 -109t-172.5 -31.5q-103 0 -174.5 31.5t-116.5 108.5t-65 207t-20 327
q0 196 21 326t66 207.5t116.5 109t172.5 31.5q90 0 156 -24h18zM484 86q70 0 117.5 25.5t76 89.5t40.5 173t12 276t-12 276t-40.5 173t-76 89.5t-117.5 25.5q-71 0 -118 -25.5t-75.5 -89.5t-40.5 -173t-12 -276t12 -276t40.5 -173t75.5 -89.5t118 -25.5z" />
    <glyph glyph-name="uni1EDA" unicode="&#x1eda;" horiz-adv-x="968" 
d="M658 1300q51 0 73.5 23.5t22.5 64.5q0 21 -4.5 39t-7.5 29h110q6 -15 8 -31t2 -33q0 -68 -34 -105t-94 -49q34 -35 58 -87.5t39 -124.5t22 -165.5t7 -210.5q0 -197 -21 -326.5t-66 -207t-116.5 -109t-172.5 -31.5q-103 0 -174.5 31.5t-116.5 108.5t-65 207t-20 327
q0 196 21 326t66 207.5t116.5 109t172.5 31.5q90 0 156 -24h18zM484 86q70 0 117.5 25.5t76 89.5t40.5 173t12 276t-12 276t-40.5 173t-76 89.5t-117.5 25.5q-71 0 -118 -25.5t-75.5 -89.5t-40.5 -173t-12 -276t12 -276t40.5 -173t75.5 -89.5t118 -25.5zM522 1582h152
l-158 -176h-110z" />
    <glyph glyph-name="uni1EDC" unicode="&#x1edc;" horiz-adv-x="968" 
d="M658 1300q51 0 73.5 23.5t22.5 64.5q0 21 -4.5 39t-7.5 29h110q6 -15 8 -31t2 -33q0 -68 -34 -105t-94 -49q34 -35 58 -87.5t39 -124.5t22 -165.5t7 -210.5q0 -197 -21 -326.5t-66 -207t-116.5 -109t-172.5 -31.5q-103 0 -174.5 31.5t-116.5 108.5t-65 207t-20 327
q0 196 21 326t66 207.5t116.5 109t172.5 31.5q90 0 156 -24h18zM484 86q70 0 117.5 25.5t76 89.5t40.5 173t12 276t-12 276t-40.5 173t-76 89.5t-117.5 25.5q-71 0 -118 -25.5t-75.5 -89.5t-40.5 -173t-12 -276t12 -276t40.5 -173t75.5 -89.5t118 -25.5zM294 1582h152
l116 -176h-110z" />
    <glyph glyph-name="uni1EDE" unicode="&#x1ede;" horiz-adv-x="968" 
d="M658 1300q51 0 73.5 23.5t22.5 64.5q0 21 -4.5 39t-7.5 29h110q6 -15 8 -31t2 -33q0 -68 -34 -105t-94 -49q34 -35 58 -87.5t39 -124.5t22 -165.5t7 -210.5q0 -197 -21 -326.5t-66 -207t-116.5 -109t-172.5 -31.5q-103 0 -174.5 31.5t-116.5 108.5t-65 207t-20 327
q0 196 21 326t66 207.5t116.5 109t172.5 31.5q90 0 156 -24h18zM484 86q70 0 117.5 25.5t76 89.5t40.5 173t12 276t-12 276t-40.5 173t-76 89.5t-117.5 25.5q-71 0 -118 -25.5t-75.5 -89.5t-40.5 -173t-12 -276t12 -276t40.5 -173t75.5 -89.5t118 -25.5zM426 1376
q11 10 25.5 26t27 35.5t21 41t8.5 41.5q0 52 -64 52q-21 0 -39 -5t-27 -11v78q15 9 41 14.5t55 5.5q65 0 102.5 -31t37.5 -81q0 -26 -9.5 -50.5t-24 -46t-32.5 -39t-34 -30.5h-88z" />
    <glyph glyph-name="uni1EE0" unicode="&#x1ee0;" horiz-adv-x="968" 
d="M566 1408q-33 0 -56.5 10.5t-43 22.5t-39.5 22.5t-45 10.5q-30 0 -54.5 -14.5t-41.5 -31.5v88q15 20 44.5 38t67.5 18q33 0 56.5 -10.5t43 -22.5t39 -22.5t45.5 -10.5q30 0 54.5 14.5t41.5 31.5v-88q-15 -18 -44.5 -37t-67.5 -19zM658 1300q51 0 73.5 23.5t22.5 64.5
q0 21 -4.5 39t-7.5 29h110q6 -15 8 -31t2 -33q0 -68 -34 -105t-94 -49q34 -35 58 -87.5t39 -124.5t22 -165.5t7 -210.5q0 -197 -21 -326.5t-66 -207t-116.5 -109t-172.5 -31.5q-103 0 -174.5 31.5t-116.5 108.5t-65 207t-20 327q0 196 21 326t66 207.5t116.5 109t172.5 31.5
q90 0 156 -24h18zM484 86q70 0 117.5 25.5t76 89.5t40.5 173t12 276t-12 276t-40.5 173t-76 89.5t-117.5 25.5q-71 0 -118 -25.5t-75.5 -89.5t-40.5 -173t-12 -276t12 -276t40.5 -173t75.5 -89.5t118 -25.5z" />
    <glyph glyph-name="uni1EE2" unicode="&#x1ee2;" horiz-adv-x="968" 
d="M658 1300q51 0 73.5 23.5t22.5 64.5q0 21 -4.5 39t-7.5 29h110q6 -15 8 -31t2 -33q0 -68 -34 -105t-94 -49q34 -35 58 -87.5t39 -124.5t22 -165.5t7 -210.5q0 -197 -21 -326.5t-66 -207t-116.5 -109t-172.5 -31.5q-103 0 -174.5 31.5t-116.5 108.5t-65 207t-20 327
q0 196 21 326t66 207.5t116.5 109t172.5 31.5q90 0 156 -24h18zM484 86q70 0 117.5 25.5t76 89.5t40.5 173t12 276t-12 276t-40.5 173t-76 89.5t-117.5 25.5q-71 0 -118 -25.5t-75.5 -89.5t-40.5 -173t-12 -276t12 -276t40.5 -173t75.5 -89.5t118 -25.5zM408 -192
q0 36 19 56t57 20t57 -20t19 -56q0 -35 -19 -54.5t-57 -19.5t-57 19.5t-19 54.5z" />
    <glyph glyph-name="uni01EA" unicode="&#x1ea;" horiz-adv-x="968" 
d="M586 -278q-17 -8 -42.5 -14t-55.5 -6q-63 0 -100.5 25t-37.5 75q0 29 11 55t29 48t39.5 39.5t42.5 31.5q-96 1 -165 32.5t-113 109t-65 207.5t-21 327q0 196 20.5 325.5t65.5 206.5t117 108.5t175 31.5q102 0 173 -31.5t116 -109t65 -208t20 -327.5q0 -141 -9.5 -240
t-26.5 -166.5t-41.5 -109.5t-54.5 -69.5t-65.5 -46.5t-74.5 -40q-20 -11 -43.5 -25.5t-43 -31.5t-32.5 -37.5t-13 -43.5q0 -29 18.5 -38.5t45.5 -9.5q21 0 39 3t27 5v-76zM484 86q70 0 117.5 25.5t76 89.5t40.5 173t12 276t-12 276t-40.5 173t-76 89.5t-117.5 25.5
q-71 0 -118 -25.5t-75.5 -89.5t-40.5 -173t-12 -276t12 -276t40.5 -173t75.5 -89.5t118 -25.5z" />
    <glyph glyph-name="uni1E56" unicode="&#x1e56;" horiz-adv-x="892" 
d="M162 1300h252q93 0 166.5 -18.5t124.5 -64t78 -122.5t27 -193q0 -115 -27.5 -191.5t-79 -123t-125 -66t-164.5 -19.5h-128v-502h-124v1300zM286 1192v-582h110q66 0 118.5 10.5t89.5 42t56.5 88.5t19.5 151q0 93 -19.5 150t-56.5 88t-89.5 41.5t-118.5 10.5h-110z
M450 1412q-38 0 -57 20t-19 56q0 74 76 74q38 0 57 -19.5t19 -54.5q0 -36 -19 -56t-57 -20z" />
    <glyph glyph-name="uni1E5A" unicode="&#x1e5a;" horiz-adv-x="926" 
d="M162 1300h248q92 0 167.5 -17.5t129 -60t82.5 -114t29 -178.5q0 -87 -20.5 -148t-55 -101.5t-79 -64t-91.5 -36.5l282 -580h-140l-262 560h-166v-560h-124v1300zM286 1192v-524h110q66 0 120 9.5t92 37.5t59 79.5t21 135.5t-21 135.5t-59 79.5t-92 37.5t-120 9.5h-110z
M408 -192q0 36 19 56t57 20t57 -20t19 -56q0 -35 -19 -54.5t-57 -19.5t-57 19.5t-19 54.5z" />
    <glyph glyph-name="uni1E5C" unicode="&#x1e5c;" horiz-adv-x="926" 
d="M162 1300h248q92 0 167.5 -17.5t129 -60t82.5 -114t29 -178.5q0 -87 -20.5 -148t-55 -101.5t-79 -64t-91.5 -36.5l282 -580h-140l-262 560h-166v-560h-124v1300zM286 1192v-524h110q66 0 120 9.5t92 37.5t59 79.5t21 135.5t-21 135.5t-59 79.5t-92 37.5t-120 9.5h-110z
M224 1538h440v-98h-440v98zM408 -192q0 36 19 56t57 20t57 -20t19 -56q0 -35 -19 -54.5t-57 -19.5t-57 19.5t-19 54.5z" />
    <glyph glyph-name="uni1E5E" unicode="&#x1e5e;" horiz-adv-x="926" 
d="M162 1300h248q92 0 167.5 -17.5t129 -60t82.5 -114t29 -178.5q0 -87 -20.5 -148t-55 -101.5t-79 -64t-91.5 -36.5l282 -580h-140l-262 560h-166v-560h-124v1300zM286 1192v-524h110q66 0 120 9.5t92 37.5t59 79.5t21 135.5t-21 135.5t-59 79.5t-92 37.5t-120 9.5h-110z
M264 -138h440v-98h-440v98z" />
    <glyph glyph-name="uni1E58" unicode="&#x1e58;" horiz-adv-x="926" 
d="M162 1300h248q92 0 167.5 -17.5t129 -60t82.5 -114t29 -178.5q0 -87 -20.5 -148t-55 -101.5t-79 -64t-91.5 -36.5l282 -580h-140l-262 560h-166v-560h-124v1300zM286 1192v-524h110q66 0 120 9.5t92 37.5t59 79.5t21 135.5t-21 135.5t-59 79.5t-92 37.5t-120 9.5h-110z
M444 1412q-38 0 -57 20t-19 56q0 74 76 74q38 0 57 -19.5t19 -54.5q0 -36 -19 -56t-57 -20z" />
    <glyph glyph-name="uni1E60" unicode="&#x1e60;" horiz-adv-x="728" 
d="M294 -24q-80 0 -136 14t-82 28v118q14 -8 35.5 -16t48.5 -15.5t58 -12t64 -4.5q55 0 100 11t76.5 36t48.5 65t17 98q0 46 -12 82t-33 67.5t-50 60t-63 58.5l-104 88q-39 33 -73.5 67.5t-60 75t-40 90t-14.5 113.5q0 78 25 138.5t71.5 101.5t113.5 62.5t152 21.5
q62 0 112 -12t76 -26v-118q-27 14 -74.5 29t-103.5 15q-55 0 -99 -11t-75.5 -36t-48.5 -65t-17 -98q0 -46 11.5 -82t32.5 -67.5t50 -60t64 -58.5l102 -88q39 -33 73.5 -67.5t60.5 -75t41 -90t15 -113.5q0 -78 -25 -138.5t-71.5 -101.5t-113.5 -62.5t-152 -21.5zM370 1412
q-38 0 -57 20t-19 56q0 74 76 74q38 0 57 -19.5t19 -54.5q0 -36 -19 -56t-57 -20z" />
    <glyph glyph-name="uni1E62" unicode="&#x1e62;" horiz-adv-x="728" 
d="M294 -24q-80 0 -136 14t-82 28v118q14 -8 35.5 -16t48.5 -15.5t58 -12t64 -4.5q55 0 100 11t76.5 36t48.5 65t17 98q0 46 -12 82t-33 67.5t-50 60t-63 58.5l-104 88q-39 33 -73.5 67.5t-60 75t-40 90t-14.5 113.5q0 78 25 138.5t71.5 101.5t113.5 62.5t152 21.5
q62 0 112 -12t76 -26v-118q-27 14 -74.5 29t-103.5 15q-55 0 -99 -11t-75.5 -36t-48.5 -65t-17 -98q0 -46 11.5 -82t32.5 -67.5t50 -60t64 -58.5l102 -88q39 -33 73.5 -67.5t60.5 -75t41 -90t15 -113.5q0 -78 -25 -138.5t-71.5 -101.5t-113.5 -62.5t-152 -21.5zM248 -192
q0 36 19 56t57 20t57 -20t19 -56q0 -35 -19 -54.5t-57 -19.5t-57 19.5t-19 54.5z" />
    <glyph glyph-name="uni1E6C" unicode="&#x1e6c;" horiz-adv-x="718" 
d="M12 1300h694v-108h-284v-1192h-126v1192h-284v108zM284 -192q0 36 19 56t57 20t57 -20t19 -56q0 -35 -19 -54.5t-57 -19.5t-57 19.5t-19 54.5z" />
    <glyph glyph-name="uni1E6E" unicode="&#x1e6e;" horiz-adv-x="718" 
d="M12 1300h694v-108h-284v-1192h-126v1192h-284v108zM140 -138h440v-98h-440v98z" />
    <glyph glyph-name="uni01D3" unicode="&#x1d3;" horiz-adv-x="1012" 
d="M506 -24q-90 0 -156.5 21.5t-110.5 69.5t-65.5 125.5t-21.5 189.5v918h124v-908q0 -87 13 -145.5t41 -94.5t71.5 -51t104.5 -15t104.5 15t71.5 51t41 94.5t13 145.5v908h124v-918q0 -110 -22 -187.5t-66.5 -126t-111 -70.5t-154.5 -22zM302 1592l204 -76l204 76v-80
l-204 -116l-204 116v80z" />
    <glyph glyph-name="uni01D5" unicode="&#x1d5;" horiz-adv-x="1012" 
d="M506 -24q-90 0 -156.5 21.5t-110.5 69.5t-65.5 125.5t-21.5 189.5v918h124v-908q0 -87 13 -145.5t41 -94.5t71.5 -51t104.5 -15t104.5 15t71.5 51t41 94.5t13 145.5v908h124v-918q0 -110 -22 -187.5t-66.5 -126t-111 -70.5t-154.5 -22zM348 1394q-36 0 -55 20t-19 52
q0 33 19 53.5t55 20.5q35 0 53.5 -20.5t18.5 -53.5q0 -32 -18.5 -52t-53.5 -20zM664 1394q-35 0 -53.5 20t-18.5 52q0 33 18.5 53.5t53.5 20.5q36 0 55 -20.5t19 -53.5q0 -32 -19 -52t-55 -20zM288 1706h436v-94h-436v94z" />
    <glyph glyph-name="uni01D7" unicode="&#x1d7;" horiz-adv-x="1012" 
d="M506 -24q-90 0 -156.5 21.5t-110.5 69.5t-65.5 125.5t-21.5 189.5v918h124v-908q0 -87 13 -145.5t41 -94.5t71.5 -51t104.5 -15t104.5 15t71.5 51t41 94.5t13 145.5v908h124v-918q0 -110 -22 -187.5t-66.5 -126t-111 -70.5t-154.5 -22zM348 1394q-36 0 -55 20t-19 52
q0 33 19 53.5t55 20.5q35 0 53.5 -20.5t18.5 -53.5q0 -32 -18.5 -52t-53.5 -20zM664 1394q-35 0 -53.5 20t-18.5 52q0 33 18.5 53.5t53.5 20.5q36 0 55 -20.5t19 -53.5q0 -32 -19 -52t-55 -20zM546 1750h144l-150 -174h-104z" />
    <glyph glyph-name="uni01D9" unicode="&#x1d9;" horiz-adv-x="1012" 
d="M506 -24q-90 0 -156.5 21.5t-110.5 69.5t-65.5 125.5t-21.5 189.5v918h124v-908q0 -87 13 -145.5t41 -94.5t71.5 -51t104.5 -15t104.5 15t71.5 51t41 94.5t13 145.5v908h124v-918q0 -110 -22 -187.5t-66.5 -126t-111 -70.5t-154.5 -22zM348 1394q-36 0 -55 20t-19 52
q0 33 19 53.5t55 20.5q35 0 53.5 -20.5t18.5 -53.5q0 -32 -18.5 -52t-53.5 -20zM664 1394q-35 0 -53.5 20t-18.5 52q0 33 18.5 53.5t53.5 20.5q36 0 55 -20.5t19 -53.5q0 -32 -19 -52t-55 -20zM306 1760l200 -76l200 76v-78l-200 -116l-200 116v78z" />
    <glyph glyph-name="uni01DB" unicode="&#x1db;" horiz-adv-x="1012" 
d="M506 -24q-90 0 -156.5 21.5t-110.5 69.5t-65.5 125.5t-21.5 189.5v918h124v-908q0 -87 13 -145.5t41 -94.5t71.5 -51t104.5 -15t104.5 15t71.5 51t41 94.5t13 145.5v908h124v-918q0 -110 -22 -187.5t-66.5 -126t-111 -70.5t-154.5 -22zM348 1394q-36 0 -55 20t-19 52
q0 33 19 53.5t55 20.5q35 0 53.5 -20.5t18.5 -53.5q0 -32 -18.5 -52t-53.5 -20zM664 1394q-35 0 -53.5 20t-18.5 52q0 33 18.5 53.5t53.5 20.5q36 0 55 -20.5t19 -53.5q0 -32 -19 -52t-55 -20zM322 1750h144l110 -174h-104z" />
    <glyph glyph-name="uni1EE4" unicode="&#x1ee4;" horiz-adv-x="1012" 
d="M506 -24q-90 0 -156.5 21.5t-110.5 69.5t-65.5 125.5t-21.5 189.5v918h124v-908q0 -87 13 -145.5t41 -94.5t71.5 -51t104.5 -15t104.5 15t71.5 51t41 94.5t13 145.5v908h124v-918q0 -110 -22 -187.5t-66.5 -126t-111 -70.5t-154.5 -22zM430 -192q0 36 19 56t57 20t57 -20
t19 -56q0 -35 -19 -54.5t-57 -19.5t-57 19.5t-19 54.5z" />
    <glyph glyph-name="uni1EE6" unicode="&#x1ee6;" horiz-adv-x="1012" 
d="M506 -24q-90 0 -156.5 21.5t-110.5 69.5t-65.5 125.5t-21.5 189.5v918h124v-908q0 -87 13 -145.5t41 -94.5t71.5 -51t104.5 -15t104.5 15t71.5 51t41 94.5t13 145.5v908h124v-918q0 -110 -22 -187.5t-66.5 -126t-111 -70.5t-154.5 -22zM448 1376q11 10 25.5 26t27 35.5
t21 41t8.5 41.5q0 52 -64 52q-21 0 -39 -5t-27 -11v78q15 9 41 14.5t55 5.5q65 0 102.5 -31t37.5 -81q0 -26 -9.5 -50.5t-24 -46t-32.5 -39t-34 -30.5h-88z" />
    </font>
</defs>
</svg>
